<svg width="24" height="26" viewBox="0 0 24 26" fill="none" xmlns="http://www.w3.org/2000/svg">
<g clip-path="url(#clip0_2470_742)">
<path d="M22.937 7.53103C22.8156 7.29195 22.2998 6.81379 21.1469 6.33563V5.85747C21.1469 4.54253 19.736 3.34713 18.4617 3.22759C18.3403 3.22759 18.2038 3.10805 18.2038 2.98851C17.8245 2.15172 16.9294 1.55402 15.8978 1.55402C15.6399 1.55402 15.382 1.67356 15.2607 1.67356C15.1393 1.7931 15.0027 1.67356 14.8814 1.55402C14.3656 0.597701 13.2126 0 12.0596 0C10.6488 0 9.4958 0.836782 8.97999 1.91264C8.85863 2.15172 8.60073 2.27126 8.46419 2.15172C8.20629 2.15172 7.94839 2.03218 7.56912 2.03218C6.41615 2.03218 5.52108 2.74943 5.14181 3.70575C5.02045 3.82529 4.88391 3.94483 4.76255 3.94483C3.60958 3.94483 2.97241 4.90115 2.83587 6.09655C0.78783 6.69425 0.272028 7.41149 0.150662 7.77011C0.0292969 7.77011 0.0292969 7.88966 0.0292969 8.0092C0.150662 14.2253 5.27835 19.6195 11.559 19.3805C17.961 19.3805 23.0887 14.0012 23.0887 7.77011C23.0887 7.77011 22.9674 7.65057 22.9674 7.53103H22.937ZM11.8169 10.8483C6.82576 10.8483 2.85104 9.77241 2.85104 8.45747C2.85104 7.97931 3.23031 7.62069 3.88265 7.26207C4.00401 7.26207 4.00401 7.14253 4.00401 7.02299V6.90345C4.00401 5.70805 4.51982 5.11034 5.67279 5.11034C5.93069 5.11034 6.05205 4.9908 6.05205 4.87126C6.43132 3.91494 7.20502 3.31724 8.23663 3.31724C8.49453 3.31724 8.75243 3.31724 9.01033 3.43678C9.1317 3.55632 9.26824 3.43678 9.3896 3.31724C9.9054 2.24138 10.9218 1.4046 12.0748 1.4046C13.1064 1.4046 14.0015 2.12184 14.5173 2.95862C14.6387 3.07816 14.7752 3.07816 14.8966 3.07816H15.4124C16.3074 3.07816 17.0811 3.55632 17.4604 4.27356C17.4604 4.27356 17.5818 4.3931 17.7183 4.3931C18.8713 4.51264 19.9029 5.11034 19.9029 6.30575C19.9029 6.54483 19.9029 6.78391 19.7815 7.02299C19.7815 7.14253 19.7815 7.26207 19.9029 7.38161C20.1608 7.62069 20.54 7.97931 20.54 8.21839C20.54 9.53333 16.5653 10.6092 11.8321 10.8483H11.8169Z" fill="#171E4E"/>
<path d="M23.4389 23.4297L0.91047 23.5642C0.591886 23.5642 0.333984 23.4447 0.333984 23.1608C0.333984 22.8768 0.591886 22.7125 0.895299 22.6975L23.4086 22.0699C23.7272 22.0699 23.9851 22.309 24.0002 22.6079V22.8918C24.0002 23.1906 23.7575 23.4447 23.4389 23.4447V23.4297Z" fill="#171E4E"/>
<path d="M23.394 25.3276L0.865548 24.8793C0.546964 24.8793 0.289062 24.7448 0.289062 24.4609C0.289062 24.177 0.546964 24.0126 0.865548 24.0126L23.394 23.9529C23.7126 23.9529 23.9705 24.2069 23.9705 24.5058V24.7897C23.9705 25.0885 23.6974 25.3276 23.394 25.3276Z" fill="#171E4E"/>
<path d="M5.65687 21.3081H4.77697C4.26588 21.3081 3.85156 21.7162 3.85156 22.2196V25.1035C3.85156 25.6069 4.26588 26.015 4.77697 26.015H5.65687C6.16796 26.015 6.58228 25.6069 6.58228 25.1035V22.2196C6.58228 21.7162 6.16796 21.3081 5.65687 21.3081Z" fill="#171E4E"/>
</g>
<defs>
<clipPath id="clip0_2470_742">
<rect width="24" height="26" fill="white"/>
</clipPath>
</defs>
</svg>
