<svg width="19" height="26" viewBox="0 0 19 26" fill="none" xmlns="http://www.w3.org/2000/svg">
<g clip-path="url(#clip0_2470_970)">
<path d="M9.50211 25.5667C9.22466 25.5667 8.94721 25.496 8.69896 25.3499L1.60208 21.6498C1.10559 21.3576 0.833008 20.8862 0.833008 20.363C0.833008 19.8398 1.11046 19.3638 1.57287 19.0951L3.93363 17.7942C4.01638 17.7471 4.12347 17.7612 4.19161 17.8319L4.92661 18.5861C5.0191 18.6803 4.99476 18.8359 4.87794 18.9019L2.31761 20.3159C2.31761 20.3159 2.29814 20.33 2.29814 20.3678C2.29814 20.4055 2.32248 20.4243 2.33221 20.429L9.4291 24.1291C9.48751 24.1621 9.51671 24.1621 9.54105 24.148L16.6963 20.4149C16.6963 20.4149 16.7061 20.4055 16.7061 20.3678C16.7061 20.3253 16.6817 20.3112 16.672 20.3065L14.2382 19.0386C14.1214 18.9773 14.0922 18.8312 14.1701 18.7322L14.8223 17.9262C14.8856 17.846 14.9976 17.8272 15.0901 17.8743L17.3973 19.0763C17.8938 19.3638 18.1663 19.8398 18.1663 20.363C18.1663 20.8862 17.8889 21.3623 17.4265 21.6357L10.2614 25.3688C10.0375 25.5007 9.77469 25.5667 9.50698 25.5667H9.50211Z" fill="#171E4E"/>
<path d="M9.54837 0.43335C5.11279 0.43335 1.51953 3.57145 1.51953 8.22383C1.51953 11.4905 3.61316 15.0429 5.66298 17.681C6.89481 19.2667 8.11204 20.5238 8.84725 21.1857C9.24163 21.5429 9.85024 21.5381 10.2446 21.1762C10.9652 20.5095 12.1484 19.2572 13.3607 17.6905C15.4349 15.0095 17.5821 11.4048 17.5821 8.21906C17.5821 3.57145 13.984 0.43335 9.54837 0.43335ZM9.62627 11.9429C7.46447 11.9429 5.71167 10.2286 5.71167 8.1143C5.71167 6.00002 7.46447 4.28573 9.62627 4.28573C11.7881 4.28573 13.5409 6.00002 13.5409 8.1143C13.5409 10.2286 11.7881 11.9429 9.62627 11.9429Z" fill="#171E4E"/>
</g>
<defs>
<clipPath id="clip0_2470_970">
<rect width="17.3333" height="25.1333" fill="white" transform="translate(0.833008 0.43335)"/>
</clipPath>
</defs>
</svg>
