<svg width="29" height="20" viewBox="0 0 29 20" fill="none" xmlns="http://www.w3.org/2000/svg">
<path d="M20.0147 8.35999C19.0647 8.35999 18.3047 9.12998 18.3047 10.07C18.3047 11.01 19.0747 11.78 20.0147 11.78C20.9547 11.78 21.7247 11.01 21.7247 10.07C21.7247 9.12998 20.9547 8.35999 20.0147 8.35999Z" fill="#171E4E"/>
<path d="M24.575 0.579956H4.42504C2.48504 0.579956 0.915039 2.14996 0.915039 4.08996V15.91C0.915039 17.85 2.48504 19.42 4.42504 19.42H24.575C26.515 19.42 28.085 17.85 28.085 15.91V4.08996C28.085 2.14996 26.515 0.579956 24.575 0.579956ZM3.77504 5.28996C3.89504 5.13996 4.01504 4.97996 4.09504 4.78996C4.17504 4.59996 4.20504 4.38996 4.22504 4.19996C4.25504 3.98996 4.28504 3.77996 4.36504 3.69996C4.45504 3.61996 4.66504 3.58996 4.86504 3.55996C5.06504 3.52996 5.26504 3.50996 5.45504 3.42996C5.64504 3.34996 5.79504 3.22996 5.95504 3.10996C6.12504 2.97996 6.29504 2.84996 6.42504 2.84996C6.55504 2.84996 6.73504 2.97996 6.89504 3.10996C7.04504 3.22996 7.20504 3.34996 7.39504 3.42996C7.58504 3.50996 7.79504 3.53996 7.98504 3.55996C8.19504 3.58996 8.40504 3.61996 8.48504 3.69996C8.56504 3.77996 8.60504 3.99996 8.62504 4.19996C8.65504 4.39996 8.67504 4.59996 8.75504 4.78996C8.83504 4.96996 8.95504 5.12996 9.07504 5.27996C9.20504 5.44996 9.33504 5.61996 9.33504 5.74996C9.33504 5.87996 9.20504 6.05996 9.07504 6.21996C8.95504 6.36996 8.83504 6.52996 8.75504 6.71996C8.67504 6.90996 8.64504 7.11996 8.62504 7.30996C8.62504 7.36996 8.60504 7.41996 8.59504 7.46996H4.71504C4.55504 7.46996 4.39504 7.49996 4.24504 7.52996C4.23504 7.45996 4.21504 7.37996 4.20504 7.29996C4.17504 7.09996 4.15504 6.89996 4.07504 6.70996C3.99504 6.51996 3.87504 6.36996 3.75504 6.20996C3.62504 6.03996 3.49504 5.86996 3.49504 5.73996C3.49504 5.60996 3.62504 5.42996 3.75504 5.26996L3.77504 5.28996ZM12.845 15.72C12.845 16.35 12.335 16.87 11.695 16.87H4.73504C4.10504 16.87 3.58504 16.36 3.58504 15.72V9.38996C3.58504 8.75996 4.09504 8.23996 4.73504 8.23996H11.705C12.335 8.23996 12.855 8.74996 12.855 9.38996V15.72H12.845ZM12.705 6.37996C12.585 6.52996 12.465 6.68996 12.385 6.86996C12.305 7.05996 12.275 7.25996 12.235 7.45996C12.235 7.49996 12.215 7.53996 12.215 7.57996C12.045 7.52996 11.875 7.49996 11.695 7.49996H9.34504C9.34504 7.49996 9.34504 7.45996 9.34504 7.42996C9.36504 7.26996 9.38504 7.11996 9.43504 7.01996C9.47504 6.91996 9.56504 6.80996 9.65504 6.68996C9.83504 6.44996 10.065 6.14996 10.065 5.76996C10.065 5.38996 9.83504 5.08996 9.65504 4.84996C9.56504 4.72996 9.47504 4.61996 9.43504 4.51996C9.39504 4.40996 9.37504 4.26996 9.34504 4.10996C9.31504 3.88996 9.27504 3.63996 9.16504 3.41996C9.26504 3.35996 9.36504 3.28996 9.45504 3.21996C9.63504 3.08996 9.80504 2.95996 9.94504 2.95996C10.085 2.95996 10.255 3.08996 10.435 3.21996C10.595 3.33996 10.755 3.45996 10.945 3.53996C11.145 3.61996 11.345 3.63996 11.545 3.66996C11.755 3.69996 11.975 3.71996 12.065 3.80996C12.155 3.89996 12.195 4.11996 12.225 4.32996C12.255 4.51996 12.285 4.72996 12.375 4.91996C12.455 5.09996 12.575 5.25996 12.695 5.40996C12.835 5.58996 12.965 5.75996 12.965 5.89996C12.965 6.03996 12.835 6.20996 12.695 6.38996L12.705 6.37996ZM25.355 15.18C25.355 16.11 24.605 16.86 23.675 16.86H15.375C15.085 16.86 14.845 16.62 14.845 16.33V3.81996C14.845 3.52996 15.085 3.28996 15.375 3.28996H23.875C24.695 3.28996 25.355 3.94996 25.355 4.76996V15.19V15.18Z" fill="#171E4E"/>
</svg>
