<svg width="24" height="24" viewBox="0 0 24 24" fill="none" xmlns="http://www.w3.org/2000/svg">
<g clip-path="url(#clip0_2822_3463)">
<path d="M19.662 19.2268V21.293H4.64624V19.1996" fill="white"/>
<path d="M19.662 19.2268V21.293H4.64624V19.1996" stroke="#C93A3A" stroke-miterlimit="10" stroke-linejoin="round"/>
<path d="M4.64624 8.56091V2.70685H15.43L19.662 7.02943V8.56091" fill="white"/>
<path d="M4.64624 8.56091V2.70685H15.43L19.662 7.02943V8.56091" stroke="#C93A3A" stroke-miterlimit="10" stroke-linejoin="round"/>
<path d="M15.1401 2.40784V7.26508C15.1401 7.36476 15.2217 7.44632 15.3214 7.44632H19.943L15.1401 2.40784Z" fill="#C93A3A"/>
<path d="M21.5651 9.65747H2.43515C2.33505 9.65747 2.25391 9.73861 2.25391 9.83871V17.9855C2.25391 18.0856 2.33505 18.1667 2.43515 18.1667H21.5651C21.6652 18.1667 21.7463 18.0856 21.7463 17.9855V9.83871C21.7463 9.73861 21.6652 9.65747 21.5651 9.65747Z" fill="#C93A3A"/>
<path d="M8.30723 11.3429C8.02631 11.207 7.7182 11.1345 7.38291 11.1345H5.12646V16.5174H6.33171V14.56H7.38291C7.72726 14.56 8.03537 14.4875 8.30723 14.3515C8.58816 14.2156 8.80565 14.0162 8.9597 13.7625C9.12282 13.5088 9.19531 13.2007 9.19531 12.8472C9.19531 12.4938 9.11375 12.1857 8.9597 11.932C8.79658 11.6782 8.57909 11.4789 8.30723 11.3429ZM7.89038 13.2732C7.81788 13.391 7.72726 13.4816 7.6004 13.536C7.47353 13.5903 7.34666 13.6266 7.20167 13.6266H6.32265V12.077H7.20167C7.34666 12.077 7.48259 12.1042 7.6004 12.1676C7.7182 12.231 7.81788 12.3126 7.89038 12.4304C7.96288 12.5482 7.99913 12.6932 7.99913 12.8563C7.99913 13.0194 7.96288 13.1554 7.89038 13.2732Z" fill="white"/>
<path d="M14.1068 11.8866C13.8531 11.642 13.554 11.4607 13.2097 11.3339C12.8653 11.207 12.4938 11.1436 12.086 11.1436H9.92017V16.5264H12.1041C12.5028 16.5264 12.8744 16.463 13.2187 16.327C13.5631 16.1911 13.8621 16.0099 14.1159 15.7652C14.3696 15.5205 14.569 15.2396 14.714 14.9134C14.859 14.5871 14.9315 14.2246 14.9315 13.835C14.9315 13.4453 14.859 13.0738 14.714 12.7475C14.569 12.4213 14.3696 12.1404 14.1159 11.8957L14.1068 11.8866ZM13.4815 14.7049C13.3456 14.9496 13.1644 15.1399 12.9197 15.2758C12.675 15.4118 12.3941 15.4752 12.0679 15.4752H11.1254V12.1947H12.0679C12.385 12.1947 12.666 12.2582 12.9106 12.3851C13.1553 12.5119 13.3365 12.7022 13.4725 12.9469C13.6084 13.1916 13.6718 13.4816 13.6718 13.8169C13.6718 14.1521 13.6084 14.4512 13.4725 14.6959L13.4815 14.7049Z" fill="white"/>
<path d="M19.5713 12.1767V11.1345H17.0248H16.7439H15.8196V16.5264H17.0248V14.415H19.4444V13.3728H17.0248V12.1767H19.5713Z" fill="white"/>
</g>
<defs>
<clipPath id="clip0_2822_3463">
<rect width="19.4924" height="19.9999" fill="white" transform="translate(2.25391 2)"/>
</clipPath>
</defs>
</svg>
