<svg width="207" height="117" viewBox="0 0 207 117" fill="none" xmlns="http://www.w3.org/2000/svg"><g filter="url(#filter0_d_4_3942)"><path d="M96.8801 81.7097C110.49 81.7097 122.54 88.7097 130 99.4497L189.59 54.4797C170.07 24.4397 135.92 4.13974 96.8801 4.16974C57.8401 4.12974 23.6902 24.4297 4.17017 54.4797L63.7601 99.4497C71.2201 88.7197 83.2701 81.7097 96.8801 81.7097Z" fill="#F8FBFE"/><path d="M96.8792 2.78003C136.413 2.74969 170.992 23.3072 190.756 53.7224C191.154 54.3343 191.01 55.15 190.428 55.5896L130.837 100.559C130.535 100.787 130.154 100.882 129.781 100.822C129.407 100.762 129.074 100.553 128.859 100.243C121.635 89.8433 109.995 83.0994 96.8802 83.0994C83.7657 83.0994 72.1257 89.8525 64.9017 100.243C64.6859 100.553 64.3529 100.762 63.9798 100.822C63.6066 100.882 63.2249 100.787 62.9231 100.559L3.3333 55.5896C2.75083 55.15 2.60673 54.3344 3.00419 53.7224C22.7676 23.2977 57.346 2.74134 96.8792 2.78101V2.78003ZM96.8792 5.55933C58.8037 5.52032 25.4369 25.0771 6.04912 54.156L63.4622 97.4832C71.2076 87.0761 83.2792 80.3201 96.8802 80.3201C110.481 80.3201 122.551 87.0671 130.297 97.4832L187.71 54.156C168.322 25.0871 134.957 5.53007 96.8811 5.55933H96.8792Z" fill="#F8FBFE"/></g><path d="M138.26 12.1599L132.86 17.3199C137.82 19.1499 142.64 21.3599 147.27 23.9299C160.22 31.1399 171.55 41.1099 180.35 52.9899C172.54 58.8799 138.95 84.2399 131.12 90.1399C127.58 86.3299 123.47 83.0899 118.99 80.6299C112.21 76.9199 104.57 74.9599 96.8801 74.9599C89.1901 74.9599 81.5501 76.9199 74.7701 80.6299C70.2801 83.0899 66.1801 86.3299 62.6401 90.1399C61.8101 89.5099 60.6902 88.6699 59.3402 87.6499L54.4001 92.3799L63.7601 99.4399C71.2201 88.7099 83.2701 81.6999 96.8801 81.6999C110.49 81.6999 122.54 88.6999 130 99.4399L189.59 54.4699C177.4 35.6999 159.49 20.7399 138.26 12.1599Z" fill="#DADE5F"/><path d="M13.4102 52.9897C22.2002 41.1097 33.5401 31.1397 46.4901 23.9297C61.8301 15.3897 79.2501 10.8897 96.8801 10.9097H96.8901C109.2 10.8997 121.4 13.0897 132.87 17.3197L138.27 12.1597C125.51 6.99974 111.55 4.14974 96.8901 4.16974C57.8501 4.12974 23.7002 24.4297 4.18018 54.4797L54.4102 92.3897L59.3502 87.6597C47.9902 79.0897 20.4002 58.2597 13.4202 52.9897H13.4102Z" fill="#EFAFAB"/><path d="M65.5765 28.1279C65.1182 28.3362 64.7086 28.3917 64.3475 28.2945C64.1114 28.1834 63.9101 28.0237 63.7434 27.8154C62.9935 26.9822 62.9797 26.1976 63.7018 25.4616C64.0212 25.1839 64.3544 25.045 64.7016 25.045C65.3404 25.045 65.8542 25.2325 66.243 25.6075C66.5069 25.9269 66.6388 26.3851 66.6388 26.9822C66.5833 27.3294 66.4027 27.6419 66.0972 27.9196H65.8889C65.8056 27.9613 65.7015 28.0307 65.5765 28.1279ZM64.7641 26.2532L64.66 26.6281C64.7988 26.9614 64.9516 27.0933 65.1182 27.0239C65.2571 26.7601 65.2779 26.5101 65.1807 26.274C65.0141 26.1352 64.8752 26.1282 64.7641 26.2532ZM56.2029 26.5448C56.5501 26.6559 56.8209 26.8434 57.0153 27.1072C58.5845 27.5238 59.1608 28.1696 58.7442 29.0444C58.7998 29.2666 58.772 29.5513 58.6609 29.8985L58.4942 30.69C58.4942 30.9955 58.1332 31.676 57.4111 32.7313C57.2583 33.0924 57.182 33.3076 57.182 33.3771C57.0292 33.5993 56.925 33.8145 56.8695 34.0228C56.5779 34.9116 55.7169 36.0364 54.2866 37.3973H54.1408L53.9325 37.6472L53.2451 37.8139C52.9951 37.9805 52.7313 38.1194 52.4535 38.2305C52.0647 38.4527 51.6828 38.4527 51.3079 38.2305C53.4187 35.3004 54.9045 32.3147 55.7655 29.2736C55.8211 28.968 55.7933 28.6973 55.6822 28.4612C55.4739 27.9196 55.4183 27.4266 55.5155 26.9822L55.7238 27.1697L55.7447 27.0656L55.6405 26.8573L55.9113 26.6281L56.2029 26.5448ZM61.8896 27.4405C64.9863 29.1625 66.9721 31.9953 67.847 35.9392C67.9025 36.2725 67.9025 36.5849 67.847 36.8765C67.7914 37.2931 67.597 37.6334 67.2637 37.8972C66.8888 37.9528 66.493 37.925 66.0764 37.8139C65.7292 37.7028 65.4515 37.5778 65.2432 37.4389C65.1738 37.314 65.0488 37.0501 64.8683 36.6474C64.771 36.3141 64.6669 36.0156 64.5558 35.7517C63.6532 32.8077 62.1673 30.072 60.0982 27.5447C60.0426 27.378 59.9593 27.2461 59.8482 27.1489L60.0357 26.9614L59.7649 26.5656L61.8896 27.4405ZM73.2211 31.7107C73.6238 31.7662 73.9779 31.794 74.2834 31.794C76.3526 31.3496 78.6161 31.0233 81.0741 30.815C81.5462 30.7594 82.0878 30.6483 82.6988 30.4817C83.1848 30.3706 83.6709 30.2873 84.1569 30.2317C84.3374 30.1901 84.7332 30.2734 85.3442 30.4817C85.7469 30.7455 86.2677 31.4399 86.9065 32.5647C86.8926 32.9258 86.8162 33.2174 86.6773 33.4396C85.8858 33.7312 84.8304 33.6826 83.5112 33.2938C80.831 33.1271 78.1926 33.4257 75.5957 34.1895C75.3736 34.245 75.2069 34.3144 75.0958 34.3978C74.8042 34.8144 74.4154 35.0227 73.9293 35.0227C73.5544 34.8005 73.3253 34.6894 73.2419 34.6894C72.9503 34.6338 72.6309 34.3422 72.2838 33.8145L71.6797 33.0438C71.6797 32.7522 71.6519 32.523 71.5964 32.3564V32.2314C71.7213 31.9815 71.8949 31.7176 72.1171 31.4399C72.5198 31.5371 72.8878 31.6274 73.2211 31.7107ZM92.843 24.8784C93.2319 24.934 93.5582 25.0798 93.8221 25.3158C94.9191 26.0935 95.5371 26.6559 95.6759 27.0031C96.3842 27.5447 96.3842 28.0793 95.6759 28.607C95.5232 29.0791 95.4468 29.6485 95.4468 30.3151C96.3356 30.2873 96.9466 30.447 97.2799 30.7941C97.4465 30.9886 97.6062 31.0997 97.7589 31.1274C98.2866 31.3496 98.731 31.7107 99.0921 32.2106C99.3976 32.3633 99.6892 32.6411 99.9669 33.0438C99.9669 33.5159 99.8281 33.877 99.5503 34.127C98.8699 34.7519 97.8214 34.4394 96.405 33.1896C96.1134 32.9952 95.7801 32.8147 95.4051 32.648C95.3635 32.8841 95.3357 33.1896 95.3218 33.5645C95.3218 33.9256 95.301 34.37 95.2593 34.8977C95.3843 36.9529 95.4121 38.1194 95.3427 38.3971C95.3427 38.536 95.3774 38.904 95.4468 39.5011C95.2107 39.7511 95.0094 39.9247 94.8427 40.0219L94.6553 40.251C94.3636 40.4176 94.0651 40.5218 93.7596 40.5635C93.5929 40.4662 93.4749 40.3899 93.4055 40.3343C92.7528 39.7233 92.3015 39.0637 92.0515 38.3555L92.2598 37.8972C92.5098 37.3417 92.6625 37.0015 92.7181 36.8765C92.7597 33.8215 92.8222 30.7455 92.9055 27.6488C92.9055 27.3016 92.7389 27.0308 92.4056 26.8364C91.9196 26.2254 91.8224 25.6283 92.114 25.045C92.4195 25.045 92.6139 25.0242 92.6972 24.9826L92.843 24.8784ZM114.923 21.8372L115.173 21.9205C115.451 22.0872 115.701 22.226 115.923 22.3371L116.173 22.2538L116.339 22.3371H116.506L117.673 23.1703C117.728 23.3925 117.811 23.6147 117.922 23.8369C117.867 24.1146 117.784 24.4201 117.673 24.7534H117.339L117.256 25.0034C117.089 25.0034 116.923 25.0312 116.756 25.0867C116.367 25.1978 116.034 25.1978 115.756 25.0867C115.423 25.1978 115.117 25.2256 114.84 25.17L114.756 25.3367C114.256 25.5033 113.729 25.6422 113.173 25.7533C112.951 25.8644 112.729 25.9199 112.507 25.9199L111.507 26.2532C110.896 26.4198 110.535 26.5587 110.424 26.6698C110.757 26.7253 111.118 26.8642 111.507 27.0864H111.757C112.09 27.5308 112.312 27.9751 112.423 28.4195C112.312 28.5306 112.201 28.6973 112.09 28.9194C111.923 29.586 111.507 29.8637 110.84 29.7526C110.618 29.6971 110.396 29.5305 110.174 29.2527C110.063 29.1416 109.951 29.0583 109.84 29.0028C109.785 28.8917 109.674 28.725 109.507 28.5028C109.34 28.2807 109.174 28.0862 109.007 27.9196C108.618 28.1973 108.202 28.4751 107.757 28.7528C107.591 29.0861 107.507 29.5305 107.507 30.0859V31.0024C107.452 31.2246 107.424 31.4468 107.424 31.669L107.507 31.919C107.674 31.8079 107.868 31.7246 108.091 31.669L108.007 32.0023V32.2523C107.841 32.4744 107.702 32.6966 107.591 32.9188V33.2521L107.841 33.1688C108.007 32.9466 108.285 32.7244 108.674 32.5022C108.896 32.3911 109.118 32.3078 109.34 32.2523C110.451 31.8634 111.59 31.5301 112.757 31.2524C112.646 31.0858 112.562 30.9191 112.507 30.7525C112.284 30.3637 112.201 30.0304 112.257 29.7526L112.423 29.6693L112.507 29.5027C112.673 29.3916 112.84 29.3083 113.007 29.2527L113.34 28.9194C114.062 29.0861 114.534 29.2527 114.756 29.4194C115.812 28.4751 116.617 27.503 117.173 26.5032C117.117 26.281 117.034 26.0588 116.923 25.8366C117.089 25.6699 117.284 25.6144 117.506 25.6699L117.423 25.5033L117.673 25.42L117.756 25.2533C117.922 25.1978 118.2 25.2533 118.589 25.42L119.756 26.0865L119.839 26.4198C119.783 26.6976 119.728 26.9475 119.672 27.1697L119.589 27.3364V27.5863C119.311 27.864 119.033 27.9751 118.756 27.9196L118.589 28.0862C118.478 28.0862 118.284 28.1418 118.006 28.2529C117.561 28.4751 117.089 28.6695 116.589 28.8361C115.978 29.2249 115.534 29.5027 115.256 29.6693L115.423 29.836C115.423 29.9471 115.395 30.0859 115.34 30.2526C115.506 30.3081 115.756 30.3081 116.089 30.2526C117.7 29.9748 119.006 29.8637 120.005 29.9193L120.089 29.836H120.422C120.533 29.9471 120.672 30.0304 120.839 30.0859C121.116 30.1415 121.311 30.2526 121.422 30.4192C121.477 30.5303 121.505 30.6692 121.505 30.8358V31.2524C121.339 31.5857 121.116 31.8912 120.839 32.1689C120.005 32.0578 119.2 31.9467 118.422 31.8357C117.534 31.7246 116.728 31.8079 116.006 32.0856V32.3356C117.784 34.5574 119.144 35.9461 120.089 36.5016C120.866 36.946 121.505 37.5292 122.005 38.2513C122.005 38.529 122.033 38.779 122.088 39.0012C121.7 39.1678 121.339 39.2789 121.005 39.3345L120.839 39.5011C120.172 39.7233 119.506 39.6955 118.839 39.4178L118.672 39.5011C118.561 39.4456 118.45 39.3623 118.339 39.2512C118.061 39.1956 117.756 38.9457 117.423 38.5013C116.645 37.6125 115.895 36.696 115.173 35.7517V39.1678C115.228 39.7789 115.228 40.3621 115.173 40.9176V41.4175L114.506 42.2507C114.284 42.584 114.034 42.7228 113.756 42.6673C113.534 42.6673 113.312 42.5562 113.09 42.334C112.701 41.7785 112.257 41.3619 111.757 41.0842C111.423 40.9176 111.201 40.7509 111.09 40.5843L111.423 40.4176C111.701 40.4176 112.034 40.4454 112.423 40.501L113.09 40.6676C113.034 39.7233 113.062 38.2791 113.173 36.3349C113.173 36.0572 113.09 35.8628 112.923 35.7517L112.59 36.085C112.034 36.696 111.451 37.3626 110.84 38.0847C110.396 38.6401 109.84 39.1123 109.174 39.5011C108.785 39.7789 108.424 40.0288 108.091 40.251C107.535 40.6398 107.313 41.0842 107.424 41.5841L107.341 41.8341C107.23 41.8896 107.146 41.973 107.091 42.084C106.924 42.584 106.563 42.7506 106.008 42.584L105.508 42.084L105.424 41.8341L105.258 41.7508C105.091 41.3619 104.813 41.0564 104.425 40.8342V40.251C104.702 40.1955 104.98 40.251 105.258 40.4176L105.341 40.251V39.4178C105.286 38.529 105.313 37.307 105.424 35.7517C104.536 36.3072 104.064 36.7238 104.008 37.0015C103.73 37.3903 103.369 37.5848 102.925 37.5848C102.203 37.5848 101.731 37.2515 101.508 36.5849L101.675 36.3349C101.619 36.1128 101.647 35.8906 101.758 35.6684H102.008L101.925 35.4184C102.036 35.3629 102.119 35.3073 102.175 35.2518C102.23 35.0851 102.286 34.9463 102.342 34.8352H102.841C103.675 34.2242 104.536 33.6409 105.424 33.0855C105.48 31.9745 105.48 30.8358 105.424 29.6693L105.091 29.836C105.036 29.9471 105.008 30.0582 105.008 30.1692C104.786 30.3359 104.591 30.447 104.425 30.5025C104.258 30.5581 104.119 30.6136 104.008 30.6692L103.758 30.7525C103.203 30.4192 102.619 30.1137 102.008 29.836C101.842 29.7804 101.647 29.7526 101.425 29.7526V29.586C101.647 29.4194 101.842 29.2805 102.008 29.1694C102.119 28.9472 102.203 28.7528 102.258 28.5862C103.369 27.8085 104.508 27.253 105.674 26.9198C105.785 25.42 105.813 24.6146 105.758 24.5035C105.702 24.2257 105.674 24.0313 105.674 23.9202H105.841C105.897 23.698 105.952 23.5036 106.008 23.337L106.174 23.2537L106.091 23.087L106.424 23.1703L106.591 22.9204L106.758 23.0037H106.924C107.257 23.1148 107.591 23.2537 107.924 23.4203L108.007 23.5869C108.174 23.6425 108.313 23.7258 108.424 23.8369C108.646 24.2257 108.674 24.6423 108.507 25.0867C108.063 25.42 107.868 25.8366 107.924 26.3365L108.757 26.5032L108.841 26.5865C110.174 25.2533 111.896 24.198 114.006 23.4203V22.7537L114.923 21.8372ZM113.007 26.1699C113.395 25.8366 113.84 25.6977 114.34 25.7533C114.451 25.8088 114.562 25.8366 114.673 25.8366C115.284 26.281 115.673 26.9198 115.839 27.753C115.617 27.9751 115.506 28.2251 115.506 28.5028C115.228 28.6139 114.978 28.725 114.756 28.8361C114.201 28.725 113.84 28.4473 113.673 28.0029C113.451 27.503 113.34 27.1975 113.34 27.0864L113.173 26.7531C112.951 26.6976 112.757 26.642 112.59 26.5865L113.007 26.1699ZM109.007 26.7531L109.424 27.1697C109.59 27.0586 109.757 26.9198 109.924 26.7531H109.007ZM112.34 33.0021C111.729 33.1688 111.118 33.4465 110.507 33.8353C110.229 33.9464 109.896 34.1964 109.507 34.5852C109.007 34.6408 108.535 34.613 108.091 34.5019C107.924 34.3908 107.785 34.3353 107.674 34.3353C107.507 34.613 107.424 34.974 107.424 35.4184V36.0017C107.313 38.1124 107.369 39.3623 107.591 39.7511C108.646 38.5846 109.535 37.4181 110.257 36.2516C110.979 35.1962 111.673 34.1131 112.34 33.0021ZM137.628 42.5007L137.19 42.2299C137.01 41.8549 136.919 41.4939 136.919 41.1467V40.9384C136.433 40.5635 135.906 40.2093 135.336 39.8761C134.781 39.5289 134.371 39.2303 134.107 38.9804L133.816 39.9594C133.649 39.9594 133.26 40.3065 132.649 41.0009C132.108 40.251 131.802 39.5983 131.733 39.0429C131.677 38.4735 131.629 37.8555 131.587 37.189L131.525 35.4809C131.386 35.5365 131.15 35.6128 130.816 35.71C130.497 35.8073 130.129 35.8906 129.712 35.96L129.441 35.8767C129.122 35.8628 128.844 35.7309 128.608 35.4809C128.497 35.3698 128.421 35.2587 128.379 35.1476C128.449 36.2169 128.483 36.946 128.483 37.3348C128.456 38.0847 128.456 38.8276 128.483 39.5636C128.4 40.0635 128.143 40.4732 127.713 40.7926C127.449 41.0564 127.15 41.1814 126.817 41.1675L126.4 41.0425C126.178 40.5843 125.921 39.9594 125.63 39.1678V38.7929L125.151 37.6681C125.109 37.5153 125.206 37.2306 125.442 36.814C125.692 34.6061 125.831 32.5161 125.859 30.5442C125.9 28.5584 125.893 27.3919 125.838 27.0447L125.65 26.3782L125.088 25.6491C124.935 25.413 124.88 25.1839 124.921 24.9617L125.067 24.6493L125.692 24.4201L125.942 24.316C126.123 24.1077 126.435 24.066 126.879 24.191L127.275 24.2327C127.511 24.2327 127.754 24.2952 128.004 24.4201C128.157 24.6423 128.282 24.7881 128.379 24.8576C129.837 24.5104 131.247 24.2118 132.608 23.9619C133.982 23.698 135.288 23.4967 136.524 23.3578L136.67 23.1495L136.857 23.1287C137.065 22.8787 137.378 22.7815 137.794 22.8371C138.211 23.087 138.648 23.3092 139.107 23.5036C139.565 23.698 140.065 23.9897 140.606 24.3785L141.127 24.9201L141.44 25.6908C141.523 26.149 141.433 26.5032 141.169 26.7531L140.94 27.2114L140.627 27.4405C140.669 27.6488 140.704 27.8849 140.731 28.1487C140.773 28.607 140.836 30.0165 140.919 32.3772C141.002 34.738 141.037 36.3558 141.023 37.2306C140.967 37.675 140.912 38.2166 140.856 38.8554C140.787 39.3692 140.669 39.7303 140.502 39.9386C140.336 39.9663 140.106 40.2649 139.815 40.8342C139.537 41.4036 139.329 41.8063 139.19 42.0424C138.69 42.3479 138.169 42.5007 137.628 42.5007ZM137.274 38.8346C137.315 38.5707 137.35 38.2513 137.378 37.8764C137.406 37.5014 137.44 37.0501 137.482 36.5224C137.496 35.6476 137.503 34.7796 137.503 33.9187C137.461 33.9881 137.406 34.0575 137.336 34.127C137.1 34.3214 136.822 34.4186 136.503 34.4186L136.315 34.3144C135.954 34.3005 135.753 34.3005 135.711 34.3144L134.503 34.5852C134.503 34.8352 134.496 35.3282 134.482 36.0642C134.482 36.7863 134.475 37.3001 134.462 37.6056C134.448 37.8972 134.406 38.1333 134.337 38.3138C134.878 38.411 135.413 38.5152 135.94 38.6263C136.482 38.7235 136.926 38.7929 137.274 38.8346ZM129.171 34.3561C129.546 34.2172 129.948 34.0645 130.379 33.8978C130.823 33.7173 131.212 33.5715 131.545 33.4604C131.601 32.5855 131.594 31.8218 131.525 31.1691C131.316 31.2941 131.052 31.4121 130.733 31.5232C130.427 31.6204 130.046 31.6898 129.587 31.7315C129.296 31.6898 128.997 31.5649 128.692 31.3566C128.553 31.176 128.428 30.9747 128.317 30.7525C128.317 31.0719 128.338 31.5996 128.379 32.3356C128.407 33.1965 128.393 33.9742 128.338 34.6685V34.731C128.421 34.5366 128.699 34.4116 129.171 34.3561ZM128.65 30.1692L129.296 30.0859C129.698 29.9332 130.108 29.8151 130.525 29.7318C130.955 29.6485 131.309 29.5513 131.587 29.4402L131.608 27.5447C131.538 27.253 131.427 26.9822 131.275 26.7323C131.136 26.4823 131.038 26.2254 130.983 25.9616C130.65 26.0865 130.282 26.2115 129.879 26.3365C129.476 26.4476 129.011 26.5726 128.483 26.7115C128.372 27.1003 128.317 27.7668 128.317 28.7111V30.3567L128.65 30.1692ZM137.419 27.503C137.322 27.0447 137.281 26.5726 137.294 26.0865C137.322 25.5866 137.225 25.1978 137.003 24.9201L136.649 24.8992C135.927 25.0242 134.934 25.1978 133.67 25.42C133.795 25.6144 134.052 25.8644 134.441 26.1699C134.885 26.5726 135.114 27.0725 135.128 27.6696L134.649 28.3779L134.566 29.0028C135.052 28.9056 135.385 28.8778 135.566 28.9194C136.135 28.8361 136.628 29.0166 137.044 29.461C137.058 29.8637 137.003 30.1276 136.878 30.2526C136.475 30.5442 136.003 30.69 135.461 30.69L135.253 30.5858C134.989 30.6831 134.746 30.7664 134.524 30.8358C134.482 30.9469 134.475 31.3149 134.503 31.9398C134.489 32.2731 134.503 32.5369 134.545 32.7313C135.17 32.4953 135.697 32.3703 136.128 32.3564C136.753 32.3147 137.072 32.4814 137.086 32.8563L137.19 33.0855C137.343 33.2382 137.447 33.384 137.503 33.5229C137.489 31.4677 137.461 29.461 137.419 27.503Z" fill="#1A2A56"/><path d="M55.2886 63.8729L55.1845 63.3938C55.7955 61.5885 56.4551 59.8041 57.1633 58.0404C57.8854 56.2768 58.4409 54.5063 58.8297 52.7288L58.4548 52.4788L58.2257 52.083L58.5381 51.8747L58.4756 51.6664C58.2673 51.4859 58.1007 51.2568 57.9757 50.979L58.0174 50.8749L57.8716 50.5208L58.3715 50.375L58.5381 50.4166C59.4824 50.0695 60.4614 49.7292 61.4752 49.396C62.5028 49.0627 63.3776 48.778 64.0997 48.5419L63.9539 47.8129C63.829 47.6324 63.6762 47.4032 63.4957 47.1255C63.329 46.8478 63.1346 46.6395 62.9124 46.5006L62.3917 46.3756L62.8708 45.709L63.5582 45.5424C64.0859 45.5979 64.6205 45.7021 65.1621 45.8549C65.7037 45.9937 66.1758 46.209 66.5785 46.5006C66.7591 46.6811 66.8771 46.8894 66.9326 47.1255L66.9951 47.792C66.9118 47.917 66.8701 47.9795 66.8701 47.9795C67.3145 47.9101 67.7381 47.8476 68.1408 47.792C68.5435 47.7226 68.9948 47.674 69.4947 47.6462C69.8836 47.6601 70.2654 47.7018 70.6404 47.7712C71.0292 47.8268 71.4042 47.9448 71.7652 48.1253L72.161 48.5003C72.286 48.6808 72.3623 48.8891 72.3901 49.1252C72.2651 49.3612 72.1263 49.5765 71.9735 49.7709L71.3694 49.9584L71.2028 49.9167L70.8487 49.9792L70.6196 49.9584L70.4946 50C70.078 49.9167 69.7169 49.8056 69.4114 49.6668C69.1059 49.5279 68.7935 49.4723 68.4741 49.5001C67.1826 49.6945 65.8842 49.9653 64.5788 50.3125C63.2735 50.6458 62.1348 50.9929 61.1627 51.354L61.246 51.5415C61.4821 51.7775 61.614 52.0622 61.6418 52.3955L61.5585 52.6663L61.5793 52.7913C61.3849 53.5411 61.1835 54.2771 60.9752 54.9993C60.7808 55.7214 60.4614 56.506 60.0171 57.3531C59.5866 58.1863 59.2463 58.9084 58.9964 59.5194C58.7464 60.1165 58.3992 60.6928 57.9549 61.2483C57.3022 61.9148 56.6842 62.6439 56.101 63.4354L55.2886 63.8729ZM71.9319 62.3106L71.4528 62.269C70.3418 62.1856 69.2587 62.0051 68.2033 61.7274C67.1618 61.4357 66.2383 60.8733 65.4329 60.0401C64.7802 59.1375 64.3636 58.1654 64.1831 57.1239C64.0025 56.0685 63.704 54.7979 63.2874 53.312C63.4262 53.2148 63.4818 53.0065 63.454 52.6871C64.0928 52.9787 64.565 53.1801 64.8705 53.2912C65.1899 53.3884 65.5231 53.7495 65.8703 54.3744C66.0092 54.5827 66.0717 54.8534 66.0578 55.1867L65.9328 55.4783C65.9745 55.7561 66.0231 56.0616 66.0786 56.3949C66.1897 56.8948 66.3077 57.3739 66.4327 57.8321C66.5716 58.2904 66.7591 58.6862 66.9951 59.0195C67.3701 59.1861 67.7867 59.3389 68.2449 59.4777C68.7171 59.6027 69.1823 59.686 69.6405 59.7277H71.0778C71.4944 59.6999 71.9319 59.6791 72.3901 59.6652C72.5568 59.7069 72.6817 59.7207 72.7651 59.7069V59.7277C72.7789 59.6027 72.7859 59.4569 72.7859 59.2903C72.7165 58.9847 72.6679 58.6723 72.6401 58.3529C72.6262 58.0335 72.4179 57.4919 72.0152 56.7282C73.0289 57.3947 73.6677 57.9363 73.9315 58.3529C74.0982 58.5473 74.2301 58.7556 74.3273 58.9778C74.4384 59.2 74.5356 59.3875 74.6189 59.5402C74.8967 59.5402 75.1952 59.6721 75.5146 59.936L75.5979 60.2693L75.5355 60.5609L75.0772 60.8733C74.7856 60.9567 74.5634 61.0261 74.4106 61.0816L74.244 61.6024L73.994 61.7482L73.8899 61.8732C73.5011 62.137 73.0428 62.2759 72.5151 62.2898L72.3901 62.269L71.9319 62.3106ZM61.5585 61.7065L60.7878 61.1858C60.6767 60.8247 60.5239 60.2762 60.3295 59.5402C60.4823 58.8042 60.6628 58.1377 60.8711 57.5405C61.0794 56.9295 61.3363 56.2491 61.6418 55.4992L62.1834 55.1242L62.5583 55.7283L62.7875 55.8949C62.9958 56.4504 63.0096 56.9781 62.8291 57.478L62.8916 57.7905C62.8361 58.1377 62.8013 58.4848 62.7875 58.832C62.7875 59.1653 62.7666 59.4847 62.725 59.7902L62.7875 59.9568C62.6902 60.1929 62.6486 60.4498 62.6625 60.7275C62.6764 61.0053 62.5653 61.2413 62.3292 61.4357C62.1348 61.6163 61.8779 61.7065 61.5585 61.7065ZM68.3283 57.2697L67.8283 56.7906C67.7589 56.5407 67.6478 56.3046 67.495 56.0824C67.4117 55.5964 67.2729 55.1728 67.0784 54.8118C66.884 54.4507 66.7382 54.0411 66.641 53.5828L66.8493 53.2704C67.4464 53.3815 67.9186 53.5203 68.2658 53.687C68.6129 53.8397 68.8907 53.9994 69.099 54.1661C69.3212 54.0272 69.6405 53.8605 70.0571 53.6661C70.3349 53.805 70.4599 53.9578 70.4321 54.1244C70.3488 54.3882 70.203 54.6382 69.9947 54.8743L69.8905 55.1034L69.8697 55.2492C69.9808 55.4992 70.0641 55.8047 70.1196 56.1657L70.0571 56.3949C69.8905 56.7282 69.6475 57.0059 69.3281 57.2281L68.7032 57.2697H68.3283ZM73.1192 56.1657C72.7859 56.0824 72.4804 55.9297 72.2026 55.7075C71.9943 55.1798 71.7374 54.6937 71.4319 54.2494C71.1264 53.805 70.807 53.2495 70.4737 52.583L71.6194 52.5621C71.9805 52.6593 72.3415 52.7427 72.7026 52.8121C73.0636 52.8815 73.4177 53.0273 73.7649 53.2495C73.9315 53.4301 74.0496 53.6106 74.119 53.7911L74.2648 53.9161C74.2648 54.2771 74.2857 54.6035 74.3273 54.8951L74.369 55.2076C74.2857 55.3742 74.2023 55.527 74.119 55.6658C73.8413 55.9158 73.508 56.0824 73.1192 56.1657ZM88.9709 44.4801L89.5541 44.6467C89.9985 44.7578 90.304 45.0633 90.4706 45.5632C90.5817 45.7854 90.7484 45.8687 90.9705 45.8132C91.1372 45.8132 91.2761 45.7854 91.3871 45.7299L91.8871 45.4799C91.901 45.4938 92.0954 45.5493 92.4703 45.6465C92.3592 45.591 92.7203 45.7021 93.5535 45.9798C94.2756 46.1465 94.6366 46.5075 94.6366 47.063C94.6366 47.3407 94.4422 47.5351 94.0534 47.6462C93.4979 47.8129 92.9147 47.8407 92.3037 47.7296C91.7482 47.674 91.165 47.6462 90.5539 47.6462C90.2207 47.6462 89.9707 47.7851 89.8041 48.0628C89.693 48.2295 89.5819 48.3683 89.4708 48.4794C89.3597 48.535 89.3041 48.5905 89.3041 48.6461H89.5541C89.9985 48.6461 90.6095 48.8683 91.3871 49.3126C91.8315 49.5904 92.137 49.8403 92.3037 50.0625C92.5814 50.618 92.5814 51.0346 92.3037 51.3123C92.0815 51.5345 91.9426 51.84 91.8871 52.2289L91.7204 53.0621C91.6093 54.0619 91.2205 54.6729 90.5539 54.8951C90.2207 55.0062 90.0818 55.0895 90.1373 55.1451C90.1929 55.2562 90.4151 55.3117 90.8039 55.3117C92.0259 55.2562 92.7758 55.1728 93.0536 55.0617C93.2757 54.9507 93.5535 54.9507 93.8868 55.0617C95.1643 55.2839 95.942 55.645 96.2197 56.1449C96.4975 56.6448 96.3308 57.0337 95.7198 57.3114C95.331 57.478 94.8866 57.5058 94.3867 57.3947C93.8312 57.2281 93.2757 57.1448 92.7203 57.1448C92.4425 57.1448 92.3037 57.1725 92.3037 57.2281C92.3037 57.2836 92.4148 57.4225 92.637 57.6447C93.3591 58.3668 93.8868 58.8389 94.22 59.0611C95.1088 59.561 95.7476 59.9776 96.1364 60.3109C96.3586 60.5331 96.4697 60.7553 96.4697 60.9775C96.4697 61.2552 96.3864 61.4496 96.2197 61.5607C96.0531 61.6163 95.9142 61.7274 95.8031 61.894C95.6365 62.1162 95.3865 62.2273 95.0532 62.2273H94.72C94.22 62.2273 93.8312 62.1717 93.5535 62.0607C93.0536 62.0051 92.6092 61.7829 92.2204 61.3941C91.8871 61.0608 91.6927 61.1164 91.6371 61.5607L91.1372 63.2271C90.7484 64.4492 90.1651 65.0602 89.3875 65.0602H88.8875C88.5543 65.1157 88.3321 65.1157 88.221 65.0602C88.0543 64.838 87.9155 64.6158 87.8044 64.3936C87.6377 64.0603 87.4155 63.7548 87.1378 63.4771C86.6934 63.0883 86.4712 62.8383 86.4712 62.7272C86.4712 62.5606 86.6934 62.4773 87.1378 62.4773C87.3045 62.4773 87.4433 62.505 87.5544 62.5606C87.9432 62.6161 88.221 62.4495 88.3876 62.0607C88.7209 61.3385 88.9153 60.6998 88.9709 60.1443C89.0264 59.811 89.0264 59.6166 88.9709 59.561H88.3876C88.0543 59.561 87.8321 59.7277 87.7211 60.061C87.4433 60.4498 87.2767 60.7275 87.2211 60.8942C87.11 61.1719 86.9434 61.4496 86.7212 61.7274C86.6101 61.9496 86.4712 62.1717 86.3046 62.3939C86.2491 62.5606 86.1657 62.6994 86.0546 62.8105C85.9436 62.9216 85.888 63.0327 85.888 63.1438C85.6103 63.6993 85.1659 64.1159 84.5549 64.3936C83.555 64.8935 82.9162 65.1713 82.6385 65.2268C82.583 65.1713 82.6107 65.0324 82.7218 64.8102C83.3884 63.5326 84.1383 62.2828 84.9715 61.0608C85.3048 60.5609 85.2214 60.4498 84.7215 60.7275C84.5549 60.7831 84.416 60.8386 84.3049 60.8942C84.0827 61.0608 83.8883 61.1719 83.7217 61.2274C83.555 61.283 83.3329 61.283 83.0551 61.2274C82.7774 61.2274 82.4996 61.3108 82.2219 61.4774C81.9442 61.6996 81.6942 61.9218 81.472 62.144C80.6388 62.8661 80 63.2549 79.5557 63.3105C78.9446 63.366 78.2781 63.5604 77.556 63.8937C76.945 64.1714 76.8616 64.0603 77.306 63.5604C77.8059 62.9494 78.1948 62.505 78.4725 62.2273C79.7501 61.0608 80.6666 60.1165 81.2221 59.3944C81.722 58.8945 81.6942 58.7278 81.1387 58.8945C80.5833 59.0611 80.1389 59.2555 79.8056 59.4777C79.2502 59.811 78.8613 59.9776 78.6391 59.9776C78.3614 59.9776 77.9448 59.9221 77.3893 59.811C76.6672 59.5888 76.5561 59.2833 77.0561 58.8945C77.4449 58.5057 77.8893 58.2835 78.3892 58.2279L82.7218 57.0614C83.1107 56.9503 83.3606 56.7837 83.4717 56.5615C83.5828 56.2838 83.555 56.2005 83.3884 56.3115C83.2773 56.3671 83.194 56.4226 83.1384 56.4782C83.0273 56.5337 82.944 56.5893 82.8885 56.6448C82.5552 56.9781 82.2219 56.8115 81.8886 56.1449C81.1665 54.7007 80.6666 53.4787 80.3889 52.4788C80.2222 52.2011 80.1389 51.8956 80.1389 51.5623C80.1389 50.7846 80.5277 50.4514 81.3054 50.5624C81.5831 50.618 81.9442 50.5902 82.3886 50.4791C82.7774 50.3125 82.8607 50.0348 82.6385 49.6459C82.5274 49.3682 82.3886 49.2293 82.2219 49.2293C82.1664 49.2293 81.9997 49.2571 81.722 49.3126C81.6109 49.3682 81.472 49.4237 81.3054 49.4793C81.0832 49.5348 80.8888 49.6182 80.7221 49.7292C80.3889 49.7848 80.0556 49.7848 79.7223 49.7292C79.5557 49.6737 79.3612 49.6182 79.1391 49.5626C78.8058 49.5626 78.6391 49.4793 78.6391 49.3126C78.6391 49.146 78.778 48.9516 79.0557 48.7294C79.2779 48.5072 79.5557 48.3683 79.8889 48.3128L81.0554 47.9795C81.3332 47.8684 81.472 47.7851 81.472 47.7296C81.5276 47.674 81.472 47.5629 81.3054 47.3963C80.9721 47.063 80.8055 46.6464 80.8055 46.1465C80.8055 45.3688 81.1387 45.0355 81.8053 45.1466C82.083 45.2577 82.4996 45.4521 83.0551 45.7299C83.6106 46.0076 83.9439 46.3131 84.055 46.6464C84.1105 46.9241 84.3327 47.0352 84.7215 46.9797C85.4436 46.813 86.1657 46.6742 86.8879 46.5631C87.2767 46.5075 87.4989 46.2576 87.5544 45.8132C87.61 45.4244 87.6933 45.0633 87.8044 44.73C87.9155 44.5634 88.1377 44.4801 88.4709 44.4801H88.9709ZM86.8045 48.1462L85.1381 48.4794C84.6382 48.535 84.2771 48.7016 84.055 48.9794C84.1661 49.2571 84.1661 49.5904 84.055 49.9792C84.9437 49.6459 85.8047 49.396 86.6379 49.2293C86.749 48.896 86.8045 48.535 86.8045 48.1462ZM88.8875 50.3125C87.0545 50.5347 85.2214 50.9235 83.3884 51.479L83.3051 51.5623C83.3606 51.7289 83.3884 51.8956 83.3884 52.0622C83.4439 52.1733 83.4717 52.3122 83.4717 52.4788C85.2492 51.7012 87.0267 51.2846 88.8042 51.229C88.8598 50.9513 88.8875 50.6458 88.8875 50.3125ZM88.5543 53.0621C88.6098 52.8954 88.6376 52.7565 88.6376 52.6455C88.2487 52.7565 87.8877 52.8399 87.5544 52.8954C86.8323 52.8954 86.138 53.0065 85.4714 53.2287C85.0826 53.3953 84.6937 53.5342 84.3049 53.6453L83.805 53.8119C83.805 54.0897 83.8328 54.3396 83.8883 54.5618C85.4436 54.173 86.9989 53.8675 88.5543 53.6453V53.0621ZM87.6377 55.3117C86.8045 55.4783 86.2491 55.645 85.9713 55.8116C85.9713 55.9227 85.9991 56.0338 86.0546 56.1449L87.8877 55.8116C87.7766 55.645 87.6933 55.4783 87.6377 55.3117ZM88.8875 57.3947C88.3321 57.3947 87.7488 57.4503 87.1378 57.5614C87.8044 57.6724 88.1654 57.978 88.221 58.4779L88.8875 58.3112V58.0613L89.0542 58.1446V57.8946H89.3875L88.8875 57.3947ZM85.4714 57.728C85.3048 57.8391 85.1659 58.0057 85.0548 58.2279C84.8326 58.5612 84.5271 58.9223 84.1383 59.3111C84.7493 59.1444 85.3048 59.0056 85.8047 58.8945C85.7491 58.6167 85.7214 58.3668 85.7214 58.1446C85.7769 57.978 85.8325 57.8391 85.888 57.728H85.4714ZM108.405 44.5634C108.614 44.6745 108.794 44.7578 108.947 44.8133L109.093 44.73L109.239 44.8133L109.322 44.73C109.475 44.9522 109.676 45.1189 109.926 45.2299C110.69 45.5632 111.176 46.0632 111.384 46.7297L111.238 46.813V47.063L111.155 47.1463L111.072 47.313L110.78 47.4796H110.613C110.461 47.5351 110.287 47.5907 110.093 47.6462C109.981 47.5907 109.877 47.5629 109.78 47.5629C109.475 47.4518 109.204 47.4796 108.968 47.6462C108.732 47.8129 108.482 47.8684 108.218 47.8129C108.121 47.8684 108.023 47.9517 107.926 48.0628C108.079 48.1184 108.253 48.1739 108.447 48.2295L108.614 48.3128C108.655 48.5905 108.69 48.9238 108.718 49.3126C108.746 49.7015 108.759 50.0348 108.759 50.3125C109.37 50.3403 109.836 49.8959 110.155 48.9794L110.093 48.8127C110.19 48.5905 110.238 48.3683 110.238 48.1462C110.238 48.0351 110.266 47.924 110.322 47.8129C110.474 47.7573 110.551 47.7018 110.551 47.6462C110.801 47.7018 111.051 47.7296 111.301 47.7296C111.453 47.7296 111.662 47.7851 111.926 47.8962C112.12 48.0073 112.294 48.1184 112.446 48.2295H112.613C112.71 48.4517 112.807 48.7016 112.905 48.9794C112.655 49.2015 112.148 49.5904 111.384 50.1458C112.148 50.0348 112.696 49.9653 113.03 49.9375C113.363 49.9098 113.731 49.9237 114.134 49.9792L114.363 49.8959C114.599 49.4376 115.182 49.4654 116.112 49.9792L117.112 51.229C117.112 51.4512 117.14 51.6178 117.196 51.7289C117.14 51.84 117.085 51.9789 117.029 52.1455C116.529 52.2011 116.05 52.3399 115.592 52.5621C115.383 52.6732 115.154 52.6732 114.904 52.5621C114.696 52.6177 114.515 52.5621 114.363 52.3955C113.543 52.5621 113.009 52.701 112.759 52.8121V52.7288C112.509 52.7843 112.28 52.7288 112.071 52.5621C112.432 52.451 112.814 52.09 113.217 51.479C112.092 51.3123 110.384 51.4929 108.093 52.0206C105.815 52.5482 103.857 53.0065 102.219 53.3953C102.233 55.2839 102.059 56.5893 101.698 57.3114C101.656 57.478 101.608 57.6447 101.552 57.8113L101.406 57.8946C101.254 57.9502 101.073 58.0057 100.865 58.0613C100.559 58.0613 100.282 57.978 100.032 57.8113C99.7678 57.4225 99.6359 57.0059 99.6359 56.5615V55.8949C99.9414 55.1728 100.094 54.4507 100.094 53.7286L100.323 52.0622C100.42 51.9511 100.518 51.8123 100.615 51.6456L100.782 51.5623C100.934 51.6734 101.087 51.7567 101.24 51.8123C101.434 51.9789 101.587 52.1178 101.698 52.2289C102.684 51.84 103.51 51.5901 104.177 51.479C104.08 50.868 103.878 50.3958 103.573 50.0625C103.267 49.6737 103.135 49.3126 103.177 48.9794L101.927 49.2293L101.761 49.0627C104.496 47.674 106.663 46.5631 108.26 45.7299L108.176 45.3966L108.322 45.2299L108.26 44.8967C108.301 44.7856 108.35 44.6745 108.405 44.5634ZM110.176 52.7704C110.37 52.9232 110.537 53.069 110.676 53.2079C110.856 53.3606 110.988 53.555 111.072 53.7911L111.384 53.8744C111.384 53.9716 111.398 54.0688 111.426 54.1661C111.523 54.3605 111.592 54.5549 111.634 54.7493C111.592 54.8465 111.571 54.9437 111.571 55.0409C111.433 55.5964 110.974 56.4435 110.197 57.5822C110.03 57.8183 109.85 58.0682 109.655 58.3321L109.697 58.4154C109.669 58.5126 109.655 58.6098 109.655 58.707C110.822 59.3875 111.384 59.6999 111.342 59.6444C111.856 59.936 112.745 60.2762 114.009 60.665C114.828 60.9567 115.696 61.3524 116.612 61.8524C116.432 62.144 116.237 62.4078 116.029 62.6439C115.821 62.8939 115.46 63.0744 114.946 63.1855C114.446 63.3105 114.154 63.3729 114.071 63.3729C113.724 63.5257 113.398 63.5535 113.092 63.4563L112.446 63.7479C110.877 62.873 109.398 61.7274 108.01 60.3109H107.822C107.739 60.4081 107.655 60.4776 107.572 60.5192C107.003 61.3108 106.288 61.901 105.427 62.2898C105.288 62.387 105.156 62.4842 105.031 62.5814C104.684 62.8175 104.378 62.9355 104.114 62.9355C103.975 62.9911 103.844 63.0397 103.719 63.0813C102.941 63.2757 102.483 63.3521 102.344 63.3105C102.01 63.3521 101.67 63.4007 101.323 63.4563C101.059 63.4563 100.795 63.4771 100.532 63.5188C100.49 63.4215 100.469 63.3243 100.469 63.2271C102.26 62.4078 103.51 61.6579 104.218 60.9775C104.927 60.2832 105.607 59.5472 106.26 58.7695C105.996 58.5334 105.732 58.3876 105.468 58.3321C105.177 57.9849 104.857 57.7419 104.51 57.603C104.288 57.0614 104.177 56.7698 104.177 56.7282V56.5823L104.26 56.4365L104.385 56.3532C104.385 56.256 104.406 56.1588 104.448 56.0616C104.531 56.0199 104.614 55.9713 104.698 55.9158C104.614 55.7214 104.531 55.5478 104.448 55.395C104.35 55.2006 104.288 55.0062 104.26 54.8118V54.666C104.343 54.5688 104.448 54.4993 104.573 54.4577C104.961 54.4993 105.35 54.4716 105.739 54.3744C106.183 54.2355 106.6 54.1174 106.989 54.0202L109.384 53.2912L109.447 53.1454C109.502 53.0759 109.579 52.9996 109.676 52.9162L110.176 52.7704ZM106.697 49.7292C106.545 49.2293 106.315 48.8405 106.01 48.5628C105.649 48.6183 105.267 48.7294 104.864 48.896C104.961 49.0071 105.066 49.0905 105.177 49.146C105.482 49.3682 105.711 49.7015 105.864 50.1458C105.961 50.4236 106.01 50.7013 106.01 50.979C106.315 50.868 106.593 50.7846 106.843 50.7291V50.5624L107.01 50.4791C106.899 50.2014 106.794 49.9514 106.697 49.7292ZM109.072 54.9993C108.155 55.3048 107.086 55.5547 105.864 55.7491C105.517 55.9019 105.67 56.1796 106.322 56.5823C106.669 56.7768 107.037 57.0198 107.426 57.3114L107.572 57.1656L107.697 57.2281H107.76C107.843 57.117 107.926 56.9989 108.01 56.874C108.398 56.1519 108.752 55.527 109.072 54.9993ZM124.382 44.8133C124.604 44.9244 124.854 45.0355 125.132 45.1466L125.215 45.0633C125.715 45.3966 125.993 45.591 126.048 45.6465C126.659 46.202 127.02 46.5908 127.132 46.813L127.382 47.063C127.104 47.4518 126.854 47.8962 126.632 48.3961C126.479 48.8266 126.389 49.0766 126.361 49.146L126.048 49.3126C125.937 49.5904 125.798 49.8959 125.632 50.2292V50.3125C125.243 50.9235 124.91 51.5345 124.632 52.1455L124.382 52.2289C124.493 52.3399 124.604 52.4233 124.715 52.4788L125.132 52.8954C125.299 53.0065 125.465 53.1732 125.632 53.3953V54.0619C125.41 54.3396 125.299 54.7007 125.299 55.1451C125.187 56.256 125.132 56.9226 125.132 57.1448C125.132 59.6444 125.16 61.1164 125.215 61.5607C125.271 61.7829 125.299 62.0051 125.299 62.2273C125.354 62.3939 125.354 62.5883 125.299 62.8105C125.41 63.0327 125.437 63.2549 125.382 63.4771C124.66 64.1992 124.16 64.6158 123.882 64.7269H123.632L122.966 64.0603C122.688 63.6715 122.41 63.2271 122.132 62.7272C122.077 62.5606 122.021 62.4217 121.966 62.3106C122.077 62.0329 122.132 61.7274 122.132 61.3941C122.243 59.561 122.355 57.7002 122.466 55.8116L122.382 55.8949C122.327 55.7283 122.299 55.5894 122.299 55.4783L121.966 55.9783L121.799 55.8949C121.577 56.1727 121.382 56.4226 121.216 56.6448C120.994 56.7004 120.855 56.8115 120.799 56.9781C120.521 57.0892 120.299 57.2558 120.133 57.478C119.855 57.8669 119.605 58.2001 119.383 58.4779H119.216L119.133 58.2279C120.577 54.7285 121.938 51.1735 123.216 47.5629C123.382 47.2296 123.438 46.9241 123.382 46.6464L123.465 46.5631C123.41 46.2853 123.382 46.0076 123.382 45.7299C123.604 45.5077 123.854 45.2855 124.132 45.0633L124.215 44.8967L124.382 44.8133ZM131.797 45.3133C131.964 45.2577 132.103 45.1744 132.214 45.0633L133.214 45.3966L133.881 45.7299C134.214 45.841 134.464 46.0076 134.63 46.2298L134.88 46.3131C134.936 46.4798 135.019 46.6464 135.13 46.813L134.797 48.1462C134.853 48.4239 134.853 48.7016 134.797 48.9794L134.88 49.0627L134.797 49.3126L134.88 49.4793C135.158 49.4237 135.436 49.3126 135.714 49.146L135.797 49.2293C135.908 49.0627 136.019 48.9238 136.13 48.8127L136.297 48.896L136.38 48.8127C137.047 49.146 137.713 49.3682 138.38 49.4793L138.546 49.6459H138.963C139.296 49.8681 139.463 50.1736 139.463 50.5624L139.546 50.6458C139.38 50.9235 139.269 51.229 139.213 51.5623C138.88 51.7845 138.546 51.9233 138.213 51.9789C138.047 51.9789 137.88 52.0067 137.713 52.0622C137.436 52.0622 137.13 52.0067 136.797 51.8956C135.852 51.6734 135.214 51.6456 134.88 51.8123C134.825 52.09 134.797 52.3399 134.797 52.5621V53.7286C134.853 54.2285 134.88 54.7562 134.88 55.3117C135.047 56.4782 135.186 58.2279 135.297 60.5609C135.352 60.8386 135.352 61.1164 135.297 61.3941C135.241 61.9496 135.214 62.2828 135.214 62.3939L135.13 62.4773L134.964 62.9772L134.714 63.2271L134.63 63.0605L134.464 63.1438L134.297 63.4771H133.964C133.797 63.6437 133.658 63.8382 133.547 64.0603C133.325 64.1159 133.103 64.1437 132.881 64.1437L132.797 64.3103C132.52 64.1437 132.297 63.8659 132.131 63.4771C131.909 62.9772 131.575 62.5883 131.131 62.3106C130.298 61.8662 129.798 61.5885 129.631 61.4774L129.798 61.3941L130.048 61.4774C130.159 61.4219 130.27 61.3941 130.381 61.3941L130.548 61.1441C130.77 61.1997 131.02 61.283 131.298 61.3941C131.575 61.4496 131.853 61.4774 132.131 61.4774C132.297 58.2557 132.353 55.0617 132.297 51.8956C131.02 52.1733 129.77 52.5066 128.548 52.8954L128.048 53.3953C127.937 53.3953 127.826 53.4231 127.715 53.4787C127.215 53.5898 126.798 53.5064 126.465 53.2287C125.965 52.8954 125.604 52.451 125.382 51.8956L125.965 51.3123L126.465 51.1457C128.409 50.7569 130.353 50.3403 132.297 49.8959C132.242 49.4515 132.159 49.0071 132.047 48.5628C131.992 48.3406 131.964 48.1462 131.964 47.9795C131.909 47.8129 131.825 47.6185 131.714 47.3963L131.464 46.813C131.242 46.4242 131.186 46.0632 131.298 45.7299C131.353 45.6188 131.52 45.4799 131.797 45.3133ZM126.382 49.146C126.368 49.1738 126.361 49.1738 126.361 49.146H126.382ZM129.631 54.8118C130.575 54.9229 131.103 55.3117 131.214 55.9783C131.103 56.3671 131.075 56.7282 131.131 57.0614C131.02 57.1725 130.909 57.3114 130.798 57.478V57.8113L130.298 58.4779C127.798 57.478 126.576 56.5337 126.632 55.645L126.548 55.4783C126.882 54.8673 127.437 54.5618 128.215 54.5618C127.826 54.5618 128.298 54.6451 129.631 54.8118Z" fill="#1A2A56"/><defs><filter id="filter0_d_4_3942" x="2.90871e-05" y="-4.76837e-07" width="206.721" height="116.579" filterUnits="userSpaceOnUse" color-interpolation-filters="sRGB"><feFlood flood-opacity="0" result="BackgroundImageFix"/><feColorMatrix in="SourceAlpha" type="matrix" values="0 0 0 0 0 0 0 0 0 0 0 0 0 0 0 0 0 0 127 0" result="hardAlpha"/><feOffset dx="6.48" dy="6.48"/><feGaussianBlur stdDeviation="4.63"/><feColorMatrix type="matrix" values="0 0 0 0 0.133333 0 0 0 0 0.0901961 0 0 0 0 0.0784314 0 0 0 0.35 0"/><feBlend mode="normal" in2="BackgroundImageFix" result="effect1_dropShadow_4_3942"/><feBlend mode="normal" in="SourceGraphic" in2="effect1_dropShadow_4_3942" result="shape"/></filter></defs></svg>
