<svg width="65" height="65" viewBox="0 0 65 65" fill="none" xmlns="http://www.w3.org/2000/svg"><path d="M32.5 0C14.55 0 0 14.55 0 32.5C0 50.45 14.55 65 32.5 65C50.45 65 65 50.45 65 32.5C65 14.55 50.45 0 32.5 0ZM32.5 62.1902C16.1 62.1902 2.81 48.9 2.81 32.5C2.81 16.1 16.1 2.81006 32.5 2.81006C48.9 2.81006 62.19 16.1 62.19 32.5C62.19 48.9 48.9 62.1902 32.5 62.1902Z" fill="#EAD363"/><path d="M46.2295 26.8096C46.2295 35.2496 40.0795 42.9695 32.4995 42.9695C24.9195 42.9695 18.7695 35.2596 18.7695 26.8096C18.7695 18.3596 24.9195 11.5195 32.4995 11.5195C40.0795 11.5195 46.2295 18.3696 46.2295 26.8096Z" fill="#EAD363"/><path d="M42.9997 40.8595C42.1897 40.6395 41.3297 40.8596 40.7197 41.4196C38.4497 43.4996 35.5997 44.7895 32.4997 44.8895C29.3997 44.7995 26.5497 43.4996 24.2797 41.4196C23.6697 40.8596 22.7997 40.6495 21.9997 40.8595C15.0697 42.7195 9.77973 46.3096 7.71973 50.6796C13.4197 57.7396 22.1897 62.2594 32.0197 62.2594C32.1797 62.2594 32.3397 62.2594 32.4997 62.2594C32.6597 62.2594 32.8197 62.2594 32.9797 62.2594C42.8097 62.2594 51.5797 57.7396 57.2797 50.6796C55.2197 46.3096 49.9197 42.7195 42.9997 40.8595Z" fill="#EAD363"/></svg>
