<svg width="841" height="199" viewBox="0 0 841 199" fill="none" xmlns="http://www.w3.org/2000/svg"><g filter="url(#filter0_d_19_6363)"><path d="M793.05 41.9145L19.4238 15.71L15.7102 125.347L789.337 151.552L793.05 41.9145Z" fill="white"/></g><path d="M88.3804 27.342C94.5906 33.0353 97.9283 37.6826 98.3728 41.3135C99.6826 43.3571 99.2563 45.4897 97.0838 47.7109C96.2073 48.2329 95.6346 49.049 95.3657 50.169C93.9066 53.7664 93.1274 57.2563 93.018 60.6386C91.2904 72.1344 90.9148 82.141 91.8912 90.6685C91.7568 93.2043 92.8027 94.9546 95.0188 95.9193C104.317 96.6802 112.058 94.6765 118.253 89.9083C118.776 90.7835 118.619 92.3235 117.803 94.5487C116.976 96.7638 115.69 98.4631 113.935 99.6465C112.179 100.83 109.815 102.61 106.862 105.006C104.8 106.593 103.617 107.527 103.323 107.791C98.7219 109.253 93.6448 108.845 88.102 106.577C85.9007 105.334 83.8986 102.97 82.1057 99.4843C81.1495 96.0434 80.6065 92.9085 80.4669 90.0792C79.5152 75.6199 80.548 61.1258 83.5654 46.587C83.6401 45.1749 83.8417 43.9144 84.1803 42.8055C84.5636 40.8514 83.8216 38.8277 81.944 36.7542L80.2956 35.8194L79.9395 34.5291L79.1103 34.0666L78.7268 33.1939C79.6331 32.115 81.0948 31.1951 83.1117 30.4543L83.174 29.1813L85.7138 29.3156C86.6051 28.5151 87.4841 27.8537 88.3606 27.3317L88.3804 27.342Z" fill="#5C4C54"/><path d="M181.712 57.3215C182.398 59.1749 182.697 60.8723 182.62 62.4237C184.159 62.7594 185.799 63.6243 187.549 65.0088C191.01 68.2947 192.55 73.6868 192.169 81.185C192.125 81.9606 192.221 82.7387 192.436 83.5288C192.071 85.5828 191.044 87.864 189.355 90.3624C187.374 93.6321 184.81 95.4384 181.673 95.8012C181.141 96.0307 180.479 96.2579 179.687 96.4729C178.09 97.1714 176.862 98.4039 175.993 100.17C175.705 100.673 175.415 101.305 175.113 102.066C174.336 102.022 173.127 102.738 171.496 104.212C170.397 105.457 169.431 106.564 168.596 107.565C167.516 108.283 166.576 109.012 165.756 109.755C164.921 110.745 163.71 111.59 162.122 112.288C162.127 112.03 162.586 110.883 163.469 108.858C165.753 104.827 167.389 100.765 168.379 96.672C167.098 96.3508 165.82 95.8904 164.555 95.3107L161.491 94.3709C158.61 89.8212 158.135 83.9601 160.065 76.8076C156.026 79.7126 153.546 82.4361 152.634 84.9781C152.36 85.2221 152.415 86.6563 152.798 89.261C152.892 92.3781 152.383 94.6784 151.27 96.1816C150.172 97.4264 148.85 97.7416 147.325 97.1474C146.074 96.3091 145.243 94.8413 144.831 92.7438L144.339 87.2806L145.132 86.9362C145.528 79.1794 146.195 71.3179 147.133 63.3318C149.803 66.8426 151.432 70.5442 152.011 74.4661C153.383 72.9773 155.818 71.1688 159.305 69.0106C161.181 67.8094 162.419 66.577 162.999 65.3132C164.63 63.8389 165.726 62.7335 166.288 61.9869C167.415 60.235 168.253 59.1051 168.799 58.617L168.428 58.2123C170.361 55.977 172.51 54.5317 174.884 53.8768L175.644 54.3082C178.311 52.892 180.337 53.9031 181.722 57.3415L181.712 57.3215ZM174.117 68.5846C170.707 69.1914 167.52 70.708 164.536 73.1438L164.459 74.6952C164.674 75.4853 164.77 76.2634 164.727 77.039L164.65 78.5904C164.836 79.8976 165.044 81.0758 165.245 82.1244C165.369 84.7245 166.296 86.9704 168.008 88.8718C169.043 88.9299 169.938 89.1049 170.7 89.397C172.236 84.8155 173.476 78.3974 174.418 70.1526C174.188 69.621 174.088 69.1016 174.107 68.5844L174.117 68.5846ZM172.658 59.1826C170.005 60.3403 167.945 62.4341 166.495 65.4743C167.546 65.2738 168.469 64.9317 169.275 64.4482C171.117 64.0228 172.819 63.5949 174.402 63.1549C174.465 61.8621 174.408 60.5671 174.211 59.2597L173.418 59.6041L172.658 59.1727L172.658 59.1826ZM185.616 79.6762C186.131 74.7781 185.522 71.3832 183.801 69.4817C183.513 69.9842 183.336 71.0063 183.248 72.5675C183.007 77.2215 182.13 81.715 180.609 86.0379L180.937 87.2182C183.863 85.8165 185.422 83.3058 185.605 79.6859L185.616 79.6762Z" fill="#5C4C54"/><path d="M210.336 89.4986C215.943 86.4221 222.181 83.7649 229.049 81.5268L230.171 82.3627C228.559 83.3198 227.214 84.4109 226.105 85.6555C222.894 92.4868 219.558 96.8474 216.085 98.7471C214.747 99.4502 213.65 100.566 212.796 102.073C211.976 102.806 211.295 103.55 210.733 104.297C206.59 104.084 204.622 102.039 204.82 98.1606L205.674 96.6528L205.363 95.0846L206.156 94.7402C206.262 92.6717 207.649 90.9244 210.316 89.5082L210.336 89.4986ZM240.312 66.9441C240.752 68.5245 241.701 70.1238 243.178 71.7623C246.61 75.5652 249.459 80.7713 251.716 87.3605C252.646 89.4771 253.089 90.9281 253.045 91.7037C252.709 93.2406 252.492 94.7896 252.415 96.341C252.352 97.6338 251.762 98.8975 250.663 100.142L251.008 100.935C250.14 102.701 249.158 104.077 248.064 105.063C246.448 106.279 245.481 107.397 245.164 108.416C244.099 108.875 243.164 109.347 242.368 109.83L240.814 109.753C240.008 110.237 239.214 110.581 238.423 110.796C235.085 110.11 233.546 109.765 233.805 109.779C233.057 109.218 232.312 108.538 231.578 107.719C230.097 106.349 229.122 105.128 228.652 104.075C227.127 103.48 226.008 102.515 225.293 101.179L223.86 98.7745L222.384 97.146C222.916 96.9165 223.822 96.9623 225.103 97.2835C230.498 98.334 234.984 99.478 238.551 100.695C240.562 96.9086 241.491 93.9787 241.338 91.8958C241.473 89.3102 241.335 86.9687 240.923 84.8812C239.032 76.2281 238.381 71.2797 238.962 70.0059C239.528 69.0006 239.974 67.9833 240.291 66.9636L240.312 66.9441ZM237.832 39.6078C242.982 40.3952 248.055 42.7241 253.041 46.6141C253.467 48.4531 253.62 50.5261 253.5 52.8531C253.379 55.1801 251.961 57.5639 249.236 60.0242L248.459 59.9807L247.622 61.1006L244.126 60.9197C242.251 62.1209 240.998 63.6118 240.389 65.3927C239.675 64.0563 239.776 62.2465 240.664 59.9629C240.985 58.6845 241.202 57.1356 241.294 55.3257L241.398 53.3866C239.188 50.9389 237.64 48.274 236.754 45.3718C236.538 44.5817 236.195 43.6599 235.726 42.5966L235.769 41.821L236.918 42.2692C236.702 41.4791 236.604 40.8304 236.633 40.3133L237.842 39.598L237.832 39.6078ZM272.405 78.7068C273.152 79.2674 273.913 79.6889 274.675 79.991C278.712 82.2717 280.893 85.2365 281.228 88.8854C281.38 90.9684 281.665 92.9243 282.091 94.7632C281.012 95.4907 280.189 96.3521 279.623 97.3574L278.052 97.6682L277.604 98.8149C274.525 98.1436 272.3 95.9545 270.93 92.2475C270.23 90.6526 269.167 88.7925 267.719 86.6369C263.573 81.4976 261.392 78.5328 261.166 77.7525L261.987 77.0204L261.615 76.6157L262.435 75.8837C265.543 76.0479 268.866 76.9922 272.414 78.7269L272.405 78.7068Z" fill="#5C4C54"/><path d="M357.704 55.8904L358.826 56.7263C361.919 57.1491 364.045 58.6795 365.205 61.3277C365.694 61.8738 366.053 62.4076 366.293 62.9394C366.782 63.4855 367.269 64.151 367.743 64.9556C367.422 66.234 367.608 67.5412 368.322 68.8676C367.746 69.8727 367.439 70.8926 367.381 71.9267C366.297 72.903 365.206 73.7597 364.136 74.4774C362.783 75.439 361.57 76.4229 360.476 77.399C355.343 81.2801 351.563 84.1996 349.126 86.1474C344.253 90.0431 340.763 92.3207 338.648 92.9902L338.604 93.7658C340.345 95.1501 341.833 96.6494 343.041 98.2732C344.762 100.175 345.392 102.933 344.949 106.538C344.632 107.558 344.455 108.59 344.397 109.614C344.123 109.858 343.835 110.361 343.543 111.122C342.981 111.869 342.547 112.757 342.24 113.777C340.197 113.153 338.315 111.886 336.594 109.985C334.384 107.537 332.433 105.104 330.741 102.685C327.553 99.1552 325.084 96.693 323.334 95.3085C319.844 92.5397 317.651 89.7041 316.765 86.8119C317.053 86.3094 317.201 85.7944 317.23 85.2873C317.763 85.0578 319.822 85.2931 323.419 85.9935C325.217 86.3436 326.754 86.8086 328.02 87.3983C329.53 88.251 331.052 88.9845 332.577 89.5787C340.708 83.0032 346.916 75.8066 351.211 67.9891C350.726 67.1843 350.118 66.636 349.345 66.3437C346.468 66.7111 342.293 67.1453 336.821 67.6461C335.771 67.8566 334.85 68.0693 334.058 68.2843C321.215 70.7357 313.052 72.9012 309.579 74.8009C307.387 77.0218 304.682 76.6258 301.465 73.603C300.981 72.7982 300.504 72.1328 300.005 71.5866L299.66 70.7942C298.256 67.873 297.298 66.2635 296.794 65.9859L296.898 64.0468C297.963 63.5878 299.145 63.2602 300.454 63.0643L300.498 62.2887C301.001 62.5762 301.517 62.7247 302.035 62.7537C302.538 63.0413 303.044 63.1895 303.562 63.2185L304.322 63.65C318.245 60.481 331.707 58.588 344.718 57.961C347.322 57.8377 349.914 57.8435 352.503 57.9786C353.539 58.0367 354.448 57.9532 355.239 57.7282L356.854 56.6418L357.674 55.9098L357.704 55.8904Z" fill="#5C4C54"/><path d="M445.184 60.3988L446.306 61.2348C449.399 61.6575 451.525 63.188 452.685 65.8361C453.174 66.3822 453.533 66.9161 453.773 67.4478C454.262 67.9939 454.748 68.6594 455.223 69.4641C454.901 70.7424 455.087 72.0496 455.802 73.386C455.226 74.3911 454.919 75.4109 454.861 76.4451C453.777 77.4214 452.685 78.2781 451.616 78.9958C450.263 79.9673 449.049 80.9413 447.955 81.9174C442.823 85.7985 439.043 88.718 436.606 90.6658C431.732 94.5615 428.243 96.8391 426.127 97.5086L426.084 98.2842C427.824 99.6685 429.313 101.168 430.521 102.792C432.242 104.693 432.871 107.451 432.429 111.057C432.122 112.077 431.934 113.108 431.876 114.143C431.602 114.387 431.314 114.889 431.022 115.65C430.46 116.397 430.026 117.285 429.719 118.305C427.676 117.682 425.795 116.414 424.073 114.513C421.864 112.065 419.912 109.632 418.22 107.213C415.033 103.684 412.564 101.221 410.814 99.8368C407.323 97.068 405.13 94.2325 404.244 91.3403C404.532 90.8377 404.681 90.3228 404.71 89.8057C405.242 89.5762 407.301 89.8115 410.898 90.5119C412.696 90.862 414.233 91.327 415.499 91.9167C417.009 92.7694 418.532 93.5029 420.056 94.0971C428.187 87.5216 434.395 80.325 438.69 72.5075C438.206 71.7026 437.597 71.1544 436.825 70.8621C433.947 71.2295 429.773 71.6637 424.301 72.1645C423.25 72.375 422.329 72.5777 421.548 72.8029C408.704 75.2543 400.541 77.4198 397.068 79.3195C394.876 81.5403 392.171 81.1443 388.955 78.1216C388.48 77.3169 387.994 76.6514 387.505 76.1053L387.16 75.3129C385.756 72.3917 384.797 70.7823 384.294 70.5047L384.397 68.5655C385.462 68.1065 386.644 67.779 387.954 67.583L387.997 66.8074C388.501 67.095 389.017 67.2434 389.534 67.2724C390.038 67.56 390.554 67.7084 391.061 67.7373L391.822 68.1687C405.744 64.9998 419.206 63.1067 432.217 62.4798C434.821 62.3564 437.413 62.3622 440.003 62.4974C441.039 62.5554 441.947 62.4719 442.739 62.247L444.353 61.1606L445.173 60.4285L445.184 60.3988Z" fill="#5C4C54"/><path d="M490.943 61.5308C492.771 63.0262 494.072 63.8951 494.865 64.1281C496.162 65.196 496.867 66.5024 496.989 68.0573C495.681 70.9905 494.896 73.1167 494.633 74.4558C499.411 74.8982 502.172 77.1466 502.919 81.1809C503.072 82.1392 503.227 82.9183 503.396 83.5284L503.052 84.4082L503.335 84.7218C502.606 91.0295 501.928 94.9691 501.303 96.5407C501.272 97.1373 501.144 97.6328 500.928 98.0171C500.699 98.5506 500.571 99.0261 500.554 99.424C500.095 100.6 499.343 101.961 498.319 103.505C497.497 104.865 496.745 106.265 496.072 107.696C495.398 109.137 494.379 110.423 493.023 111.544L491.524 112.891C490.896 113.458 490.285 113.626 489.701 113.397C489.14 113.566 488.758 113.748 488.545 113.934C487.903 114.699 487.395 115.277 487.029 115.659C485.925 116.655 485.148 116.611 484.708 115.538C484.371 114.318 483.865 113.025 483.182 111.64C481.703 110.16 480.797 108.92 480.447 107.899C479.534 107.057 478.649 105.837 477.779 104.239C477.053 104.704 476.291 104.979 475.482 105.054C474.673 105.14 474.217 104.405 474.095 102.85C474.139 102.054 474.072 101.347 473.903 100.736C474.332 100.157 474.562 99.5735 474.592 98.9769C477.136 94.3634 479.47 89.7363 481.616 85.0959C477.879 86.7023 474.578 85.6289 471.723 81.8859L471.47 80.9756C471.712 80.2433 472.306 79.8955 473.252 79.942C476.76 78.9188 480.268 77.8061 483.789 76.584L485.643 75.482C486.281 73.7613 487.177 71.0398 488.319 67.2975C487.494 64.9041 488.096 62.9638 490.127 61.4667L490.953 61.5111L490.943 61.5308ZM494.273 81.3373C492.686 82.0061 491.499 82.6222 490.721 83.1759C487.016 90.9341 482.989 97.6715 478.642 103.398L481.156 105.552C482.538 106.871 484.231 107.557 486.234 107.612C487.318 106.069 488.166 104.879 488.779 104.034C489.392 103.189 490.008 102.185 490.627 101.021C494.511 92.7283 495.821 86.2716 494.556 81.6608L494.273 81.3472L494.273 81.3373ZM519.329 76.0352C521.586 76.9509 523.283 77.9363 524.431 79.0016C524.763 79.4156 525.315 79.7438 526.108 79.9867L528.258 81.8958C531.039 84.1843 532.315 87.6009 532.085 92.1357C532.041 92.9312 531.518 93.8079 530.524 94.7559C529.896 95.3221 529.289 95.7892 528.725 96.1575C526.282 95.0295 524.539 93.2669 523.514 90.87L522.932 90.5412L522.319 90.8092C521.788 90.3818 521.534 90.0687 521.538 89.8697C521.582 89.0742 521.727 88.1809 521.974 87.1899C521.819 86.381 521.3 85.257 520.418 83.8082C519.137 82.3922 517.668 80.9429 515.989 79.4602C514.337 77.5797 513.535 76.1323 513.583 75.1378C514.957 74.6643 516.866 74.9567 519.319 76.035L519.329 76.0352ZM534.603 75.3984C534.808 76.2082 534.581 77.1996 533.923 78.3625C533.314 79.5263 532.483 79.7505 531.449 79.0256C530.405 78.3006 529.279 77.1062 528.063 75.4425C527.249 74.6518 526.523 74.0119 525.873 73.5327C525.224 73.0534 524.783 72.6077 524.551 72.1955L524.88 71.614L524.665 71.3813C526.742 68.8897 530.058 70.2321 534.593 75.4181L534.603 75.3984ZM539.574 67.7121C540.437 68.5037 541.27 69.3246 542.073 70.1649C542.31 71.4232 542.198 72.6654 541.728 73.8914C541.317 74.0235 540.904 74.2551 540.49 74.5763L539.659 74.7608C538.578 74.4531 537.48 73.3488 536.378 71.4382C535.342 70.2355 534.547 69.5248 534.013 69.2964C533.864 69.2341 533.562 68.8505 533.096 68.1256C533.176 67.5796 533.114 67.1306 532.941 66.7692L533.882 65.9895C535.95 65.6975 537.844 66.2683 539.574 67.7022L539.574 67.7121Z" fill="#5C4C54"/><path d="M642.365 51.9055L643.098 52.7246C645.458 52.3282 647.215 53.3246 648.399 55.7244C649.909 56.5771 651.302 57.2984 652.568 57.8781C654.093 58.4723 655.229 59.0497 655.987 59.6104L656.315 60.7907C656.257 61.8249 656.082 62.7176 655.789 63.4789C654.998 63.6939 654.334 64.0505 653.787 64.5385C652.995 64.7535 652.331 65.1101 651.784 65.5982C650.763 65.2915 649.854 65.3651 649.048 65.8486L649.393 66.641C648.007 68.3883 646.505 69.8649 644.879 71.0705C641.009 70.6142 637.095 70.9334 633.148 72.0186L633.011 74.7335C635.874 74.6246 638.627 73.9863 641.289 72.8288L643.576 73.725C644.597 74.0416 645.602 74.7362 646.58 75.8184C647.572 76.6421 648.704 77.4782 649.955 78.3264L651.12 78.3867C651.609 78.9328 652.11 79.3497 652.614 79.6274C653.391 79.6709 654.28 80.1046 655.273 80.9283C655.684 83.0258 655.578 85.0943 654.954 87.1337C654.633 88.4121 654.43 89.7025 654.368 90.9953C654.065 91.7564 653.76 92.6469 653.453 93.6667L651.779 95.9166C651.428 97.712 650.591 98.8319 649.267 99.2864C648.735 99.5159 648.2 99.8748 647.653 100.373C646.861 100.588 646.082 100.684 645.305 100.64L644.934 100.235C644.142 100.45 643.104 100.532 641.809 100.459C641.018 100.674 640.109 100.758 639.073 100.709C636.786 99.8132 634.57 99.9633 632.436 101.15C632.378 102.184 632.447 103.35 632.644 104.657C639.195 103.439 645.798 103.784 652.444 105.683L654.611 108.906L654.604 109.294C654.032 110.04 653.341 110.785 652.531 111.517C651.999 111.747 651.464 112.115 650.917 112.603C650.355 113.35 649.286 114.078 647.689 114.766L645.746 114.662C644.725 114.356 643.831 114.171 643.054 114.137C638.206 112.589 634.595 112.147 632.221 112.802C631.174 117.929 630.571 122.179 630.392 125.54C630.027 127.594 629.649 129.777 629.279 132.09C629.217 133.383 629.013 134.792 628.666 136.339C628.148 136.31 627.225 136.652 625.887 137.365C625.34 137.853 624.805 138.222 624.273 138.452L621.744 142.209C621.241 141.922 620.593 141.89 619.802 142.105C617.954 132.677 617.518 123.462 618.504 114.442C617.224 114.12 615.409 114.148 613.05 114.545L610.675 115.2L609.466 115.915C606.388 115.243 603.464 116.516 600.706 119.742C599.334 121.231 597.966 122.451 596.623 123.423C594.46 125.126 592.671 127.106 591.255 129.36C589.125 130.288 587.035 130.699 584.963 130.593L584.203 130.161C583.014 128.03 581.953 126.031 581.009 124.163L581.802 123.819L581.457 123.026C581.501 122.251 581.662 121.616 581.95 121.104L583.547 120.405L583.607 119.242L584.773 119.302L584.833 118.139L585.687 116.631L586.032 117.423L586.826 117.079C587.239 113.991 587.587 112.325 587.861 112.081C588.438 105.89 589.03 99.4402 589.637 92.7323L588.74 95.0157C588.437 95.7768 588.132 96.6673 587.825 97.6871L587.48 96.8947L584.831 102.979C584.514 103.999 584.077 105.017 583.501 106.022C582.906 107.544 582.169 109.193 581.301 110.96C579.309 114.229 577.716 117.516 576.512 120.819C575.691 121.551 574.868 122.422 574.043 123.413C573.194 124.662 571.822 126.151 569.917 127.87C569.4 127.84 568.476 128.183 567.138 128.896C563.68 130.527 561.416 131.711 560.337 132.429L558.783 132.352L558.023 131.92C565.364 120.384 571.694 108.521 576.992 96.3617C577.386 93.7907 577.233 91.7077 576.534 90.1227C574.692 90.5481 572.704 91.3492 570.569 92.5359C569.231 93.2489 568.034 93.835 566.979 94.2942C565.21 93.427 563.849 92.0593 562.904 90.2013C562.43 89.3966 561.943 88.7311 561.454 88.185C561.532 86.6336 562.239 85.5014 563.578 84.7984L564.01 84.0396C567.391 83.9597 570.674 83.2213 573.858 81.8241C570.474 76.9868 567.611 72.0393 565.277 67.0015C565.335 65.9674 565.241 65.0599 565.026 64.2698L566.191 64.3301C567.486 64.3927 568.766 64.7238 570.032 65.3035C571.586 65.3807 573.372 65.86 575.41 66.7419L575.799 66.7488C577.568 67.626 578.529 69.1061 578.681 71.1891L579.441 71.6205L578.992 72.7672L579.649 75.1377L579.217 75.8965L578.768 77.0433L579.079 78.6114L578.242 79.7314C579.796 79.8085 581.496 79.51 583.352 78.826C583.138 72.8501 583.054 66.8964 583.109 60.9352L581.615 59.6946L582.021 59.3235C581.302 58.2558 580.702 57.1802 580.242 56.127L580.648 55.7559L580.752 53.8167L581.157 53.4457L580.829 52.2654C584.225 51.917 587.677 52.8736 591.196 55.1353C592.477 55.4565 593.759 55.6582 595.054 55.7208C595.802 56.2814 596.42 56.8298 596.919 57.3761C597.863 59.2441 597.772 61.0441 596.644 62.8059L596.989 63.5983C596.427 64.3449 595.993 65.2331 595.686 66.2529L593.847 71.5954C594.048 72.6441 593.724 74.0518 592.846 75.818C598.114 69.3513 600.444 64.4156 599.836 61.0207L600.612 61.0642L601.433 60.3321L602.21 60.3757C603.72 61.2284 605.357 62.2227 607.122 63.3487L610.186 64.2885L611.204 59.678L610.099 58.4542L611.281 58.1266C611.617 56.5897 611.448 54.8947 610.763 53.0511L611.556 52.7068C612.778 54.0621 613.996 55.686 615.199 57.5586C623.851 55.9292 632.623 54.3119 641.534 52.6971L642.354 51.965L642.365 51.9055ZM583.285 87.7333C586.119 88.1415 588.245 89.6719 589.664 92.3346C590.288 90.2952 590.118 88.6001 589.145 87.2591C589.174 86.7421 589.333 86.2372 589.611 85.7245L590.405 85.3802L591.57 85.4405L592.363 85.0961L599.891 90.1457L598.95 93.2048C598.628 94.4831 598.568 95.6466 598.769 96.6953C598.268 101.335 597.898 105.977 597.656 110.631C600.553 109.746 603.447 108.991 606.34 108.355L607.073 109.174L618.88 106.674C618.958 105.123 618.901 103.828 618.69 102.779C617.913 102.736 616.587 103.32 614.711 104.521C613.905 105.004 612.982 105.336 611.932 105.547C610.896 105.489 609.843 105.829 608.764 106.546C607.561 104.674 607.003 102.952 607.08 101.41C607.123 100.635 607.027 99.8566 606.812 99.0665C606.707 95.9492 606.61 92.9714 606.491 90.1126L603.772 89.9752L603.012 89.5437C602.341 87.4317 602.303 85.6195 602.909 84.0973L602.564 83.3049C596.348 82.9865 589.912 84.4657 583.255 87.7526L583.285 87.7333ZM607.487 71.4872C606.94 71.9752 606.264 72.461 605.468 72.9347C604.446 72.6281 603.384 72.9577 602.3 73.934C603.825 74.5282 605.22 75.1201 606.496 75.7099C607.091 74.1875 607.424 72.78 607.497 71.4873L607.487 71.4872ZM620.175 74.4776C617.815 74.874 615.595 75.2829 613.494 75.6838C613.436 76.718 613.246 77.8792 612.925 79.1575C615.27 79.0197 617.632 78.4939 620.011 77.5802L620.175 74.4776ZM618.137 61.1538C617.36 61.1102 616.839 61.2205 616.566 61.4645L614.969 62.163C614.603 64.217 614.355 66.4123 614.235 68.7393L620.527 67.5064C620.101 65.6674 619.672 63.9678 619.231 62.3874L620.085 60.8795C619.568 60.8505 618.918 60.9485 618.126 61.1635L618.137 61.1538ZM619.719 83.388C618.136 83.8279 616.695 84.141 615.386 84.3269C614.839 84.815 614.421 85.3153 614.143 85.818L615.188 88.2053C616.512 87.7608 617.955 87.3085 619.538 86.8785L619.719 83.388ZM615.094 97.5302C616.403 97.3442 617.844 97.0212 619.427 96.5912C619.231 95.2838 619.174 93.9889 619.236 92.696C615.64 91.9956 614.256 93.6037 615.093 97.5401L615.094 97.5302ZM641.762 56.145C637.024 57.4551 632.158 58.6335 627.175 59.6705C628.412 60.7673 629.802 61.6179 631.327 62.2121L631.699 62.6168L633.253 62.6939L633.581 63.8742L634.729 64.3225L635.895 64.3828C637.741 63.6986 639.453 63.2709 641.022 63.0895C641.876 61.5816 642.212 60.0448 642.04 58.479L642.445 58.1079C641.971 57.3033 641.743 56.6523 641.772 56.1253L641.762 56.145ZM638.613 79.3112C636.512 79.7221 634.551 80.1355 632.709 80.5609C632.373 82.0978 632.168 83.5176 632.096 84.8103C634.455 84.4138 636.788 84.4051 639.105 84.7843C639.426 83.506 639.628 82.2255 639.691 80.9327C639.202 80.3866 638.833 79.8525 638.603 79.321L638.613 79.3112ZM637.276 90.1271C634.135 90.7386 632.425 91.047 632.166 91.0324C632.108 92.0666 632.191 92.9738 632.417 93.7641C633.97 93.8413 635.526 93.799 637.095 93.6176C637.416 92.3392 637.733 91.3196 638.036 90.5585L637.276 90.1271Z" fill="#5C4C54"/><path d="M704.969 59.4078C706.509 59.7435 708.016 60.7355 709.493 62.364C710.73 63.4608 712.106 64.5699 713.602 65.6912C713.573 66.2082 713.673 66.7276 713.913 67.2594C714.569 69.6299 714.724 71.5736 714.388 73.1204C713.826 73.867 713.536 74.4989 713.507 75.016C712.409 76.2607 710.782 77.4663 708.648 78.6531C707.569 79.3706 702.028 83.7522 692.007 91.7874C691.461 92.2755 690.673 92.8588 689.634 93.5174C688.596 94.1759 687.865 95.467 687.443 97.3905C688.171 98.4684 689.279 99.5629 690.774 100.674C693.977 103.946 697.809 107.646 702.273 111.766C708.189 117.772 711.673 123.129 712.736 127.856C713.378 130.485 713.888 133.231 714.256 136.094C713.436 136.826 712.755 137.571 712.193 138.317C711.373 139.049 710.176 139.635 708.603 140.076C708.1 139.788 707.584 139.64 707.066 139.611C704.261 138.685 701.594 135.055 699.064 128.7C695.282 121.507 690.551 115.043 684.88 109.31C681.893 106.828 679.568 104.11 677.905 101.174C676.76 98.2675 676.351 96.0406 676.697 94.5039C678.127 91.991 678.969 90.6023 679.242 90.3583L680.036 90.0139C681.71 87.7641 683.644 85.5387 685.836 83.3178C688.834 80.6234 693.08 76.1792 698.592 69.9856C701.029 68.0378 701.91 66.1423 701.225 64.2888C700.51 62.9524 700.83 61.8034 702.182 60.8418C702.729 60.3538 703.264 59.9949 703.797 59.7554L704.945 60.2037L704.989 59.4281L704.969 59.4078Z" fill="#5C4C54"/><defs><filter id="filter0_d_19_6363" x="-3.91006e-05" y="-8.58307e-06" width="840.18" height="198.682" filterUnits="userSpaceOnUse" color-interpolation-filters="sRGB"><feFlood flood-opacity="0" result="BackgroundImageFix"/><feColorMatrix in="SourceAlpha" type="matrix" values="0 0 0 0 0 0 0 0 0 0 0 0 0 0 0 0 0 0 127 0" result="hardAlpha"/><feOffset dx="15.71" dy="15.71"/><feGaussianBlur stdDeviation="15.71"/><feColorMatrix type="matrix" values="0 0 0 0 0 0 0 0 0 0 0 0 0 0 0 0 0 0 0.45 0"/><feBlend mode="normal" in2="BackgroundImageFix" result="effect1_dropShadow_19_6363"/><feBlend mode="normal" in="SourceGraphic" in2="effect1_dropShadow_19_6363" result="shape"/></filter></defs></svg>
