<svg width="469" height="142" viewBox="0 0 469 142" fill="none" xmlns="http://www.w3.org/2000/svg"><g filter="url(#filter0_d_19_6349)"><path d="M451.211 7.37998L7.37988 24.9733L11.4726 128.222L455.304 110.629L451.211 7.37998Z" fill="white"/></g><path d="M373.554 49.7775C373.134 49.5059 372.976 49.1519 372.963 48.8162C372.937 48.1687 373.465 47.5473 374.209 47.5178C374.472 47.5074 374.764 47.5919 375.058 47.7483C376.434 48.5105 378.344 50.044 379.501 51.3672C379.828 51.7385 379.963 52.1175 379.977 52.4532C380.007 53.2206 379.382 53.8218 378.639 53.8513C378.231 53.8675 377.793 53.7167 377.44 53.2984C376.284 51.9991 374.763 50.5943 373.554 49.7775Z" fill="#5C4C54"/><path d="M358.384 42.1645L358.435 42.2345C359.426 41.7869 360.497 41.5523 361.457 41.5142C365.198 41.366 367.725 43.3074 367.857 46.6408C368.023 50.8375 365.108 53.6431 360.432 53.8285C357.146 53.9587 354.993 52.3628 354.909 50.2284C354.837 48.4299 355.986 47.1113 358.12 47.0267C360.423 46.9355 362.09 48.4066 362.881 50.7771C364.339 49.9987 365.123 48.5746 365.052 46.776C364.984 45.0733 363.587 43.7596 361.285 43.8509C358.863 43.9469 356.546 44.8794 353.687 47.2745C353.361 47.5516 353.006 47.6858 352.695 47.6981C351.951 47.7276 351.327 47.1279 351.299 46.4324C351.284 46.0487 351.436 45.6344 351.854 45.2815C354.551 43.013 357.518 39.7008 359.639 36.8546C358.304 37.1237 356.68 37.3562 354.791 37.5752C353.954 37.6564 353.472 37.003 353.445 36.3315C353.421 35.732 353.78 35.0933 354.571 35.0379C356.508 34.841 359.039 34.4525 361.327 34.0015C362.495 33.787 363.34 34.4981 363.376 35.4094C363.391 35.7691 363.262 36.1585 362.989 36.5536C361.647 38.4323 359.907 40.5909 358.384 42.1645ZM360.384 51.4285C359.916 49.9099 359.164 49.123 358.157 49.1629C357.653 49.1829 357.31 49.6048 357.331 50.1324C357.362 50.9238 358.298 51.5112 360.193 51.4361C360.265 51.4332 360.313 51.4313 360.384 51.4285Z" fill="#5C4C54"/><path d="M332.617 34.4189C334.207 34.5481 336.192 34.9257 337.626 35.3733C338.307 35.5625 338.639 36.0777 338.659 36.5813C338.686 37.2528 338.208 37.9202 337.464 37.9497C337.297 37.9564 337.128 37.939 336.933 37.8747C335.524 37.4742 333.708 37.1138 332.26 36.931C331.464 36.8425 331.107 36.3282 331.085 35.7767C331.058 35.0812 331.628 34.314 332.617 34.4189ZM328.879 40.7159L337.246 39.1113C338.558 38.8671 339.407 39.6981 339.444 40.6334C339.46 41.0411 339.333 41.4545 339.011 41.8275L335.169 46.087L335.22 46.1571C335.599 46.0219 335.956 45.9357 336.291 45.9224C337.85 45.8606 338.823 46.7828 339.002 48.8654L339.046 49.368C339.202 50.875 339.484 51.3202 340.683 51.2727C341.906 51.2242 343.264 50.9542 344.525 50.64C344.668 50.6103 344.786 50.5816 344.93 50.5759C345.746 50.5436 346.228 51.197 346.255 51.8685C346.277 52.444 345.988 53.0079 345.322 53.1784C343.705 53.6028 342.176 53.8075 340.833 53.8608C338.051 53.971 336.712 52.8952 336.424 49.8803L336.378 49.3297C336.295 48.4442 335.969 48.0969 335.442 48.1178C334.722 48.1463 333.895 48.4914 332.873 49.3725C332.037 50.1022 330.749 51.5224 328.891 53.7337C328.569 54.1067 328.215 54.2648 327.832 54.2801C327.112 54.3086 326.466 53.7577 326.438 53.0623C326.425 52.7266 326.531 52.3621 326.853 52.013L335.631 41.9855L335.604 41.9145L329.389 43.2657C328.436 43.4716 327.831 42.751 327.803 42.0316C327.78 41.4561 328.093 40.8672 328.879 40.7159Z" fill="#5C4C54"/><path d="M316.765 46.5524L306.957 46.9412C304.439 47.041 303.517 46.2128 303.441 44.2943L303.22 38.7067C303.144 36.7882 303.997 35.8897 306.515 35.7899L316.323 35.4011C318.865 35.3004 319.786 36.1285 319.863 38.047L320.084 43.6346C320.128 45.9627 318.849 46.4217 316.765 46.5524ZM307.089 44.8223L310.326 44.6939L310.227 42.1999L305.911 42.371L305.976 44.0257C306.007 44.7931 306.416 44.8249 307.089 44.8223ZM305.83 40.3326L310.147 40.1615L310.052 37.7634L306.814 37.8917C305.927 37.9269 305.744 38.1743 305.768 38.7738L305.83 40.3326ZM312.57 37.6636L312.665 40.0617L317.389 39.8744L317.327 38.3156C317.303 37.7161 317.078 37.4848 316.215 37.5191L312.57 37.6636ZM317.47 41.9128L312.745 42.1001L312.844 44.5941L316.489 44.4496C317.353 44.4154 317.56 44.191 317.535 43.5675L317.47 41.9128ZM306.691 54.1814L306.503 49.4331C306.475 48.7137 307.109 48.3522 307.78 48.3256C308.428 48.3 309.088 48.61 309.117 49.3295L309.287 53.6221C309.311 54.2216 309.556 54.356 312.05 54.2571C314.976 54.1412 315.418 53.7874 315.509 52.4387C315.554 51.7404 316.14 51.3809 316.739 51.3572C317.411 51.3305 318.123 51.7346 318.084 52.5528C317.95 55.2482 316.79 56.279 312.138 56.4634C307.486 56.6478 306.77 56.1718 306.691 54.1814ZM302.957 50.2702C303.151 49.7101 303.621 49.4512 304.101 49.4322C304.773 49.4056 305.438 49.8356 305.467 50.555C305.472 50.6989 305.455 50.8677 305.39 51.0384C304.96 52.3045 304.36 53.5292 303.795 54.4403C303.502 54.9322 303.078 55.1412 302.647 55.1583C301.975 55.1849 301.332 54.706 301.305 54.0346C301.297 53.8187 301.358 53.5521 301.516 53.2817C302.08 52.3706 302.569 51.3664 302.957 50.2702ZM312.121 47.5531C312.737 47.937 313.577 48.5282 314.125 49.0349C314.473 49.3333 314.607 49.6643 314.619 49.9761C314.645 50.6235 314.091 51.1979 313.443 51.2236C313.156 51.235 312.84 51.1514 312.542 50.899C311.946 50.4183 311.299 49.8434 310.681 49.3876C310.334 49.1371 310.177 48.8071 310.165 48.4953C310.141 47.8958 310.648 47.3473 311.319 47.3207C311.559 47.3112 311.85 47.3717 312.121 47.5531ZM320.077 48.919C320.926 49.726 321.757 50.7019 322.369 51.5904C322.522 51.8245 322.604 52.0614 322.613 52.3012C322.642 53.0207 322.017 53.6219 321.346 53.6485C320.962 53.6637 320.548 53.512 320.242 53.0678C319.683 52.2973 318.899 51.3196 318.123 50.5097C317.873 50.2554 317.765 49.9714 317.756 49.7316C317.73 49.0841 318.333 48.5318 319.028 48.5043C319.388 48.49 319.753 48.6196 320.077 48.919Z" fill="#5C4C54"/><path d="M284.817 45.8732C284.198 43.5919 283.725 40.7524 283.594 37.443C283.56 36.5797 284.238 36.1205 284.934 36.0929C285.629 36.0653 286.342 36.4694 286.376 37.3328C286.482 40.0186 286.793 42.4082 287.206 44.3374C288.64 43.56 290.245 42.8478 291.856 42.2796C291.998 42.2259 292.141 42.1962 292.285 42.1905C293.028 42.1611 293.558 42.8126 293.585 43.484C293.605 43.9876 293.36 44.4777 292.744 44.6943C290.637 45.4504 288.278 46.5286 286.548 47.7261C284.538 49.1508 283.871 50.4983 283.92 51.7213C283.979 53.2082 284.992 53.9366 288.805 53.7854C290.724 53.7094 292.42 53.474 293.752 53.157C294.776 52.9243 295.381 53.6449 295.41 54.3883C295.434 54.9878 295.121 55.5767 294.384 55.774C292.767 56.1744 290.925 56.3675 288.887 56.4483C283.851 56.6479 281.272 55.2129 281.144 51.9755C281.066 50.009 281.9 48.0304 284.817 45.8732Z" fill="#5C4C54"/><path d="M266.732 42.6991C266.497 42.8285 266.332 42.9071 266.164 42.9137C265.804 42.928 265.625 42.6469 265.614 42.3591C265.608 42.2152 265.674 42.0685 265.837 41.9419C266.846 41.3255 267.304 40.7789 267.269 39.8916C267.257 39.5798 267.182 39.5107 266.822 39.525C265.983 39.5583 265.192 38.9891 265.15 37.934C265.107 36.8548 265.896 36.151 266.951 36.1092C268.078 36.0645 269.05 36.9387 269.115 38.5934C269.187 40.416 268.139 41.8506 266.732 42.6991ZM271.696 42.5023C271.485 42.6307 271.32 42.7093 271.152 42.716C270.792 42.7303 270.589 42.4501 270.578 42.1623C270.572 42.0184 270.638 41.8717 270.825 41.7442C271.81 41.1287 272.292 40.5811 272.257 39.6938C272.245 39.3821 272.17 39.313 271.81 39.3273C270.971 39.3605 270.18 38.7914 270.138 37.7362C270.095 36.6571 270.884 35.9533 271.939 35.9115C273.066 35.8668 274.038 36.741 274.103 38.3957C274.176 40.2183 273.128 41.6529 271.696 42.5023Z" fill="#5C4C54"/><path d="M250.216 37.4691C251.952 37.6405 254.207 38.1756 255.815 38.7604C256.424 38.9764 256.708 39.4695 256.728 39.9732C256.755 40.6686 256.28 41.408 255.537 41.4375C255.393 41.4432 255.223 41.4019 255.054 41.3606C253.522 40.8929 251.388 40.377 249.769 40.1289C249.067 40.0126 248.735 39.4974 248.713 38.9458C248.682 38.1784 249.227 37.3642 250.216 37.4691ZM246.811 47.3077C246.599 47.4122 246.385 47.4687 246.193 47.4763C245.425 47.5067 244.847 46.8571 244.821 46.1857C244.803 45.73 245.047 45.2399 245.66 44.9514C247.899 43.8539 250.634 43.169 252.504 43.0949C256.269 42.9457 258.111 44.578 258.239 47.7914C258.385 51.4845 256.859 55.3881 253.338 58.0736C253.035 58.3018 252.727 58.4101 252.439 58.4215C251.672 58.4519 251.048 57.8522 251.02 57.1567C251.004 56.749 251.179 56.3098 251.668 55.9301C254.578 53.605 255.576 50.8994 255.458 47.9257C255.396 46.3669 254.716 45.5772 252.654 45.659C251.215 45.716 249.003 46.2601 246.811 47.3077Z" fill="#5C4C54"/><path d="M228.444 42.0551L228.418 41.9841C225.778 42.6651 224.301 42.9639 223.371 43.1209C222.487 43.252 221.98 42.5755 221.952 41.8801C221.93 41.3045 222.243 40.7396 222.958 40.5912C223.843 40.4841 225.347 40.2563 229.936 39.0896C230.102 39.035 230.27 39.0284 230.438 39.0217C231.445 38.9818 232.168 39.6497 232.201 40.489C232.216 40.8487 232.087 41.2381 231.813 41.6093C230.332 43.6135 228.256 45.7854 226.158 47.3818L226.183 47.4288C229.178 46.6376 231.985 45.9499 235.934 44.9767C236.935 44.7689 237.562 45.4406 237.589 46.136C237.611 46.6876 237.296 47.2285 236.536 47.4268C234.919 47.8512 233.402 48.3676 232.485 48.8604C230.041 50.2302 229.274 52.0861 229.333 53.5729C229.399 55.2276 230.54 56.1431 233.783 56.1587C234.671 56.1475 235.129 56.7779 235.154 57.4014C235.18 58.0728 234.728 58.7873 233.768 58.8013C229.424 58.9015 226.78 57.0127 226.656 53.8952C226.593 52.3124 227.057 50.6848 228.678 49.1554L228.652 49.1084C226.704 49.642 224.85 50.1478 222.714 50.7849C221.882 51.01 221.1 51.2812 220.294 51.5533C220.128 51.6079 219.985 51.6376 219.841 51.6433C219.05 51.6747 218.496 51.0241 218.468 50.3287C218.448 49.8251 218.715 49.2861 219.401 49.0187C220.654 48.5127 221.995 47.811 223.069 47.0239C225.146 45.5004 226.975 43.7706 228.444 42.0551Z" fill="#5C4C54"/><path d="M208.541 47.7199C207.513 47.8327 206.507 47.9206 205.596 47.9567C204.709 47.9919 204.157 48.0137 203.532 47.9905C202.762 47.973 202.355 47.3886 202.331 46.7891C202.306 46.1416 202.713 45.501 203.53 45.5166C204.082 45.5187 204.683 45.519 205.426 45.4895C206.385 45.4515 207.391 45.3636 208.371 45.2527C208.266 43.8157 208.139 42.4276 207.962 40.9935C207.882 40.1801 208.538 39.7698 209.234 39.7422C209.857 39.7175 210.518 40.0275 210.594 40.7451C210.767 42.0833 210.895 43.4713 211 44.9083C211.858 44.7542 212.669 44.6019 213.382 44.4295C214.288 44.2495 214.842 44.9001 214.869 45.5716C214.89 46.0991 214.598 46.6151 213.956 46.7847C213.1 46.9867 212.147 47.1926 211.145 47.3525C211.192 47.951 211.216 48.5506 211.24 49.1501C211.423 53.7785 210.312 57.2572 208.388 59.6153C208.091 59.9873 207.69 60.1714 207.306 60.1866C206.586 60.2151 205.917 59.6892 205.889 58.9698C205.876 58.658 205.96 58.3425 206.234 57.9953C207.903 55.8635 208.758 53.1876 208.602 49.2547C208.581 48.7271 208.561 48.2235 208.541 47.7199ZM196.675 41.6331C196.816 40.955 197.379 40.6204 197.979 40.5966C198.674 40.5691 199.387 40.9732 199.417 41.7406C199.421 41.8365 199.402 41.9574 199.382 42.0782C198.741 45.2981 198.535 48.5729 198.651 51.4986C198.733 53.561 199.032 55.6627 199.381 57.1861C199.41 57.3051 199.438 57.424 199.443 57.5439C199.476 58.3833 198.799 58.8665 198.103 58.8941C197.504 58.9178 196.891 58.6059 196.694 57.8691C196.241 56.1337 195.96 53.911 195.87 51.6328C195.746 48.4913 195.968 45.0237 196.675 41.6331Z" fill="#5C4C54"/><path d="M178.295 54.227L177.432 54.2612C175.849 54.3239 175.126 53.6561 175.067 52.1692L174.942 49.0277C174.884 47.5409 175.551 46.8178 177.134 46.7551L177.998 46.7209L177.961 45.8096L174.94 45.9294C174.388 45.9512 174.08 45.459 174.061 44.9794C174.041 44.4758 174.31 43.9848 174.862 43.9629L177.883 43.8431L177.848 42.9558C177.205 43.0774 176.583 43.1501 175.985 43.2218C175.268 43.2983 174.838 42.7629 174.816 42.2113C174.797 41.7317 175.091 41.2637 175.737 41.1901C177.649 40.9462 179.842 40.547 181.526 39.9998C181.644 39.9471 181.764 39.9424 181.884 39.9376C182.507 39.9129 182.936 40.4243 182.958 40.9759C182.975 41.4076 182.728 41.8497 182.134 42.0173C181.47 42.2118 180.732 42.3852 179.994 42.5585L180.042 43.7576L182.872 43.6454C183.519 43.6197 183.85 44.087 183.87 44.5906C183.889 45.0702 183.597 45.5862 182.949 45.6119L180.12 45.724L180.156 46.6353L181.067 46.5992C182.65 46.5365 183.373 47.2044 183.432 48.6912L183.556 51.8327C183.615 53.3195 182.947 54.0426 181.365 54.1053L180.453 54.1414L180.49 55.0767L182.529 54.9959C183.104 54.9731 183.387 55.4422 183.406 55.9219C183.425 56.4015 183.18 56.8916 182.605 56.9144L180.566 56.9952L180.604 57.9305C181.175 57.8117 181.723 57.6939 182.223 57.578C182.984 57.3798 183.485 57.9123 183.507 58.4639C183.523 58.8716 183.299 59.2887 182.754 59.4545C180.759 60.0379 178.091 60.6001 175.703 60.9349C174.962 61.0363 174.531 60.453 174.508 59.8774C174.488 59.3738 174.757 58.8828 175.426 58.8082C176.407 58.6973 177.433 58.5365 178.459 58.3517L178.408 57.0807L176.154 57.1701C175.602 57.192 175.296 56.7238 175.277 56.2441C175.258 55.7645 175.526 55.2735 176.078 55.2516L178.332 55.1623L178.295 54.227ZM177.431 52.4358L178.343 52.3997L178.297 51.2486L177.002 51.2999L177.033 52.0673C177.043 52.3311 177.168 52.4462 177.431 52.4358ZM180.261 52.3236L181.22 52.2856C181.508 52.2742 181.6 52.1745 181.589 51.8867L181.559 51.1193L180.216 51.1725L180.261 52.3236ZM181.494 49.4886L181.466 48.7931C181.455 48.5053 181.355 48.4132 181.067 48.4246L180.108 48.4626L180.151 49.5418L181.494 49.4886ZM178.19 48.5387L177.278 48.5748C176.991 48.5862 176.898 48.686 176.91 48.9737L176.937 49.6692L178.232 49.6179L178.19 48.5387ZM171.25 50.9995L171.205 51.0734C170.891 51.6382 170.469 51.8952 170.037 51.9123C169.413 51.937 168.842 51.4552 168.815 50.7838C168.807 50.5679 168.869 50.3253 169.003 50.0558C170.208 47.7502 171.132 44.399 171.601 41.0658C171.671 40.4145 172.234 40.08 172.81 40.0571C173.553 40.0277 174.292 40.5028 174.162 41.4687C173.885 43.5693 173.37 45.7034 172.701 47.6274C173.185 47.7043 173.581 48.0008 173.602 48.5284L174.115 61.4782C174.141 62.1257 173.553 62.4613 172.93 62.486C172.33 62.5097 171.695 62.2227 171.669 61.5752L171.25 50.9995ZM188.328 47.3922L187.73 47.44C187.836 53.1522 186.953 57.5347 184.977 60.9997C184.707 61.4667 184.307 61.6747 183.923 61.6899C183.324 61.7137 182.731 61.3048 182.706 60.6813C182.698 60.4655 182.76 60.2228 182.894 59.9773C184.734 56.7099 185.517 52.8118 185.429 47.5792L184.639 47.6345C184.04 47.6823 183.705 47.0951 183.682 46.5196C183.661 45.992 183.904 45.4539 184.527 45.4292L185.342 45.3729L185.16 40.7925C185.134 40.121 185.697 39.7865 186.272 39.7637C186.848 39.7409 187.436 40.0298 187.463 40.7013L187.642 45.2337L188.505 45.1755C190.277 45.0572 191.075 45.7942 191.142 47.4729C191.307 51.6456 191.286 55.3693 190.986 58.0953C190.764 60.3619 189.907 61.1645 188.444 61.2225C187.869 61.2453 187.531 61.2106 187.048 61.1337C186.395 61.0395 186.088 60.5473 186.067 60.0197C186.041 59.3722 186.494 58.6817 187.315 58.7933C187.581 58.8308 187.726 58.8731 188.014 58.8617C188.422 58.8455 188.606 58.646 188.699 57.9458C189.003 55.3157 189.055 51.7829 188.878 47.9229C188.861 47.4912 188.736 47.3761 188.328 47.3922Z" fill="#5C4C54"/><path d="M154.449 41.6256C155.756 41.886 157.385 42.3739 158.658 42.9719C159.269 43.2599 159.529 43.754 159.549 44.2576C159.576 44.9291 159.098 45.5965 158.33 45.627C158.115 45.6355 157.873 45.5971 157.604 45.4876C156.335 44.9855 154.801 44.4458 153.636 44.1557C153.005 43.9886 152.699 43.5204 152.68 43.0407C152.653 42.3693 153.176 41.628 154.039 41.5938C154.159 41.589 154.304 41.6073 154.449 41.6256ZM151.659 53.049L151.708 53.0711C153.468 51.4161 156.187 50.3235 158.561 50.2294C162.326 50.0802 164.734 52.0504 164.841 54.7602C164.988 58.4533 162.047 61.212 156.294 62.1126C155.315 62.2714 154.735 61.5739 154.708 60.8784C154.684 60.2789 155.068 59.6632 155.879 59.5349C160.558 58.7971 162.118 56.9578 162.036 54.8954C161.987 53.6484 160.958 52.5363 158.656 52.6276C156.114 52.7283 153.288 54.1374 151.366 56.5674C151.047 56.9884 150.598 57.1743 150.166 57.1914C149.375 57.2228 148.582 56.6057 148.709 55.5679C148.975 53.2034 149.405 50.112 149.894 47.3064C150.011 46.6053 150.598 46.2697 151.173 46.2469C151.941 46.2165 152.704 46.6906 152.571 47.5606C152.203 49.8089 151.868 51.6477 151.659 53.049Z" fill="#5C4C54"/><path d="M137.062 59.2721C137.121 61.9599 135.192 62.9971 132.89 63.0884C130.036 63.2015 128.26 62.0229 128.172 59.7927C128.096 57.8742 129.664 56.2268 132.733 56.1051C133.117 56.0899 133.502 56.0986 133.935 56.1295C133.724 55.033 133.619 54.2205 133.595 53.597C133.554 52.5658 133.581 52.0363 133.67 51.2642C133.764 50.588 134.304 50.2783 134.879 50.2555C135.599 50.227 136.336 50.6541 136.25 51.4982C136.157 52.1984 136.133 52.7998 136.16 53.4713C136.186 54.1428 136.295 55.0752 136.619 56.5755C138.172 56.9704 139.782 57.6031 141.21 58.4832C141.678 58.7769 141.886 59.177 141.902 59.5846C141.929 60.2561 141.403 60.9255 140.684 60.954C140.444 60.9635 140.152 60.879 139.857 60.6985C138.945 60.1102 137.989 59.6197 137.062 59.2721ZM132.796 60.7142C133.899 60.6705 134.48 60.1671 134.438 59.1119C134.429 58.8961 134.422 58.7043 134.39 58.5134C133.859 58.4383 133.353 58.4103 132.874 58.4294C131.195 58.4959 130.688 59.0444 130.714 59.6919C130.741 60.3873 131.237 60.776 132.796 60.7142ZM127.01 46.8445C127.321 45.6072 127.609 44.3709 127.801 43.1623C127.916 42.4372 128.479 42.1026 129.055 42.0798C129.798 42.0503 130.539 42.5494 130.385 43.5162C130.229 44.4351 130.027 45.4039 129.802 46.3736C130.516 46.2251 131.231 46.0767 131.898 45.9302C132.802 45.7262 133.429 46.3979 133.458 47.1173C133.479 47.6449 133.188 48.1849 132.427 48.3832C131.405 48.6399 130.237 48.8783 129.069 49.0927C128.177 52.0344 126.996 54.9635 125.696 57.3208C125.36 57.9346 124.867 58.2183 124.387 58.2373C123.668 58.2659 123.022 57.739 122.994 57.0196C122.983 56.7558 123.044 56.4652 123.224 56.1698C124.371 54.2028 125.386 51.9288 126.203 49.5186C125.32 49.6497 124.458 49.7318 123.716 49.7853C122.902 49.8416 122.443 49.1872 122.417 48.5158C122.392 47.8923 122.752 47.2775 123.518 47.2231C124.596 47.1324 125.792 47.0129 127.01 46.8445ZM137.646 46.1347C138.81 46.4008 140.323 47.0133 141.38 47.6199C141.945 47.9338 142.204 48.4039 142.221 48.8356C142.248 49.531 141.698 50.1774 141.002 50.2049C140.762 50.2144 140.52 50.152 140.274 50.0176C139.121 49.4148 137.85 48.8407 136.779 48.4989C136.171 48.3068 135.89 47.8856 135.873 47.4539C135.848 46.8064 136.372 46.1131 137.188 46.0808C137.332 46.0751 137.477 46.0934 137.646 46.1347Z" fill="#5C4C54"/><path d="M103.714 45.6783C104.995 45.8917 106.635 46.0429 108.409 45.9726C110.16 45.9032 111.762 45.7196 112.929 45.4812C113.908 45.3223 114.464 46.0208 114.492 46.7402C114.515 47.3158 114.202 47.9046 113.465 48.078C112.034 48.3509 110.36 48.5373 108.538 48.6096C106.691 48.6828 104.839 48.6121 103.292 48.3611C102.566 48.2218 102.207 47.6596 102.184 47.084C102.154 46.3166 102.699 45.5264 103.714 45.6783ZM108.932 62.7891C103.152 63.0182 100.833 61.4768 100.704 58.2154C100.681 57.6398 100.751 56.9645 100.897 56.4063C101.062 55.7273 101.626 55.4167 102.201 55.3938C102.873 55.3672 103.537 55.7492 103.564 56.4447C103.568 56.5406 103.549 56.6615 103.53 56.7823C103.448 57.1459 103.419 57.6274 103.433 57.9871C103.493 59.4979 104.341 60.281 108.825 60.1032C111.151 60.011 113.37 59.6348 115.345 59.1482C115.487 59.1185 115.606 59.0898 115.726 59.085C116.518 59.0537 117.023 59.6822 117.05 60.3536C117.072 60.9292 116.736 61.543 115.929 61.7671C113.837 62.3304 111.522 62.6864 108.932 62.7891Z" fill="#5C4C54"/><path d="M79.7324 46.6289C81.0139 46.8424 82.6531 46.9935 84.4278 46.9232C86.1784 46.8538 87.7804 46.6702 88.9478 46.4318C89.9263 46.2729 90.4824 46.9714 90.5109 47.6909C90.5337 48.2664 90.2208 48.8553 89.4831 49.0286C88.0528 49.3015 86.3789 49.4879 84.5563 49.5602C82.7098 49.6334 80.8575 49.5627 79.3103 49.3118C78.5843 49.1724 78.2257 48.6102 78.2029 48.0346C78.1725 47.2672 78.7176 46.477 79.7324 46.6289ZM84.9502 63.7397C79.1708 63.9688 76.8519 62.4274 76.7226 59.166C76.6998 58.5904 76.7691 57.9152 76.9151 57.357C77.0804 56.6779 77.6445 56.3673 78.22 56.3445C78.8915 56.3179 79.5552 56.6999 79.5827 57.3953C79.5865 57.4912 79.5673 57.6121 79.5481 57.733C79.4664 58.0965 79.4375 58.578 79.4517 58.9377C79.5116 60.4485 80.3593 61.2316 84.8438 61.0538C87.1699 60.9616 89.3888 60.5854 91.3631 60.0988C91.506 60.0692 91.625 60.0404 91.7449 60.0357C92.5362 60.0043 93.0415 60.6328 93.0681 61.3043C93.091 61.8798 92.755 62.4936 91.9473 62.7178C89.8559 63.281 87.5402 63.637 84.9502 63.7397Z" fill="#5C4C54"/><path d="M69.6866 43.8807C69.9217 43.7513 70.0867 43.6727 70.2546 43.666C70.6143 43.6517 70.7936 43.9329 70.805 44.2206C70.8107 44.3645 70.7444 44.5113 70.5813 44.6378C69.5729 45.2542 69.1142 45.8008 69.1494 46.6881C69.1618 46.9999 69.2365 47.069 69.5963 47.0547C70.4356 47.0215 71.2268 47.5906 71.2686 48.6457C71.3114 49.7249 70.5226 50.4287 69.4675 50.4705C68.3403 50.5152 67.369 49.641 67.3034 47.9863C67.2311 46.1637 68.2791 44.7291 69.6866 43.8807ZM64.7225 44.0774C64.9336 43.949 65.0986 43.8704 65.2665 43.8637C65.6262 43.8495 65.8295 44.1296 65.8409 44.4174C65.8466 44.5613 65.7803 44.708 65.5932 44.8355C64.6088 45.451 64.1261 45.9986 64.1613 46.8859C64.1737 47.1976 64.2485 47.2667 64.6082 47.2525C65.4475 47.2192 66.2387 47.7883 66.2805 48.8435C66.3233 49.9226 65.5345 50.6264 64.4794 50.6682C63.3523 50.7129 62.3809 49.8387 62.3153 48.184C62.243 46.3614 63.291 44.9268 64.7225 44.0774Z" fill="#5C4C54"/><path d="M424.236 78.783C426.466 78.6946 428.309 80.3509 428.398 82.5811C428.486 84.8114 426.781 86.6323 424.551 86.7208C422.32 86.8092 420.452 85.1298 420.364 82.8996C420.275 80.6693 422.006 78.8714 424.236 78.783ZM424.3 80.3897C422.957 80.443 421.966 81.515 422.019 82.834C422.072 84.1769 423.144 85.1672 424.487 85.114C425.806 85.0617 426.796 83.9897 426.743 82.6467C426.691 81.3278 425.619 80.3374 424.3 80.3897Z" fill="#5C4C54"/><path d="M407.642 81.8907L407.569 81.8696C407.153 82.2704 406.538 82.5109 405.818 82.5394C403.468 82.6326 401.679 81.1183 401.57 78.3844C401.477 76.0343 402.899 74.3446 405.13 74.2562C405.633 74.2363 406.116 74.2892 406.576 74.391C406.526 73.7445 406.478 73.1219 406.428 72.4754C403.196 72.7476 399.941 73.0448 397.143 73.3478C396.282 73.43 395.774 72.7296 395.746 72.0341C395.721 71.4106 396.08 70.7719 396.918 70.6907C399.741 70.4106 403.02 70.1125 406.3 69.8624C406.242 69 406.203 68.0168 406.16 66.9376C406.13 66.1703 406.785 65.736 407.457 65.7093C408.104 65.6837 408.767 66.0417 408.797 66.8091C408.839 67.8643 408.876 68.7995 408.911 69.6629C411.402 69.4921 413.798 69.349 415.932 69.2644C416.772 69.2312 417.205 69.8625 417.232 70.534C417.256 71.1575 416.874 71.8211 416.131 71.8506C413.997 71.9352 411.553 72.1041 409.062 72.2749C409.141 73.6649 409.243 75.0299 409.394 76.417C409.956 77.2594 410.288 78.3511 410.336 79.5742C410.486 83.3632 408.648 86.0541 405.257 87.7738C405.021 87.8792 404.807 87.9357 404.615 87.9433C403.824 87.9747 403.223 87.35 403.195 86.6546C403.177 86.1989 403.422 85.7089 404.082 85.3945C405.991 84.4781 407.256 83.0589 407.642 81.8907ZM405.438 76.5978C404.623 76.6301 404.073 77.3005 404.115 78.3556C404.162 79.5307 405.053 80.2159 405.845 80.1845C406.66 80.1522 407.237 79.5529 407.193 78.4498C407.15 77.3706 406.47 76.5569 405.438 76.5978Z" fill="#5C4C54"/><path d="M383.478 67.9328L383.528 69.2038C383.543 69.5636 383.558 69.9472 383.572 70.307C385.49 70.2069 387.385 70.1558 389.042 70.1382C389.858 70.1299 390.29 70.7372 390.316 71.3847C390.341 72.0082 389.957 72.6239 389.141 72.6562C387.533 72.6719 385.662 72.7461 383.721 72.8471C383.754 73.6864 383.811 74.5248 383.893 75.3622C385.472 75.2036 387.002 75.0228 388.386 74.7998C389.341 74.6659 389.871 75.2934 389.897 75.9649C389.92 76.5404 389.56 77.1552 388.772 77.2825C387.317 77.5323 385.739 77.7149 384.136 77.8746C384.226 78.9278 384.364 79.9792 384.502 81.0306C386.561 81.4774 388.634 82.2839 390.624 83.4059C391.214 83.7428 391.473 84.2129 391.491 84.6686C391.521 85.412 390.924 86.1082 390.132 86.1395C389.869 86.15 389.602 86.0885 389.307 85.9081C387.806 85.0068 386.287 84.2744 384.779 83.7817C384.781 83.8297 384.784 83.9017 384.785 83.9496C384.888 86.5396 382.683 87.876 379.901 87.9862C376.856 88.107 374.927 86.7183 374.839 84.488C374.756 82.4016 376.419 80.7265 379.848 80.5905C380.496 80.5649 381.121 80.5881 381.796 80.6334C381.69 79.773 381.559 78.9134 381.502 78.0751C381.046 78.0931 380.591 78.1112 380.135 78.1292C378.696 78.1863 377.232 78.1963 376.388 78.1336C375.593 78.0691 375.21 77.4838 375.187 76.9083C375.16 76.2368 375.612 75.5223 376.504 75.5831C377.395 75.6438 378.597 75.6682 379.963 75.6141C380.395 75.597 380.827 75.5798 381.258 75.5627C381.176 74.7013 381.119 73.8629 381.061 73.0005C379.024 73.1293 377.037 73.2802 375.361 73.4186C374.546 73.4749 374.089 72.8446 374.063 72.1971C374.039 71.5736 374.398 70.9348 375.212 70.8785C376.887 70.7161 378.875 70.5652 380.912 70.4604C380.896 70.0528 380.881 69.6691 380.865 69.2614L380.816 68.0383C380.788 67.3189 381.445 66.9326 382.116 66.906C382.764 66.8803 383.449 67.2134 383.478 67.9328ZM379.804 85.5162C381.41 85.4525 382.172 84.6777 382.132 83.6705C382.125 83.4786 382.118 83.3108 382.111 83.1429C381.362 83.0285 380.664 82.9841 379.944 83.0126C378.074 83.0868 377.545 83.6842 377.574 84.4036C377.599 85.0511 378.245 85.578 379.804 85.5162Z" fill="#5C4C54"/><path d="M354.948 78.9355L354.995 78.9336C355.213 78.3725 355.363 77.9102 355.553 77.2542C355.724 76.719 356.146 76.4621 356.554 76.4459C357.106 76.424 357.649 76.7868 357.671 77.3624C357.675 77.4583 357.655 77.5552 357.635 77.6521C357.281 79.0351 356.694 80.5716 356.113 81.6755C355.755 82.3382 355.121 82.6996 354.497 82.7243C353.826 82.7509 353.163 82.3929 352.917 81.6341C352.564 80.6152 352.232 78.899 352.178 77.5321C352.102 75.6136 352.309 72.9633 352.786 70.4465C352.951 69.7674 353.538 69.4319 354.114 69.4091C354.785 69.3824 355.448 69.7405 355.475 70.4359C355.479 70.5319 355.459 70.6287 355.44 70.7496C355 73.0007 354.749 75.7489 354.806 77.1877C354.837 77.9551 354.881 78.4578 354.948 78.9355ZM360.839 70.0072C360.707 69.1237 361.456 68.6136 362.223 68.5832C362.871 68.5575 363.532 68.8916 363.684 69.6782C364.119 72.1829 364.391 74.7902 364.493 77.3802C364.7 82.5841 362.973 86.2794 359.717 88.9785C359.392 89.2556 359.037 89.3897 358.725 89.4021C357.982 89.4316 357.357 88.8318 357.329 88.1124C357.313 87.7047 357.487 87.2654 357.905 86.8886C360.549 84.526 361.776 81.5471 361.616 77.4943C361.518 75.0242 361.251 72.5368 360.839 70.0072Z" fill="#5C4C54"/><path d="M325.232 85.4937C325.147 83.3354 326.584 80.204 330.61 78.1709C330.591 77.0908 330.621 76.0088 330.675 74.9498C329.574 75.0415 328.519 75.1073 327.584 75.1444C326.793 75.1758 326.385 74.5914 326.36 73.9679C326.337 73.3684 326.697 72.7537 327.488 72.7223C328.495 72.6824 329.645 72.6127 330.818 72.4942C330.878 71.6031 330.962 70.6871 331.068 69.7221C331.16 69.0219 331.747 68.6624 332.322 68.6396C333.018 68.612 333.707 69.0411 333.619 69.8372C333.531 70.6573 333.442 71.4534 333.353 72.2256C335.098 72.0123 336.792 71.729 338.125 71.4359C339.102 71.2291 339.656 71.8797 339.683 72.5511C339.704 73.0787 339.39 73.6436 338.675 73.792C337.104 74.1425 335.146 74.4363 333.162 74.6831C333.147 75.5243 333.086 76.3914 333.072 77.2567C334.213 76.9472 335.407 76.7798 336.582 76.7332C336.666 76.4177 336.749 76.1021 336.808 75.7635C336.928 75.1583 337.445 74.8736 337.973 74.8527C338.596 74.828 339.235 75.1869 339.261 75.8584C339.265 75.9543 339.245 76.0512 339.226 76.1721C339.163 76.4147 339.125 76.6564 339.063 76.8991C342.402 77.5353 344.395 79.9303 344.508 82.784C344.647 86.2853 342.352 88.9943 338.386 90.1363C338.267 90.165 338.124 90.1947 338.005 90.1995C337.237 90.2299 336.708 89.6023 336.681 88.9309C336.661 88.4273 336.952 87.8873 337.663 87.643C340.672 86.587 341.881 84.9778 341.799 82.9154C341.733 81.2607 340.588 79.6248 338.406 79.1109C337.479 81.7897 336.068 84.3676 333.983 86.2997C334.099 86.7995 334.214 87.2753 334.352 87.7262C334.379 87.8212 334.408 87.9401 334.412 88.0361C334.441 88.7795 333.763 89.2387 333.116 89.2644C332.612 89.2843 332.122 89.0395 331.93 88.4467C331.875 88.2567 331.818 88.0428 331.763 87.8528C330.756 88.5172 329.782 88.772 328.75 88.8129C326.712 88.8937 325.318 87.652 325.232 85.4937ZM327.767 85.225C327.822 85.9915 328.003 86.3206 328.819 86.3122C329.539 86.2837 330.226 86.0403 331.207 85.3529C330.93 83.8027 330.748 82.2486 330.662 80.6908C328.513 82.2171 327.713 83.8581 327.767 85.225ZM333.438 83.463C334.514 82.1234 335.318 80.6023 335.903 78.9939C334.946 79.0799 334.016 79.2608 333.091 79.5617C333.097 79.7056 333.102 79.8255 333.107 79.9694C333.15 81.0485 333.27 82.2448 333.438 83.463Z" fill="#5C4C54"/><path d="M307.41 78.8263C306.608 82.8212 305.346 86.7383 303.787 89.8265C303.472 90.3674 303.002 90.6262 302.522 90.6452C301.827 90.6728 301.184 90.2179 301.156 89.4984C301.147 89.2826 301.209 89.0159 301.342 88.7465C302.747 86.0247 303.864 82.6898 304.64 79.2244C303.661 79.3833 302.708 79.5891 301.805 79.8171C300.877 80.046 300.322 79.3715 300.294 78.676C300.273 78.1245 300.586 77.5596 301.324 77.3862C302.538 77.098 303.85 76.8778 305.115 76.6835C305.345 75.2093 305.526 73.7129 305.636 72.2434C305.701 71.4722 306.287 71.0887 306.91 71.064C307.63 71.0355 308.368 71.4866 308.307 72.3777C308.215 73.6784 308.052 75.0299 307.841 76.3593C308.319 76.3163 308.751 76.2992 309.135 76.284C312.204 76.1623 313.386 77.5086 313.536 81.2736C313.625 83.5278 313.489 85.5508 313.115 87.0308C312.481 89.8181 311.417 90.845 308.995 90.9411C308.419 90.9639 307.818 90.9397 307.36 90.8858C306.539 90.7982 306.156 90.2129 306.133 89.6374C306.105 88.9179 306.581 88.2025 307.497 88.2863C307.954 88.3162 308.316 88.3499 308.819 88.33C309.659 88.2967 310.08 88.0158 310.432 86.5847C310.785 85.2016 310.927 83.3226 310.849 81.3561C310.763 79.1978 310.333 78.6384 309.182 78.684C308.654 78.705 308.056 78.7527 307.41 78.8263ZM316.792 74.3472C318.36 75.7262 319.934 77.8735 320.813 79.4479C320.968 79.73 321.028 80.0159 321.037 80.2557C321.071 81.095 320.421 81.6732 319.701 81.7017C319.222 81.7207 318.684 81.4779 318.346 80.8427C317.391 79.1513 316.07 77.3541 314.745 76.0376C314.47 75.7603 314.338 75.4533 314.327 75.1895C314.301 74.518 314.951 73.9638 315.671 73.9353C316.054 73.9201 316.444 74.0488 316.792 74.3472ZM318.681 69.9009C318.482 69.7166 318.402 69.5276 318.395 69.3358C318.376 68.8562 318.815 68.4304 319.367 68.4086C319.606 68.3991 319.85 68.4855 320.098 68.6678C320.742 69.1707 321.491 69.8856 322.022 70.5611C322.223 70.7933 322.305 71.0302 322.314 71.2701C322.335 71.7976 321.895 72.1994 321.391 72.2194C321.103 72.2308 320.787 72.1232 320.535 71.821C319.956 71.1474 319.256 70.4546 318.681 69.9009ZM316.358 71.8905C316.183 71.7053 316.103 71.5163 316.097 71.3484C316.078 70.8688 316.54 70.4181 317.068 70.3972C317.283 70.3886 317.526 70.4511 317.75 70.6344C318.42 71.1842 319.17 71.9231 319.703 72.6466C319.879 72.8558 319.936 73.0697 319.944 73.2855C319.965 73.8131 319.527 74.2628 319.023 74.2828C318.735 74.2942 318.442 74.1617 318.214 73.8585C317.607 73.0899 316.932 72.4202 316.358 71.8905Z" fill="#5C4C54"/><path d="M280.473 73.0728L284.43 72.3154C284.668 72.258 284.908 72.2485 285.148 72.239C286.634 72.18 287.507 72.9861 287.557 74.2571C287.565 74.4489 287.573 74.6408 287.533 74.8585C287.291 76.6215 286.906 78.4142 286.468 80.1128C288.06 80.2659 289.636 80.6358 291.19 81.0786C291.386 79.9419 291.481 78.7132 291.502 77.4154C291.496 76.671 292.128 76.2616 292.8 76.235C293.519 76.2065 294.257 76.6336 294.244 77.5228C294.211 79.1094 294.054 80.6048 293.774 82.033C294.995 82.537 296.196 83.1379 297.376 83.8357C297.868 84.1284 298.078 84.5765 298.095 85.0081C298.125 85.7516 297.577 86.4698 296.81 86.5002C296.546 86.5107 296.255 86.4502 295.96 86.2697C294.976 85.6842 294.019 85.1697 293.064 84.7272C292.25 87.2094 291.014 89.348 289.47 90.9945C289.101 91.3934 288.7 91.5774 288.317 91.5926C287.573 91.6221 286.948 90.9984 286.92 90.3029C286.908 89.9912 287.015 89.6507 287.291 89.3515C288.719 87.8057 289.845 85.9116 290.549 83.674C288.989 83.1113 287.412 82.7175 285.771 82.5183C285.342 83.8083 284.885 85.0034 284.42 86.0066C283.293 88.4772 282.077 89.294 280.35 89.3624C278.36 89.4413 276.845 88.2043 276.747 85.7343C276.629 82.7366 279.241 80.1591 283.245 80.0004C283.437 79.9928 283.605 79.9861 283.797 79.9785C284.216 78.4247 284.536 76.8028 284.74 75.2815C284.82 74.894 284.674 74.8278 284.269 74.9159L280.933 75.6005C280.005 75.8055 279.425 75.1079 279.396 74.3885C279.373 73.8129 279.71 73.2231 280.473 73.0728ZM280.27 86.7475C280.966 86.72 281.341 86.4889 281.941 85.2642C282.34 84.4317 282.71 83.4563 283.054 82.4339C280.561 82.5567 279.298 84.0239 279.358 85.5347C279.392 86.3981 279.791 86.7665 280.27 86.7475Z" fill="#5C4C54"/><path d="M255.787 93.2183L255.438 84.3933C254.505 84.5023 253.596 84.5864 252.734 84.6685C252.04 84.7201 251.681 84.1579 251.658 83.5823C251.636 83.0068 251.925 82.4428 252.597 82.4162C252.957 82.402 253.339 82.3628 253.722 82.3236C254.222 81.6072 254.672 80.8448 255.123 80.0824C254.241 79.0605 253.192 78.0452 252.272 77.241C252.022 77.0107 251.916 76.7507 251.907 76.5109C251.883 75.9114 252.389 75.3629 252.989 75.3391C253.253 75.3287 253.52 75.4141 253.794 75.6435C254.285 74.7113 254.723 73.6371 255.115 72.6128C255.287 72.1016 255.734 71.8677 256.189 71.8496C256.789 71.8259 257.428 72.2088 257.454 72.8563C257.459 72.9762 257.418 73.146 257.375 73.2918C256.874 74.5847 256.232 75.9552 255.49 77.2336C255.764 77.4869 256.015 77.7652 256.267 78.0434C256.714 77.2091 257.114 76.4006 257.446 75.6909C257.645 75.2506 257.997 75.0445 258.381 75.0293C259.004 75.0046 259.647 75.4595 259.672 76.083C259.678 76.2509 259.637 76.4207 259.549 76.6163C258.727 78.3062 257.513 80.3959 256.378 82.0742C257.048 81.9996 257.717 81.901 258.385 81.8025C258.282 81.6144 258.154 81.4273 258.052 81.2633C257.949 81.0992 257.895 80.9572 257.89 80.8133C257.87 80.3097 258.357 79.8821 258.885 79.8612C259.22 79.8479 259.562 79.9784 259.816 80.3286C260.424 81.1212 261.097 82.3435 261.522 83.3835C261.576 83.5254 261.605 83.6444 261.609 83.7643C261.634 84.3878 261.075 84.8183 260.499 84.8411C260.116 84.8563 259.724 84.6797 259.562 84.2298C259.509 84.0878 259.454 83.9218 259.376 83.7808C258.876 83.8727 258.375 83.9646 257.874 84.0565L258.233 93.1214C258.258 93.7449 257.671 94.0804 257.047 94.1051C256.448 94.1289 255.812 93.8418 255.787 93.2183ZM262.988 90.6751L262.38 75.3272C262.303 73.3847 263.06 72.49 265.146 72.4073L268.624 72.2695C270.71 72.1868 271.536 73.0187 271.613 74.9612L272.221 90.3091L273.516 90.2578C274.163 90.2321 274.522 90.7944 274.546 91.3939C274.569 91.9694 274.257 92.5823 273.609 92.608L261.403 93.0918C260.779 93.1165 260.42 92.5303 260.397 91.9548C260.373 91.3552 260.686 90.7664 261.31 90.7417L262.988 90.6751ZM269.655 90.4108L269.495 86.382L265.419 86.5436L265.578 90.5724L269.655 90.4108ZM269.407 84.1518L269.26 80.4347L265.183 80.5963L265.33 84.3134L269.407 84.1518ZM269.171 78.2044L269.053 75.2308C269.034 74.7511 268.788 74.5928 268.308 74.6118L265.598 74.7192C265.119 74.7382 264.957 74.9127 264.976 75.3924L265.094 78.366L269.171 78.2044ZM260.323 85.8569C260.748 86.8729 261.05 87.8217 261.258 88.8462C261.434 89.6319 260.85 90.0633 260.275 90.0861C259.819 90.1042 259.354 89.8824 259.261 89.3577C259.051 88.3092 258.799 87.3825 258.448 86.4116C258.42 86.3166 258.392 86.2217 258.389 86.1497C258.368 85.6221 258.859 85.2664 259.362 85.2465C259.746 85.2313 260.137 85.4079 260.323 85.8569ZM253.074 86.5766C253.125 86.0461 253.57 85.7643 254.026 85.7462C254.578 85.7244 255.167 86.0613 255.122 86.7356C254.995 88.3739 254.629 90.0457 254.217 91.1669C254.045 91.6781 253.622 91.9111 253.214 91.9272C252.687 91.9481 252.144 91.5854 252.121 91.0098C252.115 90.8659 252.134 90.7211 252.199 90.5504C252.57 89.6229 252.938 87.9991 253.074 86.5766Z" fill="#5C4C54"/><path d="M230.862 93.9902L230.443 83.4145C230.218 83.7837 230.016 84.152 229.79 84.4972C229.496 84.9652 229.072 85.1742 228.664 85.1903C227.993 85.2169 227.348 84.7141 227.321 84.0186C227.31 83.7548 227.371 83.4642 227.575 83.1679C229.137 80.7521 230.461 77.1929 231.123 73.9001C231.266 73.2699 231.805 72.9363 232.381 72.9135C233.076 72.8859 233.789 73.29 233.819 74.0574C233.824 74.1773 233.805 74.2982 233.787 74.443C233.382 76.3565 232.699 78.5213 231.842 80.5248C232.419 80.5499 232.935 80.8417 232.959 81.4413L233.452 93.8875C233.478 94.535 232.844 94.8964 232.196 94.9221C231.549 94.9477 230.888 94.6376 230.862 93.9902ZM243.055 80.4406L248.499 80.2248C249.171 80.1982 249.506 80.7853 249.53 81.3849C249.554 81.9844 249.266 82.5963 248.594 82.6229L243.15 82.8387L243.47 90.8964L248.098 90.7129C248.77 90.6863 249.104 91.2495 249.128 91.849C249.151 92.4246 248.863 93.0364 248.191 93.0631L236.56 93.5241C235.913 93.5498 235.577 92.9626 235.555 92.387C235.531 91.7875 235.82 91.1996 236.467 91.1739L240.784 91.0028L240.465 82.9452L235.381 83.1467C234.733 83.1724 234.398 82.5852 234.374 81.9857C234.35 81.3861 234.638 80.7742 235.285 80.7486L240.369 80.547L240.11 74.0002C240.08 73.2328 240.736 72.8225 241.407 72.7959C242.079 72.7692 242.765 73.1263 242.796 73.8937L243.055 80.4406Z" fill="#5C4C54"/><path d="M209.367 92.2002C206.921 92.2972 204.805 90.4115 204.656 86.6704C204.439 81.2027 208.794 76.5386 215.389 76.2772C221.24 76.0452 224.767 79.5803 224.956 84.3526C225.128 88.6932 222.689 91.9844 218.616 93.4668C218.427 93.5464 218.236 93.578 218.069 93.5846C217.253 93.6169 216.699 92.9664 216.671 92.2709C216.651 91.7433 216.917 91.2044 217.626 90.912C220.983 89.554 222.268 87.4375 222.151 84.4638C222.026 81.3223 219.789 78.8169 216.133 78.6976C216.051 82.688 215.211 86.3241 213.828 88.997C212.601 91.3755 211.213 92.127 209.367 92.2002ZM213.334 78.9767C209.789 79.8138 207.273 83.0119 207.414 86.5611C207.502 88.7674 208.397 89.5485 209.26 89.5143C210.004 89.4848 210.636 89.0755 211.283 87.8249C212.422 85.6421 213.186 82.5133 213.334 78.9767Z" fill="#5C4C54"/><path d="M181.24 78.8558C181.282 78.0855 181.938 77.6752 182.585 77.6496C183.329 77.6201 184.066 78.0472 184.054 78.9364C184.035 79.6817 184.01 80.2592 184.044 81.1225C184.377 89.5159 186.167 91.6547 187.174 91.6148C187.75 91.5919 188.238 91.1883 188.646 89.3707C188.786 88.6446 189.301 88.3119 189.829 88.291C190.524 88.2635 191.216 88.7404 191.247 89.5318C191.253 89.6757 191.257 89.7956 191.215 89.9414C190.455 93.19 188.967 94.426 187.36 94.4897C183.883 94.6275 181.602 90.4185 181.241 81.3057C181.197 80.2025 181.217 79.4812 181.24 78.8558ZM196.128 79.971C198.217 81.7617 200.158 84.6871 201.07 87.1008C201.126 87.2908 201.181 87.4567 201.186 87.6006C201.218 88.392 200.565 88.8982 199.894 88.9249C199.39 88.9448 198.852 88.7019 198.587 88.064C197.636 85.8919 195.977 83.4357 194.179 81.7055C193.88 81.4292 193.748 81.1222 193.736 80.8344C193.71 80.1629 194.335 79.5857 195.055 79.5572C195.391 79.5439 195.78 79.6725 196.128 79.971Z" fill="#5C4C54"/><path d="M160.212 87.0391L160.186 83.9657C159.443 85.2201 158.622 86.3335 157.678 87.3557C157.402 87.6549 157.095 87.7871 156.783 87.7995C156.16 87.8242 155.587 87.3185 155.561 86.671C155.549 86.3593 155.657 86.0427 155.98 85.7177C157.25 84.4424 158.367 82.9089 159.283 81.1913L156.885 81.2864C156.286 81.3101 155.953 80.7949 155.932 80.2673C155.911 79.7397 156.202 79.1998 156.802 79.176L159.895 79.0534L159.795 76.5354C159.77 75.8879 160.356 75.5284 160.979 75.5036C161.579 75.4799 162.192 75.7919 162.217 76.4393L162.317 78.9574L164.308 78.8785C164.907 78.8547 165.24 79.3699 165.261 79.8975C165.282 80.4251 164.991 80.965 164.391 80.9888L162.401 81.0677L162.446 82.1948C163.352 82.6393 164.285 83.1547 165.051 83.7008C165.446 83.9734 165.627 84.3024 165.641 84.6382C165.664 85.2137 165.204 85.7363 164.604 85.7601C164.341 85.7706 164.073 85.6851 163.776 85.4567C163.38 85.1602 162.96 84.8646 162.541 84.5929L162.692 88.4059C162.717 89.0534 162.13 89.389 161.531 89.4127C160.907 89.4374 160.295 89.1495 160.27 88.502L160.212 87.0391ZM173.569 88.335L169.78 88.4852C167.718 88.567 166.775 87.8117 166.708 86.1091L166.418 78.7948C166.35 77.0922 167.23 76.2646 169.293 76.1829L173.082 76.0327C175.144 75.9509 176.087 76.7062 176.154 78.4089L176.444 85.7231C176.474 87.6915 175.367 88.2398 173.569 88.335ZM169.986 86.4114L173.2 86.2841C173.847 86.2584 174.009 86.0839 173.987 85.5323L173.956 84.7649L169.112 84.9569L169.143 85.7243C169.166 86.3239 169.411 86.4343 169.986 86.4114ZM168.979 81.5996L169.038 83.0864L173.882 82.8944L173.823 81.4076L168.979 81.5996ZM173.749 79.537L173.72 78.7936C173.698 78.242 173.523 78.0808 172.876 78.1065L169.662 78.2339C169.015 78.2595 168.854 78.4341 168.875 78.9856L168.905 79.729L173.749 79.537ZM161.804 95.0944L161.661 91.4972C161.634 90.8017 162.268 90.4403 162.891 90.4156C163.539 90.3899 164.176 90.701 164.203 91.3964L164.332 94.6339C164.354 95.1854 164.599 95.3198 167.165 95.2181C170.139 95.1002 170.535 94.7963 170.606 93.5685C170.652 92.8942 171.215 92.5596 171.79 92.5368C172.462 92.5102 173.15 92.8912 173.11 93.7095C172.992 96.1881 171.922 97.0711 167.246 97.2565C162.546 97.4428 161.879 96.9889 161.804 95.0944ZM158.199 92.0187C158.395 91.5066 158.843 91.2967 159.299 91.2786C159.922 91.2539 160.586 91.6359 160.613 92.3074C160.619 92.4752 160.578 92.645 160.514 92.8397C160.169 93.8381 159.636 94.9401 159.092 95.7543C158.795 96.1504 158.418 96.3334 158.035 96.3486C157.363 96.3753 156.721 95.9204 156.695 95.2729C156.685 95.033 156.748 94.7904 156.929 94.519C157.427 93.7547 157.805 92.9711 158.199 92.0187ZM175.299 90.7644C176.02 91.3844 176.748 92.1722 177.306 92.9186C177.484 93.1758 177.59 93.4118 177.599 93.6516C177.627 94.3471 177 94.9003 176.329 94.9269C175.969 94.9412 175.58 94.8125 175.276 94.4162C174.695 93.6947 174.115 93.0211 173.464 92.3504C173.214 92.0961 173.083 91.813 173.073 91.5732C173.049 90.9497 173.628 90.4224 174.3 90.3957C174.635 90.3824 174.976 90.489 175.299 90.7644ZM167.23 89.5951C167.746 89.8869 168.414 90.3648 168.887 90.8024C169.212 91.1018 169.37 91.4558 169.382 91.7676C169.407 92.3911 168.899 92.9156 168.3 92.9394C167.988 92.9517 167.671 92.8442 167.373 92.5918C166.851 92.1321 166.328 91.6725 165.858 91.3308C165.513 91.1043 165.358 90.8223 165.346 90.5345C165.324 89.9829 165.831 89.4344 166.502 89.4078C166.718 89.3992 166.985 89.4607 167.23 89.5951Z" fill="#5C4C54"/><path d="M134.103 80.9644L148.869 80.235C150.955 80.1283 152.117 80.9709 152.169 82.2899C152.196 82.9614 151.94 83.7642 151.397 84.6263C149.814 87.091 147.578 89.4614 145.18 91.3819C145.978 92.1188 146.728 92.8577 147.355 93.5294C147.706 93.8998 147.866 94.3018 147.88 94.6615C147.913 95.5008 147.22 96.1768 146.404 96.2092C145.973 96.2263 145.509 96.0525 145.107 95.5881C143.274 93.5951 140.486 91.1116 138.609 89.8169C138.189 89.5213 137.982 89.1452 137.968 88.7855C137.939 88.0661 138.584 87.368 139.399 87.3357C139.711 87.3233 140.051 87.4059 140.371 87.6094C141.183 88.1056 142.124 88.8129 143.091 89.5912C145.376 87.8433 147.313 85.821 148.602 83.8004C148.761 83.5539 148.826 83.3832 148.82 83.2393C148.811 82.9995 148.591 82.9121 148.088 82.9321L134.233 83.6494C133.418 83.6817 132.984 83.0504 132.958 82.3789C132.931 81.7074 133.311 80.9958 134.103 80.9644Z" fill="#5C4C54"/><path d="M110.121 81.9151L124.888 81.1856C126.973 81.0789 128.136 81.9215 128.188 83.2405C128.215 83.912 127.958 84.7148 127.416 85.5769C125.832 88.0416 123.596 90.412 121.199 92.3325C121.996 93.0695 122.746 93.8083 123.373 94.48C123.724 94.8504 123.884 95.2524 123.899 95.6121C123.932 96.4515 123.238 97.1275 122.423 97.1598C121.991 97.1769 121.528 97.0031 121.125 96.5387C119.293 94.5457 116.504 92.0622 114.627 90.7675C114.207 90.4719 114 90.0958 113.986 89.7361C113.958 89.0167 114.602 88.3186 115.418 88.2863C115.73 88.2739 116.069 88.3565 116.389 88.56C117.202 89.0562 118.142 89.7635 119.11 90.5418C121.395 88.7939 123.332 86.7716 124.621 84.751C124.779 84.5045 124.845 84.3338 124.839 84.1899C124.829 83.9501 124.61 83.8627 124.106 83.8827L110.252 84.6C109.436 84.6323 109.003 84.001 108.976 83.3295C108.95 82.6581 109.33 81.9464 110.121 81.9151Z" fill="#5C4C54"/><path d="M100.508 92.0718C100.258 91.8175 100.151 91.5336 100.14 91.2698C100.114 90.5983 100.762 89.9961 101.482 89.9676C101.889 89.9515 102.304 90.1032 102.654 90.4496C103.703 91.4648 104.967 93.072 105.745 94.5063C105.874 94.7414 105.931 94.9553 105.939 95.1711C105.973 96.0105 105.229 96.6404 104.462 96.6708C103.982 96.6899 103.468 96.446 103.18 95.857C102.608 94.7508 101.413 93.0928 100.508 92.0718ZM85.2274 95.5838C86.3942 94.7209 87.7155 93.5157 88.6991 92.2757C89.0206 91.9027 89.3977 91.7196 89.8053 91.7035C90.5488 91.674 91.291 92.221 91.3205 92.9644C91.3328 93.2762 91.2253 93.5927 90.9748 93.9389C89.9249 95.3256 88.4433 96.7294 86.9034 97.8712C86.6241 98.0985 86.3152 98.1828 86.0275 98.1942C85.2601 98.2246 84.586 97.5788 84.5565 96.8354C84.5394 96.4037 84.7371 95.9395 85.2274 95.5838ZM94.2317 79.7588C95.4286 80.2638 96.9525 81.1401 98.2884 82.1199C98.7593 82.4856 98.9682 82.9096 98.9853 83.3413C99.0157 84.1087 98.4189 84.8049 97.6515 84.8353C97.3637 84.8467 97.0472 84.7392 96.7259 84.5117C95.3661 83.5328 94.0119 82.6978 92.8611 82.1429C92.3221 81.8761 92.0661 81.4779 92.0499 81.0702C92.0214 80.3508 92.6423 79.6536 93.5056 79.6194C93.7214 79.6109 93.9871 79.6484 94.2317 79.7588ZM92.2553 88.676C92.2183 87.7408 92.3759 86.8699 92.7311 86.1352C93.021 85.5713 93.492 85.3364 93.9477 85.3184C94.6671 85.2899 95.3346 85.7678 95.3602 86.4153C95.3669 86.5832 95.3505 86.776 95.2612 86.9476C95.0616 87.3639 94.9415 87.9691 94.9595 88.4247C94.9823 89.0003 95.2421 89.4944 96.062 90.1825C98.1228 91.8782 98.7487 93.1263 98.8143 94.781C98.9217 97.4909 97.2004 98.9042 94.9701 98.9926C94.3226 99.0183 93.5754 98.9518 92.9462 98.8327C92.1472 98.6722 91.7647 98.1109 91.7418 97.5353C91.7162 96.8878 92.1701 96.2213 93.0095 96.1881C93.1294 96.1833 93.2742 96.2016 93.4191 96.2199C93.8305 96.2996 94.361 96.3507 94.7687 96.3345C95.4881 96.306 96.0494 95.9235 96.0085 94.8923C95.9667 93.8371 95.4998 92.9669 94.282 91.9343C92.7438 90.6983 92.2953 89.6833 92.2553 88.676Z" fill="#5C4C54"/><path d="M65.5948 92.3269L65.6667 92.324C66.02 91.5414 66.4048 90.9497 67.0219 90.1567C68.0967 88.793 69.6358 87.6271 71.5141 87.1444C71.4099 86.3319 71.3056 85.5194 71.1543 84.7327C71.0308 84.0411 71.6391 83.6327 72.2387 83.6089C72.7662 83.588 73.3043 83.8309 73.424 84.4266C73.5772 85.2612 73.7054 86.0727 73.8097 86.8852C77.0787 86.9478 79.1067 89.0291 79.2246 92.0028C79.3577 95.3601 76.9013 97.6192 73.352 97.7599C73.2801 97.7628 73.2321 97.7647 73.1362 97.7685C72.6284 98.8935 71.898 99.8591 70.9232 100.714C70.6679 100.941 70.407 101.023 70.1432 101.034C69.5197 101.058 68.9731 100.6 68.9503 100.024C68.9398 99.7602 69.0713 99.4428 69.3726 99.1666C70.0232 98.6124 70.5049 98.0409 70.8869 97.3772C69.9336 96.9587 69.1147 96.2946 68.5453 95.2603C68.4427 95.0963 68.412 94.9293 68.4054 94.7615C68.3826 94.1859 68.917 93.7324 69.4686 93.7105C69.8043 93.6972 70.1458 93.8278 70.3768 94.203C70.6846 94.6952 71.1573 95.1088 71.6234 95.3545C71.8435 94.2409 71.8862 92.8941 71.8158 91.1195C71.7911 90.496 71.7654 89.8485 71.7158 89.202C70.5329 89.6572 69.4842 90.4674 68.4995 91.6833C67.6733 92.6528 66.938 94.0991 66.5539 95.3152C66.3829 95.8504 66.3473 96.1641 66.3559 96.3799C66.3625 96.5478 66.4181 96.7377 66.4775 97.0236C66.506 97.7431 65.9226 98.1745 65.3231 98.1983C64.8435 98.2173 64.3534 97.9725 64.1627 97.4036C63.6932 95.861 63.3964 94.4316 63.3203 92.5131C63.2643 91.0982 63.3668 88.8364 63.7012 86.9737C63.8214 86.3685 64.3145 86.0847 64.8181 86.0647C65.4896 86.0381 66.1551 86.4681 66.0167 87.2182C65.7129 89.2478 65.5368 90.864 65.5948 92.3269ZM74.0334 88.894C74.0869 89.6364 74.1394 90.3549 74.1669 91.0504C74.2354 92.777 74.1495 94.2456 73.8651 95.5538C75.8479 95.2831 76.9859 94.3013 76.8984 92.095C76.8262 90.2724 75.8895 89.0606 74.0334 88.894Z" fill="#5C4C54"/><path d="M41.083 94.4274C40.9318 90.6144 40.991 86.0485 41.1151 82.5128C41.1307 81.6955 41.787 81.2852 42.4585 81.2586C43.2019 81.2291 43.9394 81.6562 43.9017 82.5224C43.7786 86.0821 43.7194 90.648 43.8658 94.3411C43.9931 97.5546 45.0106 98.3789 46.7133 98.3114C48.9435 98.223 50.9937 97.229 53.0916 94.4077C53.4103 93.9628 53.8353 93.7778 54.219 93.7626C54.9624 93.7331 55.6567 94.282 55.6861 95.0255C55.6976 95.3132 55.613 95.6048 55.3856 95.9261C52.7867 99.4398 49.9363 100.85 46.8188 100.973C43.2456 101.115 41.2807 99.4155 41.083 94.4274Z" fill="#5C4C54"/><path d="M63.5894 69.9687C66.7694 69.8187 66.9094 72.5587 70.0894 72.3987C73.2694 72.2387 73.1393 69.5087 76.3193 69.3487C79.4993 69.1887 79.6293 71.9387 82.8193 71.7887C85.9993 71.6387 85.8694 68.8987 89.0594 68.7387C92.2494 68.5787 92.3694 71.3287 95.5594 71.1787C98.7494 71.0287 98.6093 68.2887 101.789 68.1287C104.969 67.9687 105.099 70.7187 108.289 70.5587C111.469 70.4087 111.339 67.6687 114.529 67.5087C117.719 67.3487 117.839 70.0987 121.029 69.9487C124.209 69.7987 124.079 67.0587 127.259 66.8987C130.439 66.7487 130.579 69.4887 133.759 69.3287C136.939 69.1687 136.809 66.4387 139.989 66.2787C143.169 66.1187 143.309 68.8687 146.489 68.7087C149.669 68.5587 149.539 65.8187 152.729 65.6587C155.909 65.5087 156.049 68.2487 159.229 68.0887C162.409 67.9287 162.279 65.1987 165.469 65.0387C168.649 64.8887 168.789 67.6287 171.969 67.4687C175.149 67.3187 175.019 64.5787 178.209 64.4187C181.399 64.2687 181.529 67.0087 184.709 66.8487C187.899 66.6987 187.759 63.9587 190.949 63.7987C194.139 63.6487 194.269 66.3887 197.449 66.2287C200.639 66.0787 200.499 63.3387 203.689 63.1787C206.879 63.0287 207.009 65.7687 210.189 65.6087C213.369 65.4487 213.239 62.7187 216.419 62.5587C219.599 62.4087 219.739 65.1487 222.919 64.9887C226.109 64.8387 225.969 62.0987 229.159 61.9387C232.349 61.7887 232.479 64.5287 235.659 64.3687C238.849 64.2187 238.709 61.4787 241.899 61.3187C245.089 61.1687 245.219 63.9087 248.399 63.7487C251.579 63.5887 251.449 60.8587 254.639 60.6987C257.829 60.5487 257.959 63.2887 261.149 63.1287C264.339 62.9787 264.209 60.2387 267.399 60.0787C270.589 59.9187 270.719 62.6687 273.909 62.5087" stroke="#E8ADA6" stroke-width="0.8" stroke-miterlimit="10"/><path d="M63.5894 73.8388C66.7694 73.6888 66.9094 76.4288 70.0894 76.2688C73.2694 76.1188 73.1393 73.3788 76.3193 73.2188C79.4993 73.0588 79.6293 75.8088 82.8193 75.6588C85.9993 75.5088 85.8694 72.7688 89.0594 72.6088C92.2394 72.4588 92.3694 75.1988 95.5594 75.0488C98.7494 74.8988 98.6093 72.1588 101.789 71.9988C104.969 71.8388 105.099 74.5888 108.289 74.4288C111.479 74.2688 111.339 71.5388 114.529 71.3788C117.709 71.2288 117.839 73.9688 121.029 73.8188C124.209 73.6688 124.079 70.9288 127.259 70.7688C130.439 70.6188 130.579 73.3588 133.759 73.1988C136.939 73.0488 136.809 70.3088 139.989 70.1488C143.169 69.9988 143.309 72.7388 146.489 72.5788C149.669 72.4188 149.539 69.6888 152.729 69.5288C155.919 69.3688 156.049 72.1188 159.229 71.9588C162.409 71.7988 162.279 69.0688 165.469 68.9088C168.649 68.7588 168.789 71.4988 171.969 71.3388C175.149 71.1888 175.019 68.4488 178.209 68.2888C181.399 68.1388 181.529 70.8788 184.709 70.7188C187.899 70.5688 187.759 67.8288 190.949 67.6688C194.139 67.5188 194.269 70.2588 197.449 70.0988C200.639 69.9488 200.499 67.2088 203.689 67.0488C206.879 66.8988 207.009 69.6388 210.189 69.4788C213.369 69.3288 213.239 66.5888 216.419 66.4288C219.599 66.2788 219.739 69.0188 222.919 68.8588C226.109 68.7088 225.969 65.9688 229.159 65.8088C232.349 65.6588 232.479 68.3988 235.659 68.2388C238.839 68.0788 238.709 65.3488 241.899 65.1888C245.089 65.0388 245.219 67.7788 248.399 67.6188C251.579 67.4688 251.449 64.7288 254.639 64.5688C257.829 64.4188 257.959 67.1588 261.149 66.9988C264.339 66.8488 264.209 64.1088 267.399 63.9488C270.589 63.7888 270.719 66.5388 273.909 66.3788" stroke="#E8ADA6" stroke-width="0.8" stroke-miterlimit="10"/><defs><filter id="filter0_d_19_6349" x="-0.000117302" y="4.76837e-06" width="468.524" height="141.442" filterUnits="userSpaceOnUse" color-interpolation-filters="sRGB"><feFlood flood-opacity="0" result="BackgroundImageFix"/><feColorMatrix in="SourceAlpha" type="matrix" values="0 0 0 0 0 0 0 0 0 0 0 0 0 0 0 0 0 0 127 0" result="hardAlpha"/><feOffset dx="2.92" dy="2.92"/><feGaussianBlur stdDeviation="5.15"/><feColorMatrix type="matrix" values="0 0 0 0 0.133333 0 0 0 0 0.0901961 0 0 0 0 0.0784314 0 0 0 0.35 0"/><feBlend mode="normal" in2="BackgroundImageFix" result="effect1_dropShadow_19_6349"/><feBlend mode="normal" in="SourceGraphic" in2="effect1_dropShadow_19_6349" result="shape"/></filter></defs></svg>
