<svg width="588" height="172" viewBox="0 0 588 172" fill="none" xmlns="http://www.w3.org/2000/svg"><g filter="url(#filter0_d_19_6350)"><path d="M548.668 11.61L11.6099 32.8988L15.7216 136.627L552.78 115.339L548.668 11.61Z" fill="white"/></g><path d="M93.9887 60.7912C102.978 58.8675 111.955 56.6852 120.919 54.2641C124.094 53.8597 126.795 53.8389 129.022 54.2216C130.723 53.8937 132.236 54.5532 133.54 56.2005L133.909 56.1963C134.697 57.1229 135.592 57.8093 136.594 58.2558C137.121 58.9663 137.765 59.5462 138.528 59.9954C139.105 61.6807 139.075 63.4029 138.427 65.152C137.977 65.9135 137.766 66.6524 137.805 67.3885C137.619 68.6247 136.772 71.2419 135.263 75.2402C134.177 77.9895 133.081 80.6196 131.983 83.1302L130.623 85.4049C129.213 86.7049 128.064 88.2307 127.177 89.9925L126.832 90.3746C124.247 92.7131 122.031 95.0374 120.183 97.3376L116.698 101.189L116.329 101.193C109.484 106.705 102.573 110.865 95.5977 113.671C94.3851 113.984 93.4229 114.393 92.7111 114.918L91.9739 114.957C91.2622 115.482 90.5378 115.769 89.8105 115.807C90.2604 115.046 90.8412 114.402 91.5529 113.876C99.4962 105.874 106.808 97.5297 113.487 88.8446C120.416 80.1567 124.858 71.0989 126.834 61.6811C125.858 61.7321 125.122 61.8897 124.647 62.1639C118.833 63.6832 115.672 64.4656 115.183 64.4811C110.608 66.1854 107.826 67.063 106.84 67.1141C102.491 68.5669 98.0212 70.0112 93.4326 71.4767L91.5994 71.5673C89.6495 71.908 87.791 71.5211 86.0136 70.3769C83.3587 66.5853 81.7795 64.4634 81.2659 64.0015C81.9776 63.4759 82.5598 62.9517 83.0324 62.4387C84.6695 60.8874 86.356 60.1814 88.0824 60.3409L88.7955 59.9347L89.9537 60.9765L93.9985 60.7712L93.9887 60.7912ZM141.022 58.3845C138.262 52.3946 140.14 48.3722 146.666 46.3273C149.33 45.6998 151.292 45.4784 152.53 45.6633C153.768 45.8483 155.032 46.5206 156.321 47.6804C158.111 49.0633 159.031 50.2372 159.082 51.2219C159.337 56.1157 158.017 59.2459 155.142 60.6223C154.418 60.9092 153.823 61.1847 153.338 61.449C152.402 62.4748 151.212 63.0258 149.738 63.1023C149.237 62.8791 148.618 62.7966 147.881 62.8348C146.892 62.6371 145.773 62.4508 144.535 62.2658C143.007 61.1188 141.836 59.8283 141.022 58.3944L141.022 58.3845ZM149.772 49.4767C144.922 50.7064 144.431 53.1802 148.312 56.9081C149.262 56.3698 150.354 55.9493 151.567 55.6369C152.415 53.1391 151.824 51.0856 149.782 49.4766L149.772 49.4767Z" fill="#5C4C54"/><path d="M182.171 57.5791C182.896 57.3021 183.74 57.0437 184.714 56.8037C193.204 54.7762 203.312 53.0388 215.028 51.5817C215.964 50.6156 216.795 50.0189 217.52 49.8016C219.209 49.2848 220.84 49.8833 222.405 51.5773C225.383 52.2799 227.385 53.0135 228.411 53.7582C230.252 56.1756 231.449 57.9833 232.001 59.1813C232.039 59.9174 232.196 60.5525 232.471 61.0869C232.997 61.7377 233.404 62.4497 233.682 63.2328C233.272 64.8498 232.282 67.1701 230.721 70.1936C230.963 74.8387 229.516 82.5784 226.38 93.4028C227.118 93.4242 228.355 93.5197 230.081 93.6692C230.845 94.178 231.477 94.549 231.978 94.7623C232.98 95.2585 233.688 96.9722 234.08 99.8938L233.419 101.394L232.72 102.169C228.018 101.555 224.815 101.253 223.1 101.283L208.75 101.645C202.899 102.498 198.405 103.555 195.279 104.814C195.056 105.315 194.844 105.944 194.643 106.683C194.694 107.658 194.139 108.888 192.99 110.354C191.527 110.55 189.932 110.538 188.195 110.319C186.129 108.402 184.605 104.986 183.622 100.07C181.519 87.8525 179.504 77.2261 177.567 68.1913C176.516 66.8995 174.912 64.34 172.755 60.5328C172.966 59.7839 173.296 59.0636 173.747 58.3717L174.499 58.7016L177.718 56.8834C178.707 57.0811 180.195 57.313 182.171 57.5791ZM215.785 59.356C214.034 58.8286 212.189 58.7102 210.238 58.9912C207.326 59.7509 203.081 60.7547 197.493 61.9828C191.905 63.2209 188.504 63.9563 187.291 64.209C187.568 64.9324 188.355 65.7495 189.631 66.6605C190.286 69.8777 191.161 74.9038 192.245 81.7488C193.33 88.5939 193.903 92.4987 193.954 93.4834C193.756 94.471 193.806 95.3264 194.083 96.0498C199.671 94.7819 206.737 93.7758 215.301 93.0313C217.788 73.2868 217.959 62.0583 215.785 59.3461L215.785 59.356Z" fill="#5C4C54"/><path d="M263.603 64.6431C264.579 64.5922 265.567 64.6705 266.556 64.8583C267.794 65.0432 269.46 65.2034 271.555 65.3388C273.65 65.4742 276.081 66.2128 278.847 67.5449C278.911 68.7683 279.082 69.7417 279.369 70.465C279.599 71.4377 279.611 72.4627 279.384 73.5402C279.167 74.6275 277.888 75.2591 275.568 75.4348L272.997 75.5636C267.831 75.3338 263.842 74.3143 261.05 72.4949C259.248 70.8733 257.944 69.3455 257.13 67.9116C257.092 67.1755 257.292 66.3074 257.739 65.307L258.845 65.2546L258.84 64.8864C259.545 64.6097 261.139 64.5218 263.603 64.6431ZM269.899 94.1108C271.875 94.2575 274.288 93.5234 277.151 91.8984C289.536 84.4023 296.432 79.875 297.83 78.3363C302.833 72.9945 306.854 68.1017 309.884 63.6483C311.011 62.8591 311.665 62.4536 311.844 62.4416C312.002 63.226 311.873 64.9593 311.464 67.6113C311.817 73.2305 308.678 79.417 302.056 86.1607C295.434 92.9044 290.568 97.1598 287.468 98.907C284.368 100.664 282.219 101.933 281.032 102.732L276.81 106.622C276.335 106.896 275.861 107.28 275.398 107.803L274.278 107.487L273.933 107.869L272.828 107.922L271.325 107.262C268.52 105.194 265.835 103.124 263.27 101.054C261.205 99.1961 259.9 97.5489 259.335 96.1022L259.551 93.1438L261.384 93.0533C263.085 92.7254 265.93 93.0712 269.909 94.0908L269.899 94.1108ZM265.911 45.03C269.338 44.8516 272.684 45.4206 275.949 46.7271C279.152 47.0588 282.035 48.1307 284.588 49.9628C285.076 49.9373 285.576 50.0312 286.077 50.2544L286.522 51.7024C286.573 52.6772 286.518 54.0314 286.359 55.755C284.472 57.3191 283.048 58.251 282.084 58.5506C280.859 58.6143 280.133 58.7719 279.897 59.0333C273.617 56.4077 269.453 54.0466 267.375 51.9503C265.783 49.5798 264.957 47.9072 264.906 46.9225C265.356 46.161 265.697 45.5301 265.911 45.03ZM300.682 46.0174C302.675 47.6966 304.002 49.6223 304.665 51.7944C302.355 54.6671 299.714 54.6873 296.751 51.8347C295.974 51.0175 295.288 50.3187 294.713 49.7281C293.127 48.7011 292.015 47.3801 291.378 45.7651L291.912 45.3709L291.875 44.7244C294.072 43.3259 297.018 43.7601 300.692 46.0273L300.682 46.0174ZM307.088 37.8729C309.21 38.625 310.612 40.0522 311.264 42.1647L311.951 44.7047L311.443 45.6461C309.959 46.5786 308.657 46.9517 307.539 46.7654C306.583 46.0199 305.677 45.234 304.84 44.4175C304.063 43.6002 303.377 42.8716 302.792 42.2214C302.028 41.6528 301.504 41.1512 301.24 40.7362C300.834 40.0839 300.349 39.552 299.776 39.1604C300.12 38.7186 300.564 38.2657 301.087 37.8019C302.405 37.1201 304.399 37.1471 307.078 37.863L307.088 37.8729Z" fill="#5C4C54"/><path d="M343.534 71.2271C346.485 71.3229 350.517 70.8689 355.62 69.8753C359.746 68.9326 363.727 67.5038 367.563 65.589C368.552 65.7867 369.54 65.8551 370.516 65.8042C372.504 66.1996 374.281 67.3338 375.848 69.207L375.264 72.1795C371.453 74.5817 368.698 75.9467 366.997 76.2846C365.535 76.5998 364.584 77.1381 364.134 77.8997C364.249 80.0979 364.234 82.3076 364.1 84.5186L364.153 85.6227C363.715 86.623 363.386 87.5025 363.186 88.2513C362.975 89.0001 362.656 89.8696 362.219 90.8798C361.782 91.8801 360.846 92.9159 359.433 93.967C366.01 92.8969 372.149 92.8269 377.842 93.7574C378.857 94.4425 380.001 95.1162 381.264 95.7885C381.542 96.5119 381.818 97.1059 382.092 97.5905C381.92 99.0655 381.495 100.314 380.809 101.337C379.398 102.637 377.71 103.214 375.735 103.067C369.331 102.662 365.262 102.5 363.548 102.589C354.996 103.512 347.062 104.409 339.735 105.279C336.872 106.894 334.226 105.56 331.794 101.269L332.493 100.494C334.392 99.1688 336.805 98.3152 339.731 97.9137C343.869 97.2097 347.152 96.5552 349.577 95.9404C350.949 93.9143 351.717 92.1539 351.889 90.669C353.294 84.4724 353.958 80.6331 353.881 79.161L353.106 78.4632L351.273 78.5537C349.084 78.9071 347.014 79.2591 345.065 79.6097C342.499 77.529 340.407 75.0646 338.79 72.2068L339.858 71.4183L343.534 71.2271Z" fill="#5C4C54"/><path d="M432.684 36.5218L435.992 36.3547C438.006 37.2375 439.653 38.3732 440.955 39.7816C441.258 40.9924 441.689 42.0723 442.228 43.0316C443.055 44.7042 443.503 46.401 443.592 48.1118L443.248 48.494L442.534 48.9002C442.11 50.1491 441.568 51.5287 440.907 53.0292C440.444 53.542 440.101 54.0535 439.877 54.5537L439.916 55.2897L439.203 55.696L438.872 56.4462C425.397 81.1628 411.304 96.2323 396.603 101.635L395.827 100.937C399.973 95.5751 403.881 90.3552 407.551 85.2575C407.988 84.2572 408.687 83.4829 409.638 82.9446C412.584 78.1338 415.541 73.4522 418.499 68.8801C419.345 66.1435 420.443 63.6329 421.803 61.3581C424.024 56.8342 426.126 52.3117 428.108 47.7905C424.693 48.2076 421.413 48.9914 418.276 50.1319L417.869 49.4199L408.993 63.1163L405.509 66.9679C404.583 67.9936 403.622 68.532 402.646 68.5829L401.947 69.3573C400.971 69.4082 400.235 69.5659 399.76 69.84C397.347 70.7035 395.066 71.675 392.905 72.7645C391.839 71.1046 392.094 69.0017 393.691 66.4754C399.818 56.6023 403.212 50.9106 403.873 49.4002C404.521 47.6511 404.682 46.0469 404.367 44.5974C404.038 42.8992 403.975 41.6758 404.175 40.927L403.768 40.2151L405.233 40.1387L405.156 38.6765L407.435 40.034L407.765 39.2838L408.871 39.2314L410.307 38.4188L411.451 39.0925C412.214 39.5416 412.978 40.1202 413.754 40.818C415.256 41.4776 416.993 41.637 418.933 41.2865C425.972 39.7035 429.966 38.5134 430.904 37.7364L431.287 38.0804L432 37.6741L431.961 36.9381L432.674 36.5318L432.684 36.5218Z" fill="#5C4C54"/><path d="M471.925 30.8388C473.282 31.0125 474.545 31.5654 475.692 32.4879C480.832 35.6639 483.709 37.9601 484.333 39.4061C487.198 41.4635 487.312 43.6717 484.668 46.0108C483.985 48.2579 483.729 51.0874 483.907 54.5091C488.309 54.1604 491.215 54.6548 492.636 55.9921C493.544 56.9273 494.397 57.465 495.206 57.6051C497.458 58.4055 499.469 59.8755 501.237 61.9852C502.68 62.5858 503.998 63.6557 505.181 65.1849C505.271 66.9554 504.79 68.4239 503.746 69.5804C501.115 72.2279 496.635 71.0149 490.297 65.9416C488.842 65.0923 486.87 64.3086 484.369 63.5806C484.138 65.1259 484.056 66.7193 484.105 68.3709C484.153 70.0224 484.146 72.0131 484.093 74.3525C485.114 83.4974 485.502 88.6584 485.256 89.8356C485.294 90.5119 485.522 92.1216 485.959 94.6745C485.143 95.6392 484.354 96.3549 483.581 96.8215L482.806 97.8754C481.738 98.6041 480.657 99.114 479.574 99.415C479.001 99.0135 478.549 98.7001 478.237 98.4748C475.289 96.0501 473.215 93.3665 472.025 90.4242L472.762 88.6342C473.741 86.1349 474.36 84.5355 474.632 83.8456C474.117 70.1368 473.691 56.3671 473.344 42.527C473.254 40.8161 472.362 39.5125 470.658 38.6163C468.567 36.2714 468.023 33.9686 469.014 31.708C470.12 31.6556 470.935 31.487 471.47 31.2122L471.915 30.819L471.925 30.8388Z" fill="#5C4C54"/><defs><filter id="filter0_d_19_6350" x="-0.000136375" y="-1.43051e-05" width="587.61" height="171.457" filterUnits="userSpaceOnUse" color-interpolation-filters="sRGB"><feFlood flood-opacity="0" result="BackgroundImageFix"/><feColorMatrix in="SourceAlpha" type="matrix" values="0 0 0 0 0 0 0 0 0 0 0 0 0 0 0 0 0 0 127 0" result="hardAlpha"/><feOffset dx="11.61" dy="11.61"/><feGaussianBlur stdDeviation="11.61"/><feColorMatrix type="matrix" values="0 0 0 0 0 0 0 0 0 0 0 0 0 0 0 0 0 0 0.45 0"/><feBlend mode="normal" in2="BackgroundImageFix" result="effect1_dropShadow_19_6350"/><feBlend mode="normal" in="SourceGraphic" in2="effect1_dropShadow_19_6350" result="shape"/></filter></defs></svg>
