<svg width="126" height="231" viewBox="0 0 126 231" fill="none" xmlns="http://www.w3.org/2000/svg"><mask id="mask0_58_8033" style="mask-type:alpha" maskUnits="userSpaceOnUse" x="0" y="0" width="126" height="231"><rect width="126" height="231" fill="#D9D9D9"/></mask><g mask="url(#mask0_58_8033)"><path d="M-3.17005 32.9601C-6.86005 33.5801 -10.34 34.8801 -13.51 36.8301C-16.79 38.8501 -19.6001 41.4701 -21.8601 44.6401C-25.3601 49.5501 -27.22 55.3301 -27.22 61.3401C-27.22 63.7001 -26.92 66.0701 -26.34 68.3701C-25.61 71.2401 -25.26 74.1401 -25.26 77.0201C-25.26 87.6601 -30.09 97.9201 -38.69 104.7C-41.27 106.73 -43.56 109.15 -45.51 111.88C-49.79 117.88 -52.05 124.93 -52.05 132.27C-52.05 137.76 -50.7501 143.24 -48.2901 148.13C-45.7501 153.18 -41.95 157.6 -37.32 160.91C-31.77 164.87 -25.2601 167.13 -18.4901 167.43C-7.21005 167.94 3.14995 173.83 9.34995 183.27C11.73 186.89 14.83 190.12 18.34 192.62C22.2 195.38 26.4899 197.29 31.0799 198.32C35.5199 199.31 40.0499 199.43 44.5499 198.68C49.0499 197.93 53.3 196.34 57.17 193.96C61.18 191.5 64.6099 188.29 67.3699 184.43C71.6499 178.43 73.91 171.38 73.91 164.04C73.91 158.55 72.6099 153.07 70.1499 148.18C70.0699 148.01 69.9799 147.85 69.8999 147.69C67.1999 142.54 65.8699 136.92 65.8699 131.32C65.8699 123.65 68.3699 116.03 73.2599 109.72C73.4699 109.45 73.69 109.16 73.89 108.87C77.07 104.42 78.6799 99.3901 78.6799 93.9401C78.6799 85.6301 74.65 77.7901 67.89 72.9601C65.02 70.9101 61.97 69.5501 58.56 68.7901C57.56 68.5701 56.53 68.4001 55.53 68.3001C43.41 67.0701 32.7899 59.6701 27.4299 48.7301C25.3199 44.4301 22.17 40.6901 18.31 37.9401C15.15 35.6801 11.6299 34.1101 7.86995 33.2701C4.23995 32.4601 0.519951 32.3601 -3.16005 32.9801L-3.17005 32.9601Z" fill="#EAD363"/><mask id="mask1_58_8033" style="mask-type:luminance" maskUnits="userSpaceOnUse" x="-74" y="-13" width="124" height="97"><path d="M49.2399 23.4601C48.7899 20.7501 47.8299 18.1901 46.3999 15.8501C44.9199 13.4301 42.9799 11.3701 40.6499 9.71008C37.0399 7.13008 32.7899 5.77008 28.3599 5.77008C26.6199 5.77008 24.8799 5.9901 23.1899 6.4201C21.0799 6.9501 18.9399 7.21008 16.8299 7.21008C8.99993 7.21008 1.44993 3.66008 -3.53007 -2.66992C-5.02007 -4.56992 -6.80007 -6.24991 -8.81007 -7.68991C-13.2201 -10.8399 -18.4101 -12.4999 -23.8101 -12.4999C-27.8501 -12.4999 -31.8801 -11.5399 -35.4801 -9.72992C-39.2001 -7.85992 -42.4501 -5.06991 -44.8801 -1.65991C-47.7901 2.42009 -49.4501 7.2201 -49.6801 12.2001C-50.0601 20.5001 -54.3901 28.1201 -61.3401 32.6901C-64.0001 34.4401 -66.3801 36.7301 -68.2201 39.3001C-70.2501 42.1401 -71.6601 45.3001 -72.4101 48.6701C-73.1401 51.9301 -73.2301 55.2701 -72.6701 58.5801C-72.1201 61.8901 -70.9501 65.0201 -69.2001 67.8701C-67.3901 70.8201 -65.0301 73.3401 -62.1901 75.3701C-57.7801 78.5201 -52.5901 80.1801 -47.1901 80.1801C-43.1501 80.1801 -39.1201 79.2201 -35.5201 77.4101C-35.4001 77.3501 -35.2801 77.2901 -35.1601 77.2201C-31.3701 75.2301 -27.2301 74.2501 -23.1201 74.2501C-17.4801 74.2501 -11.8701 76.0901 -7.23006 79.6901C-7.03006 79.8501 -6.82007 80.0001 -6.60007 80.1601C-3.32007 82.5001 0.369936 83.6801 4.37994 83.6801C10.4999 83.6801 16.2699 80.7101 19.8099 75.7401C21.3199 73.6301 22.3199 71.3801 22.8799 68.8701C23.0499 68.1301 23.1699 67.3801 23.2399 66.6401C24.1499 57.7201 29.5899 49.9101 37.6399 45.9701C40.8099 44.4201 43.5499 42.1001 45.5799 39.2601C47.2399 36.9301 48.3999 34.3501 49.0099 31.5801C49.6099 28.9101 49.6799 26.1801 49.2299 23.4601H49.2399Z" fill="white"/></mask><g mask="url(#mask1_58_8033)"><path d="M-129.395 17.7864L-130.442 18.8329L4.99756 154.272L6.04408 153.226L-129.395 17.7864Z" fill="#F5F5DB"/><path d="M-125.895 14.2866L-126.942 15.3332L8.49756 150.772L9.54408 149.726L-125.895 14.2866Z" fill="#F5F5DB"/><path d="M-122.398 10.7939L-123.445 11.8405L11.9947 147.28L13.0412 146.233L-122.398 10.7939Z" fill="#F5F5DB"/><path d="M-118.895 7.29128L-119.942 8.3378L15.4976 143.777L16.5441 142.731L-118.895 7.29128Z" fill="#F5F5DB"/><path d="M-115.405 3.8015L-116.452 4.84802L18.9876 140.287L20.0341 139.241L-115.405 3.8015Z" fill="#F5F5DB"/><path d="M-111.908 0.30886L-112.955 1.35538L22.4846 136.795L23.5312 135.748L-111.908 0.30886Z" fill="#F5F5DB"/><path d="M-108.415 -3.19383L-109.462 -2.14731L25.9776 133.292L27.0241 132.245L-108.415 -3.19383Z" fill="#F5F5DB"/><path d="M-104.915 -6.69358L-105.962 -5.64706L29.4776 129.792L30.5241 128.746L-104.915 -6.69358Z" fill="#F5F5DB"/><path d="M-101.418 -10.1862L-102.465 -9.13971L32.9746 126.3L34.0212 125.253L-101.418 -10.1862Z" fill="#F5F5DB"/><path d="M-97.9152 -13.6889L-98.9617 -12.6424L36.4776 122.797L37.5241 121.75L-97.9152 -13.6889Z" fill="#F5F5DB"/><path d="M-94.4252 -17.1787L-95.4717 -16.1321L39.9676 119.307L41.0141 118.261L-94.4252 -17.1787Z" fill="#F5F5DB"/><path d="M-90.9281 -20.6713L-91.9746 -19.6248L43.4646 115.814L44.5112 114.768L-90.9281 -20.6713Z" fill="#F5F5DB"/><path d="M-87.4352 -24.174L-88.4817 -23.1275L46.9576 112.312L48.0041 111.265L-87.4352 -24.174Z" fill="#F5F5DB"/><path d="M-83.9352 -27.6738L-84.9817 -26.6273L50.4576 108.812L51.5041 107.765L-83.9352 -27.6738Z" fill="#F5F5DB"/><path d="M-80.4381 -31.1665L-81.4846 -30.1199L53.9546 105.319L55.0011 104.273L-80.4381 -31.1665Z" fill="#F5F5DB"/><path d="M-76.9452 -34.6691L-77.9917 -33.6226L57.4475 101.817L58.494 100.77L-76.9452 -34.6691Z" fill="#F5F5DB"/><path d="M-73.4452 -38.1589L-74.4917 -37.1124L60.9475 98.3268L61.994 97.2803L-73.4452 -38.1589Z" fill="#F5F5DB"/><path d="M-69.9552 -41.6445L-71.0017 -40.598L64.4375 94.8413L65.484 93.7947L-69.9552 -41.6445Z" fill="#F5F5DB"/><path d="M-66.4552 -45.1542L-67.5017 -44.1077L67.9375 91.3315L68.984 90.285L-66.4552 -45.1542Z" fill="#F5F5DB"/><path d="M-62.9552 -48.654L-64.0017 -47.6075L71.4375 87.8318L72.484 86.7852L-62.9552 -48.654Z" fill="#F5F5DB"/><path d="M-59.4652 -52.1396L-60.5117 -51.0931L74.9275 84.3462L75.974 83.2996L-59.4652 -52.1396Z" fill="#F5F5DB"/><path d="M-55.9652 -55.6493L-57.0117 -54.6028L78.4275 80.8364L79.474 79.7899L-55.9652 -55.6493Z" fill="#F5F5DB"/><path d="M-52.4652 -59.1391L-53.5117 -58.0926L81.9275 77.3467L82.974 76.3002L-52.4652 -59.1391Z" fill="#F5F5DB"/><path d="M-48.9752 -62.6247L-50.0217 -61.5782L85.4175 73.8611L86.464 72.8146L-48.9752 -62.6247Z" fill="#F5F5DB"/><path d="M-45.4752 -66.1244L-46.5217 -65.0779L88.9175 70.3613L89.964 69.3148L-45.4752 -66.1244Z" fill="#F5F5DB"/><path d="M-41.9852 -69.6342L-43.0317 -68.5876L92.4075 66.8516L93.454 65.8051L-41.9852 -69.6342Z" fill="#F5F5DB"/><path d="M-38.4852 -73.1198L-39.5317 -72.0733L95.9075 63.366L96.954 62.3194L-38.4852 -73.1198Z" fill="#F5F5DB"/></g><mask id="mask2_58_8033" style="mask-type:luminance" maskUnits="userSpaceOnUse" x="25" y="123" width="101" height="81"><path d="M125.45 167.49C125.71 165.34 125.56 163.19 125 161.11C124.42 158.95 123.42 156.96 122.03 155.18C119.87 152.42 116.97 150.45 113.62 149.46C112.3 149.07 110.94 148.85 109.57 148.79C107.85 148.72 106.18 148.44 104.58 147.97C98.6601 146.22 93.7501 141.86 91.3901 135.96C90.6801 134.19 89.7201 132.52 88.5201 130.99C85.8901 127.63 82.3401 125.21 78.2601 124.01C75.2101 123.11 71.9401 122.93 68.8201 123.5C65.5901 124.09 62.5101 125.47 59.9101 127.51C56.8001 129.95 54.4701 133.2 53.1901 136.91C51.0501 143.1 46.0801 147.89 39.8101 149.8C37.4101 150.53 35.1001 151.73 33.1401 153.26C30.9701 154.96 29.2001 157.03 27.8801 159.41C26.6001 161.71 25.7901 164.22 25.4701 166.84C25.1501 169.47 25.3401 172.09 26.0201 174.63C26.7301 177.26 27.9501 179.7 29.6501 181.86C32.2801 185.22 35.8301 187.64 39.9101 188.84C42.9601 189.74 46.2301 189.92 49.3501 189.35C49.4601 189.33 49.5601 189.31 49.6701 189.29C52.9801 188.63 56.3201 188.81 59.4301 189.73C63.6901 190.99 67.5201 193.63 70.2301 197.38C70.3501 197.54 70.4701 197.71 70.6001 197.87C72.5601 200.37 75.0801 202.09 78.1201 202.98C82.7401 204.34 87.7701 203.39 91.5601 200.42C93.1701 199.16 94.4301 197.69 95.4101 195.92C95.7001 195.4 95.9601 194.86 96.1801 194.31C98.8501 187.77 104.71 183.08 111.68 181.9C114.42 181.43 117.01 180.29 119.18 178.6C120.96 177.21 122.4 175.52 123.49 173.56C124.54 171.67 125.2 169.62 125.46 167.47L125.45 167.49Z" fill="white"/></mask><g mask="url(#mask2_58_8033)"><path d="M-8.28951 123.363L-9.31714 123.923L62.8488 256.505L63.8765 255.945L-8.28951 123.363Z" fill="#F5F5DB"/><path d="M-4.86959 121.496L-5.89722 122.055L66.2688 254.637L67.2964 254.078L-4.86959 121.496Z" fill="#F5F5DB"/><path d="M-1.45503 119.637L-2.48267 120.197L69.6833 252.778L70.711 252.219L-1.45503 119.637Z" fill="#F5F5DB"/><path d="M1.97953 117.769L0.951904 118.328L73.1179 250.91L74.1455 250.35L1.97953 117.769Z" fill="#F5F5DB"/><path d="M5.39823 115.906L4.37061 116.466L76.5366 249.048L77.5642 248.488L5.39823 115.906Z" fill="#F5F5DB"/><path d="M8.81279 114.048L7.78516 114.607L79.9512 247.189L80.9788 246.63L8.81279 114.048Z" fill="#F5F5DB"/><path d="M12.2373 112.189L11.2097 112.748L83.3757 245.33L84.4033 244.771L12.2373 112.189Z" fill="#F5F5DB"/><path d="M15.6661 110.317L14.6384 110.876L86.8044 243.458L87.8321 242.899L15.6661 110.317Z" fill="#F5F5DB"/><path d="M19.0906 108.448L18.063 109.007L90.229 241.589L91.2566 241.03L19.0906 108.448Z" fill="#F5F5DB"/><path d="M22.5152 106.589L21.4875 107.149L93.6535 239.731L94.6812 239.171L22.5152 106.589Z" fill="#F5F5DB"/><path d="M25.9251 104.722L24.8975 105.281L97.0635 237.863L98.0911 237.304L25.9251 104.722Z" fill="#F5F5DB"/><path d="M29.3484 102.868L28.3208 103.428L100.487 236.01L101.514 235.45L29.3484 102.868Z" fill="#F5F5DB"/><path d="M32.773 101L31.7454 101.559L103.911 234.141L104.939 233.582L32.773 101Z" fill="#F5F5DB"/><path d="M36.1978 99.1408L35.1702 99.7002L107.336 232.282L108.364 231.723L36.1978 99.1408Z" fill="#F5F5DB"/><path d="M39.6263 97.2686L38.5986 97.8279L110.765 230.41L111.792 229.851L39.6263 97.2686Z" fill="#F5F5DB"/><path d="M43.0511 95.4099L42.0234 95.9692L114.189 228.551L115.217 227.992L43.0511 95.4099Z" fill="#F5F5DB"/><path d="M46.4656 93.5512L45.438 94.1105L117.604 226.692L118.632 226.133L46.4656 93.5512Z" fill="#F5F5DB"/><path d="M49.8755 91.6937L48.8479 92.2531L121.014 224.835L122.041 224.276L49.8755 91.6937Z" fill="#F5F5DB"/><path d="M53.3189 89.8202L52.2913 90.3796L124.457 222.962L125.485 222.402L53.3189 89.8202Z" fill="#F5F5DB"/><path d="M56.7435 87.9615L55.7158 88.5209L127.882 221.103L128.909 220.543L56.7435 87.9615Z" fill="#F5F5DB"/><path d="M60.1534 86.094L59.1257 86.6534L131.292 219.235L132.319 218.676L60.1534 86.094Z" fill="#F5F5DB"/><path d="M63.5967 84.2206L62.5691 84.7799L134.735 217.362L135.763 216.803L63.5967 84.2206Z" fill="#F5F5DB"/><path d="M67.0113 82.3719L65.9836 82.9312L138.15 215.513L139.177 214.954L67.0113 82.3719Z" fill="#F5F5DB"/><path d="M70.4212 80.5044L69.3936 81.0637L141.56 213.646L142.587 213.086L70.4212 80.5044Z" fill="#F5F5DB"/><path d="M73.8458 78.6457L72.8181 79.205L144.984 211.787L146.012 211.228L73.8458 78.6457Z" fill="#F5F5DB"/><path d="M77.2791 76.7822L76.2515 77.3416L148.417 209.924L149.445 209.364L77.2791 76.7822Z" fill="#F5F5DB"/><path d="M80.7039 74.9235L79.6763 75.4828L151.842 208.065L152.87 207.505L80.7039 74.9235Z" fill="#F5F5DB"/></g><path d="M44.9901 221.19C45.7468 221.19 46.3601 220.577 46.3601 219.82C46.3601 219.063 45.7468 218.45 44.9901 218.45C44.2335 218.45 43.6201 219.063 43.6201 219.82C43.6201 220.577 44.2335 221.19 44.9901 221.19Z" fill="white"/><path d="M44.9901 230.35C44.2301 230.35 43.6201 229.74 43.6201 228.98C43.6201 228.22 44.2301 227.61 44.9901 227.61C45.7501 227.61 46.3601 228.22 46.3601 228.98C46.3601 229.74 45.7501 230.35 44.9901 230.35Z" fill="white"/><path d="M40.41 216.62C39.65 216.62 39.04 216.01 39.04 215.25C39.04 214.49 39.65 213.88 40.41 213.88C41.17 213.88 41.78 214.49 41.78 215.25C41.78 216.01 41.17 216.62 40.41 216.62Z" fill="white"/><path d="M40.41 225.77C39.65 225.77 39.04 225.16 39.04 224.4C39.04 223.64 39.65 223.03 40.41 223.03C41.17 223.03 41.78 223.64 41.78 224.4C41.78 225.16 41.17 225.77 40.41 225.77Z" fill="white"/><path d="M35.84 212.04C35.08 212.04 34.47 211.43 34.47 210.67C34.47 209.91 35.08 209.3 35.84 209.3C36.6 209.3 37.21 209.91 37.21 210.67C37.21 211.43 36.6 212.04 35.84 212.04Z" fill="white"/><path d="M35.84 221.19C35.08 221.19 34.47 220.58 34.47 219.82C34.47 219.06 35.08 218.45 35.84 218.45C36.6 218.45 37.21 219.06 37.21 219.82C37.21 220.58 36.6 221.19 35.84 221.19Z" fill="white"/><path d="M35.84 230.35C35.08 230.35 34.47 229.74 34.47 228.98C34.47 228.22 35.08 227.61 35.84 227.61C36.6 227.61 37.21 228.22 37.21 228.98C37.21 229.74 36.6 230.35 35.84 230.35Z" fill="white"/><path d="M31.2601 207.46C32.0168 207.46 32.6301 206.847 32.6301 206.09C32.6301 205.334 32.0168 204.72 31.2601 204.72C30.5035 204.72 29.8901 205.334 29.8901 206.09C29.8901 206.847 30.5035 207.46 31.2601 207.46Z" fill="white"/><path d="M31.2601 216.62C30.5001 216.62 29.8901 216.01 29.8901 215.25C29.8901 214.49 30.5001 213.88 31.2601 213.88C32.0201 213.88 32.6301 214.49 32.6301 215.25C32.6301 216.01 32.0201 216.62 31.2601 216.62Z" fill="white"/><path d="M31.2601 225.77C30.5001 225.77 29.8901 225.16 29.8901 224.4C29.8901 223.64 30.5001 223.03 31.2601 223.03C32.0201 223.03 32.6301 223.64 32.6301 224.4C32.6301 225.16 32.0201 225.77 31.2601 225.77Z" fill="white"/><path d="M26.6801 202.88C25.9201 202.88 25.3101 202.27 25.3101 201.51C25.3101 200.75 25.9201 200.14 26.6801 200.14C27.4401 200.14 28.0501 200.75 28.0501 201.51C28.0501 202.27 27.4401 202.88 26.6801 202.88Z" fill="white"/><path d="M26.6801 212.04C25.9201 212.04 25.3101 211.43 25.3101 210.67C25.3101 209.91 25.9201 209.3 26.6801 209.3C27.4401 209.3 28.0501 209.91 28.0501 210.67C28.0501 211.43 27.4401 212.04 26.6801 212.04Z" fill="white"/><path d="M26.6801 221.19C25.9201 221.19 25.3101 220.58 25.3101 219.82C25.3101 219.06 25.9201 218.45 26.6801 218.45C27.4401 218.45 28.0501 219.06 28.0501 219.82C28.0501 220.58 27.4401 221.19 26.6801 221.19Z" fill="white"/><path d="M26.6801 230.35C25.9201 230.35 25.3101 229.74 25.3101 228.98C25.3101 228.22 25.9201 227.61 26.6801 227.61C27.4401 227.61 28.0501 228.22 28.0501 228.98C28.0501 229.74 27.4401 230.35 26.6801 230.35Z" fill="white"/><path d="M22.11 207.46C21.35 207.46 20.74 206.85 20.74 206.09C20.74 205.33 21.35 204.72 22.11 204.72C22.87 204.72 23.48 205.33 23.48 206.09C23.48 206.85 22.87 207.46 22.11 207.46Z" fill="white"/><path d="M22.11 216.62C21.35 216.62 20.74 216.01 20.74 215.25C20.74 214.49 21.35 213.88 22.11 213.88C22.87 213.88 23.48 214.49 23.48 215.25C23.48 216.01 22.87 216.62 22.11 216.62Z" fill="white"/><path d="M22.11 225.77C21.35 225.77 20.74 225.16 20.74 224.4C20.74 223.64 21.35 223.03 22.11 223.03C22.87 223.03 23.48 223.64 23.48 224.4C23.48 225.16 22.87 225.77 22.11 225.77Z" fill="white"/><path d="M17.5302 202.88C16.7702 202.88 16.1602 202.27 16.1602 201.51C16.1602 200.75 16.7702 200.14 17.5302 200.14C18.2902 200.14 18.9002 200.75 18.9002 201.51C18.9002 202.27 18.2902 202.88 17.5302 202.88Z" fill="white"/><path d="M17.5302 212.04C16.7702 212.04 16.1602 211.43 16.1602 210.67C16.1602 209.91 16.7702 209.3 17.5302 209.3C18.2902 209.3 18.9002 209.91 18.9002 210.67C18.9002 211.43 18.2902 212.04 17.5302 212.04Z" fill="white"/><path d="M17.5302 221.19C16.7702 221.19 16.1602 220.58 16.1602 219.82C16.1602 219.06 16.7702 218.45 17.5302 218.45C18.2902 218.45 18.9002 219.06 18.9002 219.82C18.9002 220.58 18.2902 221.19 17.5302 221.19Z" fill="white"/><path d="M17.5302 230.35C16.7702 230.35 16.1602 229.74 16.1602 228.98C16.1602 228.22 16.7702 227.61 17.5302 227.61C18.2902 227.61 18.9002 228.22 18.9002 228.98C18.9002 229.74 18.2902 230.35 17.5302 230.35Z" fill="white"/><path d="M12.9501 207.46C13.7067 207.46 14.3201 206.847 14.3201 206.09C14.3201 205.334 13.7067 204.72 12.9501 204.72C12.1934 204.72 11.5801 205.334 11.5801 206.09C11.5801 206.847 12.1934 207.46 12.9501 207.46Z" fill="white"/><path d="M12.9501 216.62C12.1901 216.62 11.5801 216.01 11.5801 215.25C11.5801 214.49 12.1901 213.88 12.9501 213.88C13.7101 213.88 14.3201 214.49 14.3201 215.25C14.3201 216.01 13.7101 216.62 12.9501 216.62Z" fill="white"/><path d="M12.9501 225.77C12.1901 225.77 11.5801 225.16 11.5801 224.4C11.5801 223.64 12.1901 223.03 12.9501 223.03C13.7101 223.03 14.3201 223.64 14.3201 224.4C14.3201 225.16 13.7101 225.77 12.9501 225.77Z" fill="white"/><path d="M8.38001 202.88C9.13664 202.88 9.75001 202.267 9.75001 201.51C9.75001 200.754 9.13664 200.14 8.38001 200.14C7.62338 200.14 7.01001 200.754 7.01001 201.51C7.01001 202.267 7.62338 202.88 8.38001 202.88Z" fill="white"/><path d="M8.38001 212.04C7.62001 212.04 7.01001 211.43 7.01001 210.67C7.01001 209.91 7.62001 209.3 8.38001 209.3C9.14001 209.3 9.75001 209.91 9.75001 210.67C9.75001 211.43 9.14001 212.04 8.38001 212.04Z" fill="white"/><path d="M8.38001 221.19C9.13664 221.19 9.75001 220.577 9.75001 219.82C9.75001 219.063 9.13664 218.45 8.38001 218.45C7.62338 218.45 7.01001 219.063 7.01001 219.82C7.01001 220.577 7.62338 221.19 8.38001 221.19Z" fill="white"/><path d="M8.38001 230.35C7.62001 230.35 7.01001 229.74 7.01001 228.98C7.01001 228.22 7.62001 227.61 8.38001 227.61C9.14001 227.61 9.75001 228.22 9.75001 228.98C9.75001 229.74 9.14001 230.35 8.38001 230.35Z" fill="white"/><path d="M3.80018 207.46C4.55681 207.46 5.17018 206.847 5.17018 206.09C5.17018 205.334 4.55681 204.72 3.80018 204.72C3.04355 204.72 2.43018 205.334 2.43018 206.09C2.43018 206.847 3.04355 207.46 3.80018 207.46Z" fill="white"/><path d="M3.80018 216.62C3.04018 216.62 2.43018 216.01 2.43018 215.25C2.43018 214.49 3.04018 213.88 3.80018 213.88C4.56018 213.88 5.17018 214.49 5.17018 215.25C5.17018 216.01 4.56018 216.62 3.80018 216.62Z" fill="white"/><path d="M3.80018 225.77C3.04018 225.77 2.43018 225.16 2.43018 224.4C2.43018 223.64 3.04018 223.03 3.80018 223.03C4.56018 223.03 5.17018 223.64 5.17018 224.4C5.17018 225.16 4.56018 225.77 3.80018 225.77Z" fill="white"/><path d="M-0.779902 212.04C-1.5399 212.04 -2.1499 211.43 -2.1499 210.67C-2.1499 209.91 -1.5399 209.3 -0.779902 209.3C-0.0199023 209.3 0.590098 209.91 0.590098 210.67C0.590098 211.43 -0.0199023 212.04 -0.779902 212.04Z" fill="white"/><path d="M-0.779902 221.19C-1.5399 221.19 -2.1499 220.58 -2.1499 219.82C-2.1499 219.06 -1.5399 218.45 -0.779902 218.45C-0.0199023 218.45 0.590098 219.06 0.590098 219.82C0.590098 220.58 -0.0199023 221.19 -0.779902 221.19Z" fill="white"/><path d="M-0.779902 230.35C-1.5399 230.35 -2.1499 229.74 -2.1499 228.98C-2.1499 228.22 -1.5399 227.61 -0.779902 227.61C-0.0199023 227.61 0.590098 228.22 0.590098 228.98C0.590098 229.74 -0.0199023 230.35 -0.779902 230.35Z" fill="white"/></g></svg>
