<svg width="520" height="436" viewBox="0 0 520 436" fill="none" xmlns="http://www.w3.org/2000/svg"><mask id="mask0_19_5090" style="mask-type:alpha" maskUnits="userSpaceOnUse" x="0" y="0" width="520" height="436"><path d="M520 0H0V436H520V0Z" fill="black"/></mask><g mask="url(#mask0_19_5090)"><path d="M-208.32 206.9C-209.24 218.7 -207.91 230.37 -204.35 241.6C-200.66 253.22 -194.74 263.86 -186.75 273.21C-174.35 287.72 -158.03 297.82 -139.57 302.41C-132.31 304.22 -124.82 305.12 -117.31 305.09C-107.94 305.05 -98.77 306.19 -89.94 308.38C-57.28 316.51 -29.46 339.17 -15.22 370.75C-10.95 380.21 -5.28999 389.11 1.62001 397.19C16.76 414.91 36.68 427.24 59.22 432.84C76.07 437.03 93.9 437.23 110.8 433.4C128.25 429.45 144.72 421.18 158.42 409.47C174.82 395.45 186.72 377.18 192.84 356.63C203.04 322.38 229.03 295.08 262.75 283.24C275.67 278.7 287.96 271.63 298.31 262.79C309.72 253.03 318.89 241.34 325.54 228.02C331.97 215.16 335.8 201.33 336.93 186.93C338.06 172.53 336.43 158.28 332.08 144.57C327.58 130.38 320.35 117.4 310.6 105.98C295.46 88.2596 275.54 75.9297 253 70.3297C236.15 66.1397 218.31 65.9397 201.42 69.7697C200.85 69.8997 200.28 70.0296 199.71 70.1696C181.82 74.5296 163.55 74.3296 146.38 70.0496C122.84 64.1896 101.34 50.6896 85.72 30.8696C85.04 30.0096 84.32 29.1296 83.59 28.2796C72.34 15.1196 58.15 6.33962 41.41 2.16962C15.89 -4.18038 -11.27 2.21961 -31.24 19.2796C-39.72 26.5196 -46.24 34.8496 -51.18 44.7396C-52.64 47.6496 -53.92 50.6596 -55.01 53.6796C-68.05 89.9496 -98.88 116.91 -136.57 124.99C-151.4 128.17 -165.27 135.01 -176.68 144.76C-186.03 152.75 -193.54 162.33 -198.99 173.24C-204.26 183.78 -207.39 195.1 -208.32 206.9Z" fill="#EFAFAB"/><mask id="mask1_19_5090" style="mask-type:luminance" maskUnits="userSpaceOnUse" x="204" y="92" width="317" height="249"><path d="M204.97 248.13C206.14 255.12 208.6 261.72 212.3 267.73C216.12 273.96 221.1 279.28 227.1 283.56C236.41 290.2 247.36 293.72 258.76 293.72C263.24 293.72 267.73 293.16 272.09 292.06C277.53 290.68 283.03 290.01 288.48 290.01C308.65 290.01 328.1 299.16 340.95 315.46C344.8 320.34 349.38 324.7 354.57 328.4C365.94 336.51 379.3 340.8 393.22 340.8C403.62 340.8 414.02 338.33 423.29 333.67C432.87 328.85 441.24 321.66 447.51 312.87C455.02 302.35 459.29 290 459.88 277.17C460.85 255.78 472.02 236.15 489.91 224.38C496.76 219.87 502.89 213.98 507.63 207.34C512.86 200.02 516.49 191.89 518.43 183.19C520.31 174.78 520.54 166.19 519.11 157.65C517.68 149.11 514.67 141.06 510.16 133.72C505.49 126.12 499.41 119.62 492.09 114.39C480.72 106.28 467.36 101.99 453.44 101.99C443.04 101.99 432.64 104.46 423.37 109.12C423.06 109.28 422.74 109.44 422.43 109.6C412.66 114.73 402.01 117.25 391.4 117.25C376.86 117.25 362.41 112.51 350.46 103.24C349.94 102.84 349.39 102.43 348.85 102.04C340.41 96.0197 330.88 92.9597 320.55 92.9597C304.79 92.9597 289.93 100.61 280.79 113.42C276.91 118.86 274.32 124.64 272.88 131.11C272.45 133.01 272.14 134.95 271.95 136.86C269.62 159.83 255.59 179.97 234.84 190.12C226.68 194.11 219.6 200.1 214.38 207.42C210.1 213.42 207.12 220.08 205.53 227.21C203.99 234.1 203.81 241.14 204.97 248.13Z" fill="white"/></mask><g mask="url(#mask1_19_5090)"><path d="M316.243 494.306L318.944 497.007L667.922 148.028L665.221 145.327L316.243 494.306Z" fill="#F5F5DB"/><path d="M307.233 485.297L309.935 487.998L658.913 139.02L656.212 136.318L307.233 485.297Z" fill="#F5F5DB"/><path d="M298.227 476.291L300.928 478.992L649.901 130.008L647.199 127.307L298.227 476.291Z" fill="#F5F5DB"/><path d="M289.214 467.279L291.916 469.98L640.895 121.003L638.194 118.302L289.214 467.279Z" fill="#F5F5DB"/><path d="M280.205 458.271L282.906 460.973L631.885 111.994L629.184 109.293L280.205 458.271Z" fill="#F5F5DB"/><path d="M271.193 449.26L273.895 451.961L622.878 102.988L620.177 100.287L271.193 449.26Z" fill="#F5F5DB"/><path d="M262.186 440.254L264.887 442.955L613.866 93.9765L611.165 91.2754L262.186 440.254Z" fill="#F5F5DB"/><path d="M253.177 431.245L255.878 433.946L604.857 84.9678L602.155 82.2666L253.177 431.245Z" fill="#F5F5DB"/><path d="M244.17 422.226L246.871 424.927L595.844 75.9428L593.143 73.2416L244.17 422.226Z" fill="#F5F5DB"/><path d="M235.158 413.215L237.859 415.916L586.837 66.9363L584.135 64.2351L235.158 413.215Z" fill="#F5F5DB"/><path d="M226.149 404.206L228.85 406.907L577.828 57.9287L575.127 55.2276L226.149 404.206Z" fill="#F5F5DB"/><path d="M217.137 395.194L219.838 397.895L568.822 48.9225L566.121 46.2213L217.137 395.194Z" fill="#F5F5DB"/><path d="M208.13 386.188L210.831 388.89L559.809 39.9111L557.108 37.21L208.13 386.188Z" fill="#F5F5DB"/><path d="M199.121 377.18L201.822 379.881L550.8 30.9024L548.099 28.2012L199.121 377.18Z" fill="#F5F5DB"/><path d="M190.114 368.174L192.815 370.875L541.788 21.891L539.087 19.1898L190.114 368.174Z" fill="#F5F5DB"/><path d="M181.102 359.163L183.803 361.864L532.781 12.8857L530.08 10.1846L181.102 359.163Z" fill="#F5F5DB"/><path d="M172.092 350.154L174.793 352.855L523.772 3.87754L521.071 1.17638L172.092 350.154Z" fill="#F5F5DB"/><path d="M163.08 341.143L165.781 343.845L514.764 -5.12955L512.063 -7.83074L163.08 341.143Z" fill="#F5F5DB"/><path d="M154.074 332.138L156.775 334.839L505.753 -14.1397L503.052 -16.8408L154.074 332.138Z" fill="#F5F5DB"/><path d="M145.064 323.129L147.765 325.83L496.744 -23.1485L494.043 -25.8496L145.064 323.129Z" fill="#F5F5DB"/><path d="M136.057 314.123L138.759 316.824L487.731 -32.1598L485.03 -34.8609L136.057 314.123Z" fill="#F5F5DB"/><path d="M127.045 305.111L129.747 307.812L478.725 -41.166L476.024 -43.8672L127.045 305.111Z" fill="#F5F5DB"/><path d="M118.037 296.103L120.738 298.805L469.716 -50.1744L467.014 -52.8756L118.037 296.103Z" fill="#F5F5DB"/><path d="M109.024 287.092L111.725 289.793L460.709 -59.1801L458.008 -61.8812L109.024 287.092Z" fill="#F5F5DB"/><path d="M100.017 278.086L102.718 280.787L451.697 -68.1908L448.996 -70.892L100.017 278.086Z" fill="#F5F5DB"/><path d="M91.0078 269.063L93.709 271.765L442.687 -77.2139L439.986 -79.9151L91.0078 269.063Z" fill="#F5F5DB"/><path d="M81.9986 260.055L84.6997 262.756L433.678 -86.2227L430.977 -88.9238L81.9986 260.055Z" fill="#F5F5DB"/></g><path d="M71.08 99.5597C71.08 100.88 70.01 101.95 68.69 101.95C67.37 101.95 66.3 100.88 66.3 99.5597C66.3 98.2397 67.37 97.1697 68.69 97.1697C70.01 97.1697 71.08 98.2397 71.08 99.5597Z" fill="white"/><path d="M86.99 99.5597C86.99 100.88 85.92 101.95 84.6 101.95C83.28 101.95 82.21 100.88 82.21 99.5597C82.21 98.2397 83.28 97.1697 84.6 97.1697C85.92 97.1697 86.99 98.2397 86.99 99.5597Z" fill="white"/><path d="M102.9 99.5597C102.9 100.88 101.83 101.95 100.51 101.95C99.1899 101.95 98.1199 100.88 98.1199 99.5597C98.1199 98.2397 99.1899 97.1697 100.51 97.1697C101.83 97.1697 102.9 98.2397 102.9 99.5597Z" fill="white"/><path d="M63.1201 107.51C63.1201 108.83 62.0501 109.9 60.7301 109.9C59.4101 109.9 58.3401 108.83 58.3401 107.51C58.3401 106.19 59.4101 105.12 60.7301 105.12C62.0501 105.12 63.1201 106.19 63.1201 107.51Z" fill="white"/><path d="M79.03 107.51C79.03 108.83 77.96 109.9 76.64 109.9C75.32 109.9 74.25 108.83 74.25 107.51C74.25 106.19 75.32 105.12 76.64 105.12C77.96 105.12 79.03 106.19 79.03 107.51Z" fill="white"/><path d="M94.9399 107.51C94.9399 108.83 93.8699 109.9 92.5499 109.9C91.2299 109.9 90.1599 108.83 90.1599 107.51C90.1599 106.19 91.2299 105.12 92.5499 105.12C93.8699 105.12 94.9399 106.19 94.9399 107.51Z" fill="white"/><path d="M110.85 107.51C110.85 108.83 109.78 109.9 108.46 109.9C107.14 109.9 106.07 108.83 106.07 107.51C106.07 106.19 107.14 105.12 108.46 105.12C109.78 105.12 110.85 106.19 110.85 107.51Z" fill="white"/><path d="M55.1699 115.46C55.1699 116.78 54.0999 117.85 52.7799 117.85C51.4599 117.85 50.3899 116.78 50.3899 115.46C50.3899 114.14 51.4599 113.07 52.7799 113.07C54.0999 113.07 55.1699 114.14 55.1699 115.46Z" fill="white"/><path d="M68.69 117.85C70.01 117.85 71.08 116.78 71.08 115.46C71.08 114.14 70.01 113.07 68.69 113.07C67.3701 113.07 66.3 114.14 66.3 115.46C66.3 116.78 67.3701 117.85 68.69 117.85Z" fill="white"/><path d="M86.99 115.46C86.99 116.78 85.92 117.85 84.6 117.85C83.28 117.85 82.21 116.78 82.21 115.46C82.21 114.14 83.28 113.07 84.6 113.07C85.92 113.07 86.99 114.14 86.99 115.46Z" fill="white"/><path d="M100.51 117.85C101.83 117.85 102.9 116.78 102.9 115.46C102.9 114.14 101.83 113.07 100.51 113.07C99.1899 113.07 98.1199 114.14 98.1199 115.46C98.1199 116.78 99.1899 117.85 100.51 117.85Z" fill="white"/><path d="M118.8 115.46C118.8 116.78 117.73 117.85 116.41 117.85C115.09 117.85 114.02 116.78 114.02 115.46C114.02 114.14 115.09 113.07 116.41 113.07C117.73 113.07 118.8 114.14 118.8 115.46Z" fill="white"/><path d="M44.8299 125.81C46.1499 125.81 47.2199 124.74 47.2199 123.42C47.2199 122.1 46.1499 121.03 44.8299 121.03C43.51 121.03 42.4399 122.1 42.4399 123.42C42.4399 124.74 43.51 125.81 44.8299 125.81Z" fill="white"/><path d="M63.1201 123.42C63.1201 124.74 62.0501 125.81 60.7301 125.81C59.4101 125.81 58.3401 124.74 58.3401 123.42C58.3401 122.1 59.4101 121.03 60.7301 121.03C62.0501 121.03 63.1201 122.1 63.1201 123.42Z" fill="white"/><path d="M79.03 123.42C79.03 124.74 77.96 125.81 76.64 125.81C75.32 125.81 74.25 124.74 74.25 123.42C74.25 122.1 75.32 121.03 76.64 121.03C77.96 121.03 79.03 122.1 79.03 123.42Z" fill="white"/><path d="M94.9399 123.42C94.9399 124.74 93.8699 125.81 92.5499 125.81C91.2299 125.81 90.1599 124.74 90.1599 123.42C90.1599 122.1 91.2299 121.03 92.5499 121.03C93.8699 121.03 94.9399 122.1 94.9399 123.42Z" fill="white"/><path d="M108.46 125.81C109.78 125.81 110.85 124.74 110.85 123.42C110.85 122.1 109.78 121.03 108.46 121.03C107.14 121.03 106.07 122.1 106.07 123.42C106.07 124.74 107.14 125.81 108.46 125.81Z" fill="white"/><path d="M126.76 123.42C126.76 124.74 125.69 125.81 124.37 125.81C123.05 125.81 121.98 124.74 121.98 123.42C121.98 122.1 123.05 121.03 124.37 121.03C125.69 121.03 126.76 122.1 126.76 123.42Z" fill="white"/><path d="M39.26 131.369C39.26 132.689 38.19 133.759 36.87 133.759C35.55 133.759 34.48 132.689 34.48 131.369C34.48 130.049 35.55 128.979 36.87 128.979C38.19 128.979 39.26 130.049 39.26 131.369Z" fill="white"/><path d="M55.1699 131.369C55.1699 132.689 54.0999 133.759 52.7799 133.759C51.4599 133.759 50.3899 132.689 50.3899 131.369C50.3899 130.049 51.4599 128.979 52.7799 128.979C54.0999 128.979 55.1699 130.049 55.1699 131.369Z" fill="white"/><path d="M71.08 131.369C71.08 132.689 70.01 133.759 68.69 133.759C67.37 133.759 66.3 132.689 66.3 131.369C66.3 130.049 67.37 128.979 68.69 128.979C70.01 128.979 71.08 130.049 71.08 131.369Z" fill="white"/><path d="M86.99 131.369C86.99 132.689 85.92 133.759 84.6 133.759C83.28 133.759 82.21 132.689 82.21 131.369C82.21 130.049 83.28 128.979 84.6 128.979C85.92 128.979 86.99 130.049 86.99 131.369Z" fill="white"/><path d="M102.9 131.369C102.9 132.689 101.83 133.759 100.51 133.759C99.1899 133.759 98.1199 132.689 98.1199 131.369C98.1199 130.049 99.1899 128.979 100.51 128.979C101.83 128.979 102.9 130.049 102.9 131.369Z" fill="white"/><path d="M118.8 131.369C118.8 132.689 117.73 133.759 116.41 133.759C115.09 133.759 114.02 132.689 114.02 131.369C114.02 130.049 115.09 128.979 116.41 128.979C117.73 128.979 118.8 130.049 118.8 131.369Z" fill="white"/><path d="M134.71 131.369C134.71 132.689 133.64 133.759 132.32 133.759C131 133.759 129.93 132.689 129.93 131.369C129.93 130.049 131 128.979 132.32 128.979C133.64 128.979 134.71 130.049 134.71 131.369Z" fill="white"/><path d="M47.2099 139.329C47.2099 140.649 46.1399 141.719 44.8199 141.719C43.4999 141.719 42.4299 140.649 42.4299 139.329C42.4299 138.009 43.4999 136.939 44.8199 136.939C46.1399 136.939 47.2099 138.009 47.2099 139.329Z" fill="white"/><path d="M63.1201 139.329C63.1201 140.649 62.0501 141.719 60.7301 141.719C59.4101 141.719 58.3401 140.649 58.3401 139.329C58.3401 138.009 59.4101 136.939 60.7301 136.939C62.0501 136.939 63.1201 138.009 63.1201 139.329Z" fill="white"/><path d="M79.03 139.329C79.03 140.649 77.96 141.719 76.64 141.719C75.32 141.719 74.25 140.649 74.25 139.329C74.25 138.009 75.32 136.939 76.64 136.939C77.96 136.939 79.03 138.009 79.03 139.329Z" fill="white"/><path d="M94.9399 139.329C94.9399 140.649 93.8699 141.719 92.5499 141.719C91.2299 141.719 90.1599 140.649 90.1599 139.329C90.1599 138.009 91.2299 136.939 92.5499 136.939C93.8699 136.939 94.9399 138.009 94.9399 139.329Z" fill="white"/><path d="M110.85 139.329C110.85 140.649 109.78 141.719 108.46 141.719C107.14 141.719 106.07 140.649 106.07 139.329C106.07 138.009 107.14 136.939 108.46 136.939C109.78 136.939 110.85 138.009 110.85 139.329Z" fill="white"/><path d="M126.76 139.329C126.76 140.649 125.69 141.719 124.37 141.719C123.05 141.719 121.98 140.649 121.98 139.329C121.98 138.009 123.05 136.939 124.37 136.939C125.69 136.939 126.76 138.009 126.76 139.329Z" fill="white"/><path d="M39.26 147.279C39.26 148.599 38.19 149.669 36.87 149.669C35.55 149.669 34.48 148.599 34.48 147.279C34.48 145.959 35.55 144.889 36.87 144.889C38.19 144.889 39.26 145.959 39.26 147.279Z" fill="white"/><path d="M55.1699 147.279C55.1699 148.599 54.0999 149.669 52.7799 149.669C51.4599 149.669 50.3899 148.599 50.3899 147.279C50.3899 145.959 51.4599 144.889 52.7799 144.889C54.0999 144.889 55.1699 145.959 55.1699 147.279Z" fill="white"/><path d="M71.08 147.279C71.08 148.599 70.01 149.669 68.69 149.669C67.37 149.669 66.3 148.599 66.3 147.279C66.3 145.959 67.37 144.889 68.69 144.889C70.01 144.889 71.08 145.959 71.08 147.279Z" fill="white"/><path d="M86.99 147.279C86.99 148.599 85.92 149.669 84.6 149.669C83.28 149.669 82.21 148.599 82.21 147.279C82.21 145.959 83.28 144.889 84.6 144.889C85.92 144.889 86.99 145.959 86.99 147.279Z" fill="white"/><path d="M102.9 147.279C102.9 148.599 101.83 149.669 100.51 149.669C99.1899 149.669 98.1199 148.599 98.1199 147.279C98.1199 145.959 99.1899 144.889 100.51 144.889C101.83 144.889 102.9 145.959 102.9 147.279Z" fill="white"/><path d="M118.8 147.279C118.8 148.599 117.73 149.669 116.41 149.669C115.09 149.669 114.02 148.599 114.02 147.279C114.02 145.959 115.09 144.889 116.41 144.889C117.73 144.889 118.8 145.959 118.8 147.279Z" fill="white"/><path d="M134.71 147.279C134.71 148.599 133.64 149.669 132.32 149.669C131 149.669 129.93 148.599 129.93 147.279C129.93 145.959 131 144.889 132.32 144.889C133.64 144.889 134.71 145.959 134.71 147.279Z" fill="white"/><path d="M44.8299 157.629C46.1499 157.629 47.2199 156.559 47.2199 155.239C47.2199 153.919 46.1499 152.849 44.8299 152.849C43.51 152.849 42.4399 153.919 42.4399 155.239C42.4399 156.559 43.51 157.629 44.8299 157.629Z" fill="white"/><path d="M63.1201 155.239C63.1201 156.559 62.0501 157.629 60.7301 157.629C59.4101 157.629 58.3401 156.559 58.3401 155.239C58.3401 153.919 59.4101 152.849 60.7301 152.849C62.0501 152.849 63.1201 153.919 63.1201 155.239Z" fill="white"/><path d="M79.03 155.239C79.03 156.559 77.96 157.629 76.64 157.629C75.32 157.629 74.25 156.559 74.25 155.239C74.25 153.919 75.32 152.849 76.64 152.849C77.96 152.849 79.03 153.919 79.03 155.239Z" fill="white"/><path d="M94.9399 155.239C94.9399 156.559 93.8699 157.629 92.5499 157.629C91.2299 157.629 90.1599 156.559 90.1599 155.239C90.1599 153.919 91.2299 152.849 92.5499 152.849C93.8699 152.849 94.9399 153.919 94.9399 155.239Z" fill="white"/><path d="M108.46 157.629C109.78 157.629 110.85 156.559 110.85 155.239C110.85 153.919 109.78 152.849 108.46 152.849C107.14 152.849 106.07 153.919 106.07 155.239C106.07 156.559 107.14 157.629 108.46 157.629Z" fill="white"/><path d="M126.76 155.239C126.76 156.559 125.69 157.629 124.37 157.629C123.05 157.629 121.98 156.559 121.98 155.239C121.98 153.919 123.05 152.849 124.37 152.849C125.69 152.849 126.76 153.919 126.76 155.239Z" fill="white"/><path d="M36.87 165.58C38.1899 165.58 39.26 164.51 39.26 163.19C39.26 161.87 38.1899 160.8 36.87 160.8C35.55 160.8 34.48 161.87 34.48 163.19C34.48 164.51 35.55 165.58 36.87 165.58Z" fill="white"/><path d="M55.1699 163.19C55.1699 164.51 54.0999 165.58 52.7799 165.58C51.4599 165.58 50.3899 164.51 50.3899 163.19C50.3899 161.87 51.4599 160.8 52.7799 160.8C54.0999 160.8 55.1699 161.87 55.1699 163.19Z" fill="white"/><path d="M68.69 165.58C70.01 165.58 71.08 164.51 71.08 163.19C71.08 161.87 70.01 160.8 68.69 160.8C67.3701 160.8 66.3 161.87 66.3 163.19C66.3 164.51 67.3701 165.58 68.69 165.58Z" fill="white"/><path d="M86.99 163.19C86.99 164.51 85.92 165.58 84.6 165.58C83.28 165.58 82.21 164.51 82.21 163.19C82.21 161.87 83.28 160.8 84.6 160.8C85.92 160.8 86.99 161.87 86.99 163.19Z" fill="white"/><path d="M100.51 165.58C101.83 165.58 102.9 164.51 102.9 163.19C102.9 161.87 101.83 160.8 100.51 160.8C99.1899 160.8 98.1199 161.87 98.1199 163.19C98.1199 164.51 99.1899 165.58 100.51 165.58Z" fill="white"/><path d="M118.8 163.19C118.8 164.51 117.73 165.58 116.41 165.58C115.09 165.58 114.02 164.51 114.02 163.19C114.02 161.87 115.09 160.8 116.41 160.8C117.73 160.8 118.8 161.87 118.8 163.19Z" fill="white"/><path d="M132.33 165.58C133.65 165.58 134.72 164.51 134.72 163.19C134.72 161.87 133.65 160.8 132.33 160.8C131.01 160.8 129.94 161.87 129.94 163.19C129.94 164.51 131.01 165.58 132.33 165.58Z" fill="white"/><path d="M47.2099 171.14C47.2099 172.46 46.1399 173.53 44.8199 173.53C43.4999 173.53 42.4299 172.46 42.4299 171.14C42.4299 169.82 43.4999 168.75 44.8199 168.75C46.1399 168.75 47.2099 169.82 47.2099 171.14Z" fill="white"/><path d="M63.1201 171.14C63.1201 172.46 62.0501 173.53 60.7301 173.53C59.4101 173.53 58.3401 172.46 58.3401 171.14C58.3401 169.82 59.4101 168.75 60.7301 168.75C62.0501 168.75 63.1201 169.82 63.1201 171.14Z" fill="white"/><path d="M79.03 171.14C79.03 172.46 77.96 173.53 76.64 173.53C75.32 173.53 74.25 172.46 74.25 171.14C74.25 169.82 75.32 168.75 76.64 168.75C77.96 168.75 79.03 169.82 79.03 171.14Z" fill="white"/><path d="M94.9399 171.14C94.9399 172.46 93.8699 173.53 92.5499 173.53C91.2299 173.53 90.1599 172.46 90.1599 171.14C90.1599 169.82 91.2299 168.75 92.5499 168.75C93.8699 168.75 94.9399 169.82 94.9399 171.14Z" fill="white"/><path d="M110.85 171.14C110.85 172.46 109.78 173.53 108.46 173.53C107.14 173.53 106.07 172.46 106.07 171.14C106.07 169.82 107.14 168.75 108.46 168.75C109.78 168.75 110.85 169.82 110.85 171.14Z" fill="white"/><path d="M126.76 171.14C126.76 172.46 125.69 173.53 124.37 173.53C123.05 173.53 121.98 172.46 121.98 171.14C121.98 169.82 123.05 168.75 124.37 168.75C125.69 168.75 126.76 169.82 126.76 171.14Z" fill="white"/><path d="M55.1699 179.1C55.1699 180.42 54.0999 181.49 52.7799 181.49C51.4599 181.49 50.3899 180.42 50.3899 179.1C50.3899 177.78 51.4599 176.71 52.7799 176.71C54.0999 176.71 55.1699 177.78 55.1699 179.1Z" fill="white"/><path d="M71.08 179.1C71.08 180.42 70.01 181.49 68.69 181.49C67.37 181.49 66.3 180.42 66.3 179.1C66.3 177.78 67.37 176.71 68.69 176.71C70.01 176.71 71.08 177.78 71.08 179.1Z" fill="white"/><path d="M86.99 179.1C86.99 180.42 85.92 181.49 84.6 181.49C83.28 181.49 82.21 180.42 82.21 179.1C82.21 177.78 83.28 176.71 84.6 176.71C85.92 176.71 86.99 177.78 86.99 179.1Z" fill="white"/><path d="M102.9 179.1C102.9 180.42 101.83 181.49 100.51 181.49C99.1899 181.49 98.1199 180.42 98.1199 179.1C98.1199 177.78 99.1899 176.71 100.51 176.71C101.83 176.71 102.9 177.78 102.9 179.1Z" fill="white"/><path d="M118.8 179.1C118.8 180.42 117.73 181.49 116.41 181.49C115.09 181.49 114.02 180.42 114.02 179.1C114.02 177.78 115.09 176.71 116.41 176.71C117.73 176.71 118.8 177.78 118.8 179.1Z" fill="white"/><path d="M63.1201 187.05C63.1201 188.37 62.0501 189.44 60.7301 189.44C59.4101 189.44 58.3401 188.37 58.3401 187.05C58.3401 185.73 59.4101 184.66 60.7301 184.66C62.0501 184.66 63.1201 185.73 63.1201 187.05Z" fill="white"/><path d="M79.03 187.05C79.03 188.37 77.96 189.44 76.64 189.44C75.32 189.44 74.25 188.37 74.25 187.05C74.25 185.73 75.32 184.66 76.64 184.66C77.96 184.66 79.03 185.73 79.03 187.05Z" fill="white"/><path d="M94.9399 187.05C94.9399 188.37 93.8699 189.44 92.5499 189.44C91.2299 189.44 90.1599 188.37 90.1599 187.05C90.1599 185.73 91.2299 184.66 92.5499 184.66C93.8699 184.66 94.9399 185.73 94.9399 187.05Z" fill="white"/><path d="M108.46 189.44C109.78 189.44 110.85 188.37 110.85 187.05C110.85 185.73 109.78 184.66 108.46 184.66C107.14 184.66 106.07 185.73 106.07 187.05C106.07 188.37 107.14 189.44 108.46 189.44Z" fill="white"/><path d="M71.08 195.01C71.08 196.33 70.01 197.4 68.69 197.4C67.37 197.4 66.3 196.33 66.3 195.01C66.3 193.69 67.37 192.62 68.69 192.62C70.01 192.62 71.08 193.69 71.08 195.01Z" fill="white"/><path d="M86.99 195.01C86.99 196.33 85.92 197.4 84.6 197.4C83.28 197.4 82.21 196.33 82.21 195.01C82.21 193.69 83.28 192.62 84.6 192.62C85.92 192.62 86.99 193.69 86.99 195.01Z" fill="white"/><path d="M102.9 195.01C102.9 196.33 101.83 197.4 100.51 197.4C99.1899 197.4 98.1199 196.33 98.1199 195.01C98.1199 193.69 99.1899 192.62 100.51 192.62C101.83 192.62 102.9 193.69 102.9 195.01Z" fill="white"/></g></svg>
