<svg width="428" height="466" viewBox="0 0 428 466" fill="none" xmlns="http://www.w3.org/2000/svg"><mask id="mask0_19_5088" style="mask-type:alpha" maskUnits="userSpaceOnUse" x="0" y="0" width="428" height="466"><path d="M428 0H0V466H428V0Z" fill="black"/></mask><g mask="url(#mask0_19_5088)"><path d="M376.77 18.5299C374.82 6.85988 370.7 -4.15012 364.54 -14.1801C358.16 -24.5701 349.85 -33.4601 339.83 -40.6001C324.29 -51.6901 306.02 -57.5501 286.99 -57.5501C279.51 -57.5501 272.02 -56.6201 264.75 -54.7701C255.67 -52.4701 246.49 -51.3601 237.39 -51.3601C203.73 -51.3601 171.26 -66.6401 149.82 -93.8401C143.39 -101.99 135.75 -109.26 127.1 -115.43C108.13 -128.97 85.82 -136.12 62.6 -136.12C45.24 -136.12 27.88 -132 12.41 -124.21C-3.57001 -116.16 -17.55 -104.16 -28.02 -89.4901C-40.55 -71.9301 -47.69 -51.3201 -48.66 -29.9001C-50.28 5.79988 -68.92 38.5599 -98.78 58.1999C-110.22 65.7199 -120.44 75.5499 -128.35 86.6299C-137.07 98.8499 -143.14 112.42 -146.38 126.94C-149.51 140.97 -149.89 155.31 -147.51 169.56C-145.13 183.81 -140.11 197.24 -132.58 209.49C-124.79 222.17 -114.64 233.03 -102.42 241.75C-83.45 255.29 -61.14 262.44 -37.92 262.44C-20.56 262.44 -3.20001 258.32 12.27 250.53C12.79 250.27 13.31 250 13.83 249.73C30.14 241.17 47.91 236.97 65.62 236.97C89.88 236.97 114 244.88 133.95 260.35C134.82 261.02 135.73 261.7 136.64 262.35C150.73 272.41 166.62 277.5 183.88 277.5C210.18 277.5 234.99 264.74 250.25 243.35C256.73 234.27 261.04 224.62 263.45 213.83C264.16 210.65 264.68 207.42 265.01 204.23C268.9 165.89 292.32 132.27 326.94 115.33C340.56 108.66 352.37 98.6799 361.09 86.4599C368.23 76.4499 373.2 65.3399 375.86 53.4399C378.43 41.9399 378.74 30.1999 376.79 18.5299H376.77Z" fill="#EAD363"/><mask id="mask1_19_5088" style="mask-type:luminance" maskUnits="userSpaceOnUse" x="-146" y="149" width="248" height="317"><path d="M9.24007 464.78C16.2301 463.61 22.8301 461.15 28.8401 457.45C35.0701 453.63 40.3901 448.65 44.6701 442.65C51.3101 433.34 54.8301 422.39 54.8301 410.99C54.8301 406.51 54.2701 402.02 53.1701 397.66C51.7901 392.22 51.1201 386.72 51.1201 381.27C51.1201 361.1 60.2701 341.65 76.5701 328.8C81.4501 324.95 85.8101 320.37 89.5101 315.18C97.6201 303.81 101.91 290.45 101.91 276.53C101.91 266.13 99.4401 255.73 94.7801 246.46C89.9601 236.88 82.7701 228.51 73.9801 222.24C63.4601 214.73 51.1101 210.46 38.2801 209.87C16.8901 208.9 -2.73993 197.73 -14.5099 179.84C-19.0199 172.99 -24.9099 166.86 -31.5499 162.12C-38.8699 156.89 -46.9999 153.26 -55.6999 151.32C-64.1099 149.44 -72.6999 149.21 -81.2399 150.64C-89.7799 152.07 -97.8299 155.08 -105.17 159.59C-112.77 164.26 -119.27 170.34 -124.5 177.66C-132.61 189.03 -136.9 202.39 -136.9 216.31C-136.9 226.71 -134.43 237.11 -129.77 246.38C-129.61 246.69 -129.45 247.01 -129.29 247.32C-124.16 257.09 -121.64 267.74 -121.64 278.35C-121.64 292.89 -126.38 307.34 -135.65 319.29C-136.05 319.81 -136.46 320.36 -136.85 320.9C-142.87 329.34 -145.93 338.87 -145.93 349.2C-145.93 364.96 -138.28 379.82 -125.47 388.97C-120.03 392.85 -114.25 395.44 -107.78 396.88C-105.88 397.31 -103.94 397.62 -102.03 397.81C-79.0599 400.14 -58.9199 414.17 -48.7699 434.92C-44.7799 443.08 -38.7899 450.16 -31.4699 455.38C-25.4699 459.66 -18.8099 462.64 -11.6799 464.23C-4.78993 465.77 2.25007 465.95 9.24007 464.79V464.78Z" fill="white"/></mask><g mask="url(#mask1_19_5088)"><path d="M23.8806 4.52829L21.1794 1.82715L-327.799 350.806L-325.098 353.507L23.8806 4.52829Z" fill="#F5F5DB"/><path d="M32.8835 13.5332L30.1824 10.832L-318.796 359.81L-316.095 362.512L32.8835 13.5332Z" fill="#F5F5DB"/><path d="M41.8933 22.5449L39.1921 19.8438L-309.786 368.822L-307.085 371.523L41.8933 22.5449Z" fill="#F5F5DB"/><path d="M50.9035 31.5478L48.2024 28.8467L-300.776 377.825L-298.075 380.526L50.9035 31.5478Z" fill="#F5F5DB"/><path d="M59.9133 40.5595L57.2122 37.8584L-291.766 386.837L-289.065 389.538L59.9133 40.5595Z" fill="#F5F5DB"/><path d="M68.9233 49.5713L66.2222 46.8701L-282.756 395.849L-280.055 398.55L68.9233 49.5713Z" fill="#F5F5DB"/><path d="M77.9333 58.584L75.2322 55.8828L-273.746 404.861L-271.045 407.562L77.9333 58.584Z" fill="#F5F5DB"/><path d="M86.9433 67.5957L84.2422 64.8945L-264.736 413.873L-262.035 416.574L86.9433 67.5957Z" fill="#F5F5DB"/><path d="M95.9533 76.6074L93.2522 73.9062L-255.726 422.885L-253.025 425.586L95.9533 76.6074Z" fill="#F5F5DB"/><path d="M104.953 85.6094L102.252 82.9082L-246.726 431.887L-244.025 434.588L104.953 85.6094Z" fill="#F5F5DB"/><path d="M113.973 94.622L111.272 91.9209L-237.706 440.899L-235.005 443.6L113.973 94.622Z" fill="#F5F5DB"/><path d="M122.973 103.634L120.272 100.933L-228.706 449.911L-226.005 452.612L122.973 103.634Z" fill="#F5F5DB"/><path d="M131.983 112.646L129.282 109.945L-219.696 458.924L-216.995 461.625L131.983 112.646Z" fill="#F5F5DB"/><path d="M140.993 121.658L138.292 118.957L-210.686 467.935L-207.985 470.637L140.993 121.658Z" fill="#F5F5DB"/><path d="M150.003 130.67L147.302 127.969L-201.676 476.947L-198.975 479.648L150.003 130.67Z" fill="#F5F5DB"/><path d="M159.013 139.672L156.312 136.971L-192.666 485.949L-189.965 488.65L159.013 139.672Z" fill="#F5F5DB"/><path d="M168.023 148.685L165.322 145.983L-183.656 494.962L-180.955 497.663L168.023 148.685Z" fill="#F5F5DB"/><path d="M177.041 157.689L174.339 154.988L-174.639 503.967L-171.938 506.668L177.041 157.689Z" fill="#F5F5DB"/><path d="M186.043 166.694L183.342 163.993L-165.636 512.972L-162.935 515.673L186.043 166.694Z" fill="#F5F5DB"/><path d="M195.053 175.706L192.352 173.005L-156.626 521.983L-153.925 524.684L195.053 175.706Z" fill="#F5F5DB"/><path d="M204.063 184.719L201.362 182.018L-147.616 530.996L-144.915 533.697L204.063 184.719Z" fill="#F5F5DB"/><path d="M213.073 193.721L210.372 191.02L-138.606 539.998L-135.905 542.699L213.073 193.721Z" fill="#F5F5DB"/><path d="M222.083 202.732L219.382 200.031L-129.596 549.01L-126.895 551.711L222.083 202.732Z" fill="#F5F5DB"/><path d="M231.093 211.744L228.392 209.043L-120.586 558.021L-117.885 560.723L231.093 211.744Z" fill="#F5F5DB"/><path d="M240.103 220.757L237.402 218.056L-111.576 567.034L-108.875 569.735L240.103 220.757Z" fill="#F5F5DB"/><path d="M249.114 229.769L246.412 227.067L-102.566 576.046L-99.8649 578.747L249.114 229.769Z" fill="#F5F5DB"/><path d="M258.123 238.77L255.422 236.069L-93.5563 585.048L-90.8551 587.749L258.123 238.77Z" fill="#F5F5DB"/></g><mask id="mask2_19_5088" style="mask-type:luminance" maskUnits="userSpaceOnUse" x="180" y="-153" width="249" height="317"><path d="M335.83 162.47C342.82 161.3 349.42 158.84 355.43 155.14C361.66 151.32 366.98 146.34 371.26 140.34C377.9 131.03 381.42 120.08 381.42 108.68C381.42 104.2 380.86 99.71 379.76 95.35C378.38 89.91 377.71 84.41 377.71 78.96C377.71 58.79 386.86 39.34 403.16 26.49C408.04 22.64 412.4 18.06 416.1 12.87C424.21 1.49998 428.5 -11.86 428.5 -25.78C428.5 -36.18 426.03 -46.58 421.37 -55.85C416.55 -65.43 409.36 -73.8 400.57 -80.07C390.05 -87.58 377.7 -91.85 364.87 -92.44C343.48 -93.41 323.85 -104.58 312.08 -122.47C307.57 -129.32 301.68 -135.45 295.04 -140.19C287.72 -145.42 279.59 -149.05 270.89 -150.99C262.48 -152.87 253.89 -153.1 245.35 -151.67C236.81 -150.24 228.76 -147.23 221.42 -142.72C213.82 -138.05 207.32 -131.97 202.09 -124.65C193.98 -113.28 189.69 -99.92 189.69 -86C189.69 -75.6 192.16 -65.2 196.82 -55.93C196.98 -55.62 197.14 -55.3 197.3 -54.99C202.43 -45.22 204.95 -34.57 204.95 -23.96C204.95 -9.42002 200.21 5.02998 190.94 16.98C190.54 17.5 190.13 18.05 189.74 18.59C183.72 27.03 180.66 36.56 180.66 46.89C180.66 62.65 188.31 77.51 201.12 86.66C206.56 90.54 212.34 93.13 218.81 94.57C220.71 95 222.65 95.31 224.56 95.5C247.53 97.83 267.67 111.86 277.82 132.61C281.81 140.77 287.8 147.85 295.12 153.07C301.12 157.35 307.78 160.33 314.91 161.92C321.8 163.46 328.84 163.64 335.83 162.48V162.47Z" fill="white"/></mask><g mask="url(#mask2_19_5088)"><path d="M350.463 -297.79L347.761 -300.491L-1.21693 48.4872L1.48421 51.1883L350.463 -297.79Z" fill="#F5F5DB"/><path d="M359.463 -288.778L356.761 -291.479L7.78307 57.4989L10.4842 60.2001L359.463 -288.778Z" fill="#F5F5DB"/><path d="M368.473 -279.766L365.772 -282.467L16.7933 66.5116L19.4944 69.2128L368.473 -279.766Z" fill="#F5F5DB"/><path d="M377.49 -270.761L374.789 -273.462L25.8104 75.5165L28.5115 78.2177L377.49 -270.761Z" fill="#F5F5DB"/><path d="M386.5 -261.749L383.799 -264.45L34.8202 84.5282L37.5213 87.2294L386.5 -261.749Z" fill="#F5F5DB"/><path d="M395.51 -252.747L392.809 -255.448L43.8302 93.5302L46.5313 96.2313L395.51 -252.747Z" fill="#F5F5DB"/><path d="M404.52 -243.734L401.819 -246.436L52.8402 102.543L55.5414 105.244L404.52 -243.734Z" fill="#F5F5DB"/><path d="M413.53 -234.723L410.829 -237.424L61.8502 111.555L64.5514 114.256L413.53 -234.723Z" fill="#F5F5DB"/><path d="M422.54 -225.711L419.839 -228.412L70.8602 120.566L73.5614 123.267L422.54 -225.711Z" fill="#F5F5DB"/><path d="M431.55 -216.698L428.849 -219.399L79.8703 129.579L82.5714 132.28L431.55 -216.698Z" fill="#F5F5DB"/><path d="M440.56 -207.696L437.859 -210.397L88.8802 138.581L91.5814 141.282L440.56 -207.696Z" fill="#F5F5DB"/><path d="M449.57 -198.685L446.869 -201.386L97.8902 147.593L100.591 150.294L449.57 -198.685Z" fill="#F5F5DB"/><path d="M458.58 -189.672L455.879 -192.373L106.9 156.605L109.601 159.306L458.58 -189.672Z" fill="#F5F5DB"/><path d="M467.59 -180.66L464.889 -183.361L115.91 165.617L118.611 168.318L467.59 -180.66Z" fill="#F5F5DB"/><path d="M476.593 -171.655L473.892 -174.356L124.913 174.622L127.614 177.323L476.593 -171.655Z" fill="#F5F5DB"/><path d="M485.593 -162.644L482.892 -165.345L133.913 183.634L136.614 186.335L485.593 -162.644Z" fill="#F5F5DB"/><path d="M494.613 -153.642L491.912 -156.343L142.933 192.636L145.634 195.337L494.613 -153.642Z" fill="#F5F5DB"/><path d="M503.623 -144.629L500.922 -147.33L151.943 201.648L154.644 204.349L503.623 -144.629Z" fill="#F5F5DB"/><path d="M512.633 -135.617L509.932 -138.318L160.953 210.66L163.654 213.361L512.633 -135.617Z" fill="#F5F5DB"/><path d="M521.633 -126.605L518.932 -129.306L169.953 219.673L172.654 222.374L521.633 -126.605Z" fill="#F5F5DB"/><path d="M530.65 -117.6L527.949 -120.301L178.97 228.678L181.672 231.379L530.65 -117.6Z" fill="#F5F5DB"/><path d="M539.66 -108.598L536.959 -111.299L187.98 237.68L190.681 240.381L539.66 -108.598Z" fill="#F5F5DB"/><path d="M548.67 -99.5762L545.969 -102.277L196.99 246.701L199.691 249.402L548.67 -99.5762Z" fill="#F5F5DB"/><path d="M557.68 -90.5742L554.979 -93.2754L206 255.703L208.702 258.404L557.68 -90.5742Z" fill="#F5F5DB"/><path d="M566.69 -81.5615L563.989 -84.2627L215.01 264.716L217.711 267.417L566.69 -81.5615Z" fill="#F5F5DB"/><path d="M575.71 -72.5596L573.009 -75.2607L224.03 273.718L226.731 276.419L575.71 -72.5596Z" fill="#F5F5DB"/><path d="M584.71 -63.5371L582.009 -66.2383L233.03 282.74L235.731 285.441L584.71 -63.5371Z" fill="#F5F5DB"/></g><path d="M118.2 147.02C119.216 147.02 120.04 146.196 120.04 145.18C120.04 144.164 119.216 143.34 118.2 143.34C117.184 143.34 116.36 144.164 116.36 145.18C116.36 146.196 117.184 147.02 118.2 147.02Z" fill="white"/><path d="M132.33 145.18C132.33 146.2 131.51 147.02 130.49 147.02C129.47 147.02 128.65 146.2 128.65 145.18C128.65 144.16 129.47 143.34 130.49 143.34C131.51 143.34 132.33 144.16 132.33 145.18Z" fill="white"/><path d="M142.77 147.02C143.786 147.02 144.61 146.196 144.61 145.18C144.61 144.164 143.786 143.34 142.77 143.34C141.754 143.34 140.93 144.164 140.93 145.18C140.93 146.196 141.754 147.02 142.77 147.02Z" fill="white"/><path d="M113.9 151.32C113.9 152.34 113.08 153.16 112.06 153.16C111.04 153.16 110.22 152.34 110.22 151.32C110.22 150.3 111.04 149.479 112.06 149.479C113.08 149.479 113.9 150.31 113.9 151.32Z" fill="white"/><path d="M126.19 151.32C126.19 152.34 125.37 153.16 124.35 153.16C123.33 153.16 122.51 152.34 122.51 151.32C122.51 150.3 123.33 149.479 124.35 149.479C125.37 149.479 126.19 150.31 126.19 151.32Z" fill="white"/><path d="M138.47 151.32C138.47 152.34 137.65 153.16 136.63 153.16C135.61 153.16 134.79 152.34 134.79 151.32C134.79 150.3 135.61 149.479 136.63 149.479C137.65 149.479 138.47 150.31 138.47 151.32Z" fill="white"/><path d="M150.75 151.32C150.75 152.34 149.93 153.16 148.91 153.16C147.89 153.16 147.07 152.34 147.07 151.32C147.07 150.3 147.89 149.479 148.91 149.479C149.93 149.479 150.75 150.31 150.75 151.32Z" fill="white"/><path d="M107.76 157.46C107.76 158.48 106.94 159.3 105.92 159.3C104.9 159.3 104.08 158.48 104.08 157.46C104.08 156.44 104.9 155.62 105.92 155.62C106.94 155.62 107.76 156.44 107.76 157.46Z" fill="white"/><path d="M120.04 157.46C120.04 158.48 119.22 159.3 118.2 159.3C117.18 159.3 116.36 158.48 116.36 157.46C116.36 156.44 117.18 155.62 118.2 155.62C119.22 155.62 120.04 156.44 120.04 157.46Z" fill="white"/><path d="M132.33 157.46C132.33 158.48 131.51 159.3 130.49 159.3C129.47 159.3 128.65 158.48 128.65 157.46C128.65 156.44 129.47 155.62 130.49 155.62C131.51 155.62 132.33 156.44 132.33 157.46Z" fill="white"/><path d="M144.61 157.46C144.61 158.48 143.79 159.3 142.77 159.3C141.75 159.3 140.93 158.48 140.93 157.46C140.93 156.44 141.75 155.62 142.77 155.62C143.79 155.62 144.61 156.44 144.61 157.46Z" fill="white"/><path d="M156.9 157.46C156.9 158.48 156.08 159.3 155.06 159.3C154.04 159.3 153.22 158.48 153.22 157.46C153.22 156.44 154.04 155.62 155.06 155.62C156.08 155.62 156.9 156.44 156.9 157.46Z" fill="white"/><path d="M101.62 163.61C101.62 164.63 100.8 165.45 99.7799 165.45C98.7599 165.45 97.9399 164.63 97.9399 163.61C97.9399 162.59 98.7599 161.77 99.7799 161.77C100.8 161.77 101.62 162.6 101.62 163.61Z" fill="white"/><path d="M113.9 163.61C113.9 164.63 113.08 165.45 112.06 165.45C111.04 165.45 110.22 164.63 110.22 163.61C110.22 162.59 111.04 161.77 112.06 161.77C113.08 161.77 113.9 162.6 113.9 163.61Z" fill="white"/><path d="M126.19 163.61C126.19 164.63 125.37 165.45 124.35 165.45C123.33 165.45 122.51 164.63 122.51 163.61C122.51 162.59 123.33 161.77 124.35 161.77C125.37 161.77 126.19 162.6 126.19 163.61Z" fill="white"/><path d="M138.47 163.61C138.47 164.63 137.65 165.45 136.63 165.45C135.61 165.45 134.79 164.63 134.79 163.61C134.79 162.59 135.61 161.77 136.63 161.77C137.65 161.77 138.47 162.6 138.47 163.61Z" fill="white"/><path d="M150.75 163.61C150.75 164.63 149.93 165.45 148.91 165.45C147.89 165.45 147.07 164.63 147.07 163.61C147.07 162.59 147.89 161.77 148.91 161.77C149.93 161.77 150.75 162.6 150.75 163.61Z" fill="white"/><path d="M163.04 163.61C163.04 164.63 162.22 165.45 161.2 165.45C160.18 165.45 159.36 164.63 159.36 163.61C159.36 162.59 160.18 161.77 161.2 161.77C162.22 161.77 163.04 162.6 163.04 163.61Z" fill="white"/><path d="M95.47 169.75C95.47 170.77 94.65 171.59 93.63 171.59C92.61 171.59 91.79 170.77 91.79 169.75C91.79 168.73 92.61 167.91 93.63 167.91C94.65 167.91 95.47 168.73 95.47 169.75Z" fill="white"/><path d="M107.76 169.75C107.76 170.77 106.94 171.59 105.92 171.59C104.9 171.59 104.08 170.77 104.08 169.75C104.08 168.73 104.9 167.91 105.92 167.91C106.94 167.91 107.76 168.73 107.76 169.75Z" fill="white"/><path d="M120.04 169.75C120.04 170.77 119.22 171.59 118.2 171.59C117.18 171.59 116.36 170.77 116.36 169.75C116.36 168.73 117.18 167.91 118.2 167.91C119.22 167.91 120.04 168.73 120.04 169.75Z" fill="white"/><path d="M132.33 169.75C132.33 170.77 131.51 171.59 130.49 171.59C129.47 171.59 128.65 170.77 128.65 169.75C128.65 168.73 129.47 167.91 130.49 167.91C131.51 167.91 132.33 168.73 132.33 169.75Z" fill="white"/><path d="M144.61 169.75C144.61 170.77 143.79 171.59 142.77 171.59C141.75 171.59 140.93 170.77 140.93 169.75C140.93 168.73 141.75 167.91 142.77 167.91C143.79 167.91 144.61 168.73 144.61 169.75Z" fill="white"/><path d="M156.9 169.75C156.9 170.77 156.08 171.59 155.06 171.59C154.04 171.59 153.22 170.77 153.22 169.75C153.22 168.73 154.04 167.91 155.06 167.91C156.08 167.91 156.9 168.73 156.9 169.75Z" fill="white"/><path d="M169.18 169.75C169.18 170.77 168.36 171.59 167.34 171.59C166.32 171.59 165.5 170.77 165.5 169.75C165.5 168.73 166.32 167.91 167.34 167.91C168.36 167.91 169.18 168.73 169.18 169.75Z" fill="white"/><path d="M101.62 175.89C101.62 176.91 100.8 177.73 99.7799 177.73C98.7599 177.73 97.9399 176.91 97.9399 175.89C97.9399 174.87 98.7599 174.05 99.7799 174.05C100.8 174.05 101.62 174.87 101.62 175.89Z" fill="white"/><path d="M113.9 175.89C113.9 176.91 113.08 177.73 112.06 177.73C111.04 177.73 110.22 176.91 110.22 175.89C110.22 174.87 111.04 174.05 112.06 174.05C113.08 174.05 113.9 174.87 113.9 175.89Z" fill="white"/><path d="M126.19 175.89C126.19 176.91 125.37 177.73 124.35 177.73C123.33 177.73 122.51 176.91 122.51 175.89C122.51 174.87 123.33 174.05 124.35 174.05C125.37 174.05 126.19 174.87 126.19 175.89Z" fill="white"/><path d="M138.47 175.89C138.47 176.91 137.65 177.73 136.63 177.73C135.61 177.73 134.79 176.91 134.79 175.89C134.79 174.87 135.61 174.05 136.63 174.05C137.65 174.05 138.47 174.87 138.47 175.89Z" fill="white"/><path d="M150.75 175.89C150.75 176.91 149.93 177.73 148.91 177.73C147.89 177.73 147.07 176.91 147.07 175.89C147.07 174.87 147.89 174.05 148.91 174.05C149.93 174.05 150.75 174.87 150.75 175.89Z" fill="white"/><path d="M163.04 175.89C163.04 176.91 162.22 177.73 161.2 177.73C160.18 177.73 159.36 176.91 159.36 175.89C159.36 174.87 160.18 174.05 161.2 174.05C162.22 174.05 163.04 174.87 163.04 175.89Z" fill="white"/><path d="M95.47 182.029C95.47 183.049 94.65 183.869 93.63 183.869C92.61 183.869 91.79 183.049 91.79 182.029C91.79 181.009 92.61 180.189 93.63 180.189C94.65 180.189 95.47 181.019 95.47 182.029Z" fill="white"/><path d="M107.76 182.029C107.76 183.049 106.94 183.869 105.92 183.869C104.9 183.869 104.08 183.049 104.08 182.029C104.08 181.009 104.9 180.189 105.92 180.189C106.94 180.189 107.76 181.019 107.76 182.029Z" fill="white"/><path d="M120.04 182.029C120.04 183.049 119.22 183.869 118.2 183.869C117.18 183.869 116.36 183.049 116.36 182.029C116.36 181.009 117.18 180.189 118.2 180.189C119.22 180.189 120.04 181.019 120.04 182.029Z" fill="white"/><path d="M132.33 182.029C132.33 183.049 131.51 183.869 130.49 183.869C129.47 183.869 128.65 183.049 128.65 182.029C128.65 181.009 129.47 180.189 130.49 180.189C131.51 180.189 132.33 181.019 132.33 182.029Z" fill="white"/><path d="M144.61 182.029C144.61 183.049 143.79 183.869 142.77 183.869C141.75 183.869 140.93 183.049 140.93 182.029C140.93 181.009 141.75 180.189 142.77 180.189C143.79 180.189 144.61 181.019 144.61 182.029Z" fill="white"/><path d="M156.9 182.029C156.9 183.049 156.08 183.869 155.06 183.869C154.04 183.869 153.22 183.049 153.22 182.029C153.22 181.009 154.04 180.189 155.06 180.189C156.08 180.189 156.9 181.019 156.9 182.029Z" fill="white"/><path d="M169.18 182.029C169.18 183.049 168.36 183.869 167.34 183.869C166.32 183.869 165.5 183.049 165.5 182.029C165.5 181.009 166.32 180.189 167.34 180.189C168.36 180.189 169.18 181.019 169.18 182.029Z" fill="white"/><path d="M101.62 188.18C101.62 189.2 100.8 190.02 99.7799 190.02C98.7599 190.02 97.9399 189.2 97.9399 188.18C97.9399 187.16 98.7599 186.34 99.7799 186.34C100.8 186.34 101.62 187.16 101.62 188.18Z" fill="white"/><path d="M113.9 188.18C113.9 189.2 113.08 190.02 112.06 190.02C111.04 190.02 110.22 189.2 110.22 188.18C110.22 187.16 111.04 186.34 112.06 186.34C113.08 186.34 113.9 187.16 113.9 188.18Z" fill="white"/><path d="M126.19 188.18C126.19 189.2 125.37 190.02 124.35 190.02C123.33 190.02 122.51 189.2 122.51 188.18C122.51 187.16 123.33 186.34 124.35 186.34C125.37 186.34 126.19 187.16 126.19 188.18Z" fill="white"/><path d="M138.47 188.18C138.47 189.2 137.65 190.02 136.63 190.02C135.61 190.02 134.79 189.2 134.79 188.18C134.79 187.16 135.61 186.34 136.63 186.34C137.65 186.34 138.47 187.16 138.47 188.18Z" fill="white"/><path d="M150.75 188.18C150.75 189.2 149.93 190.02 148.91 190.02C147.89 190.02 147.07 189.2 147.07 188.18C147.07 187.16 147.89 186.34 148.91 186.34C149.93 186.34 150.75 187.16 150.75 188.18Z" fill="white"/><path d="M163.04 188.18C163.04 189.2 162.22 190.02 161.2 190.02C160.18 190.02 159.36 189.2 159.36 188.18C159.36 187.16 160.18 186.34 161.2 186.34C162.22 186.34 163.04 187.16 163.04 188.18Z" fill="white"/><path d="M95.47 194.32C95.47 195.34 94.65 196.16 93.63 196.16C92.61 196.16 91.79 195.34 91.79 194.32C91.79 193.3 92.61 192.479 93.63 192.479C94.65 192.479 95.47 193.31 95.47 194.32Z" fill="white"/><path d="M105.92 196.16C106.936 196.16 107.76 195.336 107.76 194.32C107.76 193.303 106.936 192.479 105.92 192.479C104.904 192.479 104.08 193.303 104.08 194.32C104.08 195.336 104.904 196.16 105.92 196.16Z" fill="white"/><path d="M118.2 196.16C119.216 196.16 120.04 195.336 120.04 194.32C120.04 193.303 119.216 192.479 118.2 192.479C117.184 192.479 116.36 193.303 116.36 194.32C116.36 195.336 117.184 196.16 118.2 196.16Z" fill="white"/><path d="M132.33 194.32C132.33 195.34 131.51 196.16 130.49 196.16C129.47 196.16 128.65 195.34 128.65 194.32C128.65 193.3 129.47 192.479 130.49 192.479C131.51 192.479 132.33 193.31 132.33 194.32Z" fill="white"/><path d="M142.77 196.16C143.786 196.16 144.61 195.336 144.61 194.32C144.61 193.303 143.786 192.479 142.77 192.479C141.754 192.479 140.93 193.303 140.93 194.32C140.93 195.336 141.754 196.16 142.77 196.16Z" fill="white"/><path d="M155.05 196.16C156.066 196.16 156.89 195.336 156.89 194.32C156.89 193.303 156.066 192.479 155.05 192.479C154.034 192.479 153.21 193.303 153.21 194.32C153.21 195.336 154.034 196.16 155.05 196.16Z" fill="white"/><path d="M169.18 194.32C169.18 195.34 168.36 196.16 167.34 196.16C166.32 196.16 165.5 195.34 165.5 194.32C165.5 193.3 166.32 192.479 167.34 192.479C168.36 192.479 169.18 193.31 169.18 194.32Z" fill="white"/><path d="M101.62 200.46C101.62 201.48 100.8 202.3 99.7799 202.3C98.7599 202.3 97.9399 201.48 97.9399 200.46C97.9399 199.44 98.7599 198.62 99.7799 198.62C100.8 198.62 101.62 199.44 101.62 200.46Z" fill="white"/><path d="M113.9 200.46C113.9 201.48 113.08 202.3 112.06 202.3C111.04 202.3 110.22 201.48 110.22 200.46C110.22 199.44 111.04 198.62 112.06 198.62C113.08 198.62 113.9 199.44 113.9 200.46Z" fill="white"/><path d="M126.19 200.46C126.19 201.48 125.37 202.3 124.35 202.3C123.33 202.3 122.51 201.48 122.51 200.46C122.51 199.44 123.33 198.62 124.35 198.62C125.37 198.62 126.19 199.44 126.19 200.46Z" fill="white"/><path d="M136.63 202.3C137.646 202.3 138.47 201.476 138.47 200.46C138.47 199.444 137.646 198.62 136.63 198.62C135.614 198.62 134.79 199.444 134.79 200.46C134.79 201.476 135.614 202.3 136.63 202.3Z" fill="white"/><path d="M150.75 200.46C150.75 201.48 149.93 202.3 148.91 202.3C147.89 202.3 147.07 201.48 147.07 200.46C147.07 199.44 147.89 198.62 148.91 198.62C149.93 198.62 150.75 199.44 150.75 200.46Z" fill="white"/><path d="M161.2 202.3C162.216 202.3 163.04 201.476 163.04 200.46C163.04 199.444 162.216 198.62 161.2 198.62C160.184 198.62 159.36 199.444 159.36 200.46C159.36 201.476 160.184 202.3 161.2 202.3Z" fill="white"/><path d="M107.76 206.6C107.76 207.62 106.94 208.44 105.92 208.44C104.9 208.44 104.08 207.62 104.08 206.6C104.08 205.58 104.9 204.76 105.92 204.76C106.94 204.76 107.76 205.59 107.76 206.6Z" fill="white"/><path d="M120.04 206.6C120.04 207.62 119.22 208.44 118.2 208.44C117.18 208.44 116.36 207.62 116.36 206.6C116.36 205.58 117.18 204.76 118.2 204.76C119.22 204.76 120.04 205.59 120.04 206.6Z" fill="white"/><path d="M132.33 206.6C132.33 207.62 131.51 208.44 130.49 208.44C129.47 208.44 128.65 207.62 128.65 206.6C128.65 205.58 129.47 204.76 130.49 204.76C131.51 204.76 132.33 205.59 132.33 206.6Z" fill="white"/><path d="M144.61 206.6C144.61 207.62 143.79 208.44 142.77 208.44C141.75 208.44 140.93 207.62 140.93 206.6C140.93 205.58 141.75 204.76 142.77 204.76C143.79 204.76 144.61 205.59 144.61 206.6Z" fill="white"/><path d="M156.9 206.6C156.9 207.62 156.08 208.44 155.06 208.44C154.04 208.44 153.22 207.62 153.22 206.6C153.22 205.58 154.04 204.76 155.06 204.76C156.08 204.76 156.9 205.59 156.9 206.6Z" fill="white"/><path d="M113.9 212.739C113.9 213.759 113.08 214.579 112.06 214.579C111.04 214.579 110.22 213.759 110.22 212.739C110.22 211.719 111.04 210.899 112.06 210.899C113.08 210.899 113.9 211.719 113.9 212.739Z" fill="white"/><path d="M126.19 212.739C126.19 213.759 125.37 214.579 124.35 214.579C123.33 214.579 122.51 213.759 122.51 212.739C122.51 211.719 123.33 210.899 124.35 210.899C125.37 210.899 126.19 211.719 126.19 212.739Z" fill="white"/><path d="M136.63 214.579C137.646 214.579 138.47 213.756 138.47 212.739C138.47 211.723 137.646 210.899 136.63 210.899C135.614 210.899 134.79 211.723 134.79 212.739C134.79 213.756 135.614 214.579 136.63 214.579Z" fill="white"/><path d="M150.75 212.739C150.75 213.759 149.93 214.579 148.91 214.579C147.89 214.579 147.07 213.759 147.07 212.739C147.07 211.719 147.89 210.899 148.91 210.899C149.93 210.899 150.75 211.719 150.75 212.739Z" fill="white"/><path d="M120.04 218.89C120.04 219.91 119.22 220.73 118.2 220.73C117.18 220.73 116.36 219.9 116.36 218.89C116.36 217.88 117.18 217.05 118.2 217.05C119.22 217.05 120.04 217.88 120.04 218.89Z" fill="white"/><path d="M132.33 218.89C132.33 219.91 131.51 220.73 130.49 220.73C129.47 220.73 128.65 219.9 128.65 218.89C128.65 217.88 129.47 217.05 130.49 217.05C131.51 217.05 132.33 217.88 132.33 218.89Z" fill="white"/><path d="M144.61 218.89C144.61 219.91 143.79 220.73 142.77 220.73C141.75 220.73 140.93 219.9 140.93 218.89C140.93 217.88 141.75 217.05 142.77 217.05C143.79 217.05 144.61 217.88 144.61 218.89Z" fill="white"/></g></svg>
