<svg width="81" height="372" viewBox="0 0 81 372" fill="none" xmlns="http://www.w3.org/2000/svg"><mask id="mask0_58_8034" style="mask-type:alpha" maskUnits="userSpaceOnUse" x="0" y="0" width="81" height="372"><rect width="81" height="372" fill="#D9D9D9"/></mask><g mask="url(#mask0_58_8034)"><path d="M-27.5799 -10.4699C-33.7699 -10.9599 -39.8999 -10.2499 -45.7999 -8.37989C-51.8999 -6.44989 -57.4899 -3.33989 -62.3899 0.860112C-70.0099 7.37011 -75.3099 15.9401 -77.7199 25.6301C-78.6699 29.4401 -79.1399 33.3701 -79.1299 37.3101C-79.1099 42.2301 -79.7099 47.0501 -80.8599 51.6801C-85.1299 68.8301 -97.0199 83.4301 -113.6 90.9101C-118.57 93.1501 -123.24 96.1301 -127.48 99.7501C-136.78 107.7 -143.25 118.16 -146.2 129.99C-148.4 138.84 -148.5 148.2 -146.5 157.07C-144.43 166.23 -140.08 174.88 -133.94 182.07C-126.58 190.68 -116.99 196.93 -106.2 200.14C-88.2199 205.49 -73.8899 219.14 -67.6699 236.85C-65.2899 243.63 -61.5699 250.09 -56.9299 255.52C-51.8099 261.51 -45.6699 266.32 -38.6799 269.82C-31.9299 273.19 -24.6699 275.21 -17.1099 275.8C-9.54989 276.39 -2.0699 275.54 5.1301 273.25C12.5801 270.89 19.4001 267.09 25.3901 261.97C34.6901 254.02 41.1601 243.56 44.1101 231.73C46.3101 222.88 46.4101 213.52 44.4101 204.65C44.3401 204.35 44.2701 204.05 44.2001 203.75C41.9101 194.36 42.0201 184.77 44.2601 175.75C47.3401 163.39 54.4201 152.1 64.8301 143.9C65.2801 143.54 65.7401 143.17 66.1901 142.78C73.1001 136.88 77.7101 129.42 79.9001 120.63C83.2301 107.23 79.8801 92.9701 70.9201 82.4901C67.1201 78.0401 62.7401 74.6201 57.5501 72.0201C56.0201 71.2601 54.4401 70.5801 52.8601 70.0101C33.8201 63.1701 19.6601 46.9701 15.4201 27.1901C13.7501 19.4101 10.1601 12.1201 5.0401 6.13011C0.8401 1.23011 -4.1899 -2.71989 -9.9099 -5.57989C-15.4399 -8.33989 -21.3899 -9.98989 -27.5799 -10.4799V-10.4699Z" fill="#EFAFAB"/><mask id="mask1_58_8034" style="mask-type:luminance" maskUnits="userSpaceOnUse" x="-98" y="206" width="131" height="166"><path d="M-49.2299 206.51C-52.8999 207.12 -56.3599 208.42 -59.5199 210.36C-62.7899 212.37 -65.5899 214.98 -67.8299 218.13C-71.3199 223.02 -73.1599 228.77 -73.1599 234.75C-73.1599 237.1 -72.8699 239.46 -72.2899 241.75C-71.5699 244.61 -71.2199 247.49 -71.2199 250.36C-71.2199 260.95 -76.0299 271.16 -84.5799 277.91C-87.1399 279.93 -89.4299 282.34 -91.3699 285.06C-95.6299 291.03 -97.8799 298.04 -97.8799 305.35C-97.8799 310.81 -96.5799 316.27 -94.1299 321.14C-91.5999 326.17 -87.8199 330.57 -83.2099 333.86C-77.6899 337.8 -71.1999 340.05 -64.4599 340.35C-53.2299 340.86 -42.9199 346.72 -36.7499 356.12C-34.3799 359.72 -31.2899 362.94 -27.8099 365.42C-23.9699 368.16 -19.6999 370.07 -15.1299 371.09C-10.7199 372.08 -6.19988 372.2 -1.71988 371.45C2.76012 370.7 6.99012 369.12 10.8401 366.75C14.8301 364.3 18.2401 361.11 20.9901 357.26C25.2501 351.29 27.5001 344.28 27.5001 336.97C27.5001 331.51 26.2001 326.05 23.7501 321.18C23.6701 321.02 23.5801 320.85 23.5001 320.69C20.8101 315.56 19.4901 309.97 19.4901 304.4C19.4901 296.77 21.9801 289.18 26.8401 282.91C27.0501 282.64 27.2601 282.35 27.4701 282.06C30.6301 277.63 32.2401 272.63 32.2401 267.2C32.2401 258.93 28.2201 251.12 21.5001 246.32C18.6501 244.28 15.6101 242.92 12.2101 242.17C11.2101 241.95 10.1901 241.78 9.19012 241.68C-2.86988 240.46 -13.4499 233.09 -18.7699 222.2C-20.8699 217.92 -24.0099 214.2 -27.8499 211.46C-30.9999 209.21 -34.4899 207.65 -38.2399 206.81C-41.8599 206 -45.5499 205.9 -49.2199 206.52L-49.2299 206.51Z" fill="white"/></mask><g mask="url(#mask1_58_8034)"><path d="M-178.474 264.938L-179.896 266.359L3.32292 449.578L4.7442 448.156L-178.474 264.938Z" fill="#EFE098"/><path d="M-173.751 260.202L-175.173 261.623L8.04582 444.841L9.4671 443.42L-173.751 260.202Z" fill="#EFE098"/><path d="M-169.021 255.472L-170.443 256.894L12.7758 440.112L14.1971 438.691L-169.021 255.472Z" fill="#EFE098"/><path d="M-164.291 250.733L-165.713 252.154L17.5058 435.373L18.9271 433.952L-164.291 250.733Z" fill="#EFE098"/><path d="M-159.561 246.004L-160.983 247.425L22.2358 430.644L23.657 429.222L-159.561 246.004Z" fill="#EFE098"/><path d="M-154.821 241.275L-156.243 242.696L26.9757 425.914L28.397 424.493L-154.821 241.275Z" fill="#EFE098"/><path d="M-150.101 236.545L-151.522 237.967L31.696 421.185L33.1173 419.764L-150.101 236.545Z" fill="#EFE098"/><path d="M-145.371 231.816L-146.792 233.237L36.4259 416.456L37.8472 415.035L-145.371 231.816Z" fill="#EFE098"/><path d="M-140.641 227.087L-142.062 228.508L41.1559 411.727L42.5772 410.305L-140.641 227.087Z" fill="#EFE098"/><path d="M-135.911 222.358L-137.333 223.779L45.8859 406.997L47.3072 405.576L-135.911 222.358Z" fill="#EFE098"/><path d="M-131.181 217.628L-132.603 219.05L50.6159 402.268L52.0372 400.847L-131.181 217.628Z" fill="#EFE098"/><path d="M-126.441 212.889L-127.863 214.311L55.3559 397.529L56.7772 396.108L-126.441 212.889Z" fill="#EFE098"/><path d="M-121.721 208.17L-123.143 209.591L60.0759 392.81L61.4972 391.388L-121.721 208.17Z" fill="#EFE098"/><path d="M-116.991 203.441L-118.413 204.862L64.8058 388.081L66.2271 386.659L-116.991 203.441Z" fill="#EFE098"/><path d="M-112.261 198.712L-113.683 200.133L69.5358 383.351L70.9571 381.93L-112.261 198.712Z" fill="#EFE098"/><path d="M-107.531 193.982L-108.953 195.404L74.2658 378.622L75.6871 377.201L-107.531 193.982Z" fill="#EFE098"/><path d="M-102.791 189.243L-104.213 190.664L79.0058 373.883L80.4271 372.462L-102.791 189.243Z" fill="#EFE098"/><path d="M-98.0614 184.514L-99.4827 185.935L83.7358 369.154L85.1571 367.732L-98.0614 184.514Z" fill="#EFE098"/><path d="M-93.3314 179.785L-94.7527 181.206L88.4657 364.424L89.887 363.003L-93.3314 179.785Z" fill="#EFE098"/><path d="M-88.6012 175.055L-90.0225 176.477L93.196 359.695L94.6172 358.274L-88.6012 175.055Z" fill="#EFE098"/><path d="M-83.8812 170.326L-85.3025 171.747L97.916 354.966L99.3372 353.545L-83.8812 170.326Z" fill="#EFE098"/><path d="M-79.1412 165.597L-80.5625 167.018L102.656 350.237L104.077 348.815L-79.1412 165.597Z" fill="#EFE098"/><path d="M-74.4112 160.868L-75.8325 162.289L107.386 345.507L108.807 344.086L-74.4112 160.868Z" fill="#EFE098"/><path d="M-69.6813 156.139L-71.1025 157.56L112.116 340.778L113.537 339.357L-69.6813 156.139Z" fill="#EFE098"/><path d="M-64.9513 151.409L-66.3726 152.831L116.846 336.049L118.267 334.628L-64.9513 151.409Z" fill="#EFE098"/><path d="M-60.2213 146.68L-61.6426 148.101L121.576 331.32L122.997 329.898L-60.2213 146.68Z" fill="#EFE098"/><path d="M-55.4913 141.951L-56.9126 143.372L126.306 326.591L127.727 325.169L-55.4913 141.951Z" fill="#EFE098"/></g><path d="M37.0201 138.27C36.2601 138.27 35.6501 137.66 35.6501 136.9C35.6501 136.14 36.2601 135.53 37.0201 135.53C37.7801 135.53 38.3901 136.14 38.3901 136.9C38.3901 137.66 37.7801 138.27 37.0201 138.27Z" fill="white"/><path d="M37.0201 147.42C36.2601 147.42 35.6501 146.81 35.6501 146.05C35.6501 145.29 36.2601 144.68 37.0201 144.68C37.7801 144.68 38.3901 145.29 38.3901 146.05C38.3901 146.81 37.7801 147.42 37.0201 147.42Z" fill="white"/><path d="M37.0201 156.57C36.2601 156.57 35.6501 155.96 35.6501 155.2C35.6501 154.44 36.2601 153.83 37.0201 153.83C37.7801 153.83 38.3901 154.44 38.3901 155.2C38.3901 155.96 37.7801 156.57 37.0201 156.57Z" fill="white"/><path d="M32.4401 133.69C31.6801 133.69 31.0701 133.08 31.0701 132.32C31.0701 131.56 31.6801 130.95 32.4401 130.95C33.2001 130.95 33.8101 131.56 33.8101 132.32C33.8101 133.08 33.2001 133.69 32.4401 133.69Z" fill="white"/><path d="M32.4401 142.84C31.6801 142.84 31.0701 142.23 31.0701 141.47C31.0701 140.71 31.6801 140.1 32.4401 140.1C33.2001 140.1 33.8101 140.71 33.8101 141.47C33.8101 142.23 33.2001 142.84 32.4401 142.84Z" fill="white"/><path d="M32.4401 152C31.6801 152 31.0701 151.39 31.0701 150.63C31.0701 149.87 31.6801 149.26 32.4401 149.26C33.2001 149.26 33.8101 149.87 33.8101 150.63C33.8101 151.39 33.2001 152 32.4401 152Z" fill="white"/><path d="M32.4401 161.15C31.6801 161.15 31.0701 160.54 31.0701 159.78C31.0701 159.02 31.6801 158.41 32.4401 158.41C33.2001 158.41 33.8101 159.02 33.8101 159.78C33.8101 160.54 33.2001 161.15 32.4401 161.15Z" fill="white"/><path d="M27.86 129.11C27.1 129.11 26.49 128.5 26.49 127.74C26.49 126.98 27.1 126.37 27.86 126.37C28.62 126.37 29.23 126.98 29.23 127.74C29.23 128.5 28.62 129.11 27.86 129.11Z" fill="white"/><path d="M27.86 138.26C28.6166 138.26 29.23 137.647 29.23 136.89C29.23 136.133 28.6166 135.52 27.86 135.52C27.1034 135.52 26.49 136.133 26.49 136.89C26.49 137.647 27.1034 138.26 27.86 138.26Z" fill="white"/><path d="M27.86 147.42C27.1 147.42 26.49 146.81 26.49 146.05C26.49 145.29 27.1 144.68 27.86 144.68C28.62 144.68 29.23 145.29 29.23 146.05C29.23 146.81 28.62 147.42 27.86 147.42Z" fill="white"/><path d="M27.86 156.57C28.6166 156.57 29.23 155.957 29.23 155.2C29.23 154.443 28.6166 153.83 27.86 153.83C27.1034 153.83 26.49 154.443 26.49 155.2C26.49 155.957 27.1034 156.57 27.86 156.57Z" fill="white"/><path d="M27.86 165.73C27.1 165.73 26.49 165.12 26.49 164.36C26.49 163.6 27.1 162.99 27.86 162.99C28.62 162.99 29.23 163.6 29.23 164.36C29.23 165.12 28.62 165.73 27.86 165.73Z" fill="white"/><path d="M23.2902 124.53C24.0468 124.53 24.6602 123.917 24.6602 123.16C24.6602 122.403 24.0468 121.79 23.2902 121.79C22.5335 121.79 21.9202 122.403 21.9202 123.16C21.9202 123.917 22.5335 124.53 23.2902 124.53Z" fill="white"/><path d="M23.2902 133.69C22.5302 133.69 21.9202 133.08 21.9202 132.32C21.9202 131.56 22.5302 130.95 23.2902 130.95C24.0502 130.95 24.6602 131.56 24.6602 132.32C24.6602 133.08 24.0502 133.69 23.2902 133.69Z" fill="white"/><path d="M23.2902 142.84C22.5302 142.84 21.9202 142.23 21.9202 141.47C21.9202 140.71 22.5302 140.1 23.2902 140.1C24.0502 140.1 24.6602 140.71 24.6602 141.47C24.6602 142.23 24.0502 142.84 23.2902 142.84Z" fill="white"/><path d="M23.2902 152C22.5302 152 21.9202 151.39 21.9202 150.63C21.9202 149.87 22.5302 149.26 23.2902 149.26C24.0502 149.26 24.6602 149.87 24.6602 150.63C24.6602 151.39 24.0502 152 23.2902 152Z" fill="white"/><path d="M23.2902 161.15C24.0468 161.15 24.6602 160.537 24.6602 159.78C24.6602 159.023 24.0468 158.41 23.2902 158.41C22.5335 158.41 21.9202 159.023 21.9202 159.78C21.9202 160.537 22.5335 161.15 23.2902 161.15Z" fill="white"/><path d="M23.2902 170.31C22.5302 170.31 21.9202 169.7 21.9202 168.94C21.9202 168.18 22.5302 167.57 23.2902 167.57C24.0502 167.57 24.6602 168.18 24.6602 168.94C24.6602 169.7 24.0502 170.31 23.2902 170.31Z" fill="white"/><path d="M18.7101 119.96C17.9501 119.96 17.3401 119.35 17.3401 118.59C17.3401 117.83 17.9501 117.22 18.7101 117.22C19.4701 117.22 20.0801 117.83 20.0801 118.59C20.0801 119.35 19.4701 119.96 18.7101 119.96Z" fill="white"/><path d="M18.7101 129.11C17.9501 129.11 17.3401 128.5 17.3401 127.74C17.3401 126.98 17.9501 126.37 18.7101 126.37C19.4701 126.37 20.0801 126.98 20.0801 127.74C20.0801 128.5 19.4701 129.11 18.7101 129.11Z" fill="white"/><path d="M18.7101 138.27C17.9501 138.27 17.3401 137.66 17.3401 136.9C17.3401 136.14 17.9501 135.53 18.7101 135.53C19.4701 135.53 20.0801 136.14 20.0801 136.9C20.0801 137.66 19.4701 138.27 18.7101 138.27Z" fill="white"/><path d="M18.7101 147.42C17.9501 147.42 17.3401 146.81 17.3401 146.05C17.3401 145.29 17.9501 144.68 18.7101 144.68C19.4701 144.68 20.0801 145.29 20.0801 146.05C20.0801 146.81 19.4701 147.42 18.7101 147.42Z" fill="white"/><path d="M18.7101 156.57C17.9501 156.57 17.3401 155.96 17.3401 155.2C17.3401 154.44 17.9501 153.83 18.7101 153.83C19.4701 153.83 20.0801 154.44 20.0801 155.2C20.0801 155.96 19.4701 156.57 18.7101 156.57Z" fill="white"/><path d="M18.7101 165.73C17.9501 165.73 17.3401 165.12 17.3401 164.36C17.3401 163.6 17.9501 162.99 18.7101 162.99C19.4701 162.99 20.0801 163.6 20.0801 164.36C20.0801 165.12 19.4701 165.73 18.7101 165.73Z" fill="white"/><path d="M18.7101 174.88C17.9501 174.88 17.3401 174.27 17.3401 173.51C17.3401 172.75 17.9501 172.14 18.7101 172.14C19.4701 172.14 20.0801 172.75 20.0801 173.51C20.0801 174.27 19.4701 174.88 18.7101 174.88Z" fill="white"/><path d="M14.13 124.54C13.37 124.54 12.76 123.93 12.76 123.17C12.76 122.41 13.37 121.8 14.13 121.8C14.89 121.8 15.5 122.41 15.5 123.17C15.5 123.93 14.89 124.54 14.13 124.54Z" fill="white"/><path d="M14.13 133.69C13.37 133.69 12.76 133.08 12.76 132.32C12.76 131.56 13.37 130.95 14.13 130.95C14.89 130.95 15.5 131.56 15.5 132.32C15.5 133.08 14.89 133.69 14.13 133.69Z" fill="white"/><path d="M14.13 142.84C13.37 142.84 12.76 142.23 12.76 141.47C12.76 140.71 13.37 140.1 14.13 140.1C14.89 140.1 15.5 140.71 15.5 141.47C15.5 142.23 14.89 142.84 14.13 142.84Z" fill="white"/><path d="M14.13 152C13.37 152 12.76 151.39 12.76 150.63C12.76 149.87 13.37 149.26 14.13 149.26C14.89 149.26 15.5 149.87 15.5 150.63C15.5 151.39 14.89 152 14.13 152Z" fill="white"/><path d="M14.13 161.15C13.37 161.15 12.76 160.54 12.76 159.78C12.76 159.02 13.37 158.41 14.13 158.41C14.89 158.41 15.5 159.02 15.5 159.78C15.5 160.54 14.89 161.15 14.13 161.15Z" fill="white"/><path d="M14.13 170.31C13.37 170.31 12.76 169.7 12.76 168.94C12.76 168.18 13.37 167.57 14.13 167.57C14.89 167.57 15.5 168.18 15.5 168.94C15.5 169.7 14.89 170.31 14.13 170.31Z" fill="white"/><path d="M9.55994 119.96C8.79994 119.96 8.18994 119.35 8.18994 118.59C8.18994 117.83 8.79994 117.22 9.55994 117.22C10.3199 117.22 10.9299 117.83 10.9299 118.59C10.9299 119.35 10.3199 119.96 9.55994 119.96Z" fill="white"/><path d="M9.55994 129.11C8.79994 129.11 8.18994 128.5 8.18994 127.74C8.18994 126.98 8.79994 126.37 9.55994 126.37C10.3199 126.37 10.9299 126.98 10.9299 127.74C10.9299 128.5 10.3199 129.11 9.55994 129.11Z" fill="white"/><path d="M9.55994 138.27C8.79994 138.27 8.18994 137.66 8.18994 136.9C8.18994 136.14 8.79994 135.53 9.55994 135.53C10.3199 135.53 10.9299 136.14 10.9299 136.9C10.9299 137.66 10.3199 138.27 9.55994 138.27Z" fill="white"/><path d="M9.55994 147.42C8.79994 147.42 8.18994 146.81 8.18994 146.05C8.18994 145.29 8.79994 144.68 9.55994 144.68C10.3199 144.68 10.9299 145.29 10.9299 146.05C10.9299 146.81 10.3199 147.42 9.55994 147.42Z" fill="white"/><path d="M9.55994 156.57C8.79994 156.57 8.18994 155.96 8.18994 155.2C8.18994 154.44 8.79994 153.83 9.55994 153.83C10.3199 153.83 10.9299 154.44 10.9299 155.2C10.9299 155.96 10.3199 156.57 9.55994 156.57Z" fill="white"/><path d="M9.55994 165.73C8.79994 165.73 8.18994 165.12 8.18994 164.36C8.18994 163.6 8.79994 162.99 9.55994 162.99C10.3199 162.99 10.9299 163.6 10.9299 164.36C10.9299 165.12 10.3199 165.73 9.55994 165.73Z" fill="white"/><path d="M9.55994 174.88C8.79994 174.88 8.18994 174.27 8.18994 173.51C8.18994 172.75 8.79994 172.14 9.55994 172.14C10.3199 172.14 10.9299 172.75 10.9299 173.51C10.9299 174.27 10.3199 174.88 9.55994 174.88Z" fill="white"/><path d="M4.98011 124.53C5.73674 124.53 6.35011 123.917 6.35011 123.16C6.35011 122.403 5.73674 121.79 4.98011 121.79C4.22348 121.79 3.61011 122.403 3.61011 123.16C3.61011 123.917 4.22348 124.53 4.98011 124.53Z" fill="white"/><path d="M4.98011 133.69C4.22011 133.69 3.61011 133.08 3.61011 132.32C3.61011 131.56 4.22011 130.95 4.98011 130.95C5.74011 130.95 6.35011 131.56 6.35011 132.32C6.35011 133.08 5.74011 133.69 4.98011 133.69Z" fill="white"/><path d="M4.98011 142.84C4.22011 142.84 3.61011 142.23 3.61011 141.47C3.61011 140.71 4.22011 140.1 4.98011 140.1C5.74011 140.1 6.35011 140.71 6.35011 141.47C6.35011 142.23 5.74011 142.84 4.98011 142.84Z" fill="white"/><path d="M4.98011 152C4.22011 152 3.61011 151.39 3.61011 150.63C3.61011 149.87 4.22011 149.26 4.98011 149.26C5.74011 149.26 6.35011 149.87 6.35011 150.63C6.35011 151.39 5.74011 152 4.98011 152Z" fill="white"/><path d="M4.98011 161.15C5.73674 161.15 6.35011 160.537 6.35011 159.78C6.35011 159.023 5.73674 158.41 4.98011 158.41C4.22348 158.41 3.61011 159.023 3.61011 159.78C3.61011 160.537 4.22348 161.15 4.98011 161.15Z" fill="white"/><path d="M4.98011 170.31C4.22011 170.31 3.61011 169.7 3.61011 168.94C3.61011 168.18 4.22011 167.57 4.98011 167.57C5.74011 167.57 6.35011 168.18 6.35011 168.94C6.35011 169.7 5.74011 170.31 4.98011 170.31Z" fill="white"/><path d="M0.400029 119.96C1.15666 119.96 1.77003 119.347 1.77003 118.59C1.77003 117.833 1.15666 117.22 0.400029 117.22C-0.356601 117.22 -0.969971 117.833 -0.969971 118.59C-0.969971 119.347 -0.356601 119.96 0.400029 119.96Z" fill="white"/><path d="M0.400029 129.11C-0.359971 129.11 -0.969971 128.5 -0.969971 127.74C-0.969971 126.98 -0.359971 126.37 0.400029 126.37C1.16003 126.37 1.77003 126.98 1.77003 127.74C1.77003 128.5 1.16003 129.11 0.400029 129.11Z" fill="white"/><path d="M0.400029 138.26C1.15666 138.26 1.77003 137.647 1.77003 136.89C1.77003 136.133 1.15666 135.52 0.400029 135.52C-0.356601 135.52 -0.969971 136.133 -0.969971 136.89C-0.969971 137.647 -0.356601 138.26 0.400029 138.26Z" fill="white"/><path d="M0.400029 147.42C-0.359971 147.42 -0.969971 146.81 -0.969971 146.05C-0.969971 145.29 -0.359971 144.68 0.400029 144.68C1.16003 144.68 1.77003 145.29 1.77003 146.05C1.77003 146.81 1.16003 147.42 0.400029 147.42Z" fill="white"/><path d="M0.400029 156.57C1.15666 156.57 1.77003 155.957 1.77003 155.2C1.77003 154.443 1.15666 153.83 0.400029 153.83C-0.356601 153.83 -0.969971 154.443 -0.969971 155.2C-0.969971 155.957 -0.356601 156.57 0.400029 156.57Z" fill="white"/><path d="M0.400029 165.73C-0.359971 165.73 -0.969971 165.12 -0.969971 164.36C-0.969971 163.6 -0.359971 162.99 0.400029 162.99C1.16003 162.99 1.77003 163.6 1.77003 164.36C1.77003 165.12 1.16003 165.73 0.400029 165.73Z" fill="white"/><path d="M0.400029 174.88C1.15666 174.88 1.77003 174.267 1.77003 173.51C1.77003 172.753 1.15666 172.14 0.400029 172.14C-0.356601 172.14 -0.969971 172.753 -0.969971 173.51C-0.969971 174.267 -0.356601 174.88 0.400029 174.88Z" fill="white"/></g></svg>
