<svg width="183" height="246" viewBox="0 0 183 246" fill="none" xmlns="http://www.w3.org/2000/svg"><mask id="mask0_58_8035" style="mask-type:alpha" maskUnits="userSpaceOnUse" x="0" y="0" width="183" height="246"><rect width="183" height="246" fill="#D9D9D9"/></mask><g mask="url(#mask0_58_8035)"><path d="M199.65 233.06C204.83 232.19 209.71 230.37 214.17 227.63C218.78 224.8 222.73 221.11 225.9 216.67C230.82 209.77 233.42 201.67 233.42 193.22C233.42 189.9 233.01 186.58 232.19 183.35C231.17 179.32 230.68 175.25 230.68 171.21C230.68 156.28 237.46 141.87 249.53 132.35C253.15 129.5 256.37 126.11 259.11 122.27C265.12 113.85 268.29 103.95 268.29 93.6501C268.29 85.9501 266.46 78.2401 263.01 71.3801C259.44 64.2901 254.11 58.0801 247.6 53.4401C239.81 47.8801 230.66 44.7101 221.16 44.2801C205.32 43.5601 190.78 35.2901 182.07 22.0401C178.73 16.9601 174.37 12.4301 169.45 8.92011C164.03 5.05011 158.01 2.36011 151.56 0.920108C145.33 -0.469892 138.97 -0.639892 132.65 0.420108C126.33 1.48011 120.37 3.71011 114.93 7.05011C109.3 10.5101 104.48 15.0101 100.62 20.4301C94.61 28.8501 91.44 38.7501 91.44 49.0501C91.44 56.7501 93.27 64.4601 96.72 71.3201C96.84 71.5501 96.96 71.7801 97.08 72.0101C100.88 79.2501 102.74 87.1401 102.74 94.9901C102.74 105.76 99.23 116.46 92.37 125.31C92.07 125.7 91.77 126.1 91.48 126.5C87.02 132.75 84.76 139.81 84.76 147.46C84.76 159.13 90.42 170.14 99.91 176.91C103.94 179.78 108.22 181.7 113.01 182.77C114.42 183.08 115.85 183.32 117.27 183.46C134.28 185.19 149.2 195.58 156.72 210.94C159.68 216.98 164.11 222.23 169.53 226.09C173.97 229.26 178.9 231.47 184.18 232.64C189.28 233.78 194.49 233.92 199.67 233.05L199.65 233.06Z" fill="#EAD363"/><mask id="mask1_58_8035" style="mask-type:luminance" maskUnits="userSpaceOnUse" x="-1" y="7" width="141" height="111"><path d="M-0.109854 75.9701C0.410146 79.0701 1.50015 82.0001 3.14015 84.6701C4.84015 87.4301 7.05014 89.8001 9.71014 91.7001C13.8401 94.6501 18.7001 96.2101 23.7601 96.2101C25.7501 96.2101 27.7401 95.9601 29.6701 95.4701C32.0801 94.8601 34.5301 94.5601 36.9401 94.5601C45.8901 94.5601 54.5201 98.6201 60.2201 105.85C61.9301 108.02 63.9602 109.95 66.2602 111.59C71.3002 115.19 77.2301 117.09 83.4101 117.09C88.0301 117.09 92.6402 116 96.7602 113.92C101.01 111.78 104.73 108.59 107.51 104.69C110.84 100.02 112.74 94.5401 113 88.8501C113.43 79.3601 118.39 70.6501 126.33 65.4301C129.37 63.4301 132.09 60.8201 134.19 57.8701C136.51 54.6201 138.12 51.0101 138.98 47.1501C139.81 43.4201 139.91 39.6101 139.28 35.8201C138.65 32.0301 137.31 28.4601 135.31 25.2001C133.24 21.8301 130.54 18.9401 127.29 16.6201C122.25 13.0201 116.32 11.1201 110.14 11.1201C105.52 11.1201 100.91 12.2101 96.7902 14.2901C96.6502 14.3601 96.5101 14.4301 96.3701 14.5001C92.0301 16.7701 87.3102 17.8901 82.6002 17.8901C76.1502 17.8901 69.7401 15.7901 64.4301 11.6701C64.2001 11.4901 63.9601 11.3101 63.7101 11.1401C59.9601 8.47011 55.7401 7.11011 51.1501 7.11011C44.1601 7.11011 37.5601 10.5001 33.5001 16.1901C31.7801 18.6001 30.6301 21.1701 29.9901 24.0401C29.8001 24.8901 29.6601 25.7401 29.5801 26.5901C28.5401 36.7801 22.3201 45.7201 13.1101 50.2301C9.49015 52.0001 6.35015 54.6601 4.03015 57.9101C2.13015 60.5701 0.810137 63.5301 0.100137 66.6901C-0.579863 69.7501 -0.669863 72.8701 -0.149863 75.9701H-0.109854Z" fill="white"/></mask><g mask="url(#mask1_58_8035)"><path d="M204.127 82.4771L205.329 81.275L50.4654 -73.5885L49.2633 -72.3864L204.127 82.4771Z" fill="#EFAFAB"/><path d="M200.127 86.4702L201.329 85.2681L46.4654 -69.5953L45.2633 -68.3933L200.127 86.4702Z" fill="#EFAFAB"/><path d="M196.137 90.4733L197.339 89.2713L42.4754 -65.5922L41.2733 -64.3901L196.137 90.4733Z" fill="#EFAFAB"/><path d="M192.127 94.4565L193.329 93.2544L38.4654 -61.6091L37.2633 -60.407L192.127 94.4565Z" fill="#EFAFAB"/><path d="M188.13 98.4667L189.332 97.2646L34.4683 -57.5988L33.2662 -56.3968L188.13 98.4667Z" fill="#EFAFAB"/><path d="M184.137 102.467L185.339 101.265L30.4754 -53.5986L29.2733 -52.3965L184.137 102.467Z" fill="#EFAFAB"/><path d="M180.137 106.46L181.339 105.258L26.4754 -49.6055L25.2733 -48.4034L180.137 106.46Z" fill="#EFAFAB"/><path d="M176.137 110.453L177.339 109.251L22.4754 -45.6123L21.2733 -44.4102L176.137 110.453Z" fill="#EFAFAB"/><path d="M172.147 114.446L173.349 113.244L18.4854 -41.6192L17.2833 -40.4171L172.147 114.446Z" fill="#EFAFAB"/><path d="M168.14 118.447L169.342 117.245L14.4783 -37.6189L13.2763 -36.4169L168.14 118.447Z" fill="#EFAFAB"/><path d="M164.147 122.457L165.349 121.255L10.4854 -33.6087L9.28336 -32.4067L164.147 122.457Z" fill="#EFAFAB"/><path d="M160.147 126.45L161.349 125.248L6.48543 -29.6156L5.28336 -28.4135L160.147 126.45Z" fill="#EFAFAB"/><path d="M156.147 130.443L157.349 129.241L2.48543 -25.6224L1.28336 -24.4204L156.147 130.443Z" fill="#EFAFAB"/><path d="M152.15 134.443L153.352 133.241L-1.51164 -21.6222L-2.71371 -20.4202L152.15 134.443Z" fill="#EFAFAB"/><path d="M148.15 138.436L149.352 137.234L-5.51164 -17.6291L-6.71371 -16.427L148.15 138.436Z" fill="#EFAFAB"/><path d="M144.157 142.447L145.359 141.245L-9.50482 -13.6189L-10.7069 -12.4168L144.157 142.447Z" fill="#EFAFAB"/><path d="M140.157 146.44L141.359 145.238L-13.5048 -9.62571L-14.7069 -8.42364L140.157 146.44Z" fill="#EFAFAB"/><path d="M136.167 150.433L137.369 149.231L-17.4948 -5.63258L-18.6969 -4.43051L136.167 150.433Z" fill="#EFAFAB"/><path d="M132.16 154.433L133.362 153.231L-21.5016 -1.63237L-22.7037 -0.430276L132.16 154.433Z" fill="#EFAFAB"/><path d="M128.16 158.426L129.362 157.224L-25.5016 2.36077L-26.7037 3.56286L128.16 158.426Z" fill="#EFAFAB"/><path d="M124.167 162.437L125.369 161.234L-29.4946 6.371L-30.6966 7.57309L124.167 162.437Z" fill="#EFAFAB"/><path d="M120.167 166.43L121.369 165.228L-33.4946 10.3642L-34.6966 11.5662L120.167 166.43Z" fill="#EFAFAB"/><path d="M116.177 170.423L117.379 169.221L-37.4848 14.3573L-38.6869 15.5594L116.177 170.423Z" fill="#EFAFAB"/><path d="M112.17 174.423L113.372 173.221L-41.4919 18.3575L-42.6939 19.5596L112.17 174.423Z" fill="#EFAFAB"/><path d="M108.17 178.416L109.372 177.214L-45.4919 22.3507L-46.6939 23.5527L108.17 178.416Z" fill="#EFAFAB"/><path d="M104.177 182.416L105.379 181.214L-49.4848 26.3509L-50.6869 27.5529L104.177 182.416Z" fill="#EFAFAB"/><path d="M100.177 186.42L101.379 185.217L-53.4848 30.354L-54.6869 31.5561L100.177 186.42Z" fill="#EFAFAB"/></g><mask id="mask2_58_8035" style="mask-type:luminance" maskUnits="userSpaceOnUse" x="133" y="152" width="141" height="111"><path d="M134.04 220.9C134.56 224 135.65 226.93 137.29 229.6C138.99 232.36 141.2 234.73 143.86 236.63C147.99 239.58 152.85 241.14 157.91 241.14C159.9 241.14 161.89 240.89 163.82 240.4C166.23 239.79 168.68 239.49 171.09 239.49C180.04 239.49 188.67 243.55 194.37 250.78C196.08 252.95 198.11 254.88 200.41 256.52C205.45 260.12 211.38 262.02 217.56 262.02C222.18 262.02 226.79 260.93 230.91 258.85C235.16 256.71 238.88 253.52 241.66 249.62C244.99 244.95 246.89 239.47 247.15 233.78C247.58 224.29 252.54 215.58 260.48 210.36C263.52 208.36 266.24 205.75 268.34 202.8C270.66 199.55 272.27 195.94 273.13 192.08C273.96 188.35 274.06 184.54 273.43 180.75C272.8 176.96 271.46 173.39 269.46 170.13C267.39 166.76 264.69 163.87 261.44 161.55C256.4 157.95 250.47 156.05 244.29 156.05C239.67 156.05 235.06 157.14 230.94 159.22C230.8 159.29 230.66 159.36 230.52 159.43C226.18 161.7 221.46 162.82 216.75 162.82C210.3 162.82 203.89 160.72 198.58 156.6C198.35 156.42 198.11 156.24 197.86 156.07C194.11 153.4 189.89 152.04 185.3 152.04C178.31 152.04 171.71 155.43 167.65 161.12C165.93 163.53 164.78 166.1 164.14 168.97C163.95 169.82 163.81 170.67 163.73 171.52C162.69 181.71 156.47 190.65 147.26 195.16C143.64 196.93 140.5 199.59 138.18 202.84C136.28 205.5 134.96 208.46 134.25 211.62C133.57 214.68 133.48 217.8 134 220.9H134.04Z" fill="white"/></mask><g mask="url(#mask2_58_8035)"><path d="M334.277 231.388L335.479 230.185L180.616 75.322L179.414 76.5241L334.277 231.388Z" fill="#F5F5DB"/><path d="M330.287 235.395L331.489 234.193L176.626 79.3294L175.424 80.5315L330.287 235.395Z" fill="#F5F5DB"/><path d="M326.287 239.388L327.489 238.186L172.626 83.3225L171.424 84.5246L326.287 239.388Z" fill="#F5F5DB"/><path d="M322.287 243.381L323.489 242.179L168.626 87.3156L167.424 88.5177L322.287 243.381Z" fill="#F5F5DB"/><path d="M318.287 247.384L319.489 246.182L164.626 91.3188L163.424 92.5209L318.287 247.384Z" fill="#F5F5DB"/><path d="M314.29 251.395L315.492 250.192L160.629 95.329L159.427 96.5311L314.29 251.395Z" fill="#F5F5DB"/><path d="M310.297 255.385L311.499 254.183L156.636 99.3192L155.434 100.521L310.297 255.385Z" fill="#F5F5DB"/><path d="M306.297 259.378L307.499 258.176L152.636 103.312L151.434 104.514L306.297 259.378Z" fill="#F5F5DB"/><path d="M302.297 263.371L303.499 262.169L148.636 107.305L147.434 108.508L302.297 263.371Z" fill="#F5F5DB"/><path d="M298.297 267.374L299.499 266.172L144.636 111.309L143.434 112.511L298.297 267.374Z" fill="#F5F5DB"/><path d="M294.3 271.374L295.502 270.172L140.639 115.309L139.437 116.511L294.3 271.374Z" fill="#F5F5DB"/><path d="M290.307 275.385L291.509 274.183L136.646 119.319L135.444 120.521L290.307 275.385Z" fill="#F5F5DB"/><path d="M286.307 279.368L287.509 278.166L132.646 123.302L131.444 124.504L286.307 279.368Z" fill="#F5F5DB"/><path d="M282.307 283.361L283.509 282.159L128.646 127.295L127.444 128.497L282.307 283.361Z" fill="#F5F5DB"/><path d="M278.307 287.354L279.509 286.152L124.646 131.289L123.444 132.491L278.307 287.354Z" fill="#F5F5DB"/><path d="M274.31 291.364L275.512 290.162L120.649 135.299L119.447 136.501L274.31 291.364Z" fill="#F5F5DB"/><path d="M270.317 295.365L271.519 294.162L116.656 139.299L115.454 140.501L270.317 295.365Z" fill="#F5F5DB"/><path d="M266.317 299.368L267.519 298.166L112.656 143.302L111.454 144.504L266.317 299.368Z" fill="#F5F5DB"/><path d="M262.317 303.351L263.519 302.149L108.656 147.285L107.454 148.487L262.317 303.351Z" fill="#F5F5DB"/><path d="M258.317 307.344L259.519 306.142L104.656 151.278L103.454 152.48L258.317 307.344Z" fill="#F5F5DB"/><path d="M254.32 311.354L255.522 310.152L100.659 155.289L99.4564 156.491L254.32 311.354Z" fill="#F5F5DB"/><path d="M250.327 315.344L251.529 314.142L96.6656 159.279L95.4635 160.481L250.327 315.344Z" fill="#F5F5DB"/><path d="M246.327 319.348L247.529 318.145L92.6656 163.282L91.4635 164.484L246.327 319.348Z" fill="#F5F5DB"/><path d="M242.327 323.341L243.529 322.139L88.6656 167.275L87.4635 168.477L242.327 323.341Z" fill="#F5F5DB"/><path d="M238.337 327.344L239.539 326.142L84.6756 171.278L83.4735 172.48L238.337 327.344Z" fill="#F5F5DB"/><path d="M234.33 331.344L235.532 330.142L80.6685 175.279L79.4665 176.481L234.33 331.344Z" fill="#F5F5DB"/></g><path d="M180.34 87.6701C179.58 87.6701 178.97 87.0601 178.97 86.3001C178.97 85.5401 179.58 84.9301 180.34 84.9301C181.1 84.9301 181.71 85.5401 181.71 86.3001C181.71 87.0601 181.1 87.6701 180.34 87.6701Z" fill="white"/><path d="M180.34 96.8201C179.58 96.8201 178.97 96.2101 178.97 95.4501C178.97 94.6901 179.58 94.0801 180.34 94.0801C181.1 94.0801 181.71 94.6901 181.71 95.4501C181.71 96.2101 181.1 96.8201 180.34 96.8201Z" fill="white"/><path d="M180.34 105.98C179.58 105.98 178.97 105.37 178.97 104.61C178.97 103.85 179.58 103.24 180.34 103.24C181.1 103.24 181.71 103.85 181.71 104.61C181.71 105.37 181.1 105.98 180.34 105.98Z" fill="white"/><path d="M180.34 115.13C179.58 115.13 178.97 114.52 178.97 113.76C178.97 113 179.58 112.39 180.34 112.39C181.1 112.39 181.71 113 181.71 113.76C181.71 114.52 181.1 115.13 180.34 115.13Z" fill="white"/><path d="M180.34 124.29C179.58 124.29 178.97 123.68 178.97 122.92C178.97 122.16 179.58 121.55 180.34 121.55C181.1 121.55 181.71 122.16 181.71 122.92C181.71 123.68 181.1 124.29 180.34 124.29Z" fill="white"/><path d="M180.34 133.44C179.58 133.44 178.97 132.83 178.97 132.07C178.97 131.31 179.58 130.7 180.34 130.7C181.1 130.7 181.71 131.31 181.71 132.07C181.71 132.83 181.1 133.44 180.34 133.44Z" fill="white"/><path d="M180.34 142.59C179.58 142.59 178.97 141.98 178.97 141.22C178.97 140.46 179.58 139.85 180.34 139.85C181.1 139.85 181.71 140.46 181.71 141.22C181.71 141.98 181.1 142.59 180.34 142.59Z" fill="white"/><path d="M175.76 92.2501C175 92.2501 174.39 91.6401 174.39 90.8801C174.39 90.1201 175 89.5101 175.76 89.5101C176.52 89.5101 177.13 90.1201 177.13 90.8801C177.13 91.6401 176.52 92.2501 175.76 92.2501Z" fill="white"/><path d="M175.76 101.4C175 101.4 174.39 100.79 174.39 100.03C174.39 99.2701 175 98.6601 175.76 98.6601C176.52 98.6601 177.13 99.2701 177.13 100.03C177.13 100.79 176.52 101.4 175.76 101.4Z" fill="white"/><path d="M175.76 110.56C175 110.56 174.39 109.95 174.39 109.19C174.39 108.43 175 107.82 175.76 107.82C176.52 107.82 177.13 108.43 177.13 109.19C177.13 109.95 176.52 110.56 175.76 110.56Z" fill="white"/><path d="M175.76 119.71C175 119.71 174.39 119.1 174.39 118.34C174.39 117.58 175 116.97 175.76 116.97C176.52 116.97 177.13 117.58 177.13 118.34C177.13 119.1 176.52 119.71 175.76 119.71Z" fill="white"/><path d="M175.76 128.86C175 128.86 174.39 128.25 174.39 127.49C174.39 126.73 175 126.12 175.76 126.12C176.52 126.12 177.13 126.73 177.13 127.49C177.13 128.25 176.52 128.86 175.76 128.86Z" fill="white"/><path d="M175.76 138.02C175 138.02 174.39 137.41 174.39 136.65C174.39 135.89 175 135.28 175.76 135.28C176.52 135.28 177.13 135.89 177.13 136.65C177.13 137.41 176.52 138.02 175.76 138.02Z" fill="white"/><path d="M171.18 87.6701C170.42 87.6701 169.81 87.0601 169.81 86.3001C169.81 85.5401 170.42 84.9301 171.18 84.9301C171.94 84.9301 172.55 85.5401 172.55 86.3001C172.55 87.0601 171.94 87.6701 171.18 87.6701Z" fill="white"/><path d="M171.18 96.8201C170.42 96.8201 169.81 96.2101 169.81 95.4501C169.81 94.6901 170.42 94.0801 171.18 94.0801C171.94 94.0801 172.55 94.6901 172.55 95.4501C172.55 96.2101 171.94 96.8201 171.18 96.8201Z" fill="white"/><path d="M171.18 105.98C170.42 105.98 169.81 105.37 169.81 104.61C169.81 103.85 170.42 103.24 171.18 103.24C171.94 103.24 172.55 103.85 172.55 104.61C172.55 105.37 171.94 105.98 171.18 105.98Z" fill="white"/><path d="M171.18 115.13C170.42 115.13 169.81 114.52 169.81 113.76C169.81 113 170.42 112.39 171.18 112.39C171.94 112.39 172.55 113 172.55 113.76C172.55 114.52 171.94 115.13 171.18 115.13Z" fill="white"/><path d="M171.18 124.29C170.42 124.29 169.81 123.68 169.81 122.92C169.81 122.16 170.42 121.55 171.18 121.55C171.94 121.55 172.55 122.16 172.55 122.92C172.55 123.68 171.94 124.29 171.18 124.29Z" fill="white"/><path d="M171.18 133.44C170.42 133.44 169.81 132.83 169.81 132.07C169.81 131.31 170.42 130.7 171.18 130.7C171.94 130.7 172.55 131.31 172.55 132.07C172.55 132.83 171.94 133.44 171.18 133.44Z" fill="white"/><path d="M171.18 142.59C170.42 142.59 169.81 141.98 169.81 141.22C169.81 140.46 170.42 139.85 171.18 139.85C171.94 139.85 172.55 140.46 172.55 141.22C172.55 141.98 171.94 142.59 171.18 142.59Z" fill="white"/><path d="M166.61 92.2501C165.85 92.2501 165.24 91.6401 165.24 90.8801C165.24 90.1201 165.85 89.5101 166.61 89.5101C167.37 89.5101 167.98 90.1201 167.98 90.8801C167.98 91.6401 167.37 92.2501 166.61 92.2501Z" fill="white"/><path d="M166.61 101.4C165.85 101.4 165.24 100.79 165.24 100.03C165.24 99.2701 165.85 98.6601 166.61 98.6601C167.37 98.6601 167.98 99.2701 167.98 100.03C167.98 100.79 167.37 101.4 166.61 101.4Z" fill="white"/><path d="M166.61 110.56C165.85 110.56 165.24 109.95 165.24 109.19C165.24 108.43 165.85 107.82 166.61 107.82C167.37 107.82 167.98 108.43 167.98 109.19C167.98 109.95 167.37 110.56 166.61 110.56Z" fill="white"/><path d="M166.61 119.71C165.85 119.71 165.24 119.1 165.24 118.34C165.24 117.58 165.85 116.97 166.61 116.97C167.37 116.97 167.98 117.58 167.98 118.34C167.98 119.1 167.37 119.71 166.61 119.71Z" fill="white"/><path d="M166.61 128.86C165.85 128.86 165.24 128.25 165.24 127.49C165.24 126.73 165.85 126.12 166.61 126.12C167.37 126.12 167.98 126.73 167.98 127.49C167.98 128.25 167.37 128.86 166.61 128.86Z" fill="white"/><path d="M166.61 138.02C165.85 138.02 165.24 137.41 165.24 136.65C165.24 135.89 165.85 135.28 166.61 135.28C167.37 135.28 167.98 135.89 167.98 136.65C167.98 137.41 167.37 138.02 166.61 138.02Z" fill="white"/><path d="M162.03 87.6701C161.27 87.6701 160.66 87.0601 160.66 86.3001C160.66 85.5401 161.27 84.9301 162.03 84.9301C162.79 84.9301 163.4 85.5401 163.4 86.3001C163.4 87.0601 162.79 87.6701 162.03 87.6701Z" fill="white"/><path d="M162.03 96.8201C162.787 96.8201 163.4 96.2067 163.4 95.4501C163.4 94.6935 162.787 94.0801 162.03 94.0801C161.274 94.0801 160.66 94.6935 160.66 95.4501C160.66 96.2067 161.274 96.8201 162.03 96.8201Z" fill="white"/><path d="M162.03 105.98C162.787 105.98 163.4 105.367 163.4 104.61C163.4 103.853 162.787 103.24 162.03 103.24C161.274 103.24 160.66 103.853 160.66 104.61C160.66 105.367 161.274 105.98 162.03 105.98Z" fill="white"/><path d="M162.03 115.13C161.27 115.13 160.66 114.52 160.66 113.76C160.66 113 161.27 112.39 162.03 112.39C162.79 112.39 163.4 113 163.4 113.76C163.4 114.52 162.79 115.13 162.03 115.13Z" fill="white"/><path d="M162.03 124.28C162.787 124.28 163.4 123.667 163.4 122.91C163.4 122.153 162.787 121.54 162.03 121.54C161.274 121.54 160.66 122.153 160.66 122.91C160.66 123.667 161.274 124.28 162.03 124.28Z" fill="white"/><path d="M162.03 133.44C162.787 133.44 163.4 132.827 163.4 132.07C163.4 131.313 162.787 130.7 162.03 130.7C161.274 130.7 160.66 131.313 160.66 132.07C160.66 132.827 161.274 133.44 162.03 133.44Z" fill="white"/><path d="M162.03 142.59C161.27 142.59 160.66 141.98 160.66 141.22C160.66 140.46 161.27 139.85 162.03 139.85C162.79 139.85 163.4 140.46 163.4 141.22C163.4 141.98 162.79 142.59 162.03 142.59Z" fill="white"/><path d="M157.45 92.2501C156.69 92.2501 156.08 91.6401 156.08 90.8801C156.08 90.1201 156.69 89.5101 157.45 89.5101C158.21 89.5101 158.82 90.1201 158.82 90.8801C158.82 91.6401 158.21 92.2501 157.45 92.2501Z" fill="white"/><path d="M157.45 101.4C156.69 101.4 156.08 100.79 156.08 100.03C156.08 99.2701 156.69 98.6601 157.45 98.6601C158.21 98.6601 158.82 99.2701 158.82 100.03C158.82 100.79 158.21 101.4 157.45 101.4Z" fill="white"/><path d="M157.45 110.56C156.69 110.56 156.08 109.95 156.08 109.19C156.08 108.43 156.69 107.82 157.45 107.82C158.21 107.82 158.82 108.43 158.82 109.19C158.82 109.95 158.21 110.56 157.45 110.56Z" fill="white"/><path d="M157.45 119.71C158.207 119.71 158.82 119.097 158.82 118.34C158.82 117.583 158.207 116.97 157.45 116.97C156.693 116.97 156.08 117.583 156.08 118.34C156.08 119.097 156.693 119.71 157.45 119.71Z" fill="white"/><path d="M157.45 128.86C156.69 128.86 156.08 128.25 156.08 127.49C156.08 126.73 156.69 126.12 157.45 126.12C158.21 126.12 158.82 126.73 158.82 127.49C158.82 128.25 158.21 128.86 157.45 128.86Z" fill="white"/><path d="M157.45 138.01C158.207 138.01 158.82 137.397 158.82 136.64C158.82 135.883 158.207 135.27 157.45 135.27C156.693 135.27 156.08 135.883 156.08 136.64C156.08 137.397 156.693 138.01 157.45 138.01Z" fill="white"/><path d="M152.88 96.8201C152.12 96.8201 151.51 96.2101 151.51 95.4501C151.51 94.6901 152.12 94.0801 152.88 94.0801C153.64 94.0801 154.25 94.6901 154.25 95.4501C154.25 96.2101 153.64 96.8201 152.88 96.8201Z" fill="white"/><path d="M152.88 105.98C152.12 105.98 151.51 105.37 151.51 104.61C151.51 103.85 152.12 103.24 152.88 103.24C153.64 103.24 154.25 103.85 154.25 104.61C154.25 105.37 153.64 105.98 152.88 105.98Z" fill="white"/><path d="M152.88 115.13C152.12 115.13 151.51 114.52 151.51 113.76C151.51 113 152.12 112.39 152.88 112.39C153.64 112.39 154.25 113 154.25 113.76C154.25 114.52 153.64 115.13 152.88 115.13Z" fill="white"/><path d="M152.88 124.29C152.12 124.29 151.51 123.68 151.51 122.92C151.51 122.16 152.12 121.55 152.88 121.55C153.64 121.55 154.25 122.16 154.25 122.92C154.25 123.68 153.64 124.29 152.88 124.29Z" fill="white"/><path d="M152.88 133.44C152.12 133.44 151.51 132.83 151.51 132.07C151.51 131.31 152.12 130.7 152.88 130.7C153.64 130.7 154.25 131.31 154.25 132.07C154.25 132.83 153.64 133.44 152.88 133.44Z" fill="white"/><path d="M148.3 101.4C147.54 101.4 146.93 100.79 146.93 100.03C146.93 99.2701 147.54 98.6601 148.3 98.6601C149.06 98.6601 149.67 99.2701 149.67 100.03C149.67 100.79 149.06 101.4 148.3 101.4Z" fill="white"/><path d="M148.3 110.56C147.54 110.56 146.93 109.95 146.93 109.19C146.93 108.43 147.54 107.82 148.3 107.82C149.06 107.82 149.67 108.43 149.67 109.19C149.67 109.95 149.06 110.56 148.3 110.56Z" fill="white"/><path d="M148.3 119.71C149.057 119.71 149.67 119.097 149.67 118.34C149.67 117.583 149.057 116.97 148.3 116.97C147.543 116.97 146.93 117.583 146.93 118.34C146.93 119.097 147.543 119.71 148.3 119.71Z" fill="white"/><path d="M148.3 128.86C147.54 128.86 146.93 128.25 146.93 127.49C146.93 126.73 147.54 126.12 148.3 126.12C149.06 126.12 149.67 126.73 149.67 127.49C149.67 128.25 149.06 128.86 148.3 128.86Z" fill="white"/><path d="M143.72 105.98C142.96 105.98 142.35 105.37 142.35 104.61C142.35 103.85 142.96 103.24 143.72 103.24C144.48 103.24 145.09 103.85 145.09 104.61C145.09 105.37 144.48 105.98 143.72 105.98Z" fill="white"/><path d="M143.72 115.13C142.96 115.13 142.35 114.52 142.35 113.76C142.35 113 142.96 112.39 143.72 112.39C144.48 112.39 145.09 113 145.09 113.76C145.09 114.52 144.48 115.13 143.72 115.13Z" fill="white"/><path d="M143.72 124.29C142.96 124.29 142.35 123.68 142.35 122.92C142.35 122.16 142.96 121.55 143.72 121.55C144.48 121.55 145.09 122.16 145.09 122.92C145.09 123.68 144.48 124.29 143.72 124.29Z" fill="white"/></g></svg>
