<svg width="76" height="223" viewBox="0 0 76 223" fill="none" xmlns="http://www.w3.org/2000/svg"><mask id="mask0_58_8032" style="mask-type:alpha" maskUnits="userSpaceOnUse" x="0" y="0" width="76" height="223"><rect width="76" height="223" fill="#D9D9D9"/></mask><g mask="url(#mask0_58_8032)"><path d="M0.810049 194.65C1.82005 198.39 3.51006 201.85 5.85006 204.92C8.26006 208.1 11.2601 210.74 14.7501 212.74C20.1701 215.86 26.32 217.18 32.52 216.58C34.96 216.34 37.37 215.8 39.68 214.96C42.57 213.92 45.52 213.26 48.49 212.97C59.46 211.89 70.54 215.83 78.4 224.02C80.76 226.47 83.4801 228.6 86.5001 230.33C93.1201 234.14 100.62 235.76 108.19 235.01C113.85 234.45 119.38 232.56 124.17 229.52C129.12 226.39 133.3 222.02 136.24 216.91C139.76 210.78 141.43 203.84 141.06 196.82C140.45 185.13 145.48 173.85 154.58 166.49C158.07 163.67 161.09 160.14 163.31 156.27C165.76 152.01 167.31 147.39 167.9 142.55C168.47 137.87 168.14 133.19 166.9 128.62C165.67 124.05 163.6 119.83 160.75 116.08C157.8 112.19 154.15 108.98 149.88 106.53C143.26 102.72 135.76 101.1 128.19 101.85C122.53 102.41 117 104.3 112.21 107.34C112.05 107.44 111.89 107.55 111.73 107.65C106.69 110.96 101.03 112.9 95.2501 113.47C87.3401 114.25 79.2201 112.44 72.2201 108.04C71.9201 107.85 71.6001 107.66 71.2801 107.47C66.3601 104.64 61.02 103.49 55.39 104.04C46.81 104.88 39.13 109.84 34.84 117.3C33.02 120.47 31.9201 123.75 31.4801 127.35C31.3501 128.41 31.2801 129.48 31.2801 130.53C31.2401 143.16 24.68 154.87 13.93 161.5C9.70004 164.11 6.17005 167.74 3.72005 172.01C1.71005 175.5 0.450043 179.29 -0.0399572 183.25C-0.509957 187.08 -0.22995 190.92 0.78005 194.66L0.810049 194.65Z" fill="#EFAFAB"/><mask id="mask1_58_8032" style="mask-type:luminance" maskUnits="userSpaceOnUse" x="35" y="0" width="100" height="126"><path d="M97.4402 125.57C100.22 125.1 102.85 124.12 105.24 122.65C107.72 121.13 109.84 119.14 111.54 116.76C114.18 113.05 115.58 108.7 115.58 104.16C115.58 102.38 115.36 100.59 114.92 98.8501C114.37 96.6801 114.11 94.4901 114.11 92.3201C114.11 84.2901 117.75 76.5501 124.24 71.4301C126.18 69.9001 127.92 68.0701 129.39 66.0101C132.62 61.4801 134.33 56.1601 134.33 50.6201C134.33 46.4801 133.35 42.3401 131.49 38.6501C129.57 34.8401 126.71 31.5001 123.21 29.0101C119.02 26.0201 114.11 24.3201 109 24.0901C100.48 23.7001 92.6701 19.2601 87.9901 12.1301C86.2001 9.4001 83.8501 6.96009 81.2101 5.08009C78.2901 3.00009 75.0601 1.5501 71.5901 0.780098C68.2401 0.0300976 64.8201 -0.0598914 61.4201 0.510109C58.0201 1.08011 54.8201 2.28011 51.8901 4.07011C48.8601 5.93011 46.2801 8.35011 44.2001 11.2601C40.9701 15.7901 39.2602 21.1101 39.2602 26.6501C39.2602 30.7901 40.2402 34.9301 42.1002 38.6201C42.1602 38.7401 42.2302 38.8701 42.2902 38.9901C44.3302 42.8801 45.3301 47.1201 45.3301 51.3401C45.3301 57.1301 43.4402 62.8801 39.7502 67.6401C39.5902 67.8501 39.4301 68.0601 39.2701 68.2801C36.8701 71.6401 35.6602 75.4301 35.6602 79.5501C35.6602 85.8201 38.7001 91.7401 43.8001 95.3801C45.9601 96.9201 48.2701 97.9501 50.8401 98.5301C51.6001 98.7001 52.3702 98.8201 53.1302 98.9001C62.2802 99.8301 70.2901 105.41 74.3301 113.67C75.9201 116.92 78.3002 119.74 81.2202 121.82C83.6102 123.52 86.2602 124.71 89.1002 125.34C91.8402 125.95 94.6401 126.03 97.4301 125.56L97.4402 125.57Z" fill="white"/></mask><g mask="url(#mask1_58_8032)"><path d="M195.447 81.27L196.521 80.1952L57.594 -58.7279L56.5192 -57.6531L195.447 81.27Z" fill="#EFE098"/><path d="M191.852 84.8597L192.927 83.7849L54.0015 -55.1404L52.9267 -54.0656L191.852 84.8597Z" fill="#EFE098"/><path d="M188.264 88.4425L189.339 87.3677L50.4158 -51.5598L49.3409 -50.485L188.264 88.4425Z" fill="#EFE098"/><path d="M184.686 92.0305L185.76 90.9557L46.8352 -47.9696L45.7604 -46.8948L184.686 92.0305Z" fill="#EFE098"/><path d="M181.092 95.6194L182.167 94.5446L43.2415 -44.3807L42.1667 -43.3059L181.092 95.6194Z" fill="#EFE098"/><path d="M177.505 99.2013L178.58 98.1265L39.6548 -40.7988L38.58 -39.724L177.505 99.2013Z" fill="#EFE098"/><path d="M173.927 102.789L175.002 101.714L36.0742 -37.2085L34.9995 -36.1337L173.927 102.789Z" fill="#EFE098"/><path d="M170.332 106.379L171.407 105.304L32.4817 -33.621L31.4069 -32.5463L170.332 106.379Z" fill="#EFE098"/><path d="M166.745 109.962L167.819 108.887L28.8962 -30.0405L27.8214 -28.9657L166.745 109.962Z" fill="#EFE098"/><path d="M163.166 113.55L164.241 112.475L25.3154 -26.4502L24.2406 -25.3754L163.166 113.55Z" fill="#EFE098"/><path d="M159.572 117.139L160.647 116.064L21.7219 -22.8613L20.6471 -21.7865L159.572 117.139Z" fill="#EFE098"/><path d="M155.986 120.721L157.061 119.646L18.1353 -19.2795L17.0604 -18.2047L155.986 120.721Z" fill="#EFE098"/><path d="M152.407 124.309L153.482 123.234L14.5547 -15.6892L13.4799 -14.6144L152.407 124.309Z" fill="#EFE098"/><path d="M148.812 127.899L149.887 126.824L10.9619 -12.1015L9.88714 -11.0267L148.812 127.899Z" fill="#EFE098"/><path d="M145.225 131.481L146.3 130.406L7.37649 -8.52094L6.30168 -7.44616L145.225 131.481Z" fill="#EFE098"/><path d="M141.646 135.069L142.721 133.994L3.79592 -4.93088L2.72111 -3.85607L141.646 135.069Z" fill="#EFE098"/><path d="M138.053 138.658L139.127 137.583L0.202174 -1.34189L-0.872621 -0.267099L138.053 138.658Z" fill="#EFE098"/><path d="M134.466 142.24L135.541 141.165L-3.38447 2.24004L-4.45927 3.31483L134.466 142.24Z" fill="#EFE098"/><path d="M130.887 145.828L131.962 144.753L-6.9653 5.83008L-8.04008 6.9049L130.887 145.828Z" fill="#EFE098"/><path d="M127.293 149.417L128.368 148.343L-10.5579 9.41749L-11.6327 10.4923L127.293 149.417Z" fill="#EFE098"/><path d="M123.705 153.001L124.78 151.926L-14.1433 12.9986L-15.2181 14.0734L123.705 153.001Z" fill="#EFE098"/><path d="M120.126 156.589L121.201 155.514L-17.7241 16.5885L-18.7989 17.6633L120.126 156.589Z" fill="#EFE098"/><path d="M116.533 160.177L117.608 159.103L-21.3176 20.1774L-22.3924 21.2522L116.533 160.177Z" fill="#EFE098"/><path d="M112.946 163.759L114.021 162.685L-24.9043 23.7593L-25.9791 24.8341L112.946 163.759Z" fill="#EFE098"/><path d="M109.367 167.348L110.441 166.274L-28.4839 27.3483L-29.5587 28.4231L109.367 167.348Z" fill="#EFE098"/><path d="M105.774 170.936L106.849 169.861L-32.0783 30.9375L-33.1531 32.0123L105.774 170.936Z" fill="#EFE098"/><path d="M102.185 174.52L103.26 173.445L-35.6631 34.5177L-36.7379 35.5925L102.185 174.52Z" fill="#EFE098"/></g><path d="M69.71 198.1C69.19 198.1 68.76 197.67 68.76 197.15C68.76 196.63 69.19 196.2 69.71 196.2C70.23 196.2 70.66 196.63 70.66 197.15C70.66 197.67 70.23 198.1 69.71 198.1Z" fill="white"/><path d="M69.71 204.43C70.2347 204.43 70.66 204.005 70.66 203.48C70.66 202.955 70.2347 202.53 69.71 202.53C69.1853 202.53 68.76 202.955 68.76 203.48C68.76 204.005 69.1853 204.43 69.71 204.43Z" fill="white"/><path d="M69.71 210.76C70.2347 210.76 70.66 210.335 70.66 209.81C70.66 209.285 70.2347 208.86 69.71 208.86C69.1853 208.86 68.76 209.285 68.76 209.81C68.76 210.335 69.1853 210.76 69.71 210.76Z" fill="white"/><path d="M66.5401 194.93C66.0201 194.93 65.5901 194.5 65.5901 193.98C65.5901 193.46 66.0201 193.03 66.5401 193.03C67.0601 193.03 67.4901 193.46 67.4901 193.98C67.4901 194.5 67.0601 194.93 66.5401 194.93Z" fill="white"/><path d="M66.5401 201.26C66.0201 201.26 65.5901 200.83 65.5901 200.31C65.5901 199.79 66.0201 199.36 66.5401 199.36C67.0601 199.36 67.4901 199.79 67.4901 200.31C67.4901 200.83 67.0601 201.26 66.5401 201.26Z" fill="white"/><path d="M66.5401 207.6C66.0201 207.6 65.5901 207.17 65.5901 206.65C65.5901 206.13 66.0201 205.7 66.5401 205.7C67.0601 205.7 67.4901 206.13 67.4901 206.65C67.4901 207.17 67.0601 207.6 66.5401 207.6Z" fill="white"/><path d="M66.5401 213.93C66.0201 213.93 65.5901 213.5 65.5901 212.98C65.5901 212.46 66.0201 212.03 66.5401 212.03C67.0601 212.03 67.4901 212.46 67.4901 212.98C67.4901 213.5 67.0601 213.93 66.5401 213.93Z" fill="white"/><path d="M63.3802 191.76C62.8602 191.76 62.4302 191.33 62.4302 190.81C62.4302 190.29 62.8602 189.86 63.3802 189.86C63.9002 189.86 64.3302 190.29 64.3302 190.81C64.3302 191.33 63.9002 191.76 63.3802 191.76Z" fill="white"/><path d="M63.3802 198.1C62.8602 198.1 62.4302 197.67 62.4302 197.15C62.4302 196.63 62.8602 196.2 63.3802 196.2C63.9002 196.2 64.3302 196.63 64.3302 197.15C64.3302 197.67 63.9002 198.1 63.3802 198.1Z" fill="white"/><path d="M63.3802 204.43C62.8602 204.43 62.4302 204 62.4302 203.48C62.4302 202.96 62.8602 202.53 63.3802 202.53C63.9002 202.53 64.3302 202.96 64.3302 203.48C64.3302 204 63.9002 204.43 63.3802 204.43Z" fill="white"/><path d="M63.3802 210.76C62.8602 210.76 62.4302 210.33 62.4302 209.81C62.4302 209.29 62.8602 208.86 63.3802 208.86C63.9002 208.86 64.3302 209.29 64.3302 209.81C64.3302 210.33 63.9002 210.76 63.3802 210.76Z" fill="white"/><path d="M63.3802 217.1C62.8602 217.1 62.4302 216.67 62.4302 216.15C62.4302 215.63 62.8602 215.2 63.3802 215.2C63.9002 215.2 64.3302 215.63 64.3302 216.15C64.3302 216.67 63.9002 217.1 63.3802 217.1Z" fill="white"/><path d="M60.21 188.6C59.69 188.6 59.26 188.17 59.26 187.65C59.26 187.13 59.69 186.7 60.21 186.7C60.73 186.7 61.16 187.13 61.16 187.65C61.16 188.17 60.73 188.6 60.21 188.6Z" fill="white"/><path d="M60.21 194.93C60.7347 194.93 61.16 194.505 61.16 193.98C61.16 193.455 60.7347 193.03 60.21 193.03C59.6853 193.03 59.26 193.455 59.26 193.98C59.26 194.505 59.6853 194.93 60.21 194.93Z" fill="white"/><path d="M60.21 201.26C59.69 201.26 59.26 200.83 59.26 200.31C59.26 199.79 59.69 199.36 60.21 199.36C60.73 199.36 61.16 199.79 61.16 200.31C61.16 200.83 60.73 201.26 60.21 201.26Z" fill="white"/><path d="M60.21 207.6C60.7347 207.6 61.16 207.175 61.16 206.65C61.16 206.125 60.7347 205.7 60.21 205.7C59.6853 205.7 59.26 206.125 59.26 206.65C59.26 207.175 59.6853 207.6 60.21 207.6Z" fill="white"/><path d="M60.21 213.93C59.69 213.93 59.26 213.5 59.26 212.98C59.26 212.46 59.69 212.03 60.21 212.03C60.73 212.03 61.16 212.46 61.16 212.98C61.16 213.5 60.73 213.93 60.21 213.93Z" fill="white"/><path d="M60.21 220.26C60.7347 220.26 61.16 219.835 61.16 219.31C61.16 218.785 60.7347 218.36 60.21 218.36C59.6853 218.36 59.26 218.785 59.26 219.31C59.26 219.835 59.6853 220.26 60.21 220.26Z" fill="white"/><path d="M57.0401 185.43C56.5201 185.43 56.0901 185 56.0901 184.48C56.0901 183.96 56.5201 183.53 57.0401 183.53C57.5601 183.53 57.9901 183.96 57.9901 184.48C57.9901 185 57.5601 185.43 57.0401 185.43Z" fill="white"/><path d="M57.0401 191.76C56.5201 191.76 56.0901 191.33 56.0901 190.81C56.0901 190.29 56.5201 189.86 57.0401 189.86C57.5601 189.86 57.9901 190.29 57.9901 190.81C57.9901 191.33 57.5601 191.76 57.0401 191.76Z" fill="white"/><path d="M57.0401 198.1C56.5201 198.1 56.0901 197.67 56.0901 197.15C56.0901 196.63 56.5201 196.2 57.0401 196.2C57.5601 196.2 57.9901 196.63 57.9901 197.15C57.9901 197.67 57.5601 198.1 57.0401 198.1Z" fill="white"/><path d="M57.0401 204.43C56.5201 204.43 56.0901 204 56.0901 203.48C56.0901 202.96 56.5201 202.53 57.0401 202.53C57.5601 202.53 57.9901 202.96 57.9901 203.48C57.9901 204 57.5601 204.43 57.0401 204.43Z" fill="white"/><path d="M57.0401 210.76C56.5201 210.76 56.0901 210.33 56.0901 209.81C56.0901 209.29 56.5201 208.86 57.0401 208.86C57.5601 208.86 57.9901 209.29 57.9901 209.81C57.9901 210.33 57.5601 210.76 57.0401 210.76Z" fill="white"/><path d="M57.0401 217.1C56.5201 217.1 56.0901 216.67 56.0901 216.15C56.0901 215.63 56.5201 215.2 57.0401 215.2C57.5601 215.2 57.9901 215.63 57.9901 216.15C57.9901 216.67 57.5601 217.1 57.0401 217.1Z" fill="white"/><path d="M57.0401 223.43C56.5201 223.43 56.0901 223 56.0901 222.48C56.0901 221.96 56.5201 221.53 57.0401 221.53C57.5601 221.53 57.9901 221.96 57.9901 222.48C57.9901 223 57.5601 223.43 57.0401 223.43Z" fill="white"/><path d="M53.8802 188.6C53.3602 188.6 52.9302 188.17 52.9302 187.65C52.9302 187.13 53.3602 186.7 53.8802 186.7C54.4002 186.7 54.8302 187.13 54.8302 187.65C54.8302 188.17 54.4002 188.6 53.8802 188.6Z" fill="white"/><path d="M53.8802 194.93C53.3602 194.93 52.9302 194.5 52.9302 193.98C52.9302 193.46 53.3602 193.03 53.8802 193.03C54.4002 193.03 54.8302 193.46 54.8302 193.98C54.8302 194.5 54.4002 194.93 53.8802 194.93Z" fill="white"/><path d="M53.8802 201.26C53.3602 201.26 52.9302 200.83 52.9302 200.31C52.9302 199.79 53.3602 199.36 53.8802 199.36C54.4002 199.36 54.8302 199.79 54.8302 200.31C54.8302 200.83 54.4002 201.26 53.8802 201.26Z" fill="white"/><path d="M53.8802 207.6C53.3602 207.6 52.9302 207.17 52.9302 206.65C52.9302 206.13 53.3602 205.7 53.8802 205.7C54.4002 205.7 54.8302 206.13 54.8302 206.65C54.8302 207.17 54.4002 207.6 53.8802 207.6Z" fill="white"/><path d="M53.8802 213.93C53.3602 213.93 52.9302 213.5 52.9302 212.98C52.9302 212.46 53.3602 212.03 53.8802 212.03C54.4002 212.03 54.8302 212.46 54.8302 212.98C54.8302 213.5 54.4002 213.93 53.8802 213.93Z" fill="white"/><path d="M53.8802 220.26C53.3602 220.26 52.9302 219.83 52.9302 219.31C52.9302 218.79 53.3602 218.36 53.8802 218.36C54.4002 218.36 54.8302 218.79 54.8302 219.31C54.8302 219.83 54.4002 220.26 53.8802 220.26Z" fill="white"/><path d="M50.71 185.43C50.19 185.43 49.76 185 49.76 184.48C49.76 183.96 50.19 183.53 50.71 183.53C51.23 183.53 51.66 183.96 51.66 184.48C51.66 185 51.23 185.43 50.71 185.43Z" fill="white"/><path d="M50.71 191.76C50.19 191.76 49.76 191.33 49.76 190.81C49.76 190.29 50.19 189.86 50.71 189.86C51.23 189.86 51.66 190.29 51.66 190.81C51.66 191.33 51.23 191.76 50.71 191.76Z" fill="white"/><path d="M50.71 198.1C50.19 198.1 49.76 197.67 49.76 197.15C49.76 196.63 50.19 196.2 50.71 196.2C51.23 196.2 51.66 196.63 51.66 197.15C51.66 197.67 51.23 198.1 50.71 198.1Z" fill="white"/><path d="M50.71 204.43C50.19 204.43 49.76 204 49.76 203.48C49.76 202.96 50.19 202.53 50.71 202.53C51.23 202.53 51.66 202.96 51.66 203.48C51.66 204 51.23 204.43 50.71 204.43Z" fill="white"/><path d="M50.71 210.76C50.19 210.76 49.76 210.33 49.76 209.81C49.76 209.29 50.19 208.86 50.71 208.86C51.23 208.86 51.66 209.29 51.66 209.81C51.66 210.33 51.23 210.76 50.71 210.76Z" fill="white"/><path d="M50.71 217.1C50.19 217.1 49.76 216.67 49.76 216.15C49.76 215.63 50.19 215.2 50.71 215.2C51.23 215.2 51.66 215.63 51.66 216.15C51.66 216.67 51.23 217.1 50.71 217.1Z" fill="white"/><path d="M50.71 223.43C50.19 223.43 49.76 223 49.76 222.48C49.76 221.96 50.19 221.53 50.71 221.53C51.23 221.53 51.66 221.96 51.66 222.48C51.66 223 51.23 223.43 50.71 223.43Z" fill="white"/><path d="M47.5401 188.6C47.0201 188.6 46.5901 188.17 46.5901 187.65C46.5901 187.13 47.0201 186.7 47.5401 186.7C48.0601 186.7 48.4901 187.13 48.4901 187.65C48.4901 188.17 48.0601 188.6 47.5401 188.6Z" fill="white"/><path d="M47.5401 194.93C48.0648 194.93 48.4901 194.505 48.4901 193.98C48.4901 193.455 48.0648 193.03 47.5401 193.03C47.0154 193.03 46.5901 193.455 46.5901 193.98C46.5901 194.505 47.0154 194.93 47.5401 194.93Z" fill="white"/><path d="M47.5401 201.26C47.0201 201.26 46.5901 200.83 46.5901 200.31C46.5901 199.79 47.0201 199.36 47.5401 199.36C48.0601 199.36 48.4901 199.79 48.4901 200.31C48.4901 200.83 48.0601 201.26 47.5401 201.26Z" fill="white"/><path d="M47.5401 207.6C48.0648 207.6 48.4901 207.175 48.4901 206.65C48.4901 206.125 48.0648 205.7 47.5401 205.7C47.0154 205.7 46.5901 206.125 46.5901 206.65C46.5901 207.175 47.0154 207.6 47.5401 207.6Z" fill="white"/><path d="M47.5401 213.93C47.0201 213.93 46.5901 213.5 46.5901 212.98C46.5901 212.46 47.0201 212.03 47.5401 212.03C48.0601 212.03 48.4901 212.46 48.4901 212.98C48.4901 213.5 48.0601 213.93 47.5401 213.93Z" fill="white"/><path d="M47.5401 220.26C48.0648 220.26 48.4901 219.835 48.4901 219.31C48.4901 218.785 48.0648 218.36 47.5401 218.36C47.0154 218.36 46.5901 218.785 46.5901 219.31C46.5901 219.835 47.0154 220.26 47.5401 220.26Z" fill="white"/><path d="M44.3802 185.43C43.8602 185.43 43.4302 185 43.4302 184.48C43.4302 183.96 43.8602 183.53 44.3802 183.53C44.9002 183.53 45.3302 183.96 45.3302 184.48C45.3302 185 44.9002 185.43 44.3802 185.43Z" fill="white"/><path d="M44.3802 191.76C44.9049 191.76 45.3302 191.335 45.3302 190.81C45.3302 190.285 44.9049 189.86 44.3802 189.86C43.8555 189.86 43.4302 190.285 43.4302 190.81C43.4302 191.335 43.8555 191.76 44.3802 191.76Z" fill="white"/><path d="M44.3802 198.1C43.8602 198.1 43.4302 197.67 43.4302 197.15C43.4302 196.63 43.8602 196.2 44.3802 196.2C44.9002 196.2 45.3302 196.63 45.3302 197.15C45.3302 197.67 44.9002 198.1 44.3802 198.1Z" fill="white"/><path d="M44.3802 204.43C44.9049 204.43 45.3302 204.005 45.3302 203.48C45.3302 202.955 44.9049 202.53 44.3802 202.53C43.8555 202.53 43.4302 202.955 43.4302 203.48C43.4302 204.005 43.8555 204.43 44.3802 204.43Z" fill="white"/><path d="M44.3802 210.76C44.9049 210.76 45.3302 210.335 45.3302 209.81C45.3302 209.285 44.9049 208.86 44.3802 208.86C43.8555 208.86 43.4302 209.285 43.4302 209.81C43.4302 210.335 43.8555 210.76 44.3802 210.76Z" fill="white"/><path d="M44.3802 217.1C44.9049 217.1 45.3302 216.675 45.3302 216.15C45.3302 215.625 44.9049 215.2 44.3802 215.2C43.8555 215.2 43.4302 215.625 43.4302 216.15C43.4302 216.675 43.8555 217.1 44.3802 217.1Z" fill="white"/><path d="M44.3802 223.43C43.8602 223.43 43.4302 223 43.4302 222.48C43.4302 221.96 43.8602 221.53 44.3802 221.53C44.9002 221.53 45.3302 221.96 45.3302 222.48C45.3302 223 44.9002 223.43 44.3802 223.43Z" fill="white"/><path d="M41.21 188.6C40.69 188.6 40.26 188.17 40.26 187.65C40.26 187.13 40.69 186.7 41.21 186.7C41.73 186.7 42.16 187.13 42.16 187.65C42.16 188.17 41.73 188.6 41.21 188.6Z" fill="white"/><path d="M41.21 194.93C41.7347 194.93 42.16 194.505 42.16 193.98C42.16 193.455 41.7347 193.03 41.21 193.03C40.6853 193.03 40.26 193.455 40.26 193.98C40.26 194.505 40.6853 194.93 41.21 194.93Z" fill="white"/><path d="M41.21 201.26C40.69 201.26 40.26 200.83 40.26 200.31C40.26 199.79 40.69 199.36 41.21 199.36C41.73 199.36 42.16 199.79 42.16 200.31C42.16 200.83 41.73 201.26 41.21 201.26Z" fill="white"/><path d="M41.21 207.6C41.7347 207.6 42.16 207.175 42.16 206.65C42.16 206.125 41.7347 205.7 41.21 205.7C40.6853 205.7 40.26 206.125 40.26 206.65C40.26 207.175 40.6853 207.6 41.21 207.6Z" fill="white"/><path d="M41.21 213.93C40.69 213.93 40.26 213.5 40.26 212.98C40.26 212.46 40.69 212.03 41.21 212.03C41.73 212.03 42.16 212.46 42.16 212.98C42.16 213.5 41.73 213.93 41.21 213.93Z" fill="white"/><path d="M41.21 220.26C41.7347 220.26 42.16 219.835 42.16 219.31C42.16 218.785 41.7347 218.36 41.21 218.36C40.6853 218.36 40.26 218.785 40.26 219.31C40.26 219.835 40.6853 220.26 41.21 220.26Z" fill="white"/><path d="M38.0401 191.76C37.5201 191.76 37.0901 191.33 37.0901 190.81C37.0901 190.29 37.5201 189.86 38.0401 189.86C38.5601 189.86 38.9901 190.29 38.9901 190.81C38.9901 191.33 38.5601 191.76 38.0401 191.76Z" fill="white"/><path d="M38.0401 198.1C37.5201 198.1 37.0901 197.67 37.0901 197.15C37.0901 196.63 37.5201 196.2 38.0401 196.2C38.5601 196.2 38.9901 196.63 38.9901 197.15C38.9901 197.67 38.5601 198.1 38.0401 198.1Z" fill="white"/><path d="M38.0401 204.43C37.5201 204.43 37.0901 204 37.0901 203.48C37.0901 202.96 37.5201 202.53 38.0401 202.53C38.5601 202.53 38.9901 202.96 38.9901 203.48C38.9901 204 38.5601 204.43 38.0401 204.43Z" fill="white"/><path d="M38.0401 210.76C37.5201 210.76 37.0901 210.33 37.0901 209.81C37.0901 209.29 37.5201 208.86 38.0401 208.86C38.5601 208.86 38.9901 209.29 38.9901 209.81C38.9901 210.33 38.5601 210.76 38.0401 210.76Z" fill="white"/><path d="M38.0401 217.1C37.5201 217.1 37.0901 216.67 37.0901 216.15C37.0901 215.63 37.5201 215.2 38.0401 215.2C38.5601 215.2 38.9901 215.63 38.9901 216.15C38.9901 216.67 38.5601 217.1 38.0401 217.1Z" fill="white"/><path d="M34.8802 194.93C35.4049 194.93 35.8302 194.505 35.8302 193.98C35.8302 193.455 35.4049 193.03 34.8802 193.03C34.3555 193.03 33.9302 193.455 33.9302 193.98C33.9302 194.505 34.3555 194.93 34.8802 194.93Z" fill="white"/><path d="M34.8802 201.26C34.3602 201.26 33.9302 200.83 33.9302 200.31C33.9302 199.79 34.3602 199.36 34.8802 199.36C35.4002 199.36 35.8302 199.79 35.8302 200.31C35.8302 200.83 35.4002 201.26 34.8802 201.26Z" fill="white"/><path d="M34.8802 207.6C35.4049 207.6 35.8302 207.175 35.8302 206.65C35.8302 206.125 35.4049 205.7 34.8802 205.7C34.3555 205.7 33.9302 206.125 33.9302 206.65C33.9302 207.175 34.3555 207.6 34.8802 207.6Z" fill="white"/><path d="M34.8802 213.93C34.3602 213.93 33.9302 213.5 33.9302 212.98C33.9302 212.46 34.3602 212.03 34.8802 212.03C35.4002 212.03 35.8302 212.46 35.8302 212.98C35.8302 213.5 35.4002 213.93 34.8802 213.93Z" fill="white"/><path d="M31.71 198.1C31.19 198.1 30.76 197.67 30.76 197.15C30.76 196.63 31.19 196.2 31.71 196.2C32.23 196.2 32.66 196.63 32.66 197.15C32.66 197.67 32.23 198.1 31.71 198.1Z" fill="white"/><path d="M31.71 204.43C31.19 204.43 30.76 204 30.76 203.48C30.76 202.96 31.19 202.53 31.71 202.53C32.23 202.53 32.66 202.96 32.66 203.48C32.66 204 32.23 204.43 31.71 204.43Z" fill="white"/><path d="M31.71 210.76C31.19 210.76 30.76 210.33 30.76 209.81C30.76 209.29 31.19 208.86 31.71 208.86C32.23 208.86 32.66 209.29 32.66 209.81C32.66 210.33 32.23 210.76 31.71 210.76Z" fill="white"/></g></svg>
