<svg width="617" height="239" viewBox="0 0 617 239" fill="none" xmlns="http://www.w3.org/2000/svg"><mask id="mask0_19_5089" style="mask-type:alpha" maskUnits="userSpaceOnUse" x="0" y="0" width="617" height="239"><path d="M617 0H0V239H617V0Z" fill="black"/></mask><g mask="url(#mask0_19_5089)"><path d="M728.67 32.2001C729.59 20.4001 728.26 8.73008 724.7 -2.49992C721.01 -14.1199 715.09 -24.7599 707.1 -34.1099C694.7 -48.6199 678.38 -58.7199 659.92 -63.3099C652.66 -65.1199 645.17 -66.0199 637.66 -65.9899C628.29 -65.9499 619.12 -67.0899 610.29 -69.2799C577.63 -77.4099 549.81 -100.07 535.57 -131.65C531.3 -141.11 525.64 -150.01 518.73 -158.09C503.59 -175.81 483.67 -188.14 461.13 -193.74C444.28 -197.93 426.45 -198.13 409.55 -194.3C392.1 -190.35 375.63 -182.08 361.93 -170.37C345.53 -156.35 333.63 -138.08 327.51 -117.53C317.31 -83.2799 291.32 -55.9799 257.6 -44.1399C244.68 -39.5999 232.39 -32.5299 222.04 -23.6899C210.63 -13.9299 201.46 -2.23992 194.81 11.0801C188.38 23.9401 184.55 37.7701 183.42 52.1701C182.29 66.5701 183.92 80.8201 188.27 94.5301C192.77 108.72 200 121.7 209.75 133.12C224.89 150.84 244.81 163.17 267.35 168.77C284.2 172.96 302.04 173.16 318.93 169.33C319.5 169.2 320.07 169.07 320.64 168.93C338.53 164.57 356.8 164.77 373.97 169.05C397.51 174.91 419.01 188.41 434.63 208.23C435.31 209.09 436.03 209.97 436.76 210.82C448.01 223.98 462.2 232.76 478.94 236.93C504.46 243.28 531.62 236.88 551.59 219.82C560.07 212.58 566.59 204.25 571.53 194.36C572.99 191.45 574.27 188.44 575.36 185.42C588.4 149.15 619.23 122.19 656.92 114.11C671.75 110.93 685.62 104.09 697.03 94.3401C706.38 86.3501 713.89 76.7701 719.34 65.8601C724.61 55.3201 727.74 44.0001 728.67 32.2101V32.2001Z" fill="#EFAFAB"/><mask id="mask1_19_5089" style="mask-type:luminance" maskUnits="userSpaceOnUse" x="0" y="-102" width="317" height="249"><path d="M315.38 -9.0302C314.21 -16.0202 311.75 -22.6202 308.05 -28.6302C304.23 -34.8602 299.25 -40.1802 293.25 -44.4602C283.94 -51.1002 272.99 -54.6202 261.59 -54.6202C257.11 -54.6202 252.62 -54.0602 248.26 -52.9602C242.82 -51.5802 237.32 -50.9102 231.87 -50.9102C211.7 -50.9102 192.25 -60.0602 179.4 -76.3602C175.55 -81.2402 170.97 -85.6002 165.78 -89.3002C154.41 -97.4102 141.05 -101.7 127.13 -101.7C116.73 -101.7 106.33 -99.2302 97.0601 -94.5702C87.4801 -89.7502 79.1101 -82.5602 72.8401 -73.7702C65.3301 -63.2502 61.0601 -50.9002 60.4701 -38.0702C59.5001 -16.6802 48.3301 2.9498 30.4401 14.7198C23.5901 19.2298 17.4601 25.1198 12.7201 31.7598C7.49011 39.0798 3.86013 47.2098 1.92013 55.9098C0.0401266 64.3198 -0.189866 72.9098 1.24013 81.4498C2.67013 89.9898 5.68009 98.0398 10.1901 105.38C14.8601 112.98 20.9401 119.48 28.2601 124.71C39.6301 132.82 52.9901 137.11 66.9101 137.11C77.3101 137.11 87.7101 134.64 96.9801 129.98C97.2901 129.82 97.6101 129.66 97.9201 129.5C107.69 124.37 118.34 121.85 128.95 121.85C143.49 121.85 157.94 126.59 169.89 135.86C170.41 136.26 170.96 136.67 171.5 137.06C179.94 143.08 189.47 146.14 199.8 146.14C215.56 146.14 230.42 138.49 239.56 125.68C243.44 120.24 246.03 114.46 247.47 107.99C247.9 106.09 248.21 104.15 248.4 102.24C250.73 79.2698 264.76 59.1298 285.51 48.9798C293.67 44.9898 300.75 38.9998 305.97 31.6798C310.25 25.6798 313.23 19.0198 314.82 11.8898C316.36 4.9998 316.54 -2.0402 315.38 -9.0302Z" fill="white"/></mask><g mask="url(#mask1_19_5089)"><path d="M204.095 -255.206L201.394 -257.907L-147.585 91.0712L-144.884 93.7723L204.095 -255.206Z" fill="#EAD363"/><path d="M213.114 -246.204L210.413 -248.905L-138.565 100.073L-135.864 102.774L213.114 -246.204Z" fill="#EAD363"/><path d="M222.135 -237.202L219.433 -239.903L-129.545 109.075L-126.844 111.776L222.135 -237.202Z" fill="#EAD363"/><path d="M231.135 -228.18L228.433 -230.881L-120.545 118.098L-117.844 120.799L231.135 -228.18Z" fill="#EAD363"/><path d="M240.145 -219.178L237.443 -221.879L-111.535 127.099L-108.834 129.801L240.145 -219.178Z" fill="#EAD363"/><path d="M249.155 -210.166L246.453 -212.867L-102.525 136.111L-99.8239 138.812L249.155 -210.166Z" fill="#EAD363"/><path d="M258.155 -201.144L255.453 -203.845L-93.525 145.134L-90.8239 147.835L258.155 -201.144Z" fill="#EAD363"/><path d="M267.175 -192.142L264.473 -194.843L-84.505 154.136L-81.8038 156.837L267.175 -192.142Z" fill="#EAD363"/><path d="M276.185 -183.14L273.483 -185.841L-75.495 163.138L-72.7939 165.839L276.185 -183.14Z" fill="#EAD363"/><path d="M285.185 -174.128L282.483 -176.829L-66.495 172.149L-63.7939 174.85L285.185 -174.128Z" fill="#EAD363"/><path d="M294.195 -165.115L291.493 -167.816L-57.485 181.162L-54.7838 183.863L294.195 -165.115Z" fill="#EAD363"/><path d="M303.205 -156.104L300.503 -158.805L-48.475 190.174L-45.7738 192.875L303.205 -156.104Z" fill="#EAD363"/><path d="M312.197 -147.088L309.496 -149.789L-39.4821 199.189L-36.7809 201.89L312.197 -147.088Z" fill="#EAD363"/><path d="M321.218 -138.086L318.516 -140.787L-30.4621 208.191L-27.7609 210.892L321.218 -138.086Z" fill="#EAD363"/><path d="M330.238 -129.084L327.536 -131.785L-21.442 217.193L-18.7409 219.894L330.238 -129.084Z" fill="#EAD363"/><path d="M339.237 -120.072L336.536 -122.773L-12.442 226.205L-9.74092 228.906L339.237 -120.072Z" fill="#EAD363"/><path d="M348.248 -111.061L345.546 -113.762L-3.43202 235.217L-0.730863 237.918L348.248 -111.061Z" fill="#EAD363"/><path d="M357.265 -102.055L354.563 -104.756L5.58507 244.223L8.28623 246.924L357.265 -102.055Z" fill="#EAD363"/><path d="M366.265 -93.0332L363.563 -95.7344L14.5851 253.244L17.2862 255.945L366.265 -93.0332Z" fill="#EAD363"/><path d="M375.285 -84.0313L372.583 -86.7324L23.6051 262.246L26.3062 264.947L375.285 -84.0313Z" fill="#EAD363"/><path d="M384.305 -75.0391L381.604 -77.7402L32.6251 271.238L35.3263 273.939L384.305 -75.0391Z" fill="#EAD363"/><path d="M393.305 -66.0167L390.604 -68.7178L41.6251 280.261L44.3262 282.962L393.305 -66.0167Z" fill="#EAD363"/><path d="M402.314 -57.0049L399.613 -59.7061L50.6349 289.272L53.336 291.974L402.314 -57.0049Z" fill="#EAD363"/><path d="M411.324 -47.9932L408.623 -50.6943L59.6449 298.284L62.346 300.985L411.324 -47.9932Z" fill="#EAD363"/><path d="M420.334 -38.9805L417.633 -41.6816L68.6549 307.297L71.356 309.998L420.334 -38.9805Z" fill="#EAD363"/><path d="M429.324 -29.9688L426.623 -32.6699L77.6449 316.308L80.346 319.01L429.324 -29.9688Z" fill="#EAD363"/><path d="M438.364 -20.9668L435.663 -23.668L86.6849 325.31L89.3861 328.012L438.364 -20.9668Z" fill="#EAD363"/></g><path d="M514.16 134.79C514.16 136.11 513.09 137.18 511.77 137.18C510.45 137.18 509.38 136.11 509.38 134.79C509.38 133.47 510.45 132.4 511.77 132.4C513.09 132.4 514.16 133.47 514.16 134.79Z" fill="white"/><path d="M527.68 137.18C529 137.18 530.07 136.11 530.07 134.79C530.07 133.47 529 132.4 527.68 132.4C526.36 132.4 525.29 133.47 525.29 134.79C525.29 136.11 526.36 137.18 527.68 137.18Z" fill="white"/><path d="M543.59 137.18C544.91 137.18 545.98 136.11 545.98 134.79C545.98 133.47 544.91 132.4 543.59 132.4C542.27 132.4 541.2 133.47 541.2 134.79C541.2 136.11 542.27 137.18 543.59 137.18Z" fill="white"/><path d="M506.21 142.741C506.21 144.061 505.14 145.131 503.82 145.131C502.5 145.131 501.43 144.061 501.43 142.741C501.43 141.421 502.5 140.351 503.82 140.351C505.14 140.351 506.21 141.421 506.21 142.741Z" fill="white"/><path d="M522.11 142.741C522.11 144.061 521.04 145.131 519.72 145.131C518.4 145.131 517.33 144.061 517.33 142.741C517.33 141.421 518.4 140.351 519.72 140.351C521.04 140.351 522.11 141.421 522.11 142.741Z" fill="white"/><path d="M538.02 142.741C538.02 144.061 536.95 145.131 535.63 145.131C534.31 145.131 533.24 144.061 533.24 142.741C533.24 141.421 534.31 140.351 535.63 140.351C536.95 140.351 538.02 141.421 538.02 142.741Z" fill="white"/><path d="M553.93 142.741C553.93 144.061 552.86 145.131 551.54 145.131C550.22 145.131 549.15 144.061 549.15 142.741C549.15 141.421 550.22 140.351 551.54 140.351C552.86 140.351 553.93 141.421 553.93 142.741Z" fill="white"/><path d="M498.25 150.701C498.25 152.021 497.18 153.091 495.86 153.091C494.54 153.091 493.47 152.021 493.47 150.701C493.47 149.381 494.54 148.311 495.86 148.311C497.18 148.311 498.25 149.381 498.25 150.701Z" fill="white"/><path d="M514.16 150.701C514.16 152.021 513.09 153.091 511.77 153.091C510.45 153.091 509.38 152.021 509.38 150.701C509.38 149.381 510.45 148.311 511.77 148.311C513.09 148.311 514.16 149.381 514.16 150.701Z" fill="white"/><path d="M530.07 150.701C530.07 152.021 529 153.091 527.68 153.091C526.36 153.091 525.29 152.021 525.29 150.701C525.29 149.381 526.36 148.311 527.68 148.311C529 148.311 530.07 149.381 530.07 150.701Z" fill="white"/><path d="M545.98 150.701C545.98 152.021 544.91 153.091 543.59 153.091C542.27 153.091 541.2 152.021 541.2 150.701C541.2 149.381 542.27 148.311 543.59 148.311C544.91 148.311 545.98 149.381 545.98 150.701Z" fill="white"/><path d="M561.89 150.701C561.89 152.021 560.82 153.091 559.5 153.091C558.18 153.091 557.11 152.021 557.11 150.701C557.11 149.381 558.18 148.311 559.5 148.311C560.82 148.311 561.89 149.381 561.89 150.701Z" fill="white"/><path d="M490.3 158.651C490.3 159.971 489.23 161.041 487.91 161.041C486.59 161.041 485.52 159.971 485.52 158.651C485.52 157.331 486.59 156.261 487.91 156.261C489.23 156.261 490.3 157.331 490.3 158.651Z" fill="white"/><path d="M503.82 161.041C505.14 161.041 506.21 159.971 506.21 158.651C506.21 157.331 505.14 156.261 503.82 156.261C502.5 156.261 501.43 157.331 501.43 158.651C501.43 159.971 502.5 161.041 503.82 161.041Z" fill="white"/><path d="M522.11 158.651C522.11 159.971 521.04 161.041 519.72 161.041C518.4 161.041 517.33 159.971 517.33 158.651C517.33 157.331 518.4 156.261 519.72 156.261C521.04 156.261 522.11 157.331 522.11 158.651Z" fill="white"/><path d="M535.64 161.041C536.96 161.041 538.03 159.971 538.03 158.651C538.03 157.331 536.96 156.261 535.64 156.261C534.32 156.261 533.25 157.331 533.25 158.651C533.25 159.971 534.32 161.041 535.64 161.041Z" fill="white"/><path d="M553.93 158.651C553.93 159.971 552.86 161.041 551.54 161.041C550.22 161.041 549.15 159.971 549.15 158.651C549.15 157.331 550.22 156.261 551.54 156.261C552.86 156.261 553.93 157.331 553.93 158.651Z" fill="white"/><path d="M567.45 161.041C568.77 161.041 569.84 159.971 569.84 158.651C569.84 157.331 568.77 156.261 567.45 156.261C566.13 156.261 565.06 157.331 565.06 158.651C565.06 159.971 566.13 161.041 567.45 161.041Z" fill="white"/><path d="M482.34 166.611C482.34 167.931 481.27 169.001 479.95 169.001C478.63 169.001 477.56 167.931 477.56 166.611C477.56 165.291 478.63 164.221 479.95 164.221C481.27 164.221 482.34 165.291 482.34 166.611Z" fill="white"/><path d="M498.25 166.611C498.25 167.931 497.18 169.001 495.86 169.001C494.54 169.001 493.47 167.931 493.47 166.611C493.47 165.291 494.54 164.221 495.86 164.221C497.18 164.221 498.25 165.291 498.25 166.611Z" fill="white"/><path d="M514.16 166.611C514.16 167.931 513.09 169.001 511.77 169.001C510.45 169.001 509.38 167.931 509.38 166.611C509.38 165.291 510.45 164.221 511.77 164.221C513.09 164.221 514.16 165.291 514.16 166.611Z" fill="white"/><path d="M530.07 166.611C530.07 167.931 529 169.001 527.68 169.001C526.36 169.001 525.29 167.931 525.29 166.611C525.29 165.291 526.36 164.221 527.68 164.221C529 164.221 530.07 165.291 530.07 166.611Z" fill="white"/><path d="M545.98 166.611C545.98 167.931 544.91 169.001 543.59 169.001C542.27 169.001 541.2 167.931 541.2 166.611C541.2 165.291 542.27 164.221 543.59 164.221C544.91 164.221 545.98 165.291 545.98 166.611Z" fill="white"/><path d="M561.89 166.611C561.89 167.931 560.82 169.001 559.5 169.001C558.18 169.001 557.11 167.931 557.11 166.611C557.11 165.291 558.18 164.221 559.5 164.221C560.82 164.221 561.89 165.291 561.89 166.611Z" fill="white"/><path d="M577.8 166.611C577.8 167.931 576.73 169.001 575.41 169.001C574.09 169.001 573.02 167.931 573.02 166.611C573.02 165.291 574.09 164.221 575.41 164.221C576.73 164.221 577.8 165.291 577.8 166.611Z" fill="white"/><path d="M490.3 174.56C490.3 175.88 489.23 176.95 487.91 176.95C486.59 176.95 485.52 175.88 485.52 174.56C485.52 173.24 486.59 172.17 487.91 172.17C489.23 172.17 490.3 173.24 490.3 174.56Z" fill="white"/><path d="M506.21 174.56C506.21 175.88 505.14 176.95 503.82 176.95C502.5 176.95 501.43 175.88 501.43 174.56C501.43 173.24 502.5 172.17 503.82 172.17C505.14 172.17 506.21 173.24 506.21 174.56Z" fill="white"/><path d="M522.11 174.56C522.11 175.88 521.04 176.95 519.72 176.95C518.4 176.95 517.33 175.88 517.33 174.56C517.33 173.24 518.4 172.17 519.72 172.17C521.04 172.17 522.11 173.24 522.11 174.56Z" fill="white"/><path d="M538.02 174.56C538.02 175.88 536.95 176.95 535.63 176.95C534.31 176.95 533.24 175.88 533.24 174.56C533.24 173.24 534.31 172.17 535.63 172.17C536.95 172.17 538.02 173.24 538.02 174.56Z" fill="white"/><path d="M553.93 174.56C553.93 175.88 552.86 176.95 551.54 176.95C550.22 176.95 549.15 175.88 549.15 174.56C549.15 173.24 550.22 172.17 551.54 172.17C552.86 172.17 553.93 173.24 553.93 174.56Z" fill="white"/><path d="M569.84 174.56C569.84 175.88 568.77 176.95 567.45 176.95C566.13 176.95 565.06 175.88 565.06 174.56C565.06 173.24 566.13 172.17 567.45 172.17C568.77 172.17 569.84 173.24 569.84 174.56Z" fill="white"/><path d="M482.34 182.521C482.34 183.841 481.27 184.911 479.95 184.911C478.63 184.911 477.56 183.841 477.56 182.521C477.56 181.201 478.63 180.131 479.95 180.131C481.27 180.131 482.34 181.201 482.34 182.521Z" fill="white"/><path d="M498.25 182.521C498.25 183.841 497.18 184.911 495.86 184.911C494.54 184.911 493.47 183.841 493.47 182.521C493.47 181.201 494.54 180.131 495.86 180.131C497.18 180.131 498.25 181.201 498.25 182.521Z" fill="white"/><path d="M514.16 182.521C514.16 183.841 513.09 184.911 511.77 184.911C510.45 184.911 509.38 183.841 509.38 182.521C509.38 181.201 510.45 180.131 511.77 180.131C513.09 180.131 514.16 181.201 514.16 182.521Z" fill="white"/><path d="M530.07 182.521C530.07 183.841 529 184.911 527.68 184.911C526.36 184.911 525.29 183.841 525.29 182.521C525.29 181.201 526.36 180.131 527.68 180.131C529 180.131 530.07 181.201 530.07 182.521Z" fill="white"/><path d="M545.98 182.521C545.98 183.841 544.91 184.911 543.59 184.911C542.27 184.911 541.2 183.841 541.2 182.521C541.2 181.201 542.27 180.131 543.59 180.131C544.91 180.131 545.98 181.201 545.98 182.521Z" fill="white"/><path d="M561.89 182.521C561.89 183.841 560.82 184.911 559.5 184.911C558.18 184.911 557.11 183.841 557.11 182.521C557.11 181.201 558.18 180.131 559.5 180.131C560.82 180.131 561.89 181.201 561.89 182.521Z" fill="white"/><path d="M577.8 182.521C577.8 183.841 576.73 184.911 575.41 184.911C574.09 184.911 573.02 183.841 573.02 182.521C573.02 181.201 574.09 180.131 575.41 180.131C576.73 180.131 577.8 181.201 577.8 182.521Z" fill="white"/><path d="M490.3 190.47C490.3 191.79 489.23 192.86 487.91 192.86C486.59 192.86 485.52 191.79 485.52 190.47C485.52 189.15 486.59 188.08 487.91 188.08C489.23 188.08 490.3 189.15 490.3 190.47Z" fill="white"/><path d="M503.82 192.86C505.14 192.86 506.21 191.79 506.21 190.47C506.21 189.15 505.14 188.08 503.82 188.08C502.5 188.08 501.43 189.15 501.43 190.47C501.43 191.79 502.5 192.86 503.82 192.86Z" fill="white"/><path d="M522.11 190.47C522.11 191.79 521.04 192.86 519.72 192.86C518.4 192.86 517.33 191.79 517.33 190.47C517.33 189.15 518.4 188.08 519.72 188.08C521.04 188.08 522.11 189.15 522.11 190.47Z" fill="white"/><path d="M535.64 192.86C536.96 192.86 538.03 191.79 538.03 190.47C538.03 189.15 536.96 188.08 535.64 188.08C534.32 188.08 533.25 189.15 533.25 190.47C533.25 191.79 534.32 192.86 535.64 192.86Z" fill="white"/><path d="M553.93 190.47C553.93 191.79 552.86 192.86 551.54 192.86C550.22 192.86 549.15 191.79 549.15 190.47C549.15 189.15 550.22 188.08 551.54 188.08C552.86 188.08 553.93 189.15 553.93 190.47Z" fill="white"/><path d="M567.45 192.86C568.77 192.86 569.84 191.79 569.84 190.47C569.84 189.15 568.77 188.08 567.45 188.08C566.13 188.08 565.06 189.15 565.06 190.47C565.06 191.79 566.13 192.86 567.45 192.86Z" fill="white"/><path d="M482.34 198.42C482.34 199.74 481.27 200.81 479.95 200.81C478.63 200.81 477.56 199.74 477.56 198.42C477.56 197.1 478.63 196.03 479.95 196.03C481.27 196.03 482.34 197.1 482.34 198.42Z" fill="white"/><path d="M495.86 200.81C497.18 200.81 498.25 199.74 498.25 198.42C498.25 197.1 497.18 196.03 495.86 196.03C494.54 196.03 493.47 197.1 493.47 198.42C493.47 199.74 494.54 200.81 495.86 200.81Z" fill="white"/><path d="M514.16 198.42C514.16 199.74 513.09 200.81 511.77 200.81C510.45 200.81 509.38 199.74 509.38 198.42C509.38 197.1 510.45 196.03 511.77 196.03C513.09 196.03 514.16 197.1 514.16 198.42Z" fill="white"/><path d="M527.68 200.81C529 200.81 530.07 199.74 530.07 198.42C530.07 197.1 529 196.03 527.68 196.03C526.36 196.03 525.29 197.1 525.29 198.42C525.29 199.74 526.36 200.81 527.68 200.81Z" fill="white"/><path d="M543.59 200.81C544.91 200.81 545.98 199.74 545.98 198.42C545.98 197.1 544.91 196.03 543.59 196.03C542.27 196.03 541.2 197.1 541.2 198.42C541.2 199.74 542.27 200.81 543.59 200.81Z" fill="white"/><path d="M559.5 200.81C560.82 200.81 561.89 199.74 561.89 198.42C561.89 197.1 560.82 196.03 559.5 196.03C558.18 196.03 557.11 197.1 557.11 198.42C557.11 199.74 558.18 200.81 559.5 200.81Z" fill="white"/><path d="M577.8 198.42C577.8 199.74 576.73 200.81 575.41 200.81C574.09 200.81 573.02 199.74 573.02 198.42C573.02 197.1 574.09 196.03 575.41 196.03C576.73 196.03 577.8 197.1 577.8 198.42Z" fill="white"/><path d="M490.3 206.38C490.3 207.7 489.23 208.77 487.91 208.77C486.59 208.77 485.52 207.7 485.52 206.38C485.52 205.06 486.59 203.99 487.91 203.99C489.23 203.99 490.3 205.06 490.3 206.38Z" fill="white"/><path d="M503.82 208.77C505.14 208.77 506.21 207.7 506.21 206.38C506.21 205.06 505.14 203.99 503.82 203.99C502.5 203.99 501.43 205.06 501.43 206.38C501.43 207.7 502.5 208.77 503.82 208.77Z" fill="white"/><path d="M522.11 206.38C522.11 207.7 521.04 208.77 519.72 208.77C518.4 208.77 517.33 207.7 517.33 206.38C517.33 205.06 518.4 203.99 519.72 203.99C521.04 203.99 522.11 205.06 522.11 206.38Z" fill="white"/><path d="M535.64 208.77C536.96 208.77 538.03 207.7 538.03 206.38C538.03 205.06 536.96 203.99 535.64 203.99C534.32 203.99 533.25 205.06 533.25 206.38C533.25 207.7 534.32 208.77 535.64 208.77Z" fill="white"/><path d="M553.93 206.38C553.93 207.7 552.86 208.77 551.54 208.77C550.22 208.77 549.15 207.7 549.15 206.38C549.15 205.06 550.22 203.99 551.54 203.99C552.86 203.99 553.93 205.06 553.93 206.38Z" fill="white"/><path d="M567.45 208.77C568.77 208.77 569.84 207.7 569.84 206.38C569.84 205.06 568.77 203.99 567.45 203.99C566.13 203.99 565.06 205.06 565.06 206.38C565.06 207.7 566.13 208.77 567.45 208.77Z" fill="white"/><path d="M498.25 214.33C498.25 215.65 497.18 216.72 495.86 216.72C494.54 216.72 493.47 215.65 493.47 214.33C493.47 213.01 494.54 211.94 495.86 211.94C497.18 211.94 498.25 213.01 498.25 214.33Z" fill="white"/><path d="M514.16 214.33C514.16 215.65 513.09 216.72 511.77 216.72C510.45 216.72 509.38 215.65 509.38 214.33C509.38 213.01 510.45 211.94 511.77 211.94C513.09 211.94 514.16 213.01 514.16 214.33Z" fill="white"/><path d="M530.07 214.33C530.07 215.65 529 216.72 527.68 216.72C526.36 216.72 525.29 215.65 525.29 214.33C525.29 213.01 526.36 211.94 527.68 211.94C529 211.94 530.07 213.01 530.07 214.33Z" fill="white"/><path d="M545.98 214.33C545.98 215.65 544.91 216.72 543.59 216.72C542.27 216.72 541.2 215.65 541.2 214.33C541.2 213.01 542.27 211.94 543.59 211.94C544.91 211.94 545.98 213.01 545.98 214.33Z" fill="white"/><path d="M561.89 214.33C561.89 215.65 560.82 216.72 559.5 216.72C558.18 216.72 557.11 215.65 557.11 214.33C557.11 213.01 558.18 211.94 559.5 211.94C560.82 211.94 561.89 213.01 561.89 214.33Z" fill="white"/><path d="M503.82 224.68C505.14 224.68 506.21 223.61 506.21 222.29C506.21 220.97 505.14 219.9 503.82 219.9C502.5 219.9 501.43 220.97 501.43 222.29C501.43 223.61 502.5 224.68 503.82 224.68Z" fill="white"/><path d="M522.11 222.29C522.11 223.61 521.04 224.68 519.72 224.68C518.4 224.68 517.33 223.61 517.33 222.29C517.33 220.97 518.4 219.9 519.72 219.9C521.04 219.9 522.11 220.97 522.11 222.29Z" fill="white"/><path d="M535.64 224.68C536.96 224.68 538.03 223.61 538.03 222.29C538.03 220.97 536.96 219.9 535.64 219.9C534.32 219.9 533.25 220.97 533.25 222.29C533.25 223.61 534.32 224.68 535.64 224.68Z" fill="white"/><path d="M553.93 222.29C553.93 223.61 552.86 224.68 551.54 224.68C550.22 224.68 549.15 223.61 549.15 222.29C549.15 220.97 550.22 219.9 551.54 219.9C552.86 219.9 553.93 220.97 553.93 222.29Z" fill="white"/><path d="M514.16 230.241C514.16 231.561 513.09 232.631 511.77 232.631C510.45 232.631 509.38 231.561 509.38 230.241C509.38 228.921 510.45 227.851 511.77 227.851C513.09 227.851 514.16 228.921 514.16 230.241Z" fill="white"/><path d="M530.07 230.241C530.07 231.561 529 232.631 527.68 232.631C526.36 232.631 525.29 231.561 525.29 230.241C525.29 228.921 526.36 227.851 527.68 227.851C529 227.851 530.07 228.921 530.07 230.241Z" fill="white"/><path d="M545.98 230.241C545.98 231.561 544.91 232.631 543.59 232.631C542.27 232.631 541.2 231.561 541.2 230.241C541.2 228.921 542.27 227.851 543.59 227.851C544.91 227.851 545.98 228.921 545.98 230.241Z" fill="white"/></g></svg>
