<svg width="553" height="549" viewBox="0 0 553 549" fill="none" xmlns="http://www.w3.org/2000/svg"><mask id="mask0_19_5091" style="mask-type:alpha" maskUnits="userSpaceOnUse" x="0" y="0" width="553" height="549"><path d="M553 0H0V549H553V0Z" fill="black"/></mask><g mask="url(#mask0_19_5091)"><path d="M68.83 400.98C70.87 411.36 75.18 421.15 81.63 430.07C88.31 439.31 97 447.22 107.48 453.57C123.74 463.43 142.85 468.64 162.75 468.64C170.58 468.64 178.41 467.81 186.02 466.17C195.52 464.13 205.12 463.13 214.64 463.13C249.85 463.13 283.82 476.71 306.25 500.91C312.97 508.16 320.97 514.62 330.02 520.11C349.87 532.15 373.2 538.51 397.5 538.51C415.66 538.51 433.82 534.85 450.01 527.92C466.73 520.76 481.36 510.09 492.31 497.05C505.42 481.43 512.89 463.11 513.91 444.06C515.61 412.31 535.11 383.18 566.35 365.71C578.32 359.02 589.01 350.28 597.28 340.42C606.4 329.55 612.75 317.49 616.14 304.57C619.42 292.09 619.82 279.34 617.32 266.67C614.83 254 609.57 242.05 601.7 231.16C593.55 219.88 582.93 210.23 570.15 202.47C550.3 190.43 526.97 184.07 502.67 184.07C484.51 184.07 466.35 187.73 450.16 194.66C449.61 194.89 449.07 195.13 448.53 195.37C431.47 202.98 412.87 206.72 394.35 206.72C368.97 206.72 343.74 199.68 322.87 185.93C321.96 185.33 321.01 184.73 320.05 184.15C305.31 175.21 288.68 170.67 270.63 170.67C243.12 170.67 217.16 182.02 201.2 201.04C194.43 209.11 189.91 217.7 187.39 227.3C186.65 230.13 186.1 233 185.76 235.83C181.69 269.93 157.19 299.82 120.97 314.88C106.72 320.81 94.3701 329.69 85.2401 340.55C77.7701 349.45 72.57 359.33 69.79 369.92C67.11 380.14 66.78 390.59 68.82 400.97L68.83 400.98Z" fill="#EAD363"/><mask id="mask1_19_5091" style="mask-type:luminance" maskUnits="userSpaceOnUse" x="342" y="-1" width="260" height="282"><path d="M439.17 0.670053C431.85 1.71005 424.96 3.90007 418.66 7.19007C412.15 10.5901 406.57 15.02 402.1 20.35C395.15 28.63 391.48 38.3701 391.48 48.5001C391.48 52.4901 392.07 56.47 393.22 60.35C394.66 65.19 395.36 70.0801 395.36 74.9301C395.36 92.8601 385.79 110.16 368.73 121.59C363.62 125.01 359.07 129.09 355.2 133.7C346.71 143.81 342.23 155.69 342.23 168.07C342.23 177.32 344.81 186.57 349.69 194.81C354.73 203.33 362.26 210.78 371.45 216.35C382.46 223.03 395.37 226.83 408.8 227.35C431.18 228.22 451.71 238.15 464.02 254.06C468.74 260.15 474.9 265.6 481.84 269.82C489.5 274.47 498 277.7 507.11 279.43C515.91 281.1 524.9 281.3 533.83 280.03C542.76 278.76 551.18 276.08 558.86 272.07C566.81 267.92 573.61 262.51 579.08 256C587.57 245.89 592.05 234.01 592.05 221.63C592.05 212.38 589.47 203.13 584.59 194.89C584.43 194.61 584.26 194.33 584.09 194.06C578.73 185.37 576.09 175.9 576.09 166.47C576.09 153.54 581.05 140.69 590.74 130.06C591.16 129.6 591.59 129.11 591.99 128.63C598.29 121.12 601.49 112.65 601.49 103.46C601.49 89.45 593.49 76.23 580.09 68.1C574.4 64.65 568.35 62.3501 561.58 61.0601C559.59 60.6801 557.56 60.4 555.56 60.23C531.53 58.16 510.46 45.6801 499.84 27.2301C495.66 19.9701 489.4 13.6801 481.74 9.03007C475.46 5.22007 468.5 2.58007 461.04 1.16007C453.83 -0.209926 446.47 -0.369947 439.16 0.670053H439.17Z" fill="white"/></mask><g mask="url(#mask1_19_5091)"><path d="M788.95 99.6199L791.77 102.02L426.69 412.36L423.86 409.96L788.95 99.6199Z" fill="#EFE098"/><path d="M779.52 91.6101L782.35 94.0101L417.26 404.35L414.44 401.95L779.52 91.6101Z" fill="#EFE098"/><path d="M770.1 83.6003L772.92 86.0004L407.84 396.34L405.01 393.94L770.1 83.6003Z" fill="#EFE098"/><path d="M760.67 75.5798L763.5 77.9898L398.41 388.33L395.59 385.92L760.67 75.5798Z" fill="#EFE098"/><path d="M751.25 67.5701L754.07 69.98L388.99 380.32L386.16 377.91L751.25 67.5701Z" fill="#EFE098"/><path d="M741.82 59.5603L744.65 61.9603L379.56 372.3L376.74 369.9L741.82 59.5603Z" fill="#EFE098"/><path d="M732.39 51.5505L735.22 53.9505L370.14 364.291L367.31 361.891L732.39 51.5505Z" fill="#EFE098"/><path d="M722.97 43.5408L725.8 45.9408L360.71 356.281L357.89 353.881L722.97 43.5408Z" fill="#EFE098"/><path d="M713.54 35.5203L716.37 37.9303L351.29 348.27L348.46 345.86L713.54 35.5203Z" fill="#EFE098"/><path d="M704.12 27.5105L706.95 29.9205L341.86 340.261L339.04 337.85L704.12 27.5105Z" fill="#EFE098"/><path d="M694.69 19.5007L697.52 21.9007L332.44 332.241L329.61 329.841L694.69 19.5007Z" fill="#EFE098"/><path d="M685.27 11.49L688.1 13.89L323.01 324.23L320.19 321.83L685.27 11.49Z" fill="#EFE098"/><path d="M675.84 3.48022L678.67 5.88025L313.59 316.22L310.76 313.82L675.84 3.48022Z" fill="#EFE098"/><path d="M666.42 -4.53931L669.25 -2.1293L304.16 308.211L301.33 305.811L666.42 -4.53931Z" fill="#EFE098"/><path d="M656.99 -12.55L659.82 -10.14L294.74 300.2L291.91 297.79L656.99 -12.55Z" fill="#EFE098"/><path d="M647.57 -20.5598L650.4 -18.1598L285.31 292.18L282.48 289.78L647.57 -20.5598Z" fill="#EFE098"/><path d="M638.14 -28.5696L640.97 -26.1696L275.89 284.17L273.06 281.77L638.14 -28.5696Z" fill="#EFE098"/><path d="M628.72 -36.5793L631.55 -34.1794L266.46 276.161L263.63 273.761L628.72 -36.5793Z" fill="#EFE098"/><path d="M619.29 -44.5999L622.12 -42.1898L257.04 268.15L254.21 265.75L619.29 -44.5999Z" fill="#EFE098"/><path d="M609.87 -52.6096L612.7 -50.1996L247.61 260.14L244.78 257.73L609.87 -52.6096Z" fill="#EFE098"/><path d="M600.44 -60.6194L603.27 -58.2194L238.19 252.131L235.36 249.721L600.44 -60.6194Z" fill="#EFE098"/><path d="M591.02 -68.6301L593.84 -66.2301L228.76 244.11L225.93 241.71L591.02 -68.6301Z" fill="#EFE098"/><path d="M581.59 -76.6399L584.42 -74.2399L219.34 236.1L216.51 233.7L581.59 -76.6399Z" fill="#EFE098"/><path d="M572.17 -84.6497L574.99 -82.2496L209.91 228.09L207.08 225.69L572.17 -84.6497Z" fill="#EFE098"/><path d="M562.74 -92.6702L565.57 -90.2602L200.49 220.08L197.66 217.67L562.74 -92.6702Z" fill="#EFE098"/><path d="M553.32 -100.68L556.14 -98.2699L191.06 212.07L188.23 209.66L553.32 -100.68Z" fill="#EFE098"/><path d="M543.89 -108.69L546.72 -106.29L181.63 204.05L178.81 201.65L543.89 -108.69Z" fill="#EFE098"/></g><mask id="mask2_19_5091" style="mask-type:luminance" maskUnits="userSpaceOnUse" x="0" y="268" width="260" height="282"><path d="M97.5101 269.51C90.1901 270.55 83.3001 272.74 77.0001 276.03C70.4901 279.43 64.9101 283.86 60.4401 289.19C53.4901 297.47 49.8201 307.21 49.8201 317.34C49.8201 321.33 50.4101 325.31 51.5601 329.19C53.0001 334.03 53.7001 338.92 53.7001 343.77C53.7001 361.7 44.1301 379 27.0701 390.43C21.9601 393.85 17.4101 397.93 13.5401 402.54C5.0501 412.65 0.570068 424.53 0.570068 436.91C0.570068 446.16 3.15009 455.41 8.03009 463.65C13.0701 472.17 20.6001 479.62 29.7901 485.19C40.8001 491.87 53.7101 495.67 67.1401 496.19C89.5201 497.06 110.05 506.99 122.36 522.9C127.08 528.99 133.24 534.44 140.18 538.66C147.84 543.31 156.34 546.54 165.45 548.27C174.25 549.94 183.24 550.14 192.17 548.87C201.1 547.6 209.52 544.92 217.2 540.91C225.15 536.76 231.95 531.35 237.42 524.84C245.91 514.73 250.39 502.85 250.39 490.47C250.39 481.22 247.81 471.97 242.93 463.73C242.77 463.45 242.6 463.17 242.43 462.9C237.07 454.21 234.43 444.74 234.43 435.31C234.43 422.38 239.39 409.53 249.08 398.9C249.5 398.44 249.93 397.95 250.33 397.47C256.63 389.96 259.83 381.49 259.83 372.3C259.83 358.29 251.83 345.07 238.43 336.94C232.74 333.49 226.69 331.19 219.92 329.9C217.93 329.52 215.9 329.24 213.9 329.07C189.87 327 168.8 314.52 158.18 296.07C154 288.81 147.74 282.52 140.08 277.87C133.8 274.06 126.84 271.42 119.38 270C112.17 268.63 104.81 268.47 97.5001 269.51H97.5101Z" fill="white"/></mask><g mask="url(#mask2_19_5091)"><path d="M447.29 368.469L450.11 370.87L85.0302 681.209L82.2002 678.809L447.29 368.469Z" fill="#EFAFAB"/><path d="M437.86 360.45L440.69 362.86L75.6003 673.2L72.7803 670.79L437.86 360.45Z" fill="#EFAFAB"/><path d="M428.44 352.44L431.26 354.85L66.1801 665.19L63.3501 662.78L428.44 352.44Z" fill="#EFAFAB"/><path d="M419.01 344.429L421.84 346.829L56.7502 657.169L53.9302 654.769L419.01 344.429Z" fill="#EFAFAB"/><path d="M409.59 336.42L412.41 338.82L47.33 649.16L44.5 646.76L409.59 336.42Z" fill="#EFAFAB"/><path d="M400.16 328.41L402.99 330.81L37.9001 641.15L35.0801 638.75L400.16 328.41Z" fill="#EFAFAB"/><path d="M390.74 320.39L393.56 322.8L28.4802 633.14L25.6501 630.74L390.74 320.39Z" fill="#EFAFAB"/><path d="M381.31 312.38L384.14 314.79L19.0502 625.13L16.2302 622.72L381.31 312.38Z" fill="#EFAFAB"/><path d="M371.88 304.37L374.71 306.77L9.63025 617.11L6.80029 614.71L371.88 304.37Z" fill="#EFAFAB"/><path d="M362.46 296.36L365.29 298.76L0.200134 609.1L-2.61987 606.7L362.46 296.36Z" fill="#EFAFAB"/><path d="M353.03 288.35L355.86 290.75L-9.21979 601.09L-12.0498 598.69L353.03 288.35Z" fill="#EFAFAB"/><path d="M343.61 280.33L346.44 282.74L-18.6497 593.08L-21.4697 590.68L343.61 280.33Z" fill="#EFAFAB"/><path d="M334.18 272.32L337.01 274.73L-28.0699 585.07L-30.8999 582.66L334.18 272.32Z" fill="#EFAFAB"/><path d="M324.76 264.31L327.59 266.71L-37.4998 577.06L-40.3198 574.65L324.76 264.31Z" fill="#EFAFAB"/><path d="M315.33 256.3L318.16 258.7L-46.92 569.04L-49.75 566.64L315.33 256.3Z" fill="#EFAFAB"/><path d="M305.91 248.29L308.74 250.69L-56.3499 561.03L-59.1799 558.63L305.91 248.29Z" fill="#EFAFAB"/><path d="M296.48 240.28L299.31 242.68L-65.7698 553.02L-68.5999 550.62L296.48 240.28Z" fill="#EFAFAB"/><path d="M287.06 232.26L289.89 234.669L-75.1998 545.01L-78.0298 542.599L287.06 232.26Z" fill="#EFAFAB"/><path d="M277.63 224.25L280.46 226.66L-84.6198 537L-87.4497 534.59L277.63 224.25Z" fill="#EFAFAB"/><path d="M268.21 216.24L271.04 218.64L-94.0499 528.98L-96.8799 526.58L268.21 216.24Z" fill="#EFAFAB"/><path d="M258.78 208.23L261.61 210.63L-103.47 520.97L-106.3 518.57L258.78 208.23Z" fill="#EFAFAB"/><path d="M249.36 200.219L252.18 202.62L-112.9 512.959L-115.73 510.56L249.36 200.219Z" fill="#EFAFAB"/><path d="M239.93 192.2L242.76 194.61L-122.32 504.95L-125.15 502.54L239.93 192.2Z" fill="#EFAFAB"/><path d="M230.51 184.19L233.33 186.6L-131.75 496.94L-134.58 494.53L230.51 184.19Z" fill="#EFAFAB"/><path d="M221.08 176.179L223.91 178.579L-141.17 488.919L-144 486.519L221.08 176.179Z" fill="#EFAFAB"/><path d="M211.66 168.17L214.48 170.57L-150.6 480.91L-153.43 478.51L211.66 168.17Z" fill="#EFAFAB"/><path d="M202.23 160.16L205.06 162.56L-160.02 472.9L-162.85 470.5L202.23 160.16Z" fill="#EFAFAB"/></g><path d="M319.74 275.52C319.74 276.84 318.67 277.91 317.35 277.91C316.03 277.91 314.96 276.84 314.96 275.52C314.96 274.2 316.03 273.13 317.35 273.13C318.67 273.13 319.74 274.2 319.74 275.52Z" fill="white"/><path d="M335.65 275.52C335.65 276.84 334.58 277.91 333.26 277.91C331.94 277.91 330.87 276.84 330.87 275.52C330.87 274.2 331.94 273.13 333.26 273.13C334.58 273.13 335.65 274.2 335.65 275.52Z" fill="white"/><path d="M351.56 275.52C351.56 276.84 350.49 277.91 349.17 277.91C347.85 277.91 346.78 276.84 346.78 275.52C346.78 274.2 347.85 273.13 349.17 273.13C350.49 273.13 351.56 274.2 351.56 275.52Z" fill="white"/><path d="M367.46 275.52C367.46 276.84 366.39 277.91 365.07 277.91C363.75 277.91 362.68 276.84 362.68 275.52C362.68 274.2 363.75 273.13 365.07 273.13C366.39 273.13 367.46 274.2 367.46 275.52Z" fill="white"/><path d="M383.37 275.52C383.37 276.84 382.3 277.91 380.98 277.91C379.66 277.91 378.59 276.84 378.59 275.52C378.59 274.2 379.66 273.13 380.98 273.13C382.3 273.13 383.37 274.2 383.37 275.52Z" fill="white"/><path d="M399.28 275.52C399.28 276.84 398.21 277.91 396.89 277.91C395.57 277.91 394.5 276.84 394.5 275.52C394.5 274.2 395.57 273.13 396.89 273.13C398.21 273.13 399.28 274.2 399.28 275.52Z" fill="white"/><path d="M415.19 275.52C415.19 276.84 414.12 277.91 412.8 277.91C411.48 277.91 410.41 276.84 410.41 275.52C410.41 274.2 411.48 273.13 412.8 273.13C414.12 273.13 415.19 274.2 415.19 275.52Z" fill="white"/><path d="M327.69 283.47C327.69 284.79 326.62 285.86 325.3 285.86C323.98 285.86 322.91 284.79 322.91 283.47C322.91 282.15 323.98 281.08 325.3 281.08C326.62 281.08 327.69 282.15 327.69 283.47Z" fill="white"/><path d="M343.6 283.47C343.6 284.79 342.53 285.86 341.21 285.86C339.89 285.86 338.82 284.79 338.82 283.47C338.82 282.15 339.89 281.08 341.21 281.08C342.53 281.08 343.6 282.15 343.6 283.47Z" fill="white"/><path d="M359.51 283.47C359.51 284.79 358.44 285.86 357.12 285.86C355.8 285.86 354.73 284.79 354.73 283.47C354.73 282.15 355.8 281.08 357.12 281.08C358.44 281.08 359.51 282.15 359.51 283.47Z" fill="white"/><path d="M375.42 283.47C375.42 284.79 374.35 285.86 373.03 285.86C371.71 285.86 370.64 284.79 370.64 283.47C370.64 282.15 371.71 281.08 373.03 281.08C374.35 281.08 375.42 282.15 375.42 283.47Z" fill="white"/><path d="M391.33 283.47C391.33 284.79 390.26 285.86 388.94 285.86C387.62 285.86 386.55 284.79 386.55 283.47C386.55 282.15 387.62 281.08 388.94 281.08C390.26 281.08 391.33 282.15 391.33 283.47Z" fill="white"/><path d="M407.24 283.47C407.24 284.79 406.17 285.86 404.85 285.86C403.53 285.86 402.46 284.79 402.46 283.47C402.46 282.15 403.53 281.08 404.85 281.08C406.17 281.08 407.24 282.15 407.24 283.47Z" fill="white"/><path d="M319.74 291.42C319.74 292.74 318.67 293.81 317.35 293.81C316.03 293.81 314.96 292.74 314.96 291.42C314.96 290.1 316.03 289.03 317.35 289.03C318.67 289.03 319.74 290.1 319.74 291.42Z" fill="white"/><path d="M335.65 291.42C335.65 292.74 334.58 293.81 333.26 293.81C331.94 293.81 330.87 292.74 330.87 291.42C330.87 290.1 331.94 289.03 333.26 289.03C334.58 289.03 335.65 290.1 335.65 291.42Z" fill="white"/><path d="M351.56 291.42C351.56 292.74 350.49 293.81 349.17 293.81C347.85 293.81 346.78 292.74 346.78 291.42C346.78 290.1 347.85 289.03 349.17 289.03C350.49 289.03 351.56 290.1 351.56 291.42Z" fill="white"/><path d="M367.46 291.42C367.46 292.74 366.39 293.81 365.07 293.81C363.75 293.81 362.68 292.74 362.68 291.42C362.68 290.1 363.75 289.03 365.07 289.03C366.39 289.03 367.46 290.1 367.46 291.42Z" fill="white"/><path d="M383.37 291.42C383.37 292.74 382.3 293.81 380.98 293.81C379.66 293.81 378.59 292.74 378.59 291.42C378.59 290.1 379.66 289.03 380.98 289.03C382.3 289.03 383.37 290.1 383.37 291.42Z" fill="white"/><path d="M399.28 291.42C399.28 292.74 398.21 293.81 396.89 293.81C395.57 293.81 394.5 292.74 394.5 291.42C394.5 290.1 395.57 289.03 396.89 289.03C398.21 289.03 399.28 290.1 399.28 291.42Z" fill="white"/><path d="M415.19 291.42C415.19 292.74 414.12 293.81 412.8 293.81C411.48 293.81 410.41 292.74 410.41 291.42C410.41 290.1 411.48 289.03 412.8 289.03C414.12 289.03 415.19 290.1 415.19 291.42Z" fill="white"/><path d="M325.31 301.77C326.63 301.77 327.7 300.7 327.7 299.38C327.7 298.06 326.63 296.99 325.31 296.99C323.99 296.99 322.92 298.06 322.92 299.38C322.92 300.7 323.99 301.77 325.31 301.77Z" fill="white"/><path d="M343.6 299.38C343.6 300.7 342.53 301.77 341.21 301.77C339.89 301.77 338.82 300.7 338.82 299.38C338.82 298.06 339.89 296.99 341.21 296.99C342.53 296.99 343.6 298.06 343.6 299.38Z" fill="white"/><path d="M359.51 299.38C359.51 300.7 358.44 301.77 357.12 301.77C355.8 301.77 354.73 300.7 354.73 299.38C354.73 298.06 355.8 296.99 357.12 296.99C358.44 296.99 359.51 298.06 359.51 299.38Z" fill="white"/><path d="M373.03 301.77C374.35 301.77 375.42 300.7 375.42 299.38C375.42 298.06 374.35 296.99 373.03 296.99C371.71 296.99 370.64 298.06 370.64 299.38C370.64 300.7 371.71 301.77 373.03 301.77Z" fill="white"/><path d="M388.94 301.77C390.26 301.77 391.33 300.7 391.33 299.38C391.33 298.06 390.26 296.99 388.94 296.99C387.62 296.99 386.55 298.06 386.55 299.38C386.55 300.7 387.62 301.77 388.94 301.77Z" fill="white"/><path d="M407.24 299.38C407.24 300.7 406.17 301.77 404.85 301.77C403.53 301.77 402.46 300.7 402.46 299.38C402.46 298.06 403.53 296.99 404.85 296.99C406.17 296.99 407.24 298.06 407.24 299.38Z" fill="white"/><path d="M317.35 309.72C318.67 309.72 319.74 308.65 319.74 307.33C319.74 306.01 318.67 304.94 317.35 304.94C316.03 304.94 314.96 306.01 314.96 307.33C314.96 308.65 316.03 309.72 317.35 309.72Z" fill="white"/><path d="M335.65 307.33C335.65 308.65 334.58 309.72 333.26 309.72C331.94 309.72 330.87 308.65 330.87 307.33C330.87 306.01 331.94 304.94 333.26 304.94C334.58 304.94 335.65 306.01 335.65 307.33Z" fill="white"/><path d="M349.17 309.72C350.49 309.72 351.56 308.65 351.56 307.33C351.56 306.01 350.49 304.94 349.17 304.94C347.85 304.94 346.78 306.01 346.78 307.33C346.78 308.65 347.85 309.72 349.17 309.72Z" fill="white"/><path d="M367.46 307.33C367.46 308.65 366.39 309.72 365.07 309.72C363.75 309.72 362.68 308.65 362.68 307.33C362.68 306.01 363.75 304.94 365.07 304.94C366.39 304.94 367.46 306.01 367.46 307.33Z" fill="white"/><path d="M380.99 309.72C382.31 309.72 383.38 308.65 383.38 307.33C383.38 306.01 382.31 304.94 380.99 304.94C379.67 304.94 378.6 306.01 378.6 307.33C378.6 308.65 379.67 309.72 380.99 309.72Z" fill="white"/><path d="M396.9 309.72C398.22 309.72 399.29 308.65 399.29 307.33C399.29 306.01 398.22 304.94 396.9 304.94C395.58 304.94 394.51 306.01 394.51 307.33C394.51 308.65 395.58 309.72 396.9 309.72Z" fill="white"/><path d="M412.8 309.72C414.12 309.72 415.19 308.65 415.19 307.33C415.19 306.01 414.12 304.94 412.8 304.94C411.48 304.94 410.41 306.01 410.41 307.33C410.41 308.65 411.48 309.72 412.8 309.72Z" fill="white"/><path d="M325.31 317.68C326.63 317.68 327.7 316.61 327.7 315.29C327.7 313.97 326.63 312.9 325.31 312.9C323.99 312.9 322.92 313.97 322.92 315.29C322.92 316.61 323.99 317.68 325.31 317.68Z" fill="white"/><path d="M343.6 315.29C343.6 316.61 342.53 317.68 341.21 317.68C339.89 317.68 338.82 316.61 338.82 315.29C338.82 313.97 339.89 312.9 341.21 312.9C342.53 312.9 343.6 313.97 343.6 315.29Z" fill="white"/><path d="M359.51 315.29C359.51 316.61 358.44 317.68 357.12 317.68C355.8 317.68 354.73 316.61 354.73 315.29C354.73 313.97 355.8 312.9 357.12 312.9C358.44 312.9 359.51 313.97 359.51 315.29Z" fill="white"/><path d="M373.03 317.68C374.35 317.68 375.42 316.61 375.42 315.29C375.42 313.97 374.35 312.9 373.03 312.9C371.71 312.9 370.64 313.97 370.64 315.29C370.64 316.61 371.71 317.68 373.03 317.68Z" fill="white"/><path d="M388.94 317.68C390.26 317.68 391.33 316.61 391.33 315.29C391.33 313.97 390.26 312.9 388.94 312.9C387.62 312.9 386.55 313.97 386.55 315.29C386.55 316.61 387.62 317.68 388.94 317.68Z" fill="white"/><path d="M407.24 315.29C407.24 316.61 406.17 317.68 404.85 317.68C403.53 317.68 402.46 316.61 402.46 315.29C402.46 313.97 403.53 312.9 404.85 312.9C406.17 312.9 407.24 313.97 407.24 315.29Z" fill="white"/><path d="M335.65 323.24C335.65 324.56 334.58 325.63 333.26 325.63C331.94 325.63 330.87 324.56 330.87 323.24C330.87 321.92 331.94 320.85 333.26 320.85C334.58 320.85 335.65 321.92 335.65 323.24Z" fill="white"/><path d="M351.56 323.24C351.56 324.56 350.49 325.63 349.17 325.63C347.85 325.63 346.78 324.56 346.78 323.24C346.78 321.92 347.85 320.85 349.17 320.85C350.49 320.85 351.56 321.92 351.56 323.24Z" fill="white"/><path d="M367.46 323.24C367.46 324.56 366.39 325.63 365.07 325.63C363.75 325.63 362.68 324.56 362.68 323.24C362.68 321.92 363.75 320.85 365.07 320.85C366.39 320.85 367.46 321.92 367.46 323.24Z" fill="white"/><path d="M383.37 323.24C383.37 324.56 382.3 325.63 380.98 325.63C379.66 325.63 378.59 324.56 378.59 323.24C378.59 321.92 379.66 320.85 380.98 320.85C382.3 320.85 383.37 321.92 383.37 323.24Z" fill="white"/><path d="M399.28 323.24C399.28 324.56 398.21 325.63 396.89 325.63C395.57 325.63 394.5 324.56 394.5 323.24C394.5 321.92 395.57 320.85 396.89 320.85C398.21 320.85 399.28 321.92 399.28 323.24Z" fill="white"/><path d="M343.6 331.2C343.6 332.52 342.53 333.59 341.21 333.59C339.89 333.59 338.82 332.52 338.82 331.2C338.82 329.88 339.89 328.81 341.21 328.81C342.53 328.81 343.6 329.88 343.6 331.2Z" fill="white"/><path d="M359.51 331.2C359.51 332.52 358.44 333.59 357.12 333.59C355.8 333.59 354.73 332.52 354.73 331.2C354.73 329.88 355.8 328.81 357.12 328.81C358.44 328.81 359.51 329.88 359.51 331.2Z" fill="white"/><path d="M373.03 333.59C374.35 333.59 375.42 332.52 375.42 331.2C375.42 329.88 374.35 328.81 373.03 328.81C371.71 328.81 370.64 329.88 370.64 331.2C370.64 332.52 371.71 333.59 373.03 333.59Z" fill="white"/><path d="M388.94 333.59C390.26 333.59 391.33 332.52 391.33 331.2C391.33 329.88 390.26 328.81 388.94 328.81C387.62 328.81 386.55 329.88 386.55 331.2C386.55 332.52 387.62 333.59 388.94 333.59Z" fill="white"/><path d="M351.56 339.15C351.56 340.47 350.49 341.54 349.17 341.54C347.85 341.54 346.78 340.47 346.78 339.15C346.78 337.83 347.85 336.76 349.17 336.76C350.49 336.76 351.56 337.83 351.56 339.15Z" fill="white"/><path d="M367.46 339.15C367.46 340.47 366.39 341.54 365.07 341.54C363.75 341.54 362.68 340.47 362.68 339.15C362.68 337.83 363.75 336.76 365.07 336.76C366.39 336.76 367.46 337.83 367.46 339.15Z" fill="white"/><path d="M383.37 339.15C383.37 340.47 382.3 341.54 380.98 341.54C379.66 341.54 378.59 340.47 378.59 339.15C378.59 337.83 379.66 336.76 380.98 336.76C382.3 336.76 383.37 337.83 383.37 339.15Z" fill="white"/></g><path d="M349.17 246.09C350.49 246.09 351.56 245.02 351.56 243.7C351.56 242.38 350.49 241.31 349.17 241.31C347.85 241.31 346.78 242.38 346.78 243.7C346.78 245.02 347.85 246.09 349.17 246.09Z" fill="white"/><path d="M367.46 243.7C367.46 245.02 366.39 246.09 365.07 246.09C363.75 246.09 362.68 245.02 362.68 243.7C362.68 242.38 363.75 241.31 365.07 241.31C366.39 241.31 367.46 242.38 367.46 243.7Z" fill="white"/><path d="M380.99 246.09C382.31 246.09 383.38 245.02 383.38 243.7C383.38 242.38 382.31 241.31 380.99 241.31C379.67 241.31 378.6 242.38 378.6 243.7C378.6 245.02 379.67 246.09 380.99 246.09Z" fill="white"/><path d="M343.6 251.65C343.6 252.97 342.53 254.04 341.21 254.04C339.89 254.04 338.82 252.97 338.82 251.65C338.82 250.33 339.89 249.26 341.21 249.26C342.53 249.26 343.6 250.33 343.6 251.65Z" fill="white"/><path d="M359.51 251.65C359.51 252.97 358.44 254.04 357.12 254.04C355.8 254.04 354.73 252.97 354.73 251.65C354.73 250.33 355.8 249.26 357.12 249.26C358.44 249.26 359.51 250.33 359.51 251.65Z" fill="white"/><path d="M375.42 251.65C375.42 252.97 374.35 254.04 373.03 254.04C371.71 254.04 370.64 252.97 370.64 251.65C370.64 250.33 371.71 249.26 373.03 249.26C374.35 249.26 375.42 250.33 375.42 251.65Z" fill="white"/><path d="M391.33 251.65C391.33 252.97 390.26 254.04 388.94 254.04C387.62 254.04 386.55 252.97 386.55 251.65C386.55 250.33 387.62 249.26 388.94 249.26C390.26 249.26 391.33 250.33 391.33 251.65Z" fill="white"/><path d="M335.65 259.61C335.65 260.93 334.58 262 333.26 262C331.94 262 330.87 260.93 330.87 259.61C330.87 258.29 331.94 257.22 333.26 257.22C334.58 257.22 335.65 258.29 335.65 259.61Z" fill="white"/><path d="M351.56 259.61C351.56 260.93 350.49 262 349.17 262C347.85 262 346.78 260.93 346.78 259.61C346.78 258.29 347.85 257.22 349.17 257.22C350.49 257.22 351.56 258.29 351.56 259.61Z" fill="white"/><path d="M367.46 259.61C367.46 260.93 366.39 262 365.07 262C363.75 262 362.68 260.93 362.68 259.61C362.68 258.29 363.75 257.22 365.07 257.22C366.39 257.22 367.46 258.29 367.46 259.61Z" fill="white"/><path d="M383.37 259.61C383.37 260.93 382.3 262 380.98 262C379.66 262 378.59 260.93 378.59 259.61C378.59 258.29 379.66 257.22 380.98 257.22C382.3 257.22 383.37 258.29 383.37 259.61Z" fill="white"/><path d="M399.28 259.61C399.28 260.93 398.21 262 396.89 262C395.57 262 394.5 260.93 394.5 259.61C394.5 258.29 395.57 257.22 396.89 257.22C398.21 257.22 399.28 258.29 399.28 259.61Z" fill="white"/><path d="M325.31 269.95C326.63 269.95 327.7 268.88 327.7 267.56C327.7 266.24 326.63 265.17 325.31 265.17C323.99 265.17 322.92 266.24 322.92 267.56C322.92 268.88 323.99 269.95 325.31 269.95Z" fill="white"/><path d="M343.6 267.56C343.6 268.88 342.53 269.95 341.21 269.95C339.89 269.95 338.82 268.88 338.82 267.56C338.82 266.24 339.89 265.17 341.21 265.17C342.53 265.17 343.6 266.24 343.6 267.56Z" fill="white"/><path d="M359.51 267.56C359.51 268.88 358.44 269.95 357.12 269.95C355.8 269.95 354.73 268.88 354.73 267.56C354.73 266.24 355.8 265.17 357.12 265.17C358.44 265.17 359.51 266.24 359.51 267.56Z" fill="white"/><path d="M373.03 269.95C374.35 269.95 375.42 268.88 375.42 267.56C375.42 266.24 374.35 265.17 373.03 265.17C371.71 265.17 370.64 266.24 370.64 267.56C370.64 268.88 371.71 269.95 373.03 269.95Z" fill="white"/><path d="M388.94 269.95C390.26 269.95 391.33 268.88 391.33 267.56C391.33 266.24 390.26 265.17 388.94 265.17C387.62 265.17 386.55 266.24 386.55 267.56C386.55 268.88 387.62 269.95 388.94 269.95Z" fill="white"/><path d="M407.24 267.56C407.24 268.88 406.17 269.95 404.85 269.95C403.53 269.95 402.46 268.88 402.46 267.56C402.46 266.24 403.53 265.17 404.85 265.17C406.17 265.17 407.24 266.24 407.24 267.56Z" fill="white"/></svg>
