<svg width="164" height="8" viewBox="0 0 164 8" fill="none" xmlns="http://www.w3.org/2000/svg"><path d="M0.139648 0.379883C2.61965 0.379883 2.6196 2.99976 5.0896 2.99976C7.5696 2.99976 7.56961 0.379883 10.0396 0.379883C12.5096 0.379883 12.5196 2.99976 14.9896 2.99976C17.4596 2.99976 17.4696 0.379883 19.9496 0.379883C22.4296 0.379883 22.4296 2.99976 24.8996 2.99976C27.3796 2.99976 27.3796 0.379883 29.8496 0.379883C32.3296 0.379883 32.3296 2.99976 34.8096 2.99976C37.2896 2.99976 37.2896 0.379883 39.7696 0.379883C42.2496 0.379883 42.2496 2.99976 44.7196 2.99976C47.1996 2.99976 47.1996 0.379883 49.6796 0.379883C52.1596 0.379883 52.1596 2.99976 54.6396 2.99976C57.1196 2.99976 57.1196 0.379883 59.5996 0.379883C62.0796 0.379883 62.0796 2.99976 64.5596 2.99976C67.0396 2.99976 67.0396 0.379883 69.5196 0.379883C71.9996 0.379883 71.9996 2.99976 74.4796 2.99976C76.9596 2.99976 76.9596 0.379883 79.4396 0.379883C81.9196 0.379883 81.9196 2.99976 84.3996 2.99976C86.8796 2.99976 86.8796 0.379883 89.3596 0.379883C91.8396 0.379883 91.8396 2.99976 94.3196 2.99976C96.7996 2.99976 96.7996 0.379883 99.2796 0.379883C101.76 0.379883 101.76 2.99976 104.24 2.99976C106.72 2.99976 106.72 0.379883 109.19 0.379883C111.67 0.379883 111.67 2.99976 114.15 2.99976C116.63 2.99976 116.63 0.379883 119.11 0.379883C121.59 0.379883 121.59 2.99976 124.07 2.99976C126.55 2.99976 126.55 0.379883 129.03 0.379883C131.51 0.379883 131.51 2.99976 133.99 2.99976C136.47 2.99976 136.47 0.379883 138.95 0.379883C141.43 0.379883 141.43 2.99976 143.91 2.99976C146.39 2.99976 146.39 0.379883 148.87 0.379883C151.35 0.379883 151.35 2.99976 153.83 2.99976C156.31 2.99976 156.31 0.379883 158.8 0.379883C161.28 0.379883 161.28 2.99976 163.77 2.99976" stroke="#E8ADA6" stroke-width="0.76" stroke-miterlimit="10"/><path d="M0 4.93066C2.48 4.93066 2.48001 7.55054 4.95001 7.55054C7.43001 7.55054 7.42996 4.93066 9.89996 4.93066C12.37 4.93066 12.38 7.55054 14.85 7.55054C17.33 7.55054 17.33 4.93066 19.81 4.93066C22.29 4.93066 22.29 7.55054 24.76 7.55054C27.24 7.55054 27.24 4.93066 29.71 4.93066C32.18 4.93066 32.19 7.55054 34.67 7.55054C37.15 7.55054 37.15 4.93066 39.63 4.93066C42.11 4.93066 42.11 7.55054 44.58 7.55054C47.05 7.55054 47.06 4.93066 49.54 4.93066C52.02 4.93066 52.02 7.55054 54.5 7.55054C56.98 7.55054 56.98 4.93066 59.46 4.93066C61.94 4.93066 61.94 7.55054 64.42 7.55054C66.9 7.55054 66.9 4.93066 69.38 4.93066C71.86 4.93066 71.86 7.55054 74.34 7.55054C76.82 7.55054 76.82 4.93066 79.3 4.93066C81.78 4.93066 81.78 7.55054 84.26 7.55054C86.74 7.55054 86.74 4.93066 89.22 4.93066C91.7 4.93066 91.7 7.55054 94.18 7.55054C96.66 7.55054 96.66 4.93066 99.14 4.93066C101.62 4.93066 101.62 7.55054 104.1 7.55054C106.58 7.55054 106.58 4.93066 109.05 4.93066C111.53 4.93066 111.53 7.55054 114.01 7.55054C116.49 7.55054 116.49 4.93066 118.97 4.93066C121.45 4.93066 121.45 7.55054 123.93 7.55054C126.41 7.55054 126.41 4.93066 128.89 4.93066C131.37 4.93066 131.37 7.55054 133.85 7.55054C136.33 7.55054 136.33 4.93066 138.81 4.93066C141.29 4.93066 141.29 7.55054 143.77 7.55054C146.25 7.55054 146.25 4.93066 148.73 4.93066C151.21 4.93066 151.21 7.55054 153.69 7.55054C156.17 7.55054 156.17 4.93066 158.66 4.93066C161.15 4.93066 161.14 7.55054 163.63 7.55054" stroke="#E8ADA6" stroke-width="0.76" stroke-miterlimit="10"/></svg>
