<svg width="325" height="195" viewBox="0 0 325 195" fill="none" xmlns="http://www.w3.org/2000/svg"><path d="M15.0521 143.413C14.8521 146.013 15.2421 148.583 16.2121 151.073C17.2121 153.643 18.7821 156.003 20.8921 158.093C24.1621 161.333 28.4321 163.603 33.2321 164.683C35.1221 165.103 37.0621 165.323 39.0121 165.343C41.4421 165.363 43.8221 165.643 46.1221 166.153C54.6221 168.043 61.9221 173.133 65.7221 180.133C66.8621 182.233 68.3621 184.213 70.1821 186.013C74.1721 189.963 79.3821 192.743 85.2521 194.053C89.6321 195.033 94.2621 195.133 98.6321 194.343C103.142 193.533 107.382 191.763 110.892 189.223C115.092 186.183 118.112 182.203 119.632 177.693C122.152 170.183 128.792 164.253 137.502 161.743C140.832 160.783 144.002 159.263 146.652 157.353C149.582 155.243 151.912 152.693 153.592 149.783C155.212 146.973 156.152 143.933 156.402 140.763C156.642 137.593 156.172 134.453 154.992 131.413C153.772 128.273 151.852 125.393 149.282 122.843C145.292 118.893 140.082 116.113 134.212 114.803C129.832 113.823 125.202 113.723 120.832 114.513C120.682 114.543 120.542 114.563 120.392 114.593C115.772 115.493 111.032 115.393 106.562 114.393C100.432 113.023 94.8121 109.983 90.6921 105.563C90.5121 105.373 90.3221 105.173 90.1321 104.983C87.1721 102.043 83.4521 100.063 79.1021 99.0928C72.4621 97.6128 65.4421 98.9326 60.3221 102.633C58.1521 104.203 56.4921 106.013 55.2421 108.183C54.8721 108.823 54.5521 109.483 54.2821 110.143C51.0321 118.093 43.1321 123.933 33.3921 125.593C29.5621 126.243 25.9821 127.703 23.0621 129.823C20.6621 131.553 18.7521 133.643 17.3821 136.023C16.0521 138.323 15.2821 140.813 15.0821 143.413H15.0521Z" fill="#EFAFAB"/><mask id="mask0_49_6900" style="mask-type:luminance" maskUnits="userSpaceOnUse" x="0" y="70" width="86" height="76"><path d="M85.622 102.852C85.402 100.752 84.8221 98.7323 83.9121 96.8523C82.9621 94.9023 81.702 93.2023 80.142 91.7723C77.732 89.5623 74.8421 88.2422 71.7821 87.9522C70.5821 87.8422 69.372 87.8923 68.182 88.1023C66.702 88.3723 65.222 88.4323 63.752 88.2923C58.342 87.7723 53.242 84.5621 50.002 79.3921C49.032 77.8421 47.862 76.4322 46.512 75.2022C43.572 72.5022 40.032 70.8923 36.302 70.5323C33.512 70.2623 30.682 70.7321 28.142 71.8821C25.512 73.0721 23.162 74.9922 21.372 77.4322C19.222 80.3622 17.912 83.9122 17.582 87.7122C17.042 94.0322 13.792 99.5724 8.83204 102.612C6.93204 103.772 5.21203 105.362 3.85203 107.212C2.35203 109.252 1.27204 111.572 0.642037 114.102C0.0320369 116.552 -0.147952 119.092 0.122048 121.662C0.392048 124.232 1.09204 126.702 2.21204 128.992C3.36204 131.362 4.91205 133.452 6.81205 135.192C9.75205 137.892 13.292 139.502 17.022 139.862C19.812 140.132 22.642 139.662 25.182 138.512C25.272 138.472 25.352 138.432 25.442 138.392C28.132 137.122 31.022 136.642 33.872 136.912C37.772 137.282 41.592 139.062 44.682 142.112C44.812 142.242 44.9621 142.382 45.1021 142.512C47.2921 144.512 49.802 145.662 52.582 145.932C56.812 146.332 60.902 144.442 63.522 140.882C64.632 139.372 65.402 137.712 65.872 135.832C66.012 135.282 66.122 134.712 66.202 134.152C67.132 127.392 71.1521 121.772 76.8521 119.292C79.0921 118.312 81.072 116.722 82.572 114.682C83.802 113.012 84.682 111.112 85.202 109.032C85.702 107.032 85.842 104.942 85.622 102.842V102.852Z" fill="white"/></mask><g mask="url(#mask0_49_6900)"><path d="M51.392 199.222L50.632 199.952L-38.478 87.4624L-37.708 86.7324L51.392 199.222Z" fill="#E09F9D"/><path d="M53.932 196.772L53.172 197.512L-35.938 85.0222L-35.178 84.2822L53.932 196.772Z" fill="#E09F9D"/><path d="M56.4621 194.332L55.7021 195.062L-33.3979 82.5718L-32.6379 81.8418L56.4621 194.332Z" fill="#E09F9D"/><path d="M59.0018 191.892L58.2418 192.622L-30.8682 80.1323L-30.1082 79.4023L59.0018 191.892Z" fill="#E09F9D"/><path d="M61.5319 189.442L60.7719 190.182L-28.3281 77.6919L-27.5681 76.9619L61.5319 189.442Z" fill="#E09F9D"/><path d="M64.0719 187.002L63.3119 187.732L-25.7981 75.2517L-25.0381 74.5117L64.0719 187.002Z" fill="#E09F9D"/><path d="M66.602 184.562L65.8419 185.292L-23.2581 72.8022L-22.4981 72.0723L66.602 184.562Z" fill="#E09F9D"/><path d="M69.142 182.112L68.382 182.852L-20.728 70.3621L-19.968 69.6318L69.142 182.112Z" fill="#E09F9D"/><path d="M71.682 179.672L70.922 180.402L-18.188 67.9216L-17.428 67.1816L71.682 179.672Z" fill="#E09F9D"/><path d="M74.212 177.232L73.452 177.962L-15.658 65.4722L-14.888 64.7422L74.212 177.232Z" fill="#E09F9D"/><path d="M76.7518 174.792L75.9918 175.522L-13.1182 63.0317L-12.3582 62.3018L76.7518 174.792Z" fill="#E09F9D"/><path d="M79.2819 172.342L78.5219 173.082L-10.5781 60.5916L-9.81812 59.8516L79.2819 172.342Z" fill="#E09F9D"/><path d="M81.8219 169.902L81.0619 170.632L-8.0481 58.1421L-7.28809 57.4121L81.8219 169.902Z" fill="#E09F9D"/><path d="M84.352 167.462L83.5919 168.192L-5.50806 55.7017L-4.74808 54.9717L84.352 167.462Z" fill="#E09F9D"/><path d="M86.892 165.012L86.132 165.752L-2.97803 53.2622L-2.21802 52.5322L86.892 165.012Z" fill="#E09F9D"/><path d="M89.422 162.572L88.662 163.302L-0.437988 50.822L0.321991 50.082L89.422 162.572Z" fill="#E09F9D"/><path d="M91.962 160.132L91.202 160.862L2.09204 48.3716L2.85202 47.6416L91.962 160.132Z" fill="#E09F9D"/><path d="M94.5018 157.682L93.7319 158.422L4.63184 45.9321L5.39185 45.2021L94.5018 157.682Z" fill="#E09F9D"/><path d="M97.0319 155.242L96.2719 155.972L7.16187 43.4919L7.93188 42.752L97.0319 155.242Z" fill="#E09F9D"/><path d="M99.5719 152.802L98.8119 153.532L9.7019 41.0425L10.4619 40.3125L99.5719 152.802Z" fill="#E09F9D"/><path d="M102.102 150.362L101.342 151.092L12.2419 38.6023L13.0019 37.8721L102.102 150.362Z" fill="#E09F9D"/><path d="M104.642 147.912L103.882 148.652L14.772 36.1619L15.532 35.4219L104.642 147.912Z" fill="#E09F9D"/><path d="M107.172 145.472L106.412 146.202L17.312 33.7124L18.072 32.9824L107.172 145.472Z" fill="#E09F9D"/><path d="M109.712 143.032L108.952 143.762L19.842 31.272L20.602 30.542L109.712 143.032Z" fill="#E09F9D"/><path d="M112.242 140.582L111.482 141.322L22.3818 28.8315L23.1418 28.1016L112.242 140.582Z" fill="#E09F9D"/><path d="M114.782 138.142L114.022 138.872L24.9119 26.3923L25.6719 25.6523L114.782 138.142Z" fill="#E09F9D"/><path d="M117.322 135.702L116.552 136.432L27.4519 23.9419L28.2119 23.2119L117.322 135.702Z" fill="#E09F9D"/></g><mask id="mask1_49_6900" style="mask-type:luminance" maskUnits="userSpaceOnUse" x="258" y="0" width="67" height="59"><path d="M324.102 16.6218C323.532 14.9918 322.702 13.4919 321.632 12.1719C320.522 10.8019 319.202 9.68205 317.702 8.84205C315.382 7.53205 312.842 7.02207 310.362 7.36207C309.382 7.49207 308.432 7.76187 307.532 8.15187C306.412 8.64187 305.242 8.96184 304.052 9.12184C299.662 9.72184 295.022 8.11207 291.492 4.61207C290.432 3.56207 289.242 2.6619 287.952 1.9319C285.112 0.341898 282.012 -0.28816 278.982 0.12184C276.722 0.43184 274.562 1.32193 272.762 2.71193C270.892 4.14193 269.392 6.10185 268.422 8.38185C267.262 11.1118 266.882 14.182 267.332 17.252C268.082 22.372 266.532 27.3819 263.162 30.7119C261.872 31.9919 260.802 33.572 260.072 35.292C259.262 37.192 258.832 39.2321 258.802 41.3621C258.772 43.4221 259.102 45.4719 259.802 47.4619C260.492 49.4519 261.512 51.2819 262.822 52.8919C264.182 54.5619 265.792 55.9319 267.622 56.9619C270.462 58.5519 273.562 59.182 276.582 58.772C278.842 58.462 281.002 57.5719 282.802 56.1819C282.862 56.1319 282.922 56.092 282.982 56.042C284.882 54.532 287.082 53.612 289.392 53.302C292.552 52.872 295.912 53.5719 298.932 55.4219C299.062 55.5019 299.202 55.5819 299.332 55.6619C301.442 56.8419 303.652 57.2919 305.902 56.9819C309.332 56.5119 312.222 54.2519 313.642 50.9319C314.242 49.5219 314.542 48.0719 314.572 46.4819C314.572 46.0119 314.562 45.542 314.522 45.082C314.002 39.542 316.152 34.332 320.212 31.292C321.812 30.102 323.082 28.462 323.892 26.562C324.552 25.002 324.902 23.3321 324.932 21.5921C324.962 19.9021 324.682 18.2221 324.112 16.5921L324.102 16.6218Z" fill="white"/></mask><g mask="url(#mask1_49_6900)"><path d="M314.862 99.5415L314.392 100.271L222.822 27.4915L223.292 26.7715L314.862 99.5415Z" fill="#EFAFAB"/><path d="M316.422 97.1321L315.952 97.8523L224.382 25.0823L224.852 24.3623L316.422 97.1321Z" fill="#EFAFAB"/><path d="M317.972 94.7214L317.512 95.4414L225.942 22.6714L226.402 21.9414L317.972 94.7214Z" fill="#EFAFAB"/><path d="M319.532 92.3123L319.062 93.0322L227.492 20.2522L227.962 19.5322L319.532 92.3123Z" fill="#EFAFAB"/><path d="M321.092 89.8921L320.622 90.6221L229.052 17.8423L229.522 17.1221L321.092 89.8921Z" fill="#EFAFAB"/><path d="M322.642 87.4822L322.182 88.2021L230.612 15.4321L231.082 14.7021L322.642 87.4822Z" fill="#EFAFAB"/><path d="M324.202 85.072L323.732 85.792L232.172 13.022L232.632 12.292L324.202 85.072Z" fill="#EFAFAB"/><path d="M325.762 82.6519L325.292 83.3818L233.722 10.6021L234.192 9.88184L325.762 82.6519Z" fill="#EFAFAB"/><path d="M327.312 80.2417L326.852 80.9717L235.282 8.19165L235.752 7.47168L327.312 80.2417Z" fill="#EFAFAB"/><path d="M328.872 77.8318L328.402 78.5518L236.842 5.78174L237.302 5.05176L328.872 77.8318Z" fill="#EFAFAB"/><path d="M330.432 75.4216L329.962 76.1416L238.392 3.36182L238.862 2.6416L330.432 75.4216Z" fill="#EFAFAB"/><path d="M331.982 73.0024L331.522 73.7324L239.952 0.952393L240.422 0.232422L331.982 73.0024Z" fill="#EFAFAB"/><path d="M333.542 70.5923L333.072 71.3123L241.512 -1.45776L241.972 -2.17773L333.542 70.5923Z" fill="#EFAFAB"/><path d="M335.102 68.1824L334.632 68.9023L243.062 -3.86768L243.532 -4.59766L335.102 68.1824Z" fill="#EFAFAB"/><path d="M336.652 65.7722L336.192 66.4922L244.622 -6.28784L245.092 -7.00781L336.652 65.7722Z" fill="#EFAFAB"/><path d="M338.212 63.3521L337.742 64.082L246.182 -8.698L246.642 -9.41797L338.212 63.3521Z" fill="#EFAFAB"/><path d="M339.772 60.9421L339.302 61.6621L247.732 -11.1079L248.202 -11.8379L339.772 60.9421Z" fill="#EFAFAB"/><path d="M341.332 58.532L340.862 59.252L249.292 -13.5181L249.762 -14.248L341.332 58.532Z" fill="#EFAFAB"/><path d="M342.882 56.1118L342.422 56.8418L250.852 -15.9382L251.312 -16.6582L342.882 56.1118Z" fill="#EFAFAB"/><path d="M344.442 53.7017L343.972 54.4316L252.402 -18.3484L252.872 -19.0684L344.442 53.7017Z" fill="#EFAFAB"/><path d="M346.002 51.2917L345.532 52.0117L253.962 -20.7583L254.432 -21.4883L346.002 51.2917Z" fill="#EFAFAB"/><path d="M347.552 48.8813L347.092 49.6016L255.522 -23.1685L255.992 -23.8984L347.552 48.8813Z" fill="#EFAFAB"/><path d="M349.112 46.4614L348.642 47.1914L257.072 -25.5886L257.542 -26.3086L349.112 46.4614Z" fill="#EFAFAB"/><path d="M350.672 44.0522L350.202 44.7822L258.632 -27.9978L259.102 -28.7178L350.672 44.0522Z" fill="#EFAFAB"/><path d="M352.222 41.6421L351.762 42.3623L260.192 -30.4077L260.662 -31.1377L352.222 41.6421Z" fill="#EFAFAB"/><path d="M353.782 39.2322L353.312 39.9521L261.752 -32.8279L262.212 -33.5479L353.782 39.2322Z" fill="#EFAFAB"/><path d="M355.342 36.812L354.872 37.542L263.302 -35.238L263.772 -35.958L355.342 36.812Z" fill="#EFAFAB"/></g></svg>
