<svg width="197" height="183" viewBox="0 0 197 183" fill="none" xmlns="http://www.w3.org/2000/svg"><path d="M0.343204 85.5177C0.963204 89.4577 2.3932 93.1877 4.5932 96.6177C6.8732 100.168 9.87321 103.218 13.5332 105.708C19.2032 109.558 25.9332 111.678 33.0032 111.838C35.7832 111.898 38.5632 111.648 41.2832 111.088C44.6732 110.388 48.0932 110.088 51.4732 110.158C63.9732 110.428 75.8932 115.828 83.6132 125.148C85.9232 127.938 88.7032 130.448 91.8632 132.588C98.7832 137.298 107.003 139.878 115.633 140.068C122.083 140.208 128.563 138.968 134.373 136.468C140.383 133.888 145.673 129.968 149.693 125.118C154.503 119.318 157.333 112.438 157.893 105.248C158.813 93.2577 166.023 82.3876 177.293 76.0276C181.603 73.5876 185.493 70.3677 188.523 66.7077C191.873 62.6677 194.243 58.1576 195.573 53.2976C196.863 48.6076 197.133 43.7877 196.373 38.9777C195.613 34.1677 193.873 29.6076 191.183 25.4276C188.403 21.0976 184.733 17.3677 180.273 14.3377C173.353 9.62767 165.133 7.04769 156.503 6.85769C150.053 6.71769 143.573 7.95766 137.763 10.4577C137.563 10.5377 137.373 10.6277 137.173 10.7177C131.043 13.4677 124.403 14.7377 117.833 14.5877C108.823 14.3877 99.9432 11.5376 92.6732 6.17763C92.3532 5.94763 92.0232 5.70769 91.6932 5.48769C86.5532 1.98769 80.6932 0.147711 74.2932 0.00771128C64.5232 -0.202289 55.2032 3.88766 49.3432 10.9577C46.8532 13.9577 45.1732 17.1676 44.1732 20.7776C43.8832 21.8376 43.6532 22.9177 43.5132 23.9977C41.7232 36.8577 32.7332 47.9777 19.7232 53.3977C14.6032 55.5277 10.1332 58.7877 6.78321 62.8277C4.04321 66.1377 2.09324 69.8376 1.00324 73.8176C-0.056762 77.6676 -0.276796 81.6076 0.343204 85.5476V85.5177Z" fill="#EAD363"/><mask id="mask0_19_5796" style="mask-type:luminance" maskUnits="userSpaceOnUse" x="41" y="73" width="101" height="110"><path d="M62.9933 179.667C65.3133 180.897 67.8333 181.697 70.4833 182.047C73.2233 182.407 75.9833 182.267 78.6933 181.627C82.8933 180.627 86.5733 178.517 89.3433 175.507C90.4333 174.327 91.3533 173.017 92.0933 171.627C93.0133 169.887 94.1533 168.287 95.4833 166.847C100.383 161.527 107.773 158.407 115.643 158.597C118.003 158.657 120.383 158.407 122.723 157.847C127.843 156.637 132.343 154.047 135.723 150.377C138.253 147.637 140.053 144.347 140.953 140.867C141.873 137.277 141.813 133.487 140.773 129.897C139.533 125.597 136.973 121.757 133.373 118.777C127.373 113.817 124.373 106.547 125.293 99.2373C125.643 96.4373 125.413 93.5273 124.633 90.8173C123.773 87.8273 122.283 85.0772 120.223 82.6572C118.233 80.3072 115.783 78.3573 112.943 76.8573C110.113 75.3573 107.033 74.3773 103.803 73.9573C100.453 73.5173 97.0833 73.6873 93.7833 74.4773C88.6633 75.6873 84.1633 78.2773 80.7833 81.9473C78.2533 84.6873 76.4533 87.9773 75.5533 91.4473C75.5233 91.5673 75.4933 91.6773 75.4633 91.7973C74.5833 95.5073 72.7333 98.8672 70.1533 101.667C66.6233 105.507 61.7333 108.277 56.1233 109.387C55.8833 109.437 55.6333 109.487 55.3833 109.547C51.5733 110.447 48.3733 112.287 45.8633 115.017C42.0333 119.177 40.6533 124.777 42.1633 130.007C42.8033 132.227 43.8633 134.187 45.3933 135.987C45.8433 136.517 46.3333 137.027 46.8433 137.497C52.9733 143.167 55.4333 151.297 53.3433 159.007C52.5233 162.037 52.5433 165.227 53.4133 168.207C54.1233 170.657 55.3333 172.907 57.0233 174.897C58.6533 176.817 60.6633 178.417 62.9833 179.647L62.9933 179.667Z" fill="white"/></mask><g mask="url(#mask0_19_5796)"><path d="M-7.3866 76.7469L-7.5166 75.4369L178.923 60.127L179.053 61.4369L-7.3866 76.7469Z" fill="#F5F5DB"/><path d="M-6.94666 81.1073L-7.07666 79.7972L179.363 64.4873L179.493 65.7972L-6.94666 81.1073Z" fill="#F5F5DB"/><path d="M-6.50671 85.4667L-6.63672 84.1566L179.793 68.8467L179.923 70.1566L-6.50671 85.4667Z" fill="#F5F5DB"/><path d="M-6.07654 89.827L-6.20654 88.5171L180.233 73.207L180.363 74.5171L-6.07654 89.827Z" fill="#F5F5DB"/><path d="M-5.6366 94.1864L-5.7666 92.8765L180.673 77.5664L180.803 78.8765L-5.6366 94.1864Z" fill="#F5F5DB"/><path d="M-5.19666 98.5468L-5.32666 97.2368L181.103 81.9268L181.233 83.2368L-5.19666 98.5468Z" fill="#F5F5DB"/><path d="M-4.76648 102.907L-4.89648 101.597L181.544 86.2871L181.674 87.5972L-4.76648 102.907Z" fill="#F5F5DB"/><path d="M-4.32654 107.266L-4.45654 105.956L181.973 90.6465L182.113 91.9564L-4.32654 107.266Z" fill="#F5F5DB"/><path d="M-3.88635 111.627L-4.02637 110.317L182.414 95.0068L182.544 96.3168L-3.88635 111.627Z" fill="#F5F5DB"/><path d="M-3.45691 115.987L-3.58691 114.677L182.853 99.3672L182.983 100.677L-3.45691 115.987Z" fill="#F5F5DB"/><path d="M-3.01648 120.347L-3.14648 119.036L183.284 103.727L183.414 105.036L-3.01648 120.347Z" fill="#F5F5DB"/><path d="M-2.58679 124.697L-2.7168 123.397L183.723 108.087L183.853 109.397L-2.58679 124.697Z" fill="#F5F5DB"/><path d="M-2.14636 129.057L-2.27637 127.757L184.164 112.447L184.294 113.757L-2.14636 129.057Z" fill="#F5F5DB"/><path d="M-1.70691 133.417L-1.83691 132.117L184.593 116.807L184.723 118.117L-1.70691 133.417Z" fill="#F5F5DB"/><path d="M-1.27673 137.777L-1.40674 136.477L185.033 121.167L185.163 122.467L-1.27673 137.777Z" fill="#F5F5DB"/><path d="M-0.836792 142.137L-0.966797 140.827L185.473 125.527L185.603 126.827L-0.836792 142.137Z" fill="#F5F5DB"/><path d="M-0.396362 146.497L-0.526367 145.187L185.904 129.887L186.034 131.187L-0.396362 146.497Z" fill="#F5F5DB"/><path d="M0.0333252 150.857L-0.0966797 149.547L186.343 134.237L186.473 135.547L0.0333252 150.857Z" fill="#F5F5DB"/><path d="M0.473267 155.217L0.343262 153.907L186.773 138.597L186.913 139.907L0.473267 155.217Z" fill="#F5F5DB"/><path d="M0.913452 159.577L0.773438 158.267L187.213 142.957L187.343 144.267L0.913452 159.577Z" fill="#F5F5DB"/><path d="M1.34338 163.936L1.21338 162.626L187.653 147.316L187.783 148.626L1.34338 163.936Z" fill="#F5F5DB"/><path d="M1.78333 168.297L1.65332 166.987L188.083 151.677L188.213 152.987L1.78333 168.297Z" fill="#F5F5DB"/><path d="M2.2135 172.657L2.0835 171.347L188.523 156.037L188.654 157.347L2.2135 172.657Z" fill="#F5F5DB"/><path d="M2.65344 177.016L2.52344 175.706L188.963 160.396L189.093 161.706L2.65344 177.016Z" fill="#F5F5DB"/><path d="M3.09338 181.377L2.96338 180.067L189.393 164.757L189.523 166.067L3.09338 181.377Z" fill="#F5F5DB"/><path d="M3.52356 185.737L3.39355 184.427L189.834 169.117L189.964 170.427L3.52356 185.737Z" fill="#F5F5DB"/><path d="M3.9635 190.097L3.8335 188.786L190.273 173.477L190.404 174.786L3.9635 190.097Z" fill="#F5F5DB"/></g></svg>
