<svg width="85" height="85" viewBox="0 0 85 85" fill="none" xmlns="http://www.w3.org/2000/svg"><path d="M28.9101 4.03992C30.0257 4.03992 30.9301 3.13563 30.9301 2.02002C30.9301 0.904404 30.0257 0 28.9101 0C27.7945 0 26.8901 0.904404 26.8901 2.02002C26.8901 3.13563 27.7945 4.03992 28.9101 4.03992Z" fill="#EAD363"/><path d="M44.3799 2.02002C44.3799 3.13002 43.4799 4.03992 42.3599 4.03992C41.2399 4.03992 40.3398 3.14002 40.3398 2.02002C40.3398 0.90002 41.2399 0 42.3599 0C43.4799 0 44.3799 0.90002 44.3799 2.02002Z" fill="#EAD363"/><path d="M55.8101 4.03992C56.9257 4.03992 57.83 3.13563 57.83 2.02002C57.83 0.904404 56.9257 0 55.8101 0C54.6944 0 53.79 0.904404 53.79 2.02002C53.79 3.13563 54.6944 4.03992 55.8101 4.03992Z" fill="#EAD363"/><path d="M24.2099 8.74951C24.2099 9.85951 23.3099 10.7695 22.1899 10.7695C21.0699 10.7695 20.1699 9.86951 20.1699 8.74951C20.1699 7.62951 21.0699 6.72949 22.1899 6.72949C23.3099 6.72949 24.2099 7.62951 24.2099 8.74951Z" fill="#EAD363"/><path d="M37.6498 8.74951C37.6498 9.85951 36.7499 10.7695 35.6299 10.7695C34.5099 10.7695 33.6099 9.86951 33.6099 8.74951C33.6099 7.62951 34.5099 6.72949 35.6299 6.72949C36.7499 6.72949 37.6498 7.62951 37.6498 8.74951Z" fill="#EAD363"/><path d="M51.1 8.74951C51.1 9.85951 50.2 10.7695 49.08 10.7695C47.96 10.7695 47.0601 9.86951 47.0601 8.74951C47.0601 7.62951 47.96 6.72949 49.08 6.72949C50.2 6.72949 51.1 7.62951 51.1 8.74951Z" fill="#EAD363"/><path d="M64.5502 8.74951C64.5502 9.85951 63.6503 10.7695 62.5303 10.7695C61.4103 10.7695 60.5103 9.86951 60.5103 8.74951C60.5103 7.62951 61.4103 6.72949 62.5303 6.72949C63.6503 6.72949 64.5502 7.62951 64.5502 8.74951Z" fill="#EAD363"/><path d="M17.4799 15.4702C17.4799 16.5802 16.5799 17.4902 15.4599 17.4902C14.3399 17.4902 13.4399 16.5902 13.4399 15.4702C13.4399 14.3502 14.3399 13.4502 15.4599 13.4502C16.5799 13.4502 17.4799 14.3502 17.4799 15.4702Z" fill="#EAD363"/><path d="M30.9301 15.4702C30.9301 16.5802 30.0301 17.4902 28.9101 17.4902C27.7901 17.4902 26.8901 16.5902 26.8901 15.4702C26.8901 14.3502 27.7901 13.4502 28.9101 13.4502C30.0301 13.4502 30.9301 14.3502 30.9301 15.4702Z" fill="#EAD363"/><path d="M44.3799 15.4702C44.3799 16.5802 43.4799 17.4902 42.3599 17.4902C41.2399 17.4902 40.3398 16.5902 40.3398 15.4702C40.3398 14.3502 41.2399 13.4502 42.3599 13.4502C43.4799 13.4502 44.3799 14.3502 44.3799 15.4702Z" fill="#EAD363"/><path d="M57.8198 15.4702C57.8198 16.5802 56.9198 17.4902 55.7998 17.4902C54.6798 17.4902 53.7798 16.5902 53.7798 15.4702C53.7798 14.3502 54.6798 13.4502 55.7998 13.4502C56.9198 13.4502 57.8198 14.3502 57.8198 15.4702Z" fill="#EAD363"/><path d="M71.27 15.4702C71.27 16.5802 70.37 17.4902 69.25 17.4902C68.13 17.4902 67.23 16.5902 67.23 15.4702C67.23 14.3502 68.13 13.4502 69.25 13.4502C70.37 13.4502 71.27 14.3502 71.27 15.4702Z" fill="#EAD363"/><path d="M10.7603 22.1899C10.7603 23.2999 9.86023 24.21 8.74023 24.21C7.62023 24.21 6.72021 23.3099 6.72021 22.1899C6.72021 21.0699 7.62023 20.1699 8.74023 20.1699C9.86023 20.1699 10.7603 21.0699 10.7603 22.1899Z" fill="#EAD363"/><path d="M24.2099 22.1899C24.2099 23.2999 23.3099 24.21 22.1899 24.21C21.0699 24.21 20.1699 23.3099 20.1699 22.1899C20.1699 21.0699 21.0699 20.1699 22.1899 20.1699C23.3099 20.1699 24.2099 21.0699 24.2099 22.1899Z" fill="#EAD363"/><path d="M37.6498 22.1899C37.6498 23.2999 36.7499 24.21 35.6299 24.21C34.5099 24.21 33.6099 23.3099 33.6099 22.1899C33.6099 21.0699 34.5099 20.1699 35.6299 20.1699C36.7499 20.1699 37.6498 21.0699 37.6498 22.1899Z" fill="#EAD363"/><path d="M51.1 22.1899C51.1 23.2999 50.2 24.21 49.08 24.21C47.96 24.21 47.0601 23.3099 47.0601 22.1899C47.0601 21.0699 47.96 20.1699 49.08 20.1699C50.2 20.1699 51.1 21.0699 51.1 22.1899Z" fill="#EAD363"/><path d="M64.5502 22.1899C64.5502 23.2999 63.6503 24.21 62.5303 24.21C61.4103 24.21 60.5103 23.3099 60.5103 22.1899C60.5103 21.0699 61.4103 20.1699 62.5303 20.1699C63.6503 20.1699 64.5502 21.0699 64.5502 22.1899Z" fill="#EAD363"/><path d="M77.9897 22.1899C77.9897 23.2999 77.0897 24.21 75.9697 24.21C74.8497 24.21 73.9497 23.3099 73.9497 22.1899C73.9497 21.0699 74.8497 20.1699 75.9697 20.1699C77.0897 20.1699 77.9897 21.0699 77.9897 22.1899Z" fill="#EAD363"/><path d="M4.03998 28.9194C4.03998 30.0294 3.13996 30.9395 2.01996 30.9395C0.899958 30.9395 0 30.0394 0 28.9194C0 27.7994 0.899958 26.8994 2.01996 26.8994C3.13996 26.8994 4.03998 27.7994 4.03998 28.9194Z" fill="#EAD363"/><path d="M17.4799 28.9194C17.4799 30.0294 16.5799 30.9395 15.4599 30.9395C14.3399 30.9395 13.4399 30.0394 13.4399 28.9194C13.4399 27.7994 14.3399 26.8994 15.4599 26.8994C16.5799 26.8994 17.4799 27.7994 17.4799 28.9194Z" fill="#EAD363"/><path d="M30.9301 28.9194C30.9301 30.0294 30.0301 30.9395 28.9101 30.9395C27.7901 30.9395 26.8901 30.0394 26.8901 28.9194C26.8901 27.7994 27.7901 26.8994 28.9101 26.8994C30.0301 26.8994 30.9301 27.7994 30.9301 28.9194Z" fill="#EAD363"/><path d="M44.3799 28.9194C44.3799 30.0294 43.4799 30.9395 42.3599 30.9395C41.2399 30.9395 40.3398 30.0394 40.3398 28.9194C40.3398 27.7994 41.2399 26.8994 42.3599 26.8994C43.4799 26.8994 44.3799 27.7994 44.3799 28.9194Z" fill="#EAD363"/><path d="M57.8198 28.9194C57.8198 30.0294 56.9198 30.9395 55.7998 30.9395C54.6798 30.9395 53.7798 30.0394 53.7798 28.9194C53.7798 27.7994 54.6798 26.8994 55.7998 26.8994C56.9198 26.8994 57.8198 27.7994 57.8198 28.9194Z" fill="#EAD363"/><path d="M71.27 28.9194C71.27 30.0294 70.37 30.9395 69.25 30.9395C68.13 30.9395 67.23 30.0394 67.23 28.9194C67.23 27.7994 68.13 26.8994 69.25 26.8994C70.37 26.8994 71.27 27.7994 71.27 28.9194Z" fill="#EAD363"/><path d="M84.7202 28.9194C84.7202 30.0294 83.8202 30.9395 82.7002 30.9395C81.5802 30.9395 80.6802 30.0394 80.6802 28.9194C80.6802 27.7994 81.5802 26.8994 82.7002 26.8994C83.8202 26.8994 84.7202 27.7994 84.7202 28.9194Z" fill="#EAD363"/><path d="M10.7603 35.6401C10.7603 36.7501 9.86023 37.66 8.74023 37.66C7.62023 37.66 6.72021 36.7601 6.72021 35.6401C6.72021 34.5201 7.62023 33.6201 8.74023 33.6201C9.86023 33.6201 10.7603 34.5201 10.7603 35.6401Z" fill="#EAD363"/><path d="M24.2099 35.6401C24.2099 36.7501 23.3099 37.66 22.1899 37.66C21.0699 37.66 20.1699 36.7601 20.1699 35.6401C20.1699 34.5201 21.0699 33.6201 22.1899 33.6201C23.3099 33.6201 24.2099 34.5201 24.2099 35.6401Z" fill="#EAD363"/><path d="M37.6498 35.6401C37.6498 36.7501 36.7499 37.66 35.6299 37.66C34.5099 37.66 33.6099 36.7601 33.6099 35.6401C33.6099 34.5201 34.5099 33.6201 35.6299 33.6201C36.7499 33.6201 37.6498 34.5201 37.6498 35.6401Z" fill="#EAD363"/><path d="M51.1 35.6401C51.1 36.7501 50.2 37.66 49.08 37.66C47.96 37.66 47.0601 36.7601 47.0601 35.6401C47.0601 34.5201 47.96 33.6201 49.08 33.6201C50.2 33.6201 51.1 34.5201 51.1 35.6401Z" fill="#EAD363"/><path d="M64.5502 35.6401C64.5502 36.7501 63.6503 37.66 62.5303 37.66C61.4103 37.66 60.5103 36.7601 60.5103 35.6401C60.5103 34.5201 61.4103 33.6201 62.5303 33.6201C63.6503 33.6201 64.5502 34.5201 64.5502 35.6401Z" fill="#EAD363"/><path d="M77.9897 35.6401C77.9897 36.7501 77.0897 37.66 75.9697 37.66C74.8497 37.66 73.9497 36.7601 73.9497 35.6401C73.9497 34.5201 74.8497 33.6201 75.9697 33.6201C77.0897 33.6201 77.9897 34.5201 77.9897 35.6401Z" fill="#EAD363"/><path d="M4.03998 42.3599C4.03998 43.4699 3.13996 44.3799 2.01996 44.3799C0.899958 44.3799 0 43.4799 0 42.3599C0 41.2399 0.899958 40.3398 2.01996 40.3398C3.13996 40.3398 4.03998 41.2399 4.03998 42.3599Z" fill="#EAD363"/><path d="M17.4799 42.3599C17.4799 43.4699 16.5799 44.3799 15.4599 44.3799C14.3399 44.3799 13.4399 43.4799 13.4399 42.3599C13.4399 41.2399 14.3399 40.3398 15.4599 40.3398C16.5799 40.3398 17.4799 41.2399 17.4799 42.3599Z" fill="#EAD363"/><path d="M30.9301 42.3599C30.9301 43.4699 30.0301 44.3799 28.9101 44.3799C27.7901 44.3799 26.8901 43.4799 26.8901 42.3599C26.8901 41.2399 27.7901 40.3398 28.9101 40.3398C30.0301 40.3398 30.9301 41.2399 30.9301 42.3599Z" fill="#EAD363"/><path d="M44.3799 42.3599C44.3799 43.4699 43.4799 44.3799 42.3599 44.3799C41.2399 44.3799 40.3398 43.4799 40.3398 42.3599C40.3398 41.2399 41.2399 40.3398 42.3599 40.3398C43.4799 40.3398 44.3799 41.2399 44.3799 42.3599Z" fill="#EAD363"/><path d="M57.8198 42.3599C57.8198 43.4699 56.9198 44.3799 55.7998 44.3799C54.6798 44.3799 53.7798 43.4799 53.7798 42.3599C53.7798 41.2399 54.6798 40.3398 55.7998 40.3398C56.9198 40.3398 57.8198 41.2399 57.8198 42.3599Z" fill="#EAD363"/><path d="M71.27 42.3599C71.27 43.4699 70.37 44.3799 69.25 44.3799C68.13 44.3799 67.23 43.4799 67.23 42.3599C67.23 41.2399 68.13 40.3398 69.25 40.3398C70.37 40.3398 71.27 41.2399 71.27 42.3599Z" fill="#EAD363"/><path d="M84.7202 42.3599C84.7202 43.4699 83.8202 44.3799 82.7002 44.3799C81.5802 44.3799 80.6802 43.4799 80.6802 42.3599C80.6802 41.2399 81.5802 40.3398 82.7002 40.3398C83.8202 40.3398 84.7202 41.2399 84.7202 42.3599Z" fill="#EAD363"/><path d="M10.7603 49.0796C10.7603 50.1896 9.86023 51.0996 8.74023 51.0996C7.62023 51.0996 6.72021 50.1996 6.72021 49.0796C6.72021 47.9596 7.62023 47.0596 8.74023 47.0596C9.86023 47.0596 10.7603 47.9596 10.7603 49.0796Z" fill="#EAD363"/><path d="M24.2099 49.0796C24.2099 50.1896 23.3099 51.0996 22.1899 51.0996C21.0699 51.0996 20.1699 50.1996 20.1699 49.0796C20.1699 47.9596 21.0699 47.0596 22.1899 47.0596C23.3099 47.0596 24.2099 47.9596 24.2099 49.0796Z" fill="#EAD363"/><path d="M37.6498 49.0796C37.6498 50.1896 36.7499 51.0996 35.6299 51.0996C34.5099 51.0996 33.6099 50.1996 33.6099 49.0796C33.6099 47.9596 34.5099 47.0596 35.6299 47.0596C36.7499 47.0596 37.6498 47.9596 37.6498 49.0796Z" fill="#EAD363"/><path d="M51.1 49.0796C51.1 50.1896 50.2 51.0996 49.08 51.0996C47.96 51.0996 47.0601 50.1996 47.0601 49.0796C47.0601 47.9596 47.96 47.0596 49.08 47.0596C50.2 47.0596 51.1 47.9596 51.1 49.0796Z" fill="#EAD363"/><path d="M64.5502 49.0796C64.5502 50.1896 63.6503 51.0996 62.5303 51.0996C61.4103 51.0996 60.5103 50.1996 60.5103 49.0796C60.5103 47.9596 61.4103 47.0596 62.5303 47.0596C63.6503 47.0596 64.5502 47.9596 64.5502 49.0796Z" fill="#EAD363"/><path d="M77.9897 49.0796C77.9897 50.1896 77.0897 51.0996 75.9697 51.0996C74.8497 51.0996 73.9497 50.1996 73.9497 49.0796C73.9497 47.9596 74.8497 47.0596 75.9697 47.0596C77.0897 47.0596 77.9897 47.9596 77.9897 49.0796Z" fill="#EAD363"/><path d="M4.03998 55.8101C4.03998 56.9201 3.13996 57.8301 2.01996 57.8301C0.899958 57.8301 0 56.9301 0 55.8101C0 54.6901 0.899958 53.79 2.01996 53.79C3.13996 53.79 4.03998 54.6901 4.03998 55.8101Z" fill="#EAD363"/><path d="M15.4697 57.8301C16.5853 57.8301 17.4897 56.9257 17.4897 55.8101C17.4897 54.6944 16.5853 53.79 15.4697 53.79C14.3541 53.79 13.4497 54.6944 13.4497 55.8101C13.4497 56.9257 14.3541 57.8301 15.4697 57.8301Z" fill="#EAD363"/><path d="M28.9101 57.8301C30.0257 57.8301 30.9301 56.9257 30.9301 55.8101C30.9301 54.6944 30.0257 53.79 28.9101 53.79C27.7945 53.79 26.8901 54.6944 26.8901 55.8101C26.8901 56.9257 27.7945 57.8301 28.9101 57.8301Z" fill="#EAD363"/><path d="M44.3799 55.8101C44.3799 56.9201 43.4799 57.8301 42.3599 57.8301C41.2399 57.8301 40.3398 56.9301 40.3398 55.8101C40.3398 54.6901 41.2399 53.79 42.3599 53.79C43.4799 53.79 44.3799 54.6901 44.3799 55.8101Z" fill="#EAD363"/><path d="M55.8101 57.8301C56.9257 57.8301 57.83 56.9257 57.83 55.8101C57.83 54.6944 56.9257 53.79 55.8101 53.79C54.6944 53.79 53.79 54.6944 53.79 55.8101C53.79 56.9257 54.6944 57.8301 55.8101 57.8301Z" fill="#EAD363"/><path d="M69.25 57.8301C70.3656 57.8301 71.27 56.9257 71.27 55.8101C71.27 54.6944 70.3656 53.79 69.25 53.79C68.1344 53.79 67.23 54.6944 67.23 55.8101C67.23 56.9257 68.1344 57.8301 69.25 57.8301Z" fill="#EAD363"/><path d="M84.7202 55.8101C84.7202 56.9201 83.8202 57.8301 82.7002 57.8301C81.5802 57.8301 80.6802 56.9301 80.6802 55.8101C80.6802 54.6901 81.5802 53.79 82.7002 53.79C83.8202 53.79 84.7202 54.6901 84.7202 55.8101Z" fill="#EAD363"/><path d="M10.7603 62.5297C10.7603 63.6397 9.86023 64.5497 8.74023 64.5497C7.62023 64.5497 6.72021 63.6497 6.72021 62.5297C6.72021 61.4097 7.62023 60.5098 8.74023 60.5098C9.86023 60.5098 10.7603 61.4097 10.7603 62.5297Z" fill="#EAD363"/><path d="M24.2099 62.5297C24.2099 63.6397 23.3099 64.5497 22.1899 64.5497C21.0699 64.5497 20.1699 63.6497 20.1699 62.5297C20.1699 61.4097 21.0699 60.5098 22.1899 60.5098C23.3099 60.5098 24.2099 61.4097 24.2099 62.5297Z" fill="#EAD363"/><path d="M37.6498 62.5297C37.6498 63.6397 36.7499 64.5497 35.6299 64.5497C34.5099 64.5497 33.6099 63.6497 33.6099 62.5297C33.6099 61.4097 34.5099 60.5098 35.6299 60.5098C36.7499 60.5098 37.6498 61.4097 37.6498 62.5297Z" fill="#EAD363"/><path d="M49.08 64.5497C50.1956 64.5497 51.1 63.6453 51.1 62.5297C51.1 61.414 50.1956 60.5098 49.08 60.5098C47.9644 60.5098 47.0601 61.414 47.0601 62.5297C47.0601 63.6453 47.9644 64.5497 49.08 64.5497Z" fill="#EAD363"/><path d="M64.5502 62.5297C64.5502 63.6397 63.6503 64.5497 62.5303 64.5497C61.4103 64.5497 60.5103 63.6497 60.5103 62.5297C60.5103 61.4097 61.4103 60.5098 62.5303 60.5098C63.6503 60.5098 64.5502 61.4097 64.5502 62.5297Z" fill="#EAD363"/><path d="M75.98 64.5497C77.0956 64.5497 78 63.6453 78 62.5297C78 61.414 77.0956 60.5098 75.98 60.5098C74.8644 60.5098 73.96 61.414 73.96 62.5297C73.96 63.6453 74.8644 64.5497 75.98 64.5497Z" fill="#EAD363"/><path d="M17.4799 69.2495C17.4799 70.3595 16.5799 71.2695 15.4599 71.2695C14.3399 71.2695 13.4399 70.3695 13.4399 69.2495C13.4399 68.1295 14.3399 67.2295 15.4599 67.2295C16.5799 67.2295 17.4799 68.1295 17.4799 69.2495Z" fill="#EAD363"/><path d="M30.9301 69.2495C30.9301 70.3595 30.0301 71.2695 28.9101 71.2695C27.7901 71.2695 26.8901 70.3695 26.8901 69.2495C26.8901 68.1295 27.7901 67.2295 28.9101 67.2295C30.0301 67.2295 30.9301 68.1295 30.9301 69.2495Z" fill="#EAD363"/><path d="M44.3799 69.2495C44.3799 70.3595 43.4799 71.2695 42.3599 71.2695C41.2399 71.2695 40.3398 70.3695 40.3398 69.2495C40.3398 68.1295 41.2399 67.2295 42.3599 67.2295C43.4799 67.2295 44.3799 68.1295 44.3799 69.2495Z" fill="#EAD363"/><path d="M57.8198 69.2495C57.8198 70.3595 56.9198 71.2695 55.7998 71.2695C54.6798 71.2695 53.7798 70.3695 53.7798 69.2495C53.7798 68.1295 54.6798 67.2295 55.7998 67.2295C56.9198 67.2295 57.8198 68.1295 57.8198 69.2495Z" fill="#EAD363"/><path d="M71.27 69.2495C71.27 70.3595 70.37 71.2695 69.25 71.2695C68.13 71.2695 67.23 70.3695 67.23 69.2495C67.23 68.1295 68.13 67.2295 69.25 67.2295C70.37 67.2295 71.27 68.1295 71.27 69.2495Z" fill="#EAD363"/><path d="M24.2099 75.98C24.2099 77.09 23.3099 78 22.1899 78C21.0699 78 20.1699 77.1 20.1699 75.98C20.1699 74.86 21.0699 73.96 22.1899 73.96C23.3099 73.96 24.2099 74.86 24.2099 75.98Z" fill="#EAD363"/><path d="M37.6498 75.98C37.6498 77.09 36.7499 78 35.6299 78C34.5099 78 33.6099 77.1 33.6099 75.98C33.6099 74.86 34.5099 73.96 35.6299 73.96C36.7499 73.96 37.6498 74.86 37.6498 75.98Z" fill="#EAD363"/><path d="M49.08 78C50.1956 78 51.1 77.0956 51.1 75.98C51.1 74.8644 50.1956 73.96 49.08 73.96C47.9644 73.96 47.0601 74.8644 47.0601 75.98C47.0601 77.0956 47.9644 78 49.08 78Z" fill="#EAD363"/><path d="M64.5502 75.98C64.5502 77.09 63.6503 78 62.5303 78C61.4103 78 60.5103 77.1 60.5103 75.98C60.5103 74.86 61.4103 73.96 62.5303 73.96C63.6503 73.96 64.5502 74.86 64.5502 75.98Z" fill="#EAD363"/><path d="M30.9301 82.6997C30.9301 83.8097 30.0301 84.7197 28.9101 84.7197C27.7901 84.7197 26.8901 83.8197 26.8901 82.6997C26.8901 81.5797 27.7901 80.6797 28.9101 80.6797C30.0301 80.6797 30.9301 81.5797 30.9301 82.6997Z" fill="#EAD363"/><path d="M44.3799 82.6997C44.3799 83.8097 43.4799 84.7197 42.3599 84.7197C41.2399 84.7197 40.3398 83.8197 40.3398 82.6997C40.3398 81.5797 41.2399 80.6797 42.3599 80.6797C43.4799 80.6797 44.3799 81.5797 44.3799 82.6997Z" fill="#EAD363"/><path d="M57.8198 82.6997C57.8198 83.8097 56.9198 84.7197 55.7998 84.7197C54.6798 84.7197 53.7798 83.8197 53.7798 82.6997C53.7798 81.5797 54.6798 80.6797 55.7998 80.6797C56.9198 80.6797 57.8198 81.5797 57.8198 82.6997Z" fill="#EAD363"/></svg>
