<svg width="181" height="229" viewBox="0 0 181 229" fill="none" xmlns="http://www.w3.org/2000/svg"><mask id="mask0_19_6303" style="mask-type:luminance" maskUnits="userSpaceOnUse" x="0" y="0" width="108" height="137"><path d="M67.16 136.381C70.19 135.871 73.04 134.811 75.64 133.211C78.33 131.551 80.64 129.401 82.49 126.801C85.37 122.771 86.89 118.031 86.89 113.101C86.89 111.161 86.65 109.221 86.17 107.331C85.57 104.981 85.28 102.591 85.28 100.231C85.28 91.5012 89.24 83.0812 96.3 77.5212C98.41 75.8512 100.3 73.8712 101.9 71.6312C105.41 66.7112 107.27 60.9312 107.27 54.9012C107.27 50.4012 106.2 45.9012 104.18 41.8812C102.09 37.7312 98.98 34.1112 95.18 31.3912C90.63 28.1412 85.28 26.2912 79.73 26.0412C70.47 25.6212 61.97 20.7812 56.88 13.0412C54.93 10.0712 52.38 7.42117 49.51 5.37117C46.34 3.11117 42.82 1.53124 39.05 0.691242C35.41 -0.118758 31.69 -0.218797 28 0.401203C24.31 1.0212 20.82 2.3212 17.64 4.2712C14.35 6.2912 11.54 8.92114 9.26996 12.0911C5.75996 17.0111 3.89996 22.7912 3.89996 28.8212C3.89996 33.3212 4.96999 37.8211 6.98999 41.8411C7.05999 41.9811 7.13001 42.1112 7.20001 42.2412C9.42001 46.4712 10.51 51.0812 10.51 55.6712C10.51 61.9612 8.46001 68.2212 4.45001 73.3912C4.28001 73.6212 4.09999 73.8511 3.92999 74.0911C1.31999 77.7411 0 81.8711 0 86.3411C0 93.1611 3.30999 99.6012 8.85999 103.551C11.21 105.231 13.72 106.351 16.52 106.971C17.34 107.151 18.18 107.291 19.01 107.371C28.95 108.381 37.67 114.451 42.06 123.431C43.79 126.961 46.38 130.031 49.55 132.291C52.15 134.141 55.03 135.431 58.11 136.121C61.09 136.791 64.14 136.871 67.16 136.361V136.381Z" fill="white"/></mask><g mask="url(#mask0_19_6303)"><path d="M73.4905 -62.844L72.3237 -64.0107L-78.7284 87.0414L-77.5617 88.2081L73.4905 -62.844Z" fill="#F5F5DB"/><path d="M77.3898 -58.9437L76.2231 -60.1104L-74.829 90.9418L-73.6623 92.1085L77.3898 -58.9437Z" fill="#F5F5DB"/><path d="M81.2903 -55.0422L80.1235 -56.209L-70.9309 94.8407L-69.7642 96.0075L81.2903 -55.0422Z" fill="#F5F5DB"/><path d="M85.1887 -51.1448L84.022 -52.3115L-67.0278 98.743L-65.8611 99.9097L85.1887 -51.1448Z" fill="#F5F5DB"/><path d="M89.0891 -47.2434L87.9224 -48.4102L-63.1298 102.642L-61.963 103.809L89.0891 -47.2434Z" fill="#F5F5DB"/><path d="M92.9885 -43.343L91.8218 -44.5098L-59.2304 106.542L-58.0636 107.709L92.9885 -43.343Z" fill="#F5F5DB"/><path d="M96.8879 -39.4427L95.7212 -40.6094L-55.331 110.443L-54.1643 111.609L96.8879 -39.4427Z" fill="#F5F5DB"/><path d="M100.788 -35.5432L99.6216 -36.71L-51.4306 114.342L-50.2638 115.509L100.788 -35.5432Z" fill="#F5F5DB"/><path d="M104.688 -31.6429L103.521 -32.8096L-47.5311 118.243L-46.3644 119.409L104.688 -31.6429Z" fill="#F5F5DB"/><path d="M108.587 -27.7434L107.42 -28.9102L-43.6299 122.144L-42.4631 123.311L108.587 -27.7434Z" fill="#F5F5DB"/><path d="M112.487 -23.843L111.32 -25.0098L-39.7318 126.042L-38.5651 127.209L112.487 -23.843Z" fill="#F5F5DB"/><path d="M116.387 -19.9427L115.22 -21.1094L-35.8319 129.943L-34.6652 131.109L116.387 -19.9427Z" fill="#F5F5DB"/><path d="M120.286 -16.0422L119.12 -17.209L-31.9325 133.843L-30.7658 135.01L120.286 -16.0422Z" fill="#F5F5DB"/><path d="M124.186 -12.1419L123.019 -13.3086L-28.0331 137.744L-26.8664 138.91L124.186 -12.1419Z" fill="#F5F5DB"/><path d="M128.086 -8.24244L126.919 -9.40918L-24.1332 141.643L-22.9665 142.81L128.086 -8.24244Z" fill="#F5F5DB"/><path d="M131.986 -4.34205L130.819 -5.50879L-20.2333 145.543L-19.0666 146.71L131.986 -4.34205Z" fill="#F5F5DB"/><path d="M135.885 -0.441698L134.718 -1.6084L-16.3339 149.444L-15.1672 150.61L135.885 -0.441698Z" fill="#F5F5DB"/><path d="M139.784 3.45874L138.618 2.29199L-12.4345 153.344L-11.2677 154.511L139.784 3.45874Z" fill="#F5F5DB"/><path d="M143.684 7.35811L142.518 6.19141L-8.53457 157.244L-7.36787 158.41L143.684 7.35811Z" fill="#F5F5DB"/><path d="M147.584 11.2585L146.417 10.0918L-4.63466 161.144L-3.46792 162.311L147.584 11.2585Z" fill="#F5F5DB"/><path d="M151.484 15.1589L150.317 13.9922L-0.73525 165.044L0.431493 166.211L151.484 15.1589Z" fill="#F5F5DB"/><path d="M155.383 19.0593L154.216 17.8926L3.16416 168.945L4.33086 170.111L155.383 19.0593Z" fill="#F5F5DB"/><path d="M159.283 22.9587L158.116 21.792L7.06407 172.844L8.23081 174.011L159.283 22.9587Z" fill="#F5F5DB"/><path d="M163.183 26.8591L162.016 25.6924L10.964 176.745L12.1307 177.911L163.183 26.8591Z" fill="#F5F5DB"/><path d="M167.082 30.7595L165.916 29.5928L14.8634 180.645L16.0301 181.812L167.082 30.7595Z" fill="#F5F5DB"/><path d="M170.982 34.6599L169.815 33.4932L18.7628 184.545L19.9295 185.712L170.982 34.6599Z" fill="#F5F5DB"/><path d="M174.882 38.5593L173.715 37.3926L22.6627 188.445L23.8294 189.611L174.882 38.5593Z" fill="#F5F5DB"/></g><path d="M2.99964 173.552C3.55964 177.492 4.85962 181.222 6.84962 184.652C8.90962 188.202 11.6397 191.252 14.9497 193.742C20.0897 197.592 26.1796 199.712 32.5796 199.872C35.0996 199.932 37.6196 199.682 40.0796 199.122C43.1496 198.422 46.2496 198.122 49.3096 198.192C60.6296 198.462 71.4196 203.862 78.4196 213.182C80.5196 215.972 83.0297 218.482 85.8897 220.622C92.1597 225.332 99.5996 227.912 107.42 228.102C113.26 228.242 119.13 227.002 124.4 224.502C129.84 221.922 134.64 218.002 138.28 213.152C142.64 207.352 145.2 200.472 145.7 193.282C146.53 181.292 153.07 170.422 163.27 164.062C167.18 161.622 170.7 158.402 173.44 154.742C176.47 150.702 178.62 146.192 179.83 141.332C181 136.642 181.24 131.822 180.55 127.012C179.86 122.202 178.28 117.642 175.85 113.462C173.33 109.132 170.01 105.402 165.97 102.372C159.7 97.6618 152.26 95.0819 144.44 94.8919C138.6 94.7519 132.73 95.9918 127.46 98.4918C127.28 98.5718 127.1 98.6619 126.93 98.7519C121.38 101.502 115.36 102.772 109.41 102.622C101.25 102.422 93.1996 99.5718 86.6196 94.2118C86.3296 93.9818 86.0296 93.7419 85.7296 93.5219C81.0696 90.0219 75.7696 88.1819 69.9696 88.0419C61.1296 87.8319 52.6796 91.9218 47.3796 98.9918C45.1296 101.992 43.5997 105.202 42.6997 108.812C42.4397 109.872 42.2296 110.952 42.0996 112.032C40.4796 124.892 32.3396 136.012 20.5596 141.432C15.9296 143.562 11.8696 146.822 8.83961 150.862C6.35961 154.172 4.59963 157.872 3.60963 161.852C2.64963 165.702 2.4496 169.642 3.0196 173.582L2.99964 173.552Z" fill="#EAD363"/></svg>
