<svg width="337" height="324" viewBox="0 0 337 324" fill="none" xmlns="http://www.w3.org/2000/svg"><path d="M7.7668 99.8459C4.5568 104.456 2.30681 109.556 1.06681 115.006C-0.213193 120.646 -0.343198 126.426 0.686802 132.166C2.2868 141.086 6.53681 149.136 12.9968 155.446C15.5368 157.926 18.3868 160.096 21.4668 161.886C25.3068 164.116 28.7968 166.786 31.8868 169.806C43.3068 180.966 49.2668 196.926 47.5168 213.276C46.9968 218.176 47.1768 223.176 48.0668 228.146C50.0168 239.036 55.2168 248.856 63.0968 256.566C68.9868 262.326 76.2468 266.686 84.0768 269.176C92.1668 271.746 100.897 272.306 109.317 270.806C119.397 269.006 128.657 264.376 136.087 257.426C148.477 245.846 165.677 240.916 182.327 244.156C188.707 245.396 195.437 245.456 201.797 244.316C208.807 243.056 215.367 240.466 221.287 236.616C227.007 232.896 231.887 228.156 235.807 222.526C239.727 216.896 242.477 210.676 243.987 204.016C245.547 197.126 245.707 190.076 244.447 183.066C242.497 172.176 237.307 162.356 229.417 154.646C223.527 148.886 216.267 144.526 208.437 142.036C208.177 141.956 207.907 141.866 207.637 141.786C199.267 139.276 191.837 134.816 185.827 128.936C177.597 120.886 172.037 110.206 170.387 98.3359C170.317 97.8159 170.227 97.286 170.137 96.766C168.687 88.676 164.987 81.6759 159.127 75.9559C150.197 67.2359 137.547 63.336 125.277 65.526C120.067 66.456 115.397 68.306 110.997 71.166C109.697 72.006 108.457 72.936 107.287 73.906C93.2468 85.626 74.1468 89.266 56.7768 83.536C49.9468 81.276 42.6268 80.746 35.6068 82.006C29.8568 83.036 24.4868 85.156 19.6368 88.316C14.9568 91.366 10.9468 95.2459 7.73681 99.8559L7.7668 99.8459Z" fill="#EFAFAB"/><mask id="mask0_19_5830" style="mask-type:luminance" maskUnits="userSpaceOnUse" x="114" y="140" width="223" height="184"><path d="M116.527 196.716C114.797 201.256 113.967 206.016 114.067 210.856C114.167 215.866 115.267 220.746 117.337 225.356C120.547 232.516 125.797 238.386 132.547 242.346C135.197 243.896 138.047 245.126 141.007 245.986C144.707 247.056 148.187 248.566 151.417 250.456C163.347 257.446 171.687 269.606 173.637 283.706C174.217 287.936 175.427 292.096 177.207 296.086C181.117 304.826 187.537 311.996 195.777 316.826C201.937 320.436 208.937 322.576 216.047 323.036C223.387 323.506 230.837 322.156 237.597 319.126C245.687 315.506 252.497 309.686 257.297 302.286C265.287 289.966 278.707 282.226 293.367 281.466C298.987 281.176 304.657 279.816 309.757 277.526C315.387 275.006 320.357 271.456 324.527 266.976C328.557 262.656 331.667 257.646 333.787 252.106C335.907 246.556 336.917 240.756 336.787 234.846C336.657 228.726 335.317 222.776 332.797 217.146C328.887 208.406 322.467 201.236 314.227 196.406C308.067 192.796 301.067 190.656 293.957 190.196C293.717 190.176 293.477 190.166 293.237 190.156C285.677 189.796 278.497 187.596 272.227 183.926C263.627 178.886 256.717 171.066 252.857 161.446C252.687 161.026 252.507 160.596 252.317 160.176C249.407 153.686 244.837 148.576 238.717 144.986C229.397 139.526 217.947 138.896 208.097 143.306C203.917 145.176 200.377 147.706 197.277 151.026C196.367 152.006 195.507 153.046 194.727 154.106C185.377 166.886 170.097 173.946 154.307 172.756C148.097 172.286 141.837 173.376 136.207 175.896C131.597 177.966 127.527 180.866 124.107 184.536C120.807 188.076 118.257 192.176 116.527 196.716Z" fill="white"/></mask><g mask="url(#mask0_19_5830)"><path d="M97.0066 380.964L97.6682 383.499L425.159 298.029L424.497 295.494L97.0066 380.964Z" fill="#F1D3D7"/><path d="M94.7932 372.504L95.4548 375.039L422.945 289.569L422.284 287.034L94.7932 372.504Z" fill="#F1D3D7"/><path d="M92.5925 364.054L93.2542 366.589L420.743 281.113L420.082 278.578L92.5925 364.054Z" fill="#F1D3D7"/><path d="M90.3816 355.602L91.0432 358.137L418.534 272.668L417.872 270.132L90.3816 355.602Z" fill="#F1D3D7"/><path d="M88.1775 347.14L88.8391 349.675L416.33 264.205L415.668 261.669L88.1775 347.14Z" fill="#F1D3D7"/><path d="M85.9666 338.688L86.6282 341.223L414.12 255.757L413.458 253.222L85.9666 338.688Z" fill="#F1D3D7"/><path d="M83.7659 330.236L84.4275 332.771L411.918 247.301L411.256 244.766L83.7659 330.236Z" fill="#F1D3D7"/><path d="M81.5525 321.777L82.2141 324.312L409.705 238.842L409.043 236.307L81.5525 321.777Z" fill="#F1D3D7"/><path d="M79.3518 313.326L80.0134 315.861L407.503 230.386L406.841 227.851L79.3518 313.326Z" fill="#F1D3D7"/><path d="M77.1414 304.876L77.803 307.411L405.293 221.94L404.632 219.405L77.1414 304.876Z" fill="#F1D3D7"/><path d="M74.9368 296.412L75.5984 298.947L403.089 213.477L402.427 210.942L74.9368 296.412Z" fill="#F1D3D7"/><path d="M72.7351 287.958L73.3967 290.493L400.888 205.028L400.227 202.493L72.7351 287.958Z" fill="#F1D3D7"/><path d="M70.5251 279.51L71.1868 282.045L398.677 196.575L398.016 194.04L70.5251 279.51Z" fill="#F1D3D7"/><path d="M68.321 271.048L68.9827 273.583L396.473 188.113L395.812 185.578L68.321 271.048Z" fill="#F1D3D7"/><path d="M66.111 262.6L66.7727 265.135L394.262 179.659L393.6 177.124L66.111 262.6Z" fill="#F1D3D7"/><path d="M63.9094 254.145L64.571 256.68L392.061 171.209L391.4 168.674L63.9094 254.145Z" fill="#F1D3D7"/><path d="M61.6965 245.687L62.3582 248.222L389.849 162.753L389.187 160.217L61.6965 245.687Z" fill="#F1D3D7"/><path d="M59.4949 237.232L60.1565 239.767L387.648 154.301L386.987 151.766L59.4949 237.232Z" fill="#F1D3D7"/><path d="M57.2839 228.782L57.9456 231.317L385.436 145.847L384.774 143.312L57.2839 228.782Z" fill="#F1D3D7"/><path d="M55.0803 220.32L55.7419 222.855L383.232 137.385L382.571 134.85L55.0803 220.32Z" fill="#F1D3D7"/><path d="M52.8698 211.872L53.5315 214.407L381.021 128.932L380.359 126.397L52.8698 211.872Z" fill="#F1D3D7"/><path d="M50.6682 203.418L51.3298 205.953L378.82 120.483L378.159 117.948L50.6682 203.418Z" fill="#F1D3D7"/><path d="M48.4558 194.959L49.1174 197.494L376.608 112.023L375.946 109.488L48.4558 194.959Z" fill="#F1D3D7"/><path d="M46.2537 186.503L46.9153 189.038L374.407 103.573L373.745 101.038L46.2537 186.503Z" fill="#F1D3D7"/><path d="M44.0418 178.047L44.7034 180.582L372.194 95.1129L371.533 92.5778L44.0418 178.047Z" fill="#F1D3D7"/><path d="M41.8396 169.593L42.5012 172.128L369.992 86.6576L369.33 84.1226L41.8396 169.593Z" fill="#F1D3D7"/><path d="M39.6287 161.144L40.2903 163.679L367.781 78.2084L367.119 75.6733L39.6287 161.144Z" fill="#F1D3D7"/></g><path d="M102.976 3.09624C102.406 4.07624 101.146 4.40622 100.166 3.82622C99.1865 3.24622 98.8564 1.99629 99.4364 1.01629C100.016 0.0362864 101.266 -0.293694 102.246 0.286306C103.226 0.866306 103.556 2.11624 102.976 3.09624Z" fill="#EFAFAB"/><path d="M114.787 10.0163C114.217 10.9963 112.957 11.3262 111.977 10.7462C110.997 10.1762 110.667 8.9163 111.247 7.9363C111.827 6.9563 113.077 6.6262 114.057 7.2062C115.037 7.7862 115.367 9.03625 114.787 10.0163Z" fill="#EFAFAB"/><path d="M126.597 16.946C126.027 17.926 124.767 18.256 123.787 17.676C122.807 17.096 122.477 15.8459 123.057 14.8659C123.637 13.8859 124.887 13.5559 125.867 14.1359C126.847 14.7159 127.177 15.966 126.597 16.946Z" fill="#EFAFAB"/><path d="M93.6166 5.54656C93.0466 6.52656 91.7866 6.85654 90.8066 6.27654C89.8266 5.69654 89.4966 4.44648 90.0766 3.46648C90.6566 2.48648 91.9066 2.1565 92.8866 2.7365C93.8666 3.3165 94.1966 4.56656 93.6166 5.54656Z" fill="#EFAFAB"/><path d="M105.427 12.4664C104.857 13.4464 103.597 13.7765 102.617 13.1965C101.637 12.6265 101.307 11.3664 101.887 10.3864C102.467 9.4064 103.717 9.07642 104.697 9.65642C105.677 10.2364 106.007 11.4864 105.427 12.4664Z" fill="#EFAFAB"/><path d="M117.237 19.3864C116.667 20.3664 115.407 20.6964 114.427 20.1164C113.447 19.5364 113.117 18.2864 113.697 17.3064C114.277 16.3264 115.527 15.9963 116.507 16.5763C117.487 17.1563 117.817 18.4064 117.237 19.3864Z" fill="#EFAFAB"/><path d="M129.047 26.3063C128.477 27.2863 127.217 27.6163 126.237 27.0363C125.257 26.4563 124.927 25.2062 125.507 24.2262C126.087 23.2462 127.337 22.9163 128.317 23.4963C129.297 24.0763 129.627 25.3263 129.047 26.3063Z" fill="#EFAFAB"/><path d="M84.2469 7.98589C83.6769 8.96589 82.4169 9.29587 81.4369 8.71587C80.4569 8.13587 80.127 6.88593 80.707 5.90593C81.277 4.92593 82.537 4.59595 83.517 5.17595C84.497 5.75595 84.8269 7.00589 84.2469 7.98589Z" fill="#EFAFAB"/><path d="M94.2866 15.9164C95.4187 15.9164 96.3365 14.9985 96.3365 13.8663C96.3365 12.7341 95.4187 11.8164 94.2866 11.8164C93.1544 11.8164 92.2366 12.7341 92.2366 13.8663C92.2366 14.9985 93.1544 15.9164 94.2866 15.9164Z" fill="#EFAFAB"/><path d="M107.867 21.8267C107.297 22.8067 106.037 23.1368 105.057 22.5568C104.077 21.9868 103.747 20.7268 104.327 19.7468C104.907 18.7668 106.157 18.4368 107.137 19.0168C108.117 19.5968 108.447 20.8467 107.867 21.8267Z" fill="#EFAFAB"/><path d="M117.907 29.766C119.039 29.766 119.957 28.8481 119.957 27.7159C119.957 26.5838 119.039 25.666 117.907 25.666C116.774 25.666 115.857 26.5838 115.857 27.7159C115.857 28.8481 116.774 29.766 117.907 29.766Z" fill="#EFAFAB"/><path d="M131.487 35.6764C130.917 36.6564 129.657 36.9864 128.677 36.4064C127.697 35.8264 127.367 34.5764 127.947 33.5964C128.527 32.6164 129.777 32.2864 130.757 32.8664C131.737 33.4464 132.067 34.6964 131.487 35.6764Z" fill="#EFAFAB"/><path d="M73.1064 11.4458C74.2386 11.4458 75.1564 10.5279 75.1564 9.39575C75.1564 8.26357 74.2386 7.3457 73.1064 7.3457C71.9742 7.3457 71.0564 8.26357 71.0564 9.39575C71.0564 10.5279 71.9742 11.4458 73.1064 11.4458Z" fill="#EFAFAB"/><path d="M86.6967 17.356C86.1267 18.336 84.8667 18.666 83.8867 18.086C82.9067 17.506 82.5767 16.2561 83.1567 15.2761C83.7367 14.2961 84.9867 13.9661 85.9667 14.5461C86.9467 15.1261 87.2767 16.376 86.6967 17.356Z" fill="#EFAFAB"/><path d="M98.5067 24.276C97.9367 25.256 96.6767 25.586 95.6967 25.006C94.7167 24.426 94.3867 23.1761 94.9667 22.1961C95.5467 21.2161 96.7967 20.886 97.7767 21.466C98.7567 22.046 99.0867 23.296 98.5067 24.276Z" fill="#EFAFAB"/><path d="M110.317 31.196C109.747 32.176 108.487 32.506 107.507 31.926C106.527 31.346 106.197 30.0959 106.777 29.1159C107.357 28.1359 108.607 27.8059 109.587 28.3859C110.567 28.9659 110.897 30.216 110.317 31.196Z" fill="#EFAFAB"/><path d="M120.347 39.1263C121.479 39.1263 122.397 38.2085 122.397 37.0763C122.397 35.9441 121.479 35.0264 120.347 35.0264C119.214 35.0264 118.297 35.9441 118.297 37.0763C118.297 38.2085 119.214 39.1263 120.347 39.1263Z" fill="#EFAFAB"/><path d="M133.936 45.0358C133.366 46.0158 132.106 46.3458 131.126 45.7658C130.146 45.1858 129.816 43.9357 130.396 42.9557C130.976 41.9757 132.226 41.6458 133.206 42.2258C134.186 42.8058 134.516 44.0558 133.936 45.0358Z" fill="#EFAFAB"/><path d="M65.5165 12.8765C64.9465 13.8565 63.6865 14.1865 62.7065 13.6065C61.7265 13.0365 61.3965 11.7766 61.9765 10.7966C62.5565 9.81656 63.8065 9.48658 64.7865 10.0666C65.7665 10.6466 66.0965 11.8965 65.5165 12.8765Z" fill="#EFAFAB"/><path d="M77.327 19.7966C76.757 20.7766 75.497 21.1065 74.517 20.5265C73.537 19.9465 73.207 18.6965 73.787 17.7165C74.367 16.7365 75.617 16.4065 76.597 16.9865C77.577 17.5565 77.907 18.8166 77.327 19.7966Z" fill="#EFAFAB"/><path d="M89.1366 26.7164C88.5666 27.6964 87.3066 28.0265 86.3266 27.4465C85.3466 26.8765 85.0166 25.6164 85.5966 24.6364C86.1766 23.6564 87.4266 23.3264 88.4066 23.9064C89.3866 24.4864 89.7166 25.7364 89.1366 26.7164Z" fill="#EFAFAB"/><path d="M100.947 33.6364C100.377 34.6164 99.1167 34.9464 98.1367 34.3664C97.1567 33.7964 96.8267 32.5364 97.4067 31.5564C97.9867 30.5764 99.2367 30.2463 100.217 30.8263C101.197 31.3963 101.527 32.6564 100.947 33.6364Z" fill="#EFAFAB"/><path d="M112.757 40.5661C112.187 41.5461 110.927 41.8761 109.947 41.2961C108.967 40.7161 108.637 39.466 109.217 38.486C109.797 37.506 111.047 37.176 112.027 37.756C113.007 38.336 113.337 39.5861 112.757 40.5661Z" fill="#EFAFAB"/><path d="M124.567 47.4859C123.997 48.4659 122.737 48.7959 121.757 48.2159C120.777 47.6359 120.447 46.3859 121.027 45.4059C121.607 44.4259 122.857 44.096 123.837 44.676C124.817 45.256 125.147 46.5059 124.567 47.4859Z" fill="#EFAFAB"/><path d="M136.377 54.4059C135.807 55.3859 134.547 55.7159 133.567 55.1359C132.587 54.5559 132.257 53.3059 132.837 52.3259C133.417 51.3459 134.667 51.0159 135.647 51.5959C136.627 52.1759 136.957 53.4259 136.377 54.4059Z" fill="#EFAFAB"/><path d="M67.9569 22.2466C67.3869 23.2266 66.1269 23.5566 65.1469 22.9766C64.1669 22.3966 63.8369 21.1467 64.4169 20.1667C64.9969 19.1867 66.2469 18.8567 67.2269 19.4367C68.2069 20.0067 68.5369 21.2666 67.9569 22.2466Z" fill="#EFAFAB"/><path d="M79.7665 29.1667C79.1965 30.1467 77.9365 30.4767 76.9565 29.8967C75.9765 29.3167 75.6465 28.0666 76.2265 27.0866C76.8065 26.1066 78.0565 25.7766 79.0365 26.3566C80.0165 26.9366 80.3465 28.1867 79.7665 29.1667Z" fill="#EFAFAB"/><path d="M91.577 36.0865C91.007 37.0665 89.747 37.3966 88.767 36.8166C87.787 36.2366 87.457 34.9865 88.037 34.0065C88.617 33.0265 89.867 32.6965 90.847 33.2765C91.827 33.8565 92.157 35.1065 91.577 36.0865Z" fill="#EFAFAB"/><path d="M103.387 43.0064C102.817 43.9864 101.557 44.3164 100.577 43.7364C99.5966 43.1564 99.2666 41.9064 99.8466 40.9264C100.427 39.9464 101.677 39.6165 102.657 40.1965C103.637 40.7665 103.967 42.0264 103.387 43.0064Z" fill="#EFAFAB"/><path d="M115.197 49.9264C114.627 50.9064 113.367 51.2364 112.387 50.6564C111.407 50.0764 111.077 48.8264 111.657 47.8464C112.237 46.8664 113.487 46.5364 114.467 47.1164C115.447 47.6864 115.777 48.9464 115.197 49.9264Z" fill="#EFAFAB"/><path d="M127.007 56.8462C126.437 57.8262 125.177 58.1562 124.197 57.5762C123.217 56.9962 122.887 55.7463 123.467 54.7663C124.047 53.7863 125.297 53.4563 126.277 54.0363C127.257 54.6063 127.587 55.8662 127.007 56.8462Z" fill="#EFAFAB"/><path d="M58.5966 24.6862C58.0266 25.6662 56.7666 25.9962 55.7866 25.4162C54.8066 24.8362 54.4766 23.5861 55.0566 22.6061C55.6366 21.6261 56.8866 21.2961 57.8666 21.8761C58.8466 22.4561 59.1766 23.7062 58.5966 24.6862Z" fill="#EFAFAB"/><path d="M70.4066 31.606C69.8366 32.586 68.5766 32.916 67.5966 32.336C66.6166 31.766 66.2866 30.5061 66.8666 29.5261C67.4466 28.5461 68.6966 28.2161 69.6766 28.7961C70.6566 29.3761 70.9866 30.626 70.4066 31.606Z" fill="#EFAFAB"/><path d="M82.2167 38.526C81.6467 39.506 80.3867 39.836 79.4067 39.256C78.4267 38.676 78.0967 37.4261 78.6767 36.4461C79.2567 35.4661 80.5067 35.136 81.4867 35.716C82.4667 36.296 82.7967 37.546 82.2167 38.526Z" fill="#EFAFAB"/><path d="M94.0267 45.446C93.4567 46.426 92.1967 46.756 91.2167 46.176C90.2367 45.596 89.9067 44.3459 90.4867 43.3659C91.0667 42.3859 92.3167 42.0559 93.2967 42.6359C94.2767 43.2159 94.6067 44.466 94.0267 45.446Z" fill="#EFAFAB"/><path d="M105.837 52.3765C105.267 53.3565 104.007 53.6865 103.027 53.1065C102.047 52.5365 101.717 51.2766 102.297 50.2966C102.877 49.3166 104.127 48.9866 105.107 49.5666C106.087 50.1466 106.417 51.3965 105.837 52.3765Z" fill="#EFAFAB"/><path d="M117.646 59.2966C117.076 60.2766 115.816 60.6065 114.836 60.0265C113.856 59.4465 113.526 58.1965 114.106 57.2165C114.686 56.2365 115.936 55.9065 116.916 56.4865C117.896 57.0665 118.226 58.3166 117.646 59.2966Z" fill="#EFAFAB"/><path d="M129.457 66.2164C128.887 67.1964 127.627 67.5265 126.647 66.9465C125.667 66.3665 125.337 65.1164 125.917 64.1364C126.497 63.1564 127.747 62.8264 128.727 63.4064C129.707 63.9764 130.037 65.2364 129.457 66.2164Z" fill="#EFAFAB"/><path d="M59.2666 35.0659C60.3987 35.0659 61.3166 34.1481 61.3166 33.0159C61.3166 31.8837 60.3987 30.9658 59.2666 30.9658C58.1344 30.9658 57.2166 31.8837 57.2166 33.0159C57.2166 34.1481 58.1344 35.0659 59.2666 35.0659Z" fill="#EFAFAB"/><path d="M72.8466 40.9761C72.2766 41.9561 71.0166 42.2861 70.0366 41.7061C69.0566 41.1261 68.7266 39.8762 69.3066 38.8962C69.8766 37.9162 71.1366 37.5862 72.1166 38.1662C73.0966 38.7462 73.4266 39.9961 72.8466 40.9761Z" fill="#EFAFAB"/><path d="M84.6566 47.8961C84.0866 48.8761 82.8266 49.2061 81.8466 48.6261C80.8666 48.0461 80.5366 46.7962 81.1166 45.8162C81.6966 44.8362 82.9466 44.5061 83.9266 45.0861C84.9066 45.6661 85.2366 46.9161 84.6566 47.8961Z" fill="#EFAFAB"/><path d="M96.4667 54.8161C95.8967 55.7961 94.6367 56.1261 93.6567 55.5461C92.6767 54.9661 92.3467 53.716 92.9267 52.736C93.4967 51.756 94.7567 51.426 95.7367 52.006C96.7167 52.586 97.0467 53.8361 96.4667 54.8161Z" fill="#EFAFAB"/><path d="M106.507 62.7465C107.639 62.7465 108.557 61.8287 108.557 60.6965C108.557 59.5643 107.639 58.6465 106.507 58.6465C105.375 58.6465 104.457 59.5643 104.457 60.6965C104.457 61.8287 105.375 62.7465 106.507 62.7465Z" fill="#EFAFAB"/><path d="M120.087 68.6559C119.517 69.6359 118.257 69.9659 117.277 69.3859C116.297 68.8059 115.967 67.5559 116.547 66.5759C117.127 65.5959 118.377 65.2659 119.357 65.8459C120.337 66.4259 120.667 67.6759 120.087 68.6559Z" fill="#EFAFAB"/><path d="M49.9067 37.5062C51.0389 37.5062 51.9567 36.5884 51.9567 35.4562C51.9567 34.324 51.0389 33.4062 49.9067 33.4062C48.7745 33.4062 47.8567 34.324 47.8567 35.4562C47.8567 36.5884 48.7745 37.5062 49.9067 37.5062Z" fill="#EFAFAB"/><path d="M63.4867 43.4167C62.9167 44.3967 61.6567 44.7267 60.6767 44.1467C59.6967 43.5667 59.3667 42.3166 59.9467 41.3366C60.5267 40.3566 61.7767 40.0266 62.7567 40.6066C63.7367 41.1866 64.0667 42.4367 63.4867 43.4167Z" fill="#EFAFAB"/><path d="M73.5268 51.3461C74.659 51.3461 75.5768 50.4283 75.5768 49.2961C75.5768 48.164 74.659 47.2461 73.5268 47.2461C72.3946 47.2461 71.4768 48.164 71.4768 49.2961C71.4768 50.4283 72.3946 51.3461 73.5268 51.3461Z" fill="#EFAFAB"/><path d="M87.1068 57.2564C86.5368 58.2364 85.2768 58.5664 84.2968 57.9864C83.3168 57.4164 82.9868 56.1564 83.5668 55.1764C84.1468 54.1964 85.3968 53.8665 86.3768 54.4465C87.3568 55.0265 87.6868 56.2764 87.1068 57.2564Z" fill="#EFAFAB"/><path d="M97.1464 65.1958C98.2786 65.1958 99.1964 64.2779 99.1964 63.1458C99.1964 62.0136 98.2786 61.0957 97.1464 61.0957C96.0142 61.0957 95.0964 62.0136 95.0964 63.1458C95.0964 64.2779 96.0142 65.1958 97.1464 65.1958Z" fill="#EFAFAB"/><path d="M110.726 71.106C110.156 72.086 108.896 72.416 107.916 71.836C106.936 71.266 106.606 70.0061 107.186 69.0261C107.756 68.0461 109.016 67.7161 109.996 68.2961C110.976 68.8761 111.306 70.126 110.726 71.106Z" fill="#EFAFAB"/><path d="M120.767 79.0365C121.899 79.0365 122.817 78.1186 122.817 76.9865C122.817 75.8543 121.899 74.9365 120.767 74.9365C119.634 74.9365 118.717 75.8543 118.717 76.9865C118.717 78.1186 119.634 79.0365 120.767 79.0365Z" fill="#EFAFAB"/><path d="M54.1166 45.8658C53.5466 46.8458 52.2866 47.1758 51.3066 46.5958C50.3266 46.0158 49.9966 44.7658 50.5766 43.7858C51.1466 42.8058 52.4066 42.4758 53.3866 43.0558C54.3666 43.6258 54.6966 44.8858 54.1166 45.8658Z" fill="#EFAFAB"/><path d="M65.9267 52.7858C65.3567 53.7658 64.0966 54.0958 63.1166 53.5158C62.1366 52.9458 61.8066 51.6857 62.3866 50.7057C62.9666 49.7257 64.2166 49.3958 65.1966 49.9758C66.1766 50.5558 66.5067 51.8058 65.9267 52.7858Z" fill="#EFAFAB"/><path d="M77.7367 59.7066C77.1667 60.6866 75.9067 61.0167 74.9267 60.4367C73.9467 59.8567 73.6167 58.6066 74.1967 57.6266C74.7767 56.6466 76.0267 56.3167 77.0067 56.8967C77.9867 57.4767 78.3167 58.7266 77.7367 59.7066Z" fill="#EFAFAB"/><path d="M89.5468 66.6265C88.9768 67.6065 87.7168 67.9365 86.7368 67.3565C85.7568 66.7765 85.4268 65.5266 86.0068 64.5466C86.5868 63.5666 87.8368 63.2366 88.8168 63.8166C89.7968 64.3866 90.1268 65.6465 89.5468 66.6265Z" fill="#EFAFAB"/><path d="M101.357 73.5466C100.787 74.5266 99.5268 74.8565 98.5468 74.2765C97.5668 73.6965 97.2368 72.4465 97.8168 71.4665C98.3968 70.4865 99.6468 70.1565 100.627 70.7365C101.607 71.3165 101.937 72.5666 101.357 73.5466Z" fill="#EFAFAB"/><path d="M113.167 80.4664C112.597 81.4464 111.337 81.7765 110.357 81.1965C109.377 80.6265 109.047 79.3664 109.627 78.3864C110.207 77.4064 111.457 77.0764 112.437 77.6564C113.417 78.2364 113.747 79.4864 113.167 80.4664Z" fill="#EFAFAB"/><path d="M56.5668 55.2261C55.9968 56.2061 54.7368 56.5361 53.7568 55.9561C52.7768 55.3761 52.4468 54.1262 53.0268 53.1462C53.6068 52.1662 54.8568 51.8362 55.8368 52.4162C56.8168 52.9962 57.1468 54.2461 56.5668 55.2261Z" fill="#EFAFAB"/><path d="M68.3768 62.1461C67.8068 63.1261 66.5468 63.4561 65.5668 62.8761C64.5868 62.2961 64.2568 61.0462 64.8368 60.0662C65.4168 59.0862 66.6668 58.7561 67.6468 59.3361C68.6268 59.9161 68.9568 61.1661 68.3768 62.1461Z" fill="#EFAFAB"/><path d="M80.1864 69.0661C79.6164 70.0461 78.3564 70.3761 77.3764 69.7961C76.3964 69.2161 76.0664 67.966 76.6464 66.986C77.2264 66.006 78.4764 65.676 79.4564 66.256C80.4364 66.826 80.7664 68.0861 80.1864 69.0661Z" fill="#EFAFAB"/><path d="M91.9969 75.9966C91.4269 76.9766 90.1669 77.3066 89.1869 76.7266C88.2069 76.1466 87.877 74.8967 88.457 73.9167C89.037 72.9367 90.287 72.6067 91.267 73.1867C92.247 73.7667 92.5769 75.0166 91.9969 75.9966Z" fill="#EFAFAB"/><path d="M103.807 82.9167C103.237 83.8967 101.977 84.2267 100.997 83.6467C100.017 83.0667 99.6865 81.8166 100.267 80.8366C100.847 79.8566 102.097 79.5266 103.077 80.1066C104.057 80.6866 104.387 81.9367 103.807 82.9167Z" fill="#EFAFAB"/><path d="M59.0067 64.5962C58.4367 65.5762 57.1767 65.9062 56.1967 65.3262C55.2167 64.7462 54.8867 63.4963 55.4667 62.5163C56.0467 61.5363 57.2967 61.2063 58.2767 61.7863C59.2567 62.3663 59.5867 63.6162 59.0067 64.5962Z" fill="#EFAFAB"/><path d="M70.8168 71.5163C70.2468 72.4963 68.9868 72.8262 68.0068 72.2462C67.0268 71.6662 66.6968 70.4163 67.2768 69.4363C67.8468 68.4563 69.1068 68.1262 70.0868 68.7062C71.0668 69.2862 71.3968 70.5363 70.8168 71.5163Z" fill="#EFAFAB"/><path d="M82.6268 78.4362C82.0568 79.4162 80.7968 79.7462 79.8168 79.1662C78.8368 78.5862 78.5068 77.3361 79.0868 76.3561C79.6568 75.3761 80.9168 75.0461 81.8968 75.6261C82.8768 76.2061 83.2068 77.4562 82.6268 78.4362Z" fill="#EFAFAB"/><path d="M92.667 86.3666C93.7991 86.3666 94.7169 85.4488 94.7169 84.3167C94.7169 83.1845 93.7991 82.2666 92.667 82.2666C91.5348 82.2666 90.6169 83.1845 90.6169 84.3167C90.6169 85.4488 91.5348 86.3666 92.667 86.3666Z" fill="#EFAFAB"/><path d="M61.4467 73.9566C60.8767 74.9366 59.6167 75.2667 58.6367 74.6867C57.6567 74.1067 57.3267 72.8566 57.9067 71.8766C58.4867 70.8966 59.7367 70.5667 60.7167 71.1467C61.6967 71.7267 62.0267 72.9766 61.4467 73.9566Z" fill="#EFAFAB"/><path d="M73.2567 80.8765C72.6867 81.8565 71.4267 82.1865 70.4467 81.6065C69.4667 81.0365 69.1367 79.7766 69.7167 78.7966C70.2967 77.8166 71.5467 77.4866 72.5267 78.0666C73.5067 78.6466 73.8367 79.8965 73.2567 80.8765Z" fill="#EFAFAB"/><path d="M85.0668 87.8063C84.4968 88.7863 83.2368 89.1163 82.2568 88.5363C81.2768 87.9663 80.9468 86.7062 81.5268 85.7262C82.1068 84.7462 83.3568 84.4163 84.3368 84.9963C85.3168 85.5663 85.6468 86.8263 85.0668 87.8063Z" fill="#EFAFAB"/></svg>
