<svg width="31" height="30" viewBox="0 0 31 30" fill="none" xmlns="http://www.w3.org/2000/svg">
<path d="M9.2877 0.103821C7.69168 0.179121 6.60147 0.434721 5.64896 0.80792C4.66285 1.19222 3.82704 1.70762 2.99543 2.54252C2.16292 3.37802 1.65172 4.21531 1.27012 5.20231C0.900811 6.15721 0.650309 7.24801 0.580108 8.84491C0.509907 10.4451 0.494007 10.9554 0.501807 15.0288C0.509607 19.1016 0.527607 19.6128 0.603808 21.2133C0.680009 22.809 0.934712 23.8986 1.30792 24.8517C1.69282 25.8378 2.20763 26.6733 3.04283 27.5052C3.87774 28.3371 4.71565 28.848 5.70326 29.2299C6.65727 29.5989 7.74838 29.85 9.345 29.9199C10.9449 29.9904 11.4558 30.006 15.5281 29.9982C19.6021 29.9904 20.113 29.9724 21.7129 29.8965C23.309 29.8203 24.398 29.5647 25.3517 29.1924C26.3378 28.8066 27.1736 28.2927 28.0052 27.4575C28.8368 26.6226 29.348 25.7847 29.7296 24.7971C30.0989 23.8431 30.3503 22.752 30.4196 21.1563C30.4895 19.5555 30.506 19.044 30.4982 14.9715C30.4904 10.8984 30.4721 10.3881 30.3962 8.78851C30.3203 7.19161 30.0647 6.10231 29.6921 5.14891C29.3066 4.16282 28.7924 3.32792 27.9575 2.49542C27.1226 1.66382 26.2847 1.15172 25.2971 0.77102C24.3425 0.401721 23.2519 0.150021 21.6553 0.0810211C20.0557 0.0096212 19.5451 -0.00597877 15.4714 0.00182122C11.3985 0.0096212 10.8879 0.0270212 9.288 0.103821M9.4629 27.2202C8.00039 27.1566 7.20628 26.9136 6.67707 26.7099C5.97626 26.4387 5.47616 26.1135 4.94965 25.5912C4.42435 25.0668 4.09825 24.5682 3.82464 23.8689C3.61914 23.3397 3.37164 22.5465 3.30324 21.084C3.22884 19.503 3.21174 19.0287 3.20454 15.0234C3.19674 11.0193 3.21144 10.5447 3.28044 8.96251C3.34314 7.50121 3.58764 6.70591 3.79074 6.17731C4.06194 5.47561 4.38595 4.97641 4.90945 4.44991C5.43386 3.92372 5.93247 3.59852 6.63237 3.32492C7.16128 3.11822 7.95419 2.87282 9.4161 2.80352C10.998 2.72852 11.472 2.71262 15.4762 2.70482C19.4812 2.69702 19.9558 2.71112 21.538 2.78072C22.9993 2.84432 23.7947 3.08642 24.323 3.29102C25.0244 3.56222 25.5245 3.88532 26.0504 4.40971C26.5763 4.93411 26.9024 5.43181 27.176 6.13321C27.3824 6.66061 27.6281 7.45471 27.6971 8.91601C27.7724 10.4979 27.7895 10.9722 27.7967 14.9766C27.8045 18.9819 27.7898 19.4562 27.7205 21.0375C27.6569 22.5 27.4142 23.2944 27.2102 23.8242C26.939 24.5244 26.6147 25.0245 26.0909 25.551C25.5671 26.0754 25.0685 26.4024 24.368 26.676C23.8403 26.8821 23.0461 27.1281 21.5851 27.1974C20.0032 27.2718 19.5292 27.2889 15.5236 27.2961C11.5194 27.3039 11.0454 27.2889 9.4632 27.2202M21.691 6.98191C21.6928 7.97521 22.5007 8.77951 23.4941 8.77771C24.488 8.77591 25.2923 7.96861 25.2908 6.97501C25.2887 5.98171 24.4811 5.17681 23.4872 5.17861C22.4932 5.18041 21.6889 5.98831 21.6907 6.98161M7.79818 15.0147C7.80628 19.2687 11.2614 22.7097 15.5146 22.7013C19.768 22.6929 23.2108 19.239 23.2027 14.985C23.1943 10.7325 19.7389 7.28971 15.4849 7.29781C11.2317 7.30621 7.78978 10.7616 7.79818 15.0147ZM10.5 15.0093C10.4952 12.2484 12.7299 10.0053 15.4903 10.0005C18.2512 9.99511 20.4946 12.2289 20.5 14.9904C20.5054 17.7519 18.2707 19.9944 15.5092 19.9998C12.7485 20.0052 10.5051 17.7711 10.5 15.0096" fill="url(#paint0_radial_2470_1872)"/>
<defs>
<radialGradient id="paint0_radial_2470_1872" cx="0" cy="0" r="1" gradientUnits="userSpaceOnUse" gradientTransform="translate(8.46875 32.3106) rotate(-90) scale(29.7322 27.6533)">
<stop stop-color="#FFDD55"/>
<stop offset="0.1" stop-color="#FFDD55"/>
<stop offset="0.5" stop-color="#FF543E"/>
<stop offset="1" stop-color="#C837AB"/>
</radialGradient>
</defs>
</svg>
